<?xml version="1.0" encoding="UTF-8" standalone="no"?><!DOCTYPE svg PUBLIC "-//W3C//DTD SVG 1.1//EN" "http://www.w3.org/Graphics/SVG/1.1/DTD/svg11.dtd"><svg width="100%" height="100%" viewBox="0 0 1257 1510" version="1.1" xmlns="http://www.w3.org/2000/svg" xmlns:xlink="http://www.w3.org/1999/xlink" xml:space="preserve" xmlns:serif="http://www.serif.com/" style="fill-rule:evenodd;clip-rule:evenodd;stroke-linejoin:round;stroke-miterlimit:2;"><path d="M73.992,1101.45l30.433,0l0,-30.433l-30.433,-0l-0,30.433Zm38.296,7.863l-46.163,-0l0,-46.163l46.163,0l-0,46.163Z" style="fill:#e6e8ef;fill-rule:nonzero;"/><path d="M575.829,1046.11l-0.033,0c-1.588,0 -2.975,0.63 -4.129,1.534l-0.7,0.471c-1.109,1.116 -1.754,2.641 -1.888,4.304l-0.108,0.533c-0,0.85 0.2,1.638 0.483,2.379l0.325,0.675c0.25,0.492 0.554,0.938 0.913,1.354l0.533,0.592c0.55,0.496 1.154,0.933 1.842,1.238c0.85,0.375 1.779,0.604 2.762,0.604c3.05,-0 5.542,-2.034 6.429,-4.788c0.234,-0.629 0.4,-1.291 0.405,-2.012l0.008,-0.042c-0,-3.775 -3.063,-6.842 -6.842,-6.842Zm100.342,-85.37c-0.663,-0.275 -1.4,-0.392 -2.158,-0.434l-0.38,-0.079l-0.037,0c-3.779,0 -6.821,3.063 -6.821,6.842c0,0.921 0.188,1.787 0.525,2.579c0.229,0.562 0.608,1.017 0.971,1.492l0.387,0.57c1.138,1.213 2.705,1.955 4.459,2.092l0.025,0.008l0.004,-0.004l0.487,0.1c3.775,0 6.842,-3.062 6.842,-6.837c0,-2.879 -1.787,-5.321 -4.304,-6.329Zm-247.042,-129.342l-0.037,-0c-3.779,-0 -6.821,3.062 -6.821,6.842c-0,3.775 3.083,6.837 6.858,6.837c3.775,0 6.842,-3.062 6.842,-6.837c-0,-3.78 -3.067,-6.842 -6.842,-6.842Zm0,171.771l-0.037,-0c-3.779,-0 -6.821,3.062 -6.821,6.837c-0,3.784 3.083,6.846 6.858,6.846c3.775,0 6.842,-3.062 6.842,-6.846c-0,-3.775 -3.067,-6.837 -6.842,-6.837Zm48.896,-115.142c3.779,0 6.842,-3.062 6.842,-6.842c-0,-3.779 -3.063,-6.841 -6.842,-6.841l-0.033,-0c-3.775,-0 -6.821,3.062 -6.821,6.841c-0,3.78 3.079,6.842 6.854,6.842Zm-48.896,-99.571l-0.037,0c-3.779,0 -6.821,3.063 -6.821,6.838c-0,3.775 3.083,6.846 6.858,6.846c3.775,-0 6.842,-3.071 6.842,-6.846c-0,-3.775 -3.067,-6.838 -6.842,-6.838Zm0,128.829l-0.037,0c-3.779,0 -6.821,3.067 -6.821,6.842c-0,3.775 3.083,6.842 6.858,6.842c3.775,-0 6.842,-3.067 6.842,-6.842c-0,-3.775 -3.067,-6.842 -6.842,-6.842Zm0,42.942l-0.037,0c-3.779,0 -6.821,3.063 -6.821,6.842c-0,3.775 3.083,6.837 6.858,6.837c3.775,0 6.842,-3.062 6.842,-6.837c-0,-3.779 -3.067,-6.842 -6.842,-6.842Zm48.896,-158.087c3.779,-0 6.842,-3.071 6.842,-6.846c-0,-3.775 -3.063,-6.838 -6.842,-6.838l-0.033,0c-3.775,0 -6.821,3.063 -6.821,6.838c-0,3.775 3.079,6.846 6.854,6.846Zm0,42.937c3.779,0 6.842,-3.062 6.842,-6.837c-0,-3.78 -3.063,-6.842 -6.842,-6.842l-0.033,-0c-3.775,-0 -6.821,3.062 -6.821,6.842c-0,3.775 3.079,6.837 6.854,6.837Zm0,-85.883c3.779,-0 6.842,-3.063 6.842,-6.842c-0,-3.775 -3.063,-6.837 -6.842,-6.837l-0.033,-0c-3.775,-0 -6.821,3.062 -6.821,6.837c-0,3.779 3.079,6.842 6.854,6.842Zm-48.896,115.15l-0.037,-0c-3.779,-0 -6.821,3.062 -6.821,6.841c-0,3.78 3.083,6.842 6.858,6.842c3.775,0 6.842,-3.062 6.842,-6.842c-0,-3.779 -3.067,-6.841 -6.842,-6.841Zm-48.904,42.941l-0.033,0c-3.779,0 -6.825,3.067 -6.825,6.842c-0,3.775 3.083,6.842 6.858,6.842c3.779,-0 6.842,-3.067 6.842,-6.842c-0,-3.775 -3.063,-6.842 -6.842,-6.842Zm0,-42.941l-0.033,-0c-3.779,-0 -6.825,3.062 -6.825,6.841c-0,3.78 3.083,6.842 6.858,6.842c3.779,0 6.842,-3.062 6.842,-6.842c-0,-3.779 -3.063,-6.841 -6.842,-6.841Zm0,85.883l-0.033,0c-0.863,0 -1.667,0.192 -2.413,0.488c-0.379,0.145 -0.691,0.375 -1.037,0.583l-0.842,0.571c-0.446,0.371 -0.804,0.796 -1.146,1.266l-0.196,0.292c-0.37,0.575 -0.645,1.183 -0.829,1.858l-0.008,0.009l0.004,0.004c-0.158,0.575 -0.358,1.137 -0.358,1.771c-0,2.691 1.604,4.971 3.875,6.087l0.004,0.004l0.004,0c0.9,0.438 1.875,0.734 2.942,0.738l0.033,0.008c3.779,0 6.842,-3.062 6.842,-6.837c-0,-0.946 -0.192,-1.846 -0.538,-2.667c-1.037,-2.454 -3.466,-4.175 -6.304,-4.175Zm244.508,-85.883l-0.037,-0c-3.779,-0 -6.825,3.062 -6.825,6.841c-0,3.78 3.083,6.842 6.862,6.842c3.775,0 6.838,-3.062 6.838,-6.842c-0,-3.779 -3.063,-6.841 -6.838,-6.841Zm-244.508,-42.946l-0.033,-0c-0.779,-0 -1.5,0.171 -2.179,0.442c-0.621,0.208 -1.155,0.533 -1.68,0.904l-0.004,0.004c-1.75,1.237 -2.962,3.179 -2.962,5.492l0.171,0.82l-0.005,0.005l0.009,0.016c0.216,1.667 0.962,3.138 2.158,4.209l0.538,0.362c0.466,0.342 0.916,0.7 1.466,0.913c0.779,0.325 1.621,0.512 2.521,0.512c2.838,0 5.267,-1.725 6.304,-4.179c0.346,-0.817 0.538,-1.717 0.538,-2.658c-0,-0.946 -0.192,-1.846 -0.538,-2.663c-1.037,-2.458 -3.466,-4.179 -6.304,-4.179Zm244.508,85.887l-0.037,0c-3.779,0 -6.825,3.067 -6.825,6.842c-0,3.775 3.083,6.842 6.862,6.842c3.775,-0 6.838,-3.067 6.838,-6.842c-0,-3.775 -3.063,-6.842 -6.838,-6.842Zm0,-85.887l-0.037,-0c-3.779,-0 -6.825,3.062 -6.825,6.842c-0,3.775 3.083,6.837 6.862,6.837c3.775,0 6.838,-3.062 6.838,-6.837c-0,-3.78 -3.063,-6.842 -6.838,-6.842Zm0,171.771l-0.037,-0c-3.779,-0 -6.825,3.062 -6.825,6.837c-0,3.784 3.083,6.846 6.862,6.846c3.775,0 6.838,-3.062 6.838,-6.846c-0,-3.775 -3.063,-6.837 -6.838,-6.837Zm0,-42.942l-0.037,0c-3.779,0 -6.825,3.063 -6.825,6.842c-0,3.775 3.083,6.837 6.862,6.837c3.775,0 6.838,-3.062 6.838,-6.837c-0,-3.779 -3.063,-6.842 -6.838,-6.842Zm-48.904,-201.033c3.779,-0 6.838,-3.063 6.838,-6.842l-0,-0.004c-0,-1.113 -0.329,-2.121 -0.8,-3.046l-0.159,-0.233c-0.495,-0.879 -1.17,-1.609 -1.995,-2.192c-1.117,-0.796 -2.413,-1.362 -3.884,-1.362l-0.033,-0c-3.783,-0 -6.829,3.062 -6.829,6.837c-0,3.779 3.087,6.842 6.862,6.842Zm48.904,29.262l-0.037,0c-3.779,0 -6.825,3.063 -6.825,6.838c-0,3.775 3.083,6.846 6.862,6.846c3.775,-0 6.838,-3.071 6.838,-6.846c-0,-3.775 -3.063,-6.838 -6.838,-6.838Zm-48.904,42.942l-0.033,-0c-3.783,-0 -6.825,3.062 -6.825,6.842c-0,3.775 3.083,6.837 6.858,6.837c3.779,0 6.838,-3.062 6.838,-6.837c-0,-3.78 -3.059,-6.842 -6.838,-6.842Zm0,128.829l-0.033,0c-3.783,0 -6.825,3.063 -6.825,6.842c-0,3.775 3.083,6.837 6.858,6.837c3.779,0 6.838,-3.062 6.838,-6.837c-0,-3.779 -3.059,-6.842 -6.838,-6.842Zm0,-42.942l-0.033,0c-3.783,0 -6.825,3.067 -6.825,6.842c-0,3.775 3.083,6.842 6.858,6.842c3.779,-0 6.838,-3.067 6.838,-6.842c-0,-3.775 -3.059,-6.842 -6.838,-6.842Zm0,-42.941l-0.033,-0c-3.783,-0 -6.825,3.062 -6.825,6.841c-0,3.78 3.083,6.842 6.858,6.842c3.779,0 6.838,-3.062 6.838,-6.842c-0,-3.779 -3.059,-6.841 -6.838,-6.841Zm0,128.825l-0.033,-0c-3.783,-0 -6.825,3.062 -6.825,6.837c-0,3.784 3.083,6.846 6.858,6.846c3.779,0 6.838,-3.062 6.838,-6.846c-0,-3.775 -3.059,-6.837 -6.838,-6.837Zm-97.804,-72.2c3.779,-0 6.842,-3.067 6.842,-6.842c-0,-3.775 -3.063,-6.842 -6.842,-6.842l-0.033,0c-3.775,0 -6.821,3.067 -6.821,6.842c-0,3.775 3.079,6.842 6.854,6.842Zm4.838,117.146l-0.709,-0.475c-1.158,-0.9 -2.546,-1.53 -4.129,-1.53l-0.037,0c-3.775,0 -6.821,3.067 -6.821,6.842c-0,1.858 0.758,3.533 1.966,4.767l0.005,0.008c1.245,1.267 2.97,2.067 4.887,2.067l1.021,-0.209l0.004,0.005l0.013,-0.005c1.612,-0.258 3.025,-0.995 4.054,-2.175l0.408,-0.6c0.308,-0.441 0.638,-0.854 0.838,-1.362c0.308,-0.763 0.495,-1.583 0.5,-2.467l0.004,-0.029c-0,-1.733 -0.7,-3.275 -1.763,-4.483l-0.241,-0.354Zm188.1,-203.571c0.82,0.346 1.725,0.533 2.666,0.533c1,0 1.934,-0.237 2.788,-0.621l0.071,-0.05c0.833,-0.387 1.558,-0.937 2.166,-1.612c1.096,-1.213 1.813,-2.788 1.813,-4.559c-0,-3.775 -3.063,-6.841 -6.838,-6.841l-0.033,-0c-3.779,-0 -6.821,3.066 -6.821,6.841l0,0.005c0,2.829 1.729,5.266 4.188,6.304Zm2.666,43.483c3.775,0 6.838,-3.062 6.838,-6.842c-0,-3.779 -3.063,-6.841 -6.838,-6.841l-0.033,-0c-3.779,-0 -6.821,3.062 -6.821,6.841c0,3.78 3.075,6.842 6.854,6.842Zm0,42.942c3.775,-0 6.838,-3.067 6.838,-6.842c-0,-3.775 -3.063,-6.842 -6.838,-6.842l-0.033,0c-3.779,0 -6.821,3.067 -6.821,6.842c0,3.775 3.075,6.842 6.854,6.842Zm-146.7,-99.571l-0.033,-0c-3.775,-0 -6.825,3.062 -6.825,6.842c-0,3.775 3.079,6.837 6.858,6.837c3.779,0 6.842,-3.062 6.842,-6.837c-0,-3.78 -3.063,-6.842 -6.842,-6.842Zm0,-42.942l-0.033,0c-3.775,0 -6.825,3.063 -6.825,6.838c-0,3.775 3.079,6.846 6.858,6.846c3.779,-0 6.842,-3.071 6.842,-6.846c-0,-3.775 -3.063,-6.838 -6.842,-6.838Zm0,-42.941l-0.033,-0c-3.775,-0 -6.825,3.062 -6.825,6.837c-0,3.779 3.079,6.842 6.858,6.842c3.779,-0 6.842,-3.063 6.842,-6.842c-0,-3.775 -3.063,-6.837 -6.842,-6.837Zm-48.904,271.337c3.779,0 6.842,-3.062 6.842,-6.846c-0,-3.775 -3.063,-6.837 -6.842,-6.837l-0.033,-0c-3.775,-0 -6.821,3.062 -6.821,6.837c-0,3.784 3.079,6.846 6.854,6.846Zm0,-42.946c3.779,0 6.842,-3.062 6.842,-6.837c-0,-3.779 -3.063,-6.842 -6.842,-6.842l-0.033,0c-3.775,0 -6.821,3.063 -6.821,6.842c-0,3.775 3.079,6.837 6.854,6.837Zm48.904,-99.562l-0.033,-0c-3.775,-0 -6.825,3.062 -6.825,6.841c-0,3.78 3.079,6.842 6.858,6.842c3.779,0 6.842,-3.062 6.842,-6.842c-0,-3.779 -3.063,-6.841 -6.842,-6.841Zm48.9,-85.888l-0.033,0c-3.783,0 -6.825,3.063 -6.825,6.838c-0,3.775 3.083,6.846 6.858,6.846c3.779,-0 6.838,-3.071 6.838,-6.846c-0,-3.775 -3.059,-6.838 -6.838,-6.838Zm-48.9,214.713l-0.033,-0c-3.775,-0 -6.825,3.062 -6.825,6.837c-0,3.784 3.079,6.846 6.858,6.846c3.779,0 6.842,-3.062 6.842,-6.846c-0,-3.775 -3.063,-6.837 -6.842,-6.837Zm0,42.941l-0.033,0c-3.775,0 -6.825,3.067 -6.825,6.842c-0,3.779 3.079,6.842 6.858,6.842c3.779,-0 6.842,-3.063 6.842,-6.842c-0,-3.775 -3.063,-6.842 -6.842,-6.842Zm0,-85.883l-0.033,0c-3.775,0 -6.825,3.063 -6.825,6.842c-0,3.775 3.079,6.837 6.858,6.837c3.779,0 6.842,-3.062 6.842,-6.837c-0,-3.779 -3.063,-6.842 -6.842,-6.842Zm0,-42.942l-0.033,0c-3.775,0 -6.825,3.067 -6.825,6.842c-0,3.775 3.079,6.842 6.858,6.842c3.779,-0 6.842,-3.067 6.842,-6.842c-0,-3.775 -3.063,-6.842 -6.842,-6.842Z" style="fill:#fff;fill-rule:nonzero;"/><rect x="659.746" y="313.308" width="52.867" height="7.292" style="fill:#fff;fill-rule:nonzero;"/><rect x="659.746" y="334.25" width="52.867" height="7.287" style="fill:#fff;fill-rule:nonzero;"/><rect x="659.746" y="292.375" width="52.867" height="7.287" style="fill:#fff;fill-rule:nonzero;"/><path d="M260.175,849.642c-3.708,6.425 -14.746,8.82 -30.3,6.579c-2.587,-0.371 -5.267,-0.9 -7.983,-1.504c1.887,-7.596 3.321,-15.917 4.216,-24.788c7.113,-5.129 13.609,-10.496 19.313,-15.979c1.887,2.05 3.687,4.108 5.304,6.162c9.713,12.346 13.158,23.109 9.45,29.53Zm-33.258,-52.525c4.621,3.591 8.9,7.275 12.783,11.008c-3.883,3.737 -8.162,7.421 -12.783,11.012c0.179,-3.604 0.279,-7.275 0.279,-11.012c-0,-3.733 -0.1,-7.4 -0.279,-11.008Zm13.458,-37.792c9.996,-0 17.054,2.537 19.8,7.283c3.708,6.421 0.263,17.184 -9.45,29.529c-1.617,2.059 -3.417,4.117 -5.304,6.171c-5.708,-5.487 -12.196,-10.858 -19.313,-15.983c-0.891,-8.85 -2.32,-17.158 -4.208,-24.742c6.863,-1.508 13.1,-2.258 18.475,-2.258Zm-22.05,66.146c-4.662,3.229 -9.562,6.346 -14.679,9.3c-5.113,2.95 -10.263,5.633 -15.383,8.058c-5.117,-2.425 -10.267,-5.108 -15.38,-8.058c-5.116,-2.954 -10.016,-6.071 -14.679,-9.296c-0.454,-5.538 -0.704,-11.325 -0.704,-17.35c0,-6.017 0.25,-11.813 0.704,-17.346c4.663,-3.225 9.563,-6.337 14.679,-9.292c5.217,-3.012 10.355,-5.687 15.38,-8.062c5.025,2.375 10.166,5.05 15.383,8.062c5.117,2.955 10.017,6.071 14.679,9.292c0.454,5.533 0.704,11.329 0.704,17.346c0,6.021 -0.25,11.812 -0.704,17.346Zm-4.35,27.2c-5.183,-1.504 -10.521,-3.371 -15.95,-5.575c3.242,-1.667 6.483,-3.396 9.704,-5.254c3.229,-1.863 6.35,-3.809 9.417,-5.792c-0.829,5.925 -1.896,11.492 -3.171,16.621Zm-25.712,38.487c-8.434,0 -17.417,-11.475 -23.488,-30.637c7.6,-2.2 15.496,-5.138 23.488,-8.738c7.995,3.6 15.891,6.538 23.491,8.738c-6.071,19.162 -15.054,30.637 -23.491,30.637Zm-28.88,-55.108c3.067,1.983 6.188,3.929 9.417,5.792c3.221,1.858 6.463,3.587 9.704,5.254c-5.429,2.204 -10.766,4.071 -15.95,5.575c-1.275,-5.129 -2.341,-10.692 -3.171,-16.621Zm3.167,-72.45c5.067,1.454 10.404,3.304 15.942,5.542c-3.221,1.65 -6.45,3.4 -9.692,5.27c-3.229,1.867 -6.35,3.813 -9.417,5.788c0.825,-5.921 1.892,-11.479 3.167,-16.6Zm25.713,-38.504c8.437,-0 17.42,11.466 23.491,30.629c-7.496,2.158 -15.391,5.067 -23.491,8.708c-8.096,-3.641 -15.992,-6.55 -23.488,-8.708c6.071,-19.154 15.054,-30.629 23.488,-30.629Zm28.883,55.104c-3.067,-1.975 -6.188,-3.921 -9.417,-5.788c-3.241,-1.87 -6.475,-3.62 -9.691,-5.27c5.537,-2.238 10.87,-4.088 15.941,-5.542c1.275,5.121 2.342,10.679 3.167,16.6Zm-70.492,76.021c-15.546,2.241 -26.591,-0.154 -30.3,-6.579c-3.708,-6.421 -0.262,-17.184 9.45,-29.53c1.617,-2.054 3.417,-4.112 5.304,-6.162c5.705,5.483 12.2,10.854 19.313,15.979c0.896,8.871 2.329,17.192 4.217,24.788c-2.717,0.604 -5.396,1.133 -7.984,1.504Zm2.959,-37.084c-4.617,-3.591 -8.9,-7.275 -12.788,-11.012c3.888,-3.733 8.171,-7.417 12.788,-11.008c-0.175,3.604 -0.28,7.275 -0.28,11.008c0,3.737 0.105,7.408 0.28,11.012Zm-33.259,-52.529c2.746,-4.75 9.8,-7.283 19.8,-7.283c5.375,-0 11.613,0.75 18.475,2.258c-1.887,7.584 -3.312,15.892 -4.208,24.742c-7.113,5.125 -13.608,10.496 -19.313,15.983c-1.887,-2.054 -3.687,-4.112 -5.304,-6.171c-9.712,-12.345 -13.158,-23.108 -9.45,-29.529Zm134.792,41.517c2.133,-2.304 4.175,-4.621 5.996,-6.938c12.062,-15.325 15.65,-29.054 10.104,-38.662c-6.521,-11.3 -24.6,-13.971 -47.55,-8.838c-7.025,-22.441 -18.379,-36.758 -31.433,-36.758c-13.05,0 -24.405,14.317 -31.43,36.758c-22.945,-5.137 -41.025,-2.462 -47.55,8.838c-5.545,9.608 -1.958,23.337 10.105,38.662c1.82,2.317 3.858,4.634 5.991,6.938c-2.133,2.312 -4.171,4.625 -5.991,6.937c-12.063,15.33 -15.65,29.059 -10.105,38.667c4.35,7.538 13.717,11.475 26.88,11.475c3.612,0 7.504,-0.3 11.654,-0.896c2.921,-0.421 5.95,-1.029 9.021,-1.725c7.025,22.425 18.379,36.746 31.425,36.746c13.05,0 24.404,-14.321 31.429,-36.746c3.071,0.696 6.1,1.304 9.016,1.725c4.155,0.596 8.046,0.896 11.655,0.896c13.162,0 22.529,-3.942 26.883,-11.475c5.546,-9.608 1.958,-23.337 -10.104,-38.667c-1.821,-2.312 -3.863,-4.625 -5.996,-6.937Z" style="fill:#fff;fill-rule:nonzero;"/><path d="M1116.65,545.475c-4.908,17.408 -20.771,28.775 -38.029,28.775c-3.55,-0 -7.175,-0.487 -10.8,-1.508c-17.409,-4.913 -28.775,-20.771 -28.775,-38.03c-0,-3.549 0.487,-7.175 1.512,-10.762c4.909,-17.446 20.804,-28.813 38.025,-28.813c3.55,0 7.175,0.492 10.8,1.509c17.409,4.912 28.775,20.808 28.775,38.029c0,3.55 -0.491,7.175 -1.508,10.8Zm28.942,-14.779l-8.296,0.479c-0.517,-8.904 -3.108,-17.458 -7.342,-25.104l7.259,-4.063c-3.63,-6.521 -8.384,-12.487 -14.042,-17.496l-5.529,6.221c-6.442,-5.704 -14.133,-10.112 -22.946,-12.616l2.292,-7.95l-0.088,-0.042c-6.137,-1.729 -12.271,-2.55 -18.317,-2.55c-1.341,-0 -2.637,0.042 -3.933,0.129l0.475,8.296c-8.9,0.517 -17.454,3.067 -25.104,7.346l-4.063,-7.304c-6.52,3.67 -12.483,8.383 -17.496,14.041l6.221,5.575c-5.704,6.396 -10.108,14.084 -12.616,22.9l-7.992,-2.291l-0.046,0.17c-1.725,6.096 -2.545,12.23 -2.545,18.28c-0,1.295 0.041,2.591 0.128,3.887l8.296,-0.475c0.517,8.9 3.067,17.454 7.3,25.1l-7.258,4.063c3.629,6.525 8.338,12.487 14,17.541l5.575,-6.22c6.392,5.704 14.083,10.112 22.896,12.616l-2.288,7.996l0.217,0.042c6.088,1.725 12.225,2.55 18.275,2.55c1.379,-0 2.721,-0.046 4.058,-0.134l-0.516,-8.291c8.9,-0.563 17.454,-3.113 25.104,-7.392l4.058,7.304c6.525,-3.675 12.488,-8.425 17.5,-14.087l-6.221,-5.53c5.659,-6.395 10.067,-14.125 12.571,-22.941l7.992,2.292l-0,-0.046c1.733,-6.134 2.55,-12.271 2.55,-18.321c-0,-1.338 -0.042,-2.675 -0.129,-3.975Z" style="fill:#e6e8ef;fill-rule:nonzero;"/><path d="M1228.76,507.842c-3.496,12.4 -14.817,20.479 -27.088,20.479c-2.508,-0 -5.1,-0.346 -7.646,-1.079c-12.4,-3.5 -20.479,-14.775 -20.525,-27.05c0,-2.546 0.346,-5.096 1.079,-7.688c3.5,-12.4 14.821,-20.479 27.092,-20.479c2.504,-0 5.1,0.346 7.646,1.079c12.4,3.5 20.483,14.775 20.483,27.046c0,2.55 -0.346,5.1 -1.041,7.692Zm19.316,-16.68l-5.487,1.042c-0.821,-4.279 -2.334,-8.429 -4.454,-12.229l4.883,-2.721c-3.542,-6.396 -8.596,-12.012 -14.863,-16.246l-3.108,4.621c-3.546,-2.375 -7.475,-4.275 -11.796,-5.529l1.554,-5.358l-0.258,-0.042c-4.275,-1.254 -8.642,-1.817 -12.921,-1.817c-2.979,0 -5.958,0.304 -8.854,0.867l1.038,5.483c-4.28,0.825 -8.43,2.334 -12.23,4.409l-2.72,-4.88c-6.438,3.542 -12.055,8.55 -16.292,14.817l4.625,3.154c-2.417,3.5 -4.279,7.475 -5.575,11.75l-5.354,-1.554l-0.088,0.392c-1.208,4.275 -1.812,8.596 -1.812,12.871c-0,2.983 0.3,5.879 0.816,8.771l5.529,-1.034c0.826,4.275 2.292,8.425 4.367,12.229l-4.883,2.675c3.5,6.484 8.554,12.1 14.775,16.375l3.158,-4.621c3.5,2.417 7.429,4.321 11.75,5.571l-1.554,5.359l0.475,0.175c4.275,1.208 8.638,1.77 12.875,1.77c3.112,0 6.179,-0.304 9.158,-0.908l-1.079,-5.487c4.275,-0.821 8.425,-2.375 12.229,-4.492l2.721,4.925c6.396,-3.588 12.013,-8.683 16.2,-14.95l-4.621,-3.108c2.375,-3.546 4.275,-7.475 5.488,-11.796l5.358,1.508l0.042,-0.083c1.208,-4.321 1.817,-8.642 1.817,-12.921c-0,-3.067 -0.305,-6.046 -0.909,-8.988Z" style="fill:#e6e8ef;fill-rule:nonzero;"/><rect x="1060.19" y="604.633" width="16.958" height="92.067" style="fill:#40207f;fill-rule:nonzero;"/><path d="M487.396,448.837l-0,952.905c-0,30.47 22.904,55.158 51.158,55.158l480.054,-0c28.25,-0 51.155,-24.688 51.155,-55.158l-0,-952.905c-0,-30.462 -22.905,-55.158 -51.155,-55.158l-480.054,0c-28.254,0 -51.158,24.696 -51.158,55.158Z" style="fill-rule:nonzero;"/><path d="M1032.85,1421.61l-508.533,0c-9.792,0 -17.725,-7.937 -17.725,-17.725l-0,-962.904c-0,-9.791 7.933,-17.725 17.725,-17.725l508.533,0c9.792,0 17.729,7.934 17.729,17.725l0,962.904c0,9.788 -7.937,17.725 -17.729,17.725Z" style="fill:#187ff7;fill-rule:nonzero;"/><path d="M1032.85,423.258l-508.537,0c-9.788,0 -17.725,7.934 -17.725,17.725l-0,29.671l543.987,0l0,-29.671c0,-9.791 -7.933,-17.725 -17.725,-17.725Z" style="fill:#4f56db;fill-rule:nonzero;"/><path d="M793.604,447.921c0,8.296 -6.729,15.021 -15.021,15.021c-8.299,-0 -15.025,-6.725 -15.025,-15.021c0,-8.296 6.726,-15.021 15.025,-15.021c8.292,-0 15.021,6.725 15.021,15.021Z" style="fill:#280c54;fill-rule:nonzero;"/><path d="M984.446,876.758l-411.733,0c-3.242,0 -5.871,-2.629 -5.871,-5.871l-0,-267.579c-0,-3.241 2.629,-5.871 5.871,-5.871l411.733,0c3.242,0 5.871,2.63 5.871,5.875l-0,267.575c-0,3.242 -2.629,5.871 -5.871,5.871Z" style="fill:#4f56db;fill-rule:nonzero;"/><path d="M982.796,1388.32l-408.433,-0c-4.155,-0 -7.521,-3.363 -7.521,-7.517l-0,-68.433c-0,-4.155 3.366,-7.525 7.521,-7.525l408.433,-0c4.154,-0 7.521,3.37 7.521,7.525l-0,68.433c-0,4.154 -3.367,7.517 -7.521,7.517Z" style="fill:#9398f9;fill-rule:nonzero;"/><path d="M982.796,576.029l-408.433,0c-4.155,0 -7.521,-3.367 -7.521,-7.521l-0,-68.433c-0,-4.154 3.366,-7.521 7.521,-7.521l408.433,0c4.154,0 7.521,3.367 7.521,7.521l-0,68.433c-0,4.154 -3.367,7.521 -7.521,7.521Z" style="fill:#9398f9;fill-rule:nonzero;"/><path d="M595.821,521.55l365.517,-0l-0,-7.2l-365.517,0" style="fill:#bbc1f9;fill-rule:nonzero;"/><path d="M595.821,537.892l365.517,-0l-0,-7.2l-365.517,-0" style="fill:#bbc1f9;fill-rule:nonzero;"/><path d="M595.821,554.229l365.517,0l-0,-7.2l-365.517,0" style="fill:#bbc1f9;fill-rule:nonzero;"/><path d="M657.333,1021.49c-31.354,-0 -56.862,-25.509 -56.862,-56.863c-0,-31.354 25.508,-56.862 56.862,-56.862c31.355,-0 56.863,25.508 56.863,56.862c0,31.354 -25.508,56.863 -56.863,56.863Z" style="fill:#9398f9;fill-rule:nonzero;"/><path d="M699.704,964.629c0,23.404 -18.966,42.379 -42.371,42.379c-23.404,0 -42.375,-18.975 -42.375,-42.379c0,-23.4 18.971,-42.375 42.375,-42.375c23.405,0 42.371,18.975 42.371,42.375Z" style="fill:#bbc1f9;fill-rule:nonzero;"/><path d="M657.333,922.254c23.405,0 42.371,18.975 42.371,42.375l-42.371,0l0,-42.375Z" style="fill-rule:nonzero;"/><path d="M657.333,1216.92c-31.354,-0 -56.862,-25.509 -56.862,-56.867c-0,-31.35 25.508,-56.858 56.862,-56.858c31.355,-0 56.863,25.508 56.863,56.858c0,31.358 -25.508,56.867 -56.863,56.867Z" style="fill:#9398f9;fill-rule:nonzero;"/><path d="M699.704,1160.05c0,23.404 -18.966,42.379 -42.371,42.379c-23.404,0 -42.375,-18.975 -42.375,-42.379c0,-23.4 18.971,-42.375 42.375,-42.375c23.405,0 42.371,18.975 42.371,42.375Z" style="fill:#fa1300;fill-rule:nonzero;"/><path d="M657.333,1117.68c-23.404,0 -42.375,18.975 -42.375,42.375l42.375,0l0,-42.375Z" style="fill:#bbc1f9;fill-rule:nonzero;"/><path d="M899.825,1021.49c-31.354,-0 -56.862,-25.509 -56.862,-56.863c-0,-31.354 25.508,-56.862 56.862,-56.862c31.354,-0 56.863,25.508 56.863,56.862c-0,31.354 -25.509,56.863 -56.863,56.863Z" style="fill:#9398f9;fill-rule:nonzero;"/><path d="M942.2,964.633c-0,23.4 -18.971,42.375 -42.375,42.375c-23.404,0 -42.375,-18.975 -42.375,-42.375c0,-23.404 18.971,-42.379 42.375,-42.379c23.404,0 42.375,18.975 42.375,42.379Z" style="fill:#0418b2;fill-rule:nonzero;"/><path d="M899.825,964.633l0,-42.379c-11.7,0 -22.296,4.746 -29.962,12.408l29.962,29.971Z" style="fill:#bbc1f9;fill-rule:nonzero;"/><path d="M899.825,1216.92c-31.354,-0 -56.862,-25.509 -56.862,-56.867c-0,-31.35 25.508,-56.858 56.862,-56.858c31.358,-0 56.863,25.508 56.863,56.858c-0,31.358 -25.505,56.867 -56.863,56.867Z" style="fill:#9398f9;fill-rule:nonzero;"/><path d="M942.204,1160.05c0,23.404 -18.975,42.379 -42.379,42.379c-23.404,0 -42.375,-18.975 -42.375,-42.379c0,-23.4 18.971,-42.375 42.375,-42.375c23.404,0 42.379,18.975 42.379,42.375Z" style="fill:#fec938;fill-rule:nonzero;"/><path d="M857.45,1160.05c0,23.404 18.971,42.379 42.375,42.379l0,-84.754c-23.404,0 -42.375,18.975 -42.375,42.375Z" style="fill:#bbc1f9;fill-rule:nonzero;"/><path d="M809.333,1048.59l180.984,-0l-0,-7.2l-180.984,-0" style="fill:#9398f9;fill-rule:nonzero;"/><path d="M809.333,1064.93l180.984,0l-0,-7.2l-180.984,0" style="fill:#9398f9;fill-rule:nonzero;"/><path d="M809.333,1081.28l180.984,-0l-0,-7.2l-180.984,-0" style="fill:#9398f9;fill-rule:nonzero;"/><path d="M566.842,1048.59l180.983,-0l0,-7.2l-180.983,-0" style="fill:#9398f9;fill-rule:nonzero;"/><path d="M566.842,1064.93l180.983,0l0,-7.2l-180.983,0" style="fill:#9398f9;fill-rule:nonzero;"/><path d="M566.842,1081.28l180.983,-0l0,-7.2l-180.983,-0" style="fill:#9398f9;fill-rule:nonzero;"/><path d="M809.333,1240.41l180.984,0l-0,-7.2l-180.984,0" style="fill:#9398f9;fill-rule:nonzero;"/><path d="M809.333,1256.75l180.984,-0l-0,-7.2l-180.984,-0" style="fill:#9398f9;fill-rule:nonzero;"/><path d="M809.333,1273.09l180.984,-0l-0,-7.2l-180.984,-0" style="fill:#9398f9;fill-rule:nonzero;"/><path d="M566.842,1240.41l180.983,0l0,-7.2l-180.983,0" style="fill:#9398f9;fill-rule:nonzero;"/><path d="M566.842,1256.75l180.983,-0l0,-7.2l-180.983,-0" style="fill:#9398f9;fill-rule:nonzero;"/><path d="M566.842,1273.09l180.983,-0l0,-7.2l-180.983,-0" style="fill:#9398f9;fill-rule:nonzero;"/><path d="M1034.5,373.004l-6.267,0c-5.825,-32.208 -34.008,-56.641 -67.899,-56.641l-62.096,-0l-0,-33.813c-0,-6.9 5.591,-12.492 12.491,-12.492l124.554,0c5.805,0 10.513,4.704 10.513,10.509l-0,81.146c-0,6.237 -5.058,11.291 -11.296,11.291Z" style="fill:#dbdbdb;fill-rule:nonzero;"/><path d="M1028.23,373.004l-116.708,0c-7.337,0 -13.287,-5.95 -13.287,-13.283l-0,-43.358l62.096,-0c33.891,-0 62.074,24.433 67.899,56.641Z" style="fill:#c5c7cd;fill-rule:nonzero;"/><path d="M1026.95,261.725l-124.554,-0c-6.9,-0 -12.492,5.592 -12.492,12.492l0,77.17c0,7.334 5.95,13.284 13.288,13.284l122.975,-0c6.237,-0 11.296,-5.054 11.296,-11.292l-0,-81.142c-0,-5.808 -4.709,-10.512 -10.513,-10.512Z" style="fill:#187ff7;fill-rule:nonzero;"/><path d="M936.567,310.083l5.737,5.984c5.563,-5.334 13.058,-8.621 21.371,-8.629c8.317,-0.005 15.817,3.266 21.392,8.591l5.725,-5.996c-7.055,-6.737 -16.592,-10.9 -27.121,-10.891c-10.529,0.008 -20.063,4.187 -27.104,10.941Zm27.091,-28.587c-15.266,0.016 -29.104,6.046 -39.316,15.833l5.741,5.988c8.734,-8.367 20.53,-13.513 33.579,-13.525c13.051,-0.009 24.859,5.116 33.601,13.47l5.729,-5.995c-10.225,-9.771 -24.075,-15.784 -39.334,-15.771Zm-15.187,41.004l5.737,5.983c2.475,-2.366 5.788,-3.821 9.484,-3.825c3.696,0 7.008,1.446 9.491,3.809l5.725,-5.992c-3.962,-3.783 -9.312,-6.121 -15.225,-6.117c-5.908,0.009 -11.258,2.35 -15.212,6.142Zm15.225,9.375c-3.596,-0 -6.508,2.921 -6.504,6.517c0.004,3.595 2.921,6.508 6.516,6.508c3.596,-0.004 6.513,-2.921 6.509,-6.517c-0.004,-3.596 -2.921,-6.512 -6.521,-6.508Z" style="fill:#f0f5f7;fill-rule:nonzero;"/><rect x="487.396" y="593.142" width="19.192" height="289.904" style="fill:#1d0952;fill-rule:nonzero;"/><path d="M848.1,883.046l-341.512,-0l-0,-289.904l341.512,-0c3.3,-0 6.204,1.712 7.867,4.295l-283.254,0c-3.242,0 -5.871,2.63 -5.871,5.871l-0,267.579c-0,3.242 2.629,5.871 5.871,5.871l284.22,0c-1.266,3.659 -4.745,6.288 -8.833,6.288Z" style="fill:#4549ee;fill-rule:nonzero;"/><path d="M856.933,876.758l-284.22,0c-3.242,0 -5.871,-2.629 -5.871,-5.871l-0,-267.579c-0,-3.241 2.629,-5.871 5.871,-5.871l283.254,0c0.937,1.459 1.483,3.192 1.483,5.055l0,271.2c0,1.075 -0.183,2.104 -0.517,3.066Z" style="fill:#3a41d6;fill-rule:nonzero;"/><path d="M747.825,1333.84l223.812,-0l0,-7.2l-223.812,-0" style="fill:#bbc1f9;fill-rule:nonzero;"/><path d="M747.825,1350.18l223.812,0l0,-7.2l-223.812,0" style="fill:#bbc1f9;fill-rule:nonzero;"/><path d="M747.825,1366.53l223.812,-0l0,-7.2l-223.812,-0" style="fill:#bbc1f9;fill-rule:nonzero;"/><rect x="588.6" y="1327.37" width="140.638" height="38.525" style="fill:#bbc1f9;fill-rule:nonzero;"/><rect x="1011.25" y="443.383" width="12.721" height="9.608" style="fill:#9398f9;fill-rule:nonzero;"/><rect x="989.258" y="443.383" width="12.721" height="9.608" style="fill:#9398f9;fill-rule:nonzero;"/><rect x="967.275" y="443.383" width="12.717" height="9.608" style="fill:#9398f9;fill-rule:nonzero;"/><rect x="945.288" y="443.383" width="12.721" height="9.608" style="fill:#9398f9;fill-rule:nonzero;"/><rect x="945.288" y="443.383" width="12.721" height="9.608" style="fill:#9398f9;fill-rule:nonzero;"/><path d="M531.8,452.992l3.113,-0c2.654,-0 4.804,-2.15 4.804,-4.804c-0,-2.655 -2.15,-4.805 -4.804,-4.805l-3.113,0c-2.65,0 -4.804,2.15 -4.804,4.805c-0,2.654 2.154,4.804 4.804,4.804Z" style="fill:#9398f9;fill-rule:nonzero;"/><path d="M552.154,452.992l3.109,-0c2.654,-0 4.804,-2.15 4.804,-4.804c-0,-2.655 -2.15,-4.805 -4.804,-4.805l-3.109,0c-2.654,0 -4.808,2.15 -4.808,4.805c-0,2.654 2.154,4.804 4.808,4.804Z" style="fill:#9398f9;fill-rule:nonzero;"/><path d="M572.504,452.992l3.109,-0c2.654,-0 4.804,-2.15 4.804,-4.804c-0,-2.655 -2.15,-4.805 -4.804,-4.805l-3.109,0c-2.654,0 -4.804,2.15 -4.804,4.805c0,2.654 2.15,4.804 4.804,4.804Z" style="fill:#9398f9;fill-rule:nonzero;"/><path d="M592.854,452.992l3.109,-0c2.658,-0 4.808,-2.15 4.808,-4.804c-0,-2.655 -2.15,-4.805 -4.808,-4.805l-3.109,0c-2.65,0 -4.804,2.15 -4.804,4.805c0,2.654 2.154,4.804 4.804,4.804Z" style="fill:#9398f9;fill-rule:nonzero;"/><path d="M825.775,855.346l-411.737,-0c-3.242,-0 -5.867,-2.629 -5.867,-5.867l-0,-267.579c-0,-3.242 2.625,-5.871 5.867,-5.871l411.737,0c3.242,0 5.867,2.629 5.867,5.871l-0,267.579c-0,3.238 -2.625,5.867 -5.867,5.867Z" style="fill:#bbc1f9;fill-rule:nonzero;"/><path d="M437.717,593.142c-0,3.891 -3.154,7.045 -7.046,7.045c-3.896,0 -7.05,-3.154 -7.05,-7.045c-0,-3.892 3.154,-7.05 7.05,-7.05c3.892,-0 7.046,3.158 7.046,7.05Z" style="fill:#ff006c;fill-rule:nonzero;"/><path d="M468.279,593.142c0,3.891 -3.154,7.045 -7.046,7.045c-3.891,0 -7.045,-3.154 -7.045,-7.045c-0,-3.892 3.154,-7.05 7.045,-7.05c3.892,-0 7.046,3.158 7.046,7.05Z" style="fill:#fc7808;fill-rule:nonzero;"/><path d="M498.842,593.142c-0,3.891 -3.15,7.045 -7.046,7.045c-3.892,0 -7.046,-3.154 -7.046,-7.045c0,-3.892 3.154,-7.05 7.046,-7.05c3.896,-0 7.046,3.158 7.046,7.05Z" style="fill:#3887fe;fill-rule:nonzero;"/><rect x="578.979" y="625.425" width="227.967" height="205.838" style="fill:#9398f9;fill-rule:nonzero;"/><rect x="440.992" y="625.425" width="80.533" height="5.254" style="fill:#9398f9;fill-rule:nonzero;"/><rect x="440.992" y="651.633" width="120.558" height="5.258" style="fill:#9398f9;fill-rule:nonzero;"/><rect x="440.992" y="668.725" width="120.558" height="5.258" style="fill:#9398f9;fill-rule:nonzero;"/><rect x="440.992" y="685.821" width="120.558" height="5.258" style="fill:#9398f9;fill-rule:nonzero;"/><rect x="440.992" y="702.912" width="120.558" height="5.258" style="fill:#9398f9;fill-rule:nonzero;"/><rect x="440.992" y="720.004" width="120.558" height="5.258" style="fill:#9398f9;fill-rule:nonzero;"/><rect x="440.992" y="737.096" width="120.558" height="5.258" style="fill:#9398f9;fill-rule:nonzero;"/><rect x="440.992" y="754.192" width="120.558" height="5.258" style="fill:#9398f9;fill-rule:nonzero;"/><rect x="440.992" y="771.283" width="79.283" height="5.254" style="fill:#9398f9;fill-rule:nonzero;"/><rect x="598.875" y="650.667" width="28.313" height="155.354" style="fill:#bbc1f9;fill-rule:nonzero;"/><rect x="652.163" y="650.667" width="28.313" height="155.354" style="fill:#bbc1f9;fill-rule:nonzero;"/><rect x="705.446" y="650.667" width="28.317" height="155.354" style="fill:#bbc1f9;fill-rule:nonzero;"/><rect x="758.733" y="650.667" width="28.317" height="155.354" style="fill:#bbc1f9;fill-rule:nonzero;"/><rect x="598.875" y="764.133" width="28.313" height="41.888" style="fill-rule:nonzero;"/><rect x="652.163" y="742.354" width="28.313" height="63.667" style="fill:#0821fc;fill-rule:nonzero;"/><rect x="705.446" y="691.079" width="28.317" height="114.942" style="fill:#eabb38;fill-rule:nonzero;"/><rect x="758.733" y="714.579" width="28.317" height="91.442" style="fill:#0026ff;fill-rule:nonzero;"/><path d="M38.696,61.421l-1.075,-4.025l194.171,-51.796l511.296,47.7l-0.388,4.15l-510.554,-47.629l-193.45,51.6Z" style="fill:#280c54;fill-rule:nonzero;"/><path d="M335.362,398.704l-59.441,55.613l75.287,-0l0,11.091l-15.846,14.813l-59.441,55.612l75.287,0l0,11.092l-15.846,14.837l-59.441,55.613l75.287,-0l0,11.092l-15.846,14.812l-59.441,55.613l75.287,-0l0,11.091l-15.846,14.838l-59.441,55.612l75.287,0l0,11.092l-15.846,14.812l-59.441,55.613l75.287,-0l0,11.092l-15.846,14.841l-59.441,55.609l75.287,-0l0,11.095l-15.846,14.809l-59.441,55.612l75.287,0l0,11.146l-15.846,13.575l-43.541,37.338l-18.488,15.841l-10.166,0l-4.279,-4.991l12.65,-10.85l56.987,-48.855l-79.433,0l-0,-6.175l15.846,-14.816l64.691,-60.525l-80.537,-0l-0,-6.179l15.846,-14.817l64.691,-60.546l-80.537,0l-0,-6.179l15.846,-14.817l64.691,-60.521l-80.537,0l-0,-6.179l15.846,-14.812l64.691,-60.554l-80.537,-0l-0,-6.175l15.846,-14.817l64.691,-60.521l-80.537,0l-0,-6.179l15.846,-14.817l64.691,-60.546l-80.537,0l-0,-6.179l15.846,-14.816l64.691,-60.521l-80.537,-0l-0,-6.179l15.846,-14.813l64.691,-60.554l-70.425,0l0,-13.2l92.004,0l0,11.087l-15.846,14.842Z" style="fill:#031d2e;fill-rule:nonzero;"/><path d="M335.362,1087.07l-70.424,-0l-0,-727.05l70.424,-0l0,727.05Zm-86.27,-742.892l-0,758.733l102.116,0l0,-758.733l-102.116,-0Z" style="fill:#031d2e;fill-rule:nonzero;"/><path d="M649.513,443.383l-5.13,-1.241l64.254,-265.825l5.13,1.241l-64.254,265.825Z" style="fill:#280c54;fill-rule:nonzero;"/><path d="M616.217,443.392l-65.134,-264.942l5.125,-1.263l65.138,264.942l-5.129,1.263Z" style="fill:#280c54;fill-rule:nonzero;"/><rect x="185.938" y="330.975" width="228.417" height="21.125" style="fill-rule:nonzero;"/><rect x="185.938" y="352.1" width="228.417" height="21.125" style="fill:#000171;fill-rule:nonzero;"/><path d="M388.463,302.267l-44.067,-155.884l-141.292,0l0,184.613l194.113,-0l-8.754,-28.729Z" style="fill:#fc7808;fill-rule:nonzero;"/><path d="M15.846,135.567l-0,-70.425l727.046,-0l-0,70.425l-727.046,-0Zm-15.846,15.841l758.733,0l0,-102.108l-758.733,0l0,102.108Z" style="fill:#031d2e;fill-rule:nonzero;"/><path d="M54.533,135.567l55.609,-59.442l-0,75.283l11.091,0l14.817,-15.841l55.608,-59.442l0,75.283l11.092,0l14.842,-15.841l55.612,-59.442l0,75.283l11.088,0l14.812,-15.841l55.613,-59.442l-0,75.283l11.091,0l14.842,-15.841l55.613,-59.442l-0,75.283l11.087,0l14.817,-15.841l55.612,-59.442l0,75.283l11.088,0l14.841,-15.841l55.613,-59.442l-0,75.283l11.092,0l14.812,-15.841l55.613,-59.442l-0,75.283l11.141,0l13.575,-15.841l37.338,-43.546l15.841,-18.484l0,-10.166l-4.987,-4.275l-10.854,12.646l-48.85,56.983l-0,-79.425l-6.179,0l-14.817,15.842l-60.521,64.691l0,-80.533l-6.179,0l-14.817,15.842l-60.55,64.691l0,-80.533l-6.175,0l-14.816,15.842l-60.525,64.691l-0,-80.533l-6.18,0l-14.812,15.842l-60.55,64.691l-0,-80.533l-6.179,0l-14.813,15.842l-60.525,64.691l0,-80.533l-6.175,0l-14.816,15.842l-60.55,64.691l-0,-80.533l-6.18,0l-14.812,15.842l-60.525,64.691l-0,-80.533l-6.179,0l-14.813,15.842l-60.55,64.691l0,-70.425l-13.204,0l0,92l11.092,0l14.841,-15.841Z" style="fill:#031d2e;fill-rule:nonzero;"/><rect x="11.575" y="151.192" width="136.292" height="26.575" style="fill-rule:nonzero;"/><rect x="11.575" y="177.767" width="136.292" height="26.575" style="fill:#fc7808;fill-rule:nonzero;"/><rect x="11.575" y="204.342" width="136.292" height="26.579" style="fill-rule:nonzero;"/><rect x="11.575" y="230.921" width="136.292" height="26.571" style="fill:#fc7808;fill-rule:nonzero;"/><rect x="543.963" y="146.383" width="178.679" height="35.583" style="fill-rule:nonzero;"/><rect x="543.963" y="181.967" width="178.679" height="35.583" style="fill:#280c54;fill-rule:nonzero;"/><rect x="543.963" y="177.187" width="178.679" height="28.004" style="fill:#fc7808;fill-rule:nonzero;"/><path d="M634.221,563.437c-19.9,0 -36.092,-16.191 -36.092,-36.087c0,-2.917 2.367,-5.283 5.284,-5.283c2.916,-0 5.283,2.366 5.283,5.283c-0,14.075 11.45,25.525 25.525,25.525c14.075,0 25.525,-11.45 25.525,-25.525c-0,-14.075 -11.45,-25.525 -25.525,-25.525c-2.917,-0 -5.283,-2.367 -5.283,-5.283c-0,-2.917 2.366,-5.28 5.283,-5.28c19.896,0 36.087,16.188 36.087,36.088c0,19.896 -16.191,36.087 -36.087,36.087Z" style="fill-rule:nonzero;"/><path d="M264.938,997.483l-15.846,0l-0,470.334l15.846,-0l-0,-470.334Z" style="fill:#031d2e;fill-rule:nonzero;"/><path d="M335.362,997.483l0,470.338l15.846,-0l0,-470.338l-15.846,0Z" style="fill:#031d2e;fill-rule:nonzero;"/><path d="M348.95,1446.94l2.258,-2.113l0,-11.087l-75.287,-0l59.441,-55.613l15.846,-14.842l0,-11.091l-75.287,-0l59.441,-55.609l15.846,-14.816l0,-11.092l-75.287,0l59.441,-55.612l15.846,-14.838l0,-11.092l-75.287,0l59.441,-55.612l15.846,-14.813l0,-11.091l-75.287,-0l59.441,-55.613l15.846,-14.841l0,-11.088l-92.004,0l0,13.204l70.429,0l-64.695,60.546l-15.846,14.817l-0,6.179l80.541,-0l-64.695,60.525l-15.846,14.812l-0,6.18l80.541,-0l-64.695,60.55l-15.846,14.808l-0,6.183l80.541,0l-64.695,60.521l-15.846,14.817l-0,6.175l80.541,-0l-64.695,60.554l-15.846,14.812l-0,6.18l99.858,-0Z" style="fill:#031d2e;fill-rule:nonzero;"/><rect x="596.738" y="403.679" width="71.446" height="92.425" style="fill:#fc7808;fill-rule:nonzero;"/><path d="M632.458,587.325c-2.558,-0 -4.633,-2.075 -4.633,-4.633l0,-32.05c0,-2.559 2.075,-4.634 4.633,-4.634c2.563,0 4.638,2.075 4.638,4.634l-0,32.05c-0,2.558 -2.075,4.633 -4.638,4.633Z" style="fill:#280c54;fill-rule:nonzero;"/><path d="M612.283,496.104l15.788,0l40.112,-39.371l0,-15.491l-55.9,54.862Z" style="fill-rule:nonzero;"/><path d="M662.696,496.104l5.487,-5.387l0,-15.5l-21.279,20.887l15.792,0Z" style="fill-rule:nonzero;"/><path d="M596.738,443.4l-0,15.496l56.258,-55.217l-15.788,0l-40.47,39.721Z" style="fill-rule:nonzero;"/><path d="M596.738,409.421l-0,15.496l21.637,-21.238l-15.787,0l-5.85,5.742Z" style="fill-rule:nonzero;"/><path d="M596.738,477.379l-0,15.496l71.445,-70.117l0,-15.5l-71.445,70.121Z" style="fill-rule:nonzero;"/><path d="M716.525,191.192c0,3.912 -3.171,7.087 -7.087,7.087c-3.917,0 -7.084,-3.175 -7.084,-7.087c0,-3.917 3.167,-7.088 7.084,-7.088c3.916,0 7.087,3.171 7.087,7.088Z" style="fill:#280c54;fill-rule:nonzero;"/><path d="M564.258,191.192c0,3.912 -3.175,7.087 -7.087,7.087c-3.917,0 -7.088,-3.175 -7.088,-7.087c0,-3.917 3.171,-7.088 7.088,-7.088c3.912,0 7.087,3.171 7.087,7.088Z" style="fill:#280c54;fill-rule:nonzero;"/><path d="M382.717,281.946l-32.213,-113.959l-115.521,0c-5.675,0 -10.275,4.6 -10.275,10.275l0,93.409c0,5.675 4.6,10.275 10.275,10.275l147.734,-0Z" style="fill-rule:nonzero;"/><path d="M271.425,167.987l-46.717,91.996l0,11.688c0,2.483 0.921,4.733 2.388,6.512l55.958,-110.196l-11.629,0Z" style="fill:#fff;fill-rule:nonzero;"/><path d="M246.446,281.946l38.362,-0l57.871,-113.959l-38.366,0l-57.867,113.959Z" style="fill:#fff;fill-rule:nonzero;"/><rect x="282.237" y="164.479" width="8.358" height="127.883" style="fill:#fe9c0a;fill-rule:nonzero;"/><rect x="199.8" y="1392.56" width="200.687" height="33.446" style="fill:#fc7808;fill-rule:nonzero;"/><rect x="166.35" y="1426.01" width="267.588" height="83.621" style="fill-rule:nonzero;"/><path d="M281.942,1426.01l-18.509,0l-85.2,83.621l18.505,0l85.204,-83.621Z" style="fill:#fc7808;fill-rule:nonzero;"/><path d="M239.558,1426.01l-18.504,0l-54.704,53.688l0,18.158l73.208,-71.846Z" style="fill:#fc7808;fill-rule:nonzero;"/><path d="M166.35,1438.1l0,18.158l30.829,-30.254l-18.504,0l-12.325,12.096Z" style="fill:#fc7808;fill-rule:nonzero;"/><path d="M324.321,1426.01l-18.504,0l-85.204,83.621l18.504,0l85.204,-83.621Z" style="fill:#fc7808;fill-rule:nonzero;"/><path d="M433.938,1484.8l-0,-18.163l-43.805,42.992l18.505,0l25.3,-24.829Z" style="fill:#fc7808;fill-rule:nonzero;"/><path d="M433.938,1443.2l-0,-17.196l-0.984,0l-85.2,83.621l18.504,0l67.68,-66.425Z" style="fill:#fc7808;fill-rule:nonzero;"/><path d="M409.079,1426.01l-18.504,0l-85.204,83.621l18.504,0l85.204,-83.621Z" style="fill:#fc7808;fill-rule:nonzero;"/><path d="M366.7,1426.01l-18.504,0l-85.204,83.621l18.504,0l85.204,-83.621Z" style="fill:#fc7808;fill-rule:nonzero;"/><path d="M649.854,593.142l-34.787,-0c-4.179,-0 -7.563,-3.388 -7.563,-7.563l0,-13.387l49.909,-0l-0,13.387c-0,4.175 -3.384,7.563 -7.559,7.563Z" style="fill:#280c54;fill-rule:nonzero;"/><path d="M251.246,19.275c-0,10.646 -8.629,19.275 -19.275,19.275c-10.65,-0 -19.275,-8.629 -19.275,-19.275c-0,-10.646 8.625,-19.275 19.275,-19.275c10.646,0 19.275,8.629 19.275,19.275Z" style="fill:#280c54;fill-rule:nonzero;"/><path d="M238.221,55.725l-0,-26.725l71.758,32.758c3.142,1.434 6.85,0.05 8.284,-3.087c1.433,-3.142 0.05,-6.85 -3.092,-8.284l-80.608,-36.8c-1.938,-0.883 -4.18,-0.72 -5.975,0.43c-1.792,1.154 -2.867,3.129 -2.867,5.258l-0,36.45c-0,3.45 2.796,6.25 6.25,6.25c3.45,-0 6.25,-2.8 6.25,-6.25Z" style="fill:#9398f9;fill-rule:nonzero;"/><path d="M235.358,19.275c0,1.871 -1.516,3.387 -3.387,3.387c-1.875,0 -3.388,-1.516 -3.388,-3.387c0,-1.871 1.513,-3.388 3.388,-3.388c1.871,0 3.387,1.517 3.387,3.388Z" style="fill:#491e87;fill-rule:nonzero;"/><path d="M487.396,1139.1l-136.188,0l0,-159.15l136.188,0l-0,159.15Zm-101.775,-53.662c2.458,12.608 6.367,21.062 9.367,25.975c3.887,1.029 7.92,1.704 12.1,1.825l-0,-27.8l-21.467,-0Zm25.454,-0l0,27.733c4.192,-0.196 8.271,-0.771 12.167,-1.846c2.991,-4.929 6.866,-13.358 9.312,-25.887l-21.479,-0Zm-49.267,-0c6.175,11.158 16.154,19.904 28.263,24.412c-2.854,-5.062 -6.263,-13.029 -8.483,-24.412l-19.78,-0Zm74.78,-0c-2.196,11.27 -5.55,19.17 -8.396,24.241c11.841,-4.575 21.562,-13.25 27.621,-24.241l-19.225,-0Zm2.337,-23.913c-0.104,7.517 -0.762,14.083 -1.692,19.925l20.496,0c2.738,-6.142 4.483,-12.821 4.759,-19.925l-23.563,0Zm-27.85,0l0,19.925l22.171,0c0.942,-5.833 1.587,-12.408 1.679,-19.925l-23.85,0Zm-27.833,0c0.104,7.517 0.746,14.092 1.679,19.925l22.167,0l-0,-19.925l-23.846,0Zm-28.129,0c0.262,7.104 2.029,13.783 4.791,19.925l21.029,0c-0.933,-5.842 -1.575,-12.408 -1.679,-19.925l-24.141,0Zm122.875,-15.417c-3.775,0 -6.821,3.067 -6.821,6.842c-0,1.858 0.758,3.533 1.966,4.767l0.005,0.008c1.245,1.267 2.97,2.067 4.887,2.067l1.021,-0.209l0.004,0.005l0.013,-0.005c1.612,-0.258 3.025,-0.995 4.054,-2.175l0.408,-0.6c0.308,-0.441 0.638,-0.854 0.838,-1.362c0.308,-0.763 0.495,-1.583 0.5,-2.467l0.004,-0.029c-0,-1.733 -0.7,-3.275 -1.763,-4.483l-0.241,-0.354l-0.709,-0.475c-1.158,-0.9 -2.546,-1.53 -4.129,-1.53l-0.037,0Zm-40.696,-8.5c0.929,5.834 1.541,12.442 1.654,19.93l23.583,-0c-0.283,-7.08 -1.933,-13.8 -4.687,-19.93l-20.55,0Zm-26.217,0l0,19.93l23.871,-0c-0.092,-7.488 -0.725,-14.084 -1.654,-19.93l-22.217,0Zm-26.192,0c-0.937,5.846 -1.562,12.442 -1.662,19.93l23.867,-0l-0,-19.93l-22.205,0Zm-25.125,0c-2.754,6.117 -4.35,12.85 -4.608,19.93l24.092,-0c0.091,-7.488 0.716,-14.084 1.646,-19.93l-21.13,0Zm71.834,-21.216c1.854,4.554 3.658,10.262 5.021,17.237l19.233,0c-4.808,-8.671 -11.875,-15.916 -20.471,-20.829c0.383,-0.854 0.596,-1.8 0.596,-2.796c-0,-3.775 -3.067,-6.837 -6.842,-6.837l-0.037,-0c-2.929,-0 -5.417,1.841 -6.388,4.429c-3.737,-1 -7.621,-1.604 -11.629,-1.783l0,27.816l21.558,0c-1.329,-6.821 -3.087,-12.425 -4.9,-16.921c0.455,0.092 0.921,0.142 1.396,0.142c0.867,0 1.7,-0.162 2.463,-0.458Zm-24.504,-10.571c-4.225,0.137 -8.313,0.804 -12.234,1.871c-2.991,5.004 -6.879,13.421 -9.312,25.937l21.546,0l-0,-27.808Zm-17.125,3.433c-12.067,4.521 -22.046,13.234 -28.213,24.375l19.804,0c2.209,-11.271 5.563,-19.254 8.409,-24.375Zm88.029,-6.087c-3.775,-0 -6.821,3.062 -6.821,6.837c-0,3.784 3.079,6.846 6.854,6.846c3.779,0 6.842,-3.062 6.842,-6.846c-0,-3.775 -3.063,-6.837 -6.842,-6.837l-0.033,-0Zm-142.63,21.837l-40.595,0l-0,-17.629l29.312,-27.425l11.283,0l0,45.054Z" style="fill:#c5c7cd;fill-rule:nonzero;"/><path d="M478.025,1059.8c-1.917,-0 -3.642,-0.8 -4.887,-2.067l-0.005,-0.008c-1.208,-1.234 -1.966,-2.909 -1.966,-4.767c-0,-3.775 3.046,-6.842 6.821,-6.842l0.037,0c1.583,0 2.971,0.63 4.129,1.53l0.709,0.475l0.241,0.354c1.063,1.208 1.763,2.75 1.763,4.483l-0.004,0.029c-0.005,0.884 -0.192,1.704 -0.5,2.467c-0.2,0.508 -0.53,0.921 -0.838,1.362l-0.408,0.6c-1.029,1.18 -2.442,1.917 -4.054,2.175l-0.013,0.005l-0.004,-0.005l-1.021,0.209Zm0,-42.942c-3.775,0 -6.854,-3.062 -6.854,-6.846c-0,-3.775 3.046,-6.837 6.821,-6.837l0.033,-0c3.779,-0 6.842,3.062 6.842,6.837c-0,3.784 -3.063,6.846 -6.842,6.846Zm-48.896,0c-0.475,0 -0.941,-0.05 -1.396,-0.142c-1.487,-3.704 -3.012,-6.662 -4.354,-8.929c-0.225,-0.062 -0.45,-0.125 -0.675,-0.183c0.971,-2.588 3.459,-4.429 6.388,-4.429l0.037,-0c3.775,-0 6.842,3.062 6.842,6.837c-0,0.996 -0.213,1.942 -0.596,2.796c-2.258,-1.292 -4.621,-2.425 -7.079,-3.375c1.058,1.921 2.183,4.238 3.296,6.967c-0.763,0.296 -1.596,0.458 -2.463,0.458Z" style="fill:#dbdbdb;fill-rule:nonzero;"/><path d="M505.417,1139.1l-18.021,0l-0,-159.15l19.192,0l-0,159.113c-0.388,0.025 -0.775,0.037 -1.171,0.037Z" style="fill:#220a48;fill-rule:nonzero;"/><path d="M506.588,1139.07l-0,-159.113l0.041,0c8.975,0 16.25,7.275 16.25,16.25l0,125.438c0,9.254 -7.196,16.82 -16.291,17.425Z" style="fill:#5152d1;fill-rule:nonzero;"/><path d="M335.362,1026.08l-40.595,0l-0,-1.071l40.595,0l0,1.071Zm-40.595,-18.7l-0,-8.117c-0,-10.662 8.646,-19.308 19.312,-19.308l10,0l-29.312,27.425Z" style="fill:#7e82d6;fill-rule:nonzero;"/><path d="M335.362,1026.08l0,-46.125l15.846,0l0,17.529l-15.846,0l0,28.596Z" style="fill:#7e82d6;fill-rule:nonzero;"/><path d="M335.362,1139.1l-5.962,0l5.962,-5.579l0,5.579Zm-24.704,-0.529c-8.391,-1.942 -14.812,-9.021 -15.77,-17.75l34.745,-0l-18.975,17.75Zm24.704,-30.954l-40.595,-0l-0,-4.713l40.595,0l0,4.713Zm0,-20.554l-37.466,-0l37.466,-35.059l0,35.059Z" style="fill:#c5c7cd;fill-rule:nonzero;"/><path d="M335.362,1102.91l-40.595,0l-0,-12.916l3.129,-2.925l37.466,-0l0,-35.059l0,50.9Z" style="fill:#7e82d6;fill-rule:nonzero;"/><path d="M294.767,1067.15l-0,-27.871l32.508,0l-32.508,27.871Z" style="fill:#c5c7cd;fill-rule:nonzero;"/><path d="M294.767,1071.91l-0,-4.758l32.508,-27.871l2.358,0l-34.866,32.629Z" style="fill:#7e82d6;fill-rule:nonzero;"/><path d="M351.208,1139.1l-15.846,0l0,-5.579l15.846,-14.813l0,20.392Zm0,-31.483l-15.846,-0l0,-55.613l15.846,-14.841l0,70.454Zm0,-81.542l-15.846,0l0,-28.596l15.846,0l0,28.596Z" style="fill:#7e82d6;fill-rule:nonzero;"/><path d="M329.4,1139.1l-14.096,0c-1.596,0 -3.15,-0.183 -4.646,-0.529l18.975,-17.75l-34.745,-0c-0.08,-0.742 -0.121,-1.496 -0.121,-2.263l-0,-10.941l56.441,-0l0,11.091l-15.846,14.813l-5.962,5.579Zm-34.633,-49.112l-0,-18.08l34.866,-32.629l-34.866,0l-0,-13.204l56.441,0l0,11.088l-15.846,14.841l-37.466,35.059l-3.129,2.925Z" style="fill:#7e82d6;fill-rule:nonzero;"/><path d="M407.088,1113.24c-4.18,-0.121 -8.213,-0.796 -12.1,-1.825c-3,-4.913 -6.909,-13.367 -9.367,-25.975l21.467,-0l-0,27.8Zm3.987,-0.067l0,-27.733l21.479,-0c-2.446,12.529 -6.321,20.958 -9.312,25.887c-3.896,1.075 -7.975,1.65 -12.167,1.846Zm-21.004,-3.321c-12.109,-4.508 -22.088,-13.254 -28.263,-24.412l19.78,-0c2.22,11.383 5.629,19.35 8.483,24.412Zm38.121,-0.171c2.846,-5.071 6.2,-12.971 8.396,-24.241l19.225,-0c-6.059,10.991 -15.78,19.666 -27.621,24.241Zm29.537,-28.229l-20.496,0c0.93,-5.842 1.588,-12.408 1.692,-19.925l23.563,0c-0.276,7.104 -2.021,13.783 -4.759,19.925Zm-24.483,0l-22.171,0l0,-19.925l23.85,0c-0.092,7.517 -0.737,14.092 -1.679,19.925Zm-26.158,0l-22.167,0c-0.933,-5.833 -1.575,-12.408 -1.679,-19.925l23.846,0l-0,19.925Zm-26.155,0l-21.029,0c-2.762,-6.142 -4.529,-12.821 -4.791,-19.925l24.141,0c0.104,7.517 0.746,14.083 1.679,19.925Zm81.596,-23.912l-23.583,-0c-0.113,-7.488 -0.725,-14.096 -1.654,-19.93l20.55,0c2.754,6.13 4.404,12.85 4.687,19.93Zm-27.583,-0l-23.871,-0l0,-19.93l22.217,0c0.929,5.846 1.562,12.442 1.654,19.93Zm-27.858,-0l-23.867,-0c0.1,-7.488 0.725,-14.084 1.662,-19.93l22.205,0l-0,19.93Zm-27.846,-0l-24.092,-0c0.258,-7.08 1.854,-13.813 4.608,-19.93l21.13,0c-0.93,5.846 -1.555,12.442 -1.646,19.93Zm76.604,-23.909l-19.233,0c-1.363,-6.975 -3.167,-12.683 -5.021,-17.237c1.687,-0.65 3.05,-1.95 3.783,-3.592c8.596,4.913 15.663,12.158 20.471,20.829Z" style="fill:#c5c7cd;fill-rule:nonzero;"/><path d="M431.592,1016.4c-1.113,-2.729 -2.238,-5.046 -3.296,-6.967c2.458,0.95 4.821,2.083 7.079,3.375c-0.733,1.642 -2.096,2.942 -3.783,3.592Z" style="fill:#dbdbdb;fill-rule:nonzero;"/><path d="M432.633,1033.63l-21.558,0l0,-27.816c4.008,0.179 7.892,0.783 11.629,1.783c-0.279,0.75 -0.433,1.562 -0.433,2.408c-0,3.304 2.35,6.059 5.462,6.704c1.813,4.496 3.571,10.1 4.9,16.921Z" style="fill:#c5c7cd;fill-rule:nonzero;"/><path d="M427.733,1016.71c-3.112,-0.645 -5.462,-3.4 -5.462,-6.704c-0,-0.846 0.154,-1.658 0.433,-2.408c0.225,0.058 0.45,0.121 0.675,0.183c1.342,2.267 2.867,5.225 4.354,8.929Z" style="fill:#dbdbdb;fill-rule:nonzero;"/><path d="M407.088,1033.63l-21.546,0c2.433,-12.516 6.321,-20.933 9.312,-25.937c3.921,-1.067 8.009,-1.734 12.234,-1.871l-0,27.808Zm-25.534,0l-19.804,0c6.167,-11.141 16.146,-19.854 28.213,-24.375c-2.846,5.121 -6.2,13.104 -8.409,24.375Z" style="fill:#c5c7cd;fill-rule:nonzero;"/><path d="M498.296,971.621l-192.55,-0c-10.667,-0 -19.313,8.646 -19.313,19.308l0,119.3c0,11.346 9.196,20.542 20.542,20.542l190.108,-0c9.646,-0 17.463,-7.817 17.463,-17.463l-0,-125.437c-0,-8.975 -7.275,-16.25 -16.25,-16.25Z" style="fill:#0418b2;fill-rule:nonzero;"/><path d="M374.888,1049.21l23.866,0l0,-19.929l-22.204,0c-0.937,5.846 -1.562,12.442 -1.662,19.929Zm-21.413,27.9c6.175,11.159 16.154,19.904 28.263,24.413c-2.855,-5.063 -6.263,-13.029 -8.484,-24.413l-19.779,0Zm33.183,25.975c3.884,1.029 7.917,1.704 12.096,1.825l0,-27.8l-21.466,0c2.458,12.609 6.366,21.063 9.37,25.975Zm-10.07,-29.962l22.166,-0l0,-19.925l-23.846,-0c0.105,7.516 0.746,14.091 1.68,19.925Zm52.312,-0l20.496,-0c2.737,-6.142 4.483,-12.821 4.758,-19.925l-23.566,-0c-0.1,7.516 -0.759,14.083 -1.688,19.925Zm-26.158,3.987l-0,27.734c4.191,-0.196 8.271,-0.771 12.166,-1.846c2.992,-4.929 6.867,-13.359 9.313,-25.888l-21.479,0Zm17.116,24.242c11.842,-4.575 21.563,-13.25 27.621,-24.242l-19.225,0c-2.196,11.271 -5.55,19.171 -8.396,24.242Zm-42.65,-76.05l21.546,-0l0,-27.808c-4.225,0.137 -8.312,0.804 -12.233,1.87c-2.992,5.005 -6.879,13.421 -9.313,25.938Zm47.75,3.979l-22.216,0l-0,19.929l23.871,0c-0.092,-7.487 -0.725,-14.083 -1.655,-19.929Zm-9.912,-29.829c-3.942,-1.108 -8.054,-1.775 -12.304,-1.967l-0,27.817l21.558,-0c-2.421,-12.446 -6.287,-20.833 -9.254,-25.85Zm32.467,25.85c-6.071,-10.954 -15.746,-19.629 -27.55,-24.204c2.82,5.129 6.141,13.05 8.316,24.204l19.234,-0Zm-16.9,23.908l23.583,0c-0.283,-7.083 -1.934,-13.8 -4.688,-19.929l-20.55,0c0.93,5.833 1.542,12.442 1.655,19.929Zm-58.059,-19.929l-21.129,0c-2.754,6.117 -4.35,12.846 -4.608,19.929l24.091,0c0.092,-7.487 0.717,-14.083 1.646,-19.929Zm-1.633,23.917l-24.142,-0c0.263,7.104 2.029,13.783 4.792,19.925l21.029,-0c-0.933,-5.842 -1.575,-12.409 -1.679,-19.925Zm55.671,-0l-23.85,-0l-0,19.925l22.171,-0c0.941,-5.834 1.587,-12.409 1.679,-19.925Zm-44.963,-52.271c-12.066,4.521 -22.05,13.233 -28.212,24.375l19.804,-0c2.208,-11.271 5.562,-19.254 8.408,-24.375Z" style="fill:#f0f5f7;fill-rule:nonzero;"/><path d="M135.421,668.725l-4.258,-0c-4.175,-3.758 -6.8,-9.208 -6.8,-15.267l-0,-119.295c-0,-7.713 4.52,-14.371 11.058,-17.467l-0,152.029Z" style="fill:#dbdbdb;fill-rule:nonzero;"/><path d="M335.013,674l-32.484,-0l32.833,-30.721l0,30.717c-0.116,0.004 -0.233,0.004 -0.349,0.004Zm-51.796,-0l-18.279,-0l-0,-27.104l2.054,2.054l-0,-17.35l17.362,-0c1.821,-0 3.554,-0.363 5.138,-1.021l40.137,0l-46.412,43.421Zm-34.125,-0l-104.188,-0c-5.283,-0 -10.104,-1.996 -13.741,-5.275l4.258,-0l-0,-152.029c2.504,-1.184 5.3,-1.846 8.254,-1.846l105.417,-0l-0,31.992l-56.609,-0c-7.395,-0 -13.395,6 -13.395,13.4l-0,57.958c-0,7.4 6,13.4 13.395,13.4l56.609,-0l-0,42.4Zm102.116,-10.913l0,-138.295c0.817,1.941 1.267,4.071 1.267,6.308l0,125.438c0,2.316 -0.45,4.529 -1.267,6.549Zm-15.846,-45.712l-37.608,-0l0,-20.425l37.608,-35.188l0,55.613Zm-37.608,-38.504l0,-18.629c0,-4.688 -2.404,-8.813 -6.05,-11.205l37.925,0l-31.875,29.834Zm37.608,-43.038l-59.441,0l22.429,-20.983l37.012,-0l0,20.983Zm-70.424,-7.791l-0,-13.192l14.1,-0l-14.1,13.192Z" style="fill:#c5c7cd;fill-rule:nonzero;"/><path d="M302.529,674l-19.312,-0l46.412,-43.421l-40.137,0c4.85,-2.017 8.262,-6.8 8.262,-12.379l0,-0.825l37.608,-0l0,25.904l-32.833,30.721Zm-4.775,-77.05l0,-18.079l31.875,-29.834l-37.925,0c-2.108,-1.387 -4.633,-2.195 -7.35,-2.195l-19.416,-0l-0,-18.8l14.1,-13.192l19.312,-0l-22.429,20.983l59.441,0l0,25.929l-37.608,35.188Z" style="fill:#7e82d6;fill-rule:nonzero;"/><path d="M264.938,674l-15.846,-0l-0,-42.4l0.55,-0l15.296,15.296l-0,27.104Zm70.424,-0.004l0,-159.146l0.863,-0c6.742,-0 12.521,4.1 14.983,9.942l0,138.295c-2.55,6.296 -8.666,10.767 -15.846,10.909Zm-70.424,-127.154l-15.846,-0l-0,-31.992l15.846,-0l-0,31.992Z" style="fill-rule:nonzero;"/><path d="M268.975,595.879c-1.517,0 -2.917,-0.508 -4.037,-1.362l-0,-10.592c1.12,-0.858 2.52,-1.367 4.037,-1.367c3.679,0 6.663,2.984 6.663,6.663c-0,3.679 -2.984,6.658 -6.663,6.658Z" style="fill:#c5c7cd;fill-rule:nonzero;"/><path d="M264.938,594.517c-1.592,-1.217 -2.621,-3.138 -2.621,-5.296c-0,-2.163 1.029,-4.079 2.621,-5.296l-0,10.592Z" style="fill:#7e82d6;fill-rule:nonzero;"/><path d="M238.421,595.879c-3.679,0 -6.663,-2.979 -6.663,-6.658c0,-3.679 2.984,-6.663 6.663,-6.663c3.679,0 6.658,2.984 6.658,6.663c0,3.679 -2.979,6.658 -6.658,6.658Zm-30.558,0c-3.68,0 -6.659,-2.979 -6.659,-6.658c0,-3.679 2.979,-6.663 6.659,-6.663c3.679,0 6.658,2.984 6.658,6.663c-0,3.679 -2.979,6.658 -6.658,6.658Z" style="fill:#c5c7cd;fill-rule:nonzero;"/><path d="M266.992,648.95l-2.054,-2.054l-0,-16.317l24.554,0c-1.584,0.658 -3.317,1.021 -5.138,1.021l-17.362,-0l-0,17.35Zm-17.9,-17.35l-56.609,-0c-7.395,-0 -13.395,-6 -13.395,-13.4l-0,-57.958c-0,-7.4 6,-13.4 13.395,-13.4l56.609,-0l-0,84.758Zm-10.671,-49.042c-3.679,0 -6.663,2.984 -6.663,6.663c0,3.679 2.984,6.658 6.663,6.658c3.679,0 6.658,-2.979 6.658,-6.658c0,-3.679 -2.979,-6.663 -6.658,-6.663Zm-30.558,0c-3.68,0 -6.659,2.984 -6.659,6.663c0,3.679 2.979,6.658 6.659,6.658c3.679,0 6.658,-2.979 6.658,-6.658c-0,-3.679 -2.979,-6.663 -6.658,-6.663Zm89.891,34.817l-21.833,-0l21.833,-20.425l0,20.425Zm-32.816,-7.792l-0,-15.066c1.12,0.854 2.52,1.362 4.037,1.362c3.679,0 6.663,-2.979 6.663,-6.658c-0,-3.679 -2.984,-6.663 -6.663,-6.663c-1.517,0 -2.917,0.509 -4.037,1.367l-0,-34.888l26.766,0c3.646,2.392 6.05,6.517 6.05,11.205l0,18.629l-32.816,30.712Z" style="fill:#c5c7cd;fill-rule:nonzero;"/><path d="M289.492,630.579l-24.554,0l-0,-20.996l32.816,-30.712l0,18.079l-21.833,20.425l21.833,-0l0,0.825c0,5.579 -3.412,10.362 -8.262,12.379Zm2.212,-81.542l-26.766,0l-0,-2.195l19.416,-0c2.717,-0 5.242,0.808 7.35,2.195Z" style="fill:#7e82d6;fill-rule:nonzero;"/><path d="M264.938,646.896l-15.296,-15.296l-0.55,-0l-0,-84.758l15.846,-0l-0,37.083c-1.592,1.217 -2.621,3.133 -2.621,5.296c-0,2.158 1.029,4.079 2.621,5.296l-0,52.379Z" style="fill:#7e82d6;fill-rule:nonzero;"/><path d="M327.896,506.517l-192.554,-0c-10.667,-0 -19.313,8.645 -19.313,19.312l0,119.296c0,11.346 9.196,20.542 20.542,20.542l190.108,-0c9.646,-0 17.463,-7.817 17.463,-17.463l-0,-125.437c-0,-8.975 -7.275,-16.25 -16.246,-16.25Z" style="fill:#187ff7;fill-rule:nonzero;"/><path d="M260.642,587.546c-3.675,-0 -6.659,-2.979 -6.659,-6.659c0,-3.679 2.984,-6.662 6.659,-6.662c3.679,-0 6.662,2.983 6.662,6.662c0,3.68 -2.983,6.659 -6.662,6.659Zm-30.554,-0c-3.68,-0 -6.663,-2.979 -6.663,-6.659c0,-3.679 2.983,-6.662 6.663,-6.662c3.679,-0 6.658,2.983 6.658,6.662c-0,3.68 -2.979,6.659 -6.658,6.659Zm-30.559,-0c-3.679,-0 -6.658,-2.979 -6.658,-6.659c-0,-3.679 2.979,-6.662 6.658,-6.662c3.679,-0 6.663,2.983 6.663,6.662c-0,3.68 -2.984,6.659 -6.663,6.659Zm76.492,-49.038l-91.871,0c-7.396,0 -13.396,6 -13.396,13.4l0,57.959c0,7.4 6,13.4 13.396,13.4l57.158,-0l17.35,17.35l0,-17.35l17.363,-0c7.4,-0 13.4,-6 13.4,-13.4l-0,-57.959c-0,-7.4 -6,-13.4 -13.4,-13.4Z" style="fill:#f0f5f7;fill-rule:nonzero;"/><path d="M1148.43,1014.23c0,-7.046 4.05,-10.579 7.625,-13.7c3.292,-2.867 5.892,-5.133 5.892,-9.879c-0,-4.746 -2.6,-7.013 -5.892,-9.888c-3.575,-3.116 -7.625,-6.654 -7.625,-13.7c0,-7.05 4.05,-10.579 7.625,-13.7c3.292,-2.871 5.892,-5.137 5.892,-9.879c-0,-4.746 -2.6,-7.017 -5.892,-9.887c-3.575,-3.117 -7.625,-6.659 -7.625,-13.709c0,-7.054 4.05,-10.591 7.625,-13.712c3.292,-2.879 5.892,-5.15 5.892,-9.9c-0,-4.75 -2.6,-7.021 -5.892,-9.896c-3.575,-3.121 -7.625,-6.663 -7.625,-13.717c0,-1.4 1.134,-2.537 2.534,-2.537c1.4,-0 2.537,1.137 2.537,2.537c0,4.75 2.6,7.021 5.892,9.9c3.571,3.121 7.625,6.659 7.625,13.713c-0,7.054 -4.054,10.596 -7.625,13.716c-3.292,2.875 -5.892,5.146 -5.892,9.896c0,4.746 2.6,7.017 5.892,9.892c3.571,3.117 7.625,6.654 7.625,13.704c-0,7.05 -4.054,10.583 -7.63,13.7c-3.291,2.871 -5.887,5.138 -5.887,9.879c0,4.746 2.596,7.009 5.892,9.884c3.571,3.12 7.625,6.658 7.625,13.704c-0,7.046 -4.054,10.583 -7.625,13.7c-3.296,2.875 -5.892,5.137 -5.892,9.879c0,1.4 -1.137,2.537 -2.537,2.537c-1.4,0 -2.534,-1.137 -2.534,-2.537Z" style="fill:#fff;fill-rule:nonzero;"/><path d="M197.371,1222.8l4.321,0l-0,-26.754l-4.321,-0l-0,26.754Zm-0,-47.792l4.321,0l-0,-26.758l-4.321,0l-0,26.758Zm8.067,19.48l18.92,18.925l3.055,-3.059l-18.921,-18.925l-3.054,3.059Zm21.975,-33.796l-3.055,-3.05l-18.92,18.916l3.054,3.059l18.921,-18.925Zm-55.767,-0l18.921,18.925l3.054,-3.059l-18.921,-18.916l-3.054,3.05Zm38.4,22.675l-0,4.321l26.758,-0l0,-4.321l-26.758,-0Zm-38.4,26.987l3.054,3.059l18.921,-18.925l-3.054,-3.059l-18.921,18.925Zm17.367,-26.987l-26.759,-0l0,4.321l26.759,-0l-0,-4.321Z" style="fill:#fff;fill-rule:nonzero;"/><path d="M424.429,485.192l4.325,-0l0,-26.755l-4.325,0l0,26.755Zm0,-47.792l4.325,-0l0,-26.754l-4.325,-0l0,26.754Zm8.067,19.483l18.925,18.921l3.05,-3.054l-18.917,-18.921l-3.058,3.054Zm21.975,-33.791l-3.05,-3.059l-18.925,18.921l3.058,3.054l18.917,-18.916Zm-55.763,-0l18.917,18.916l3.058,-3.054l-18.92,-18.921l-3.055,3.059Zm38.396,22.671l0,4.316l26.763,0l-0,-4.316l-26.763,-0Zm-38.396,26.987l3.055,3.054l18.92,-18.921l-3.058,-3.054l-18.917,18.921Zm17.367,-26.987l-26.762,-0l-0,4.316l26.762,0l0,-4.316Z" style="fill:#fff;fill-rule:nonzero;"/><path d="M1118.45,1116.2c2.275,-0 4.504,-0.925 6.113,-2.533c1.608,-1.609 2.529,-3.838 2.529,-6.109c-0,-2.275 -0.921,-4.5 -2.529,-6.108c-1.609,-1.613 -3.838,-2.533 -6.113,-2.533c-2.271,-0 -4.5,0.92 -6.109,2.533c-1.608,1.608 -2.529,3.833 -2.529,6.108c0,2.271 0.921,4.5 2.529,6.109c1.609,1.608 3.838,2.533 6.109,2.533Z" style="fill:#e6e8ef;fill-rule:nonzero;"/><path d="M1207.54,1116.2l0.041,-0c4.775,-0 8.642,-3.871 8.642,-8.642c0,-4.775 -3.867,-8.641 -8.642,-8.641l-0.041,-0c-4.775,-0 -8.642,3.866 -8.642,8.641c0,4.771 3.867,8.642 8.642,8.642Z" style="fill:#e6e8ef;fill-rule:nonzero;"/><path d="M1162.98,1116.2l0.042,-0c4.775,-0 8.642,-3.871 8.642,-8.642c-0,-4.775 -3.867,-8.641 -8.642,-8.641l-0.042,-0c-4.77,-0 -8.641,3.866 -8.641,8.641c-0,4.771 3.871,8.642 8.641,8.642Z" style="fill:#e6e8ef;fill-rule:nonzero;"/><path d="M1118.45,1080.7c2.275,0 4.504,-0.921 6.113,-2.533c1.608,-1.609 2.529,-3.834 2.529,-6.109c-0,-2.275 -0.921,-4.5 -2.529,-6.112c-1.609,-1.608 -3.838,-2.529 -6.113,-2.529c-2.271,-0 -4.5,0.921 -6.109,2.529c-1.608,1.612 -2.529,3.837 -2.529,6.112c0,2.275 0.921,4.5 2.529,6.109c1.609,1.612 3.838,2.533 6.109,2.533Z" style="fill:#e6e8ef;fill-rule:nonzero;"/><path d="M1207.54,1080.7l0.041,0c4.775,0 8.642,-3.867 8.642,-8.642c0,-4.77 -3.867,-8.641 -8.642,-8.641l-0.041,-0c-4.775,-0 -8.642,3.871 -8.642,8.641c0,4.775 3.867,8.642 8.642,8.642Z" style="fill:#e6e8ef;fill-rule:nonzero;"/><path d="M1162.98,1080.7l0.042,0c4.775,0 8.642,-3.867 8.642,-8.642c-0,-4.77 -3.867,-8.641 -8.642,-8.641l-0.042,-0c-4.77,-0 -8.641,3.871 -8.641,8.641c-0,4.775 3.871,8.642 8.641,8.642Z" style="fill:#e6e8ef;fill-rule:nonzero;"/><path d="M1118.45,1151.69c2.275,-0 4.504,-0.917 6.113,-2.53c1.608,-1.608 2.529,-3.833 2.529,-6.108c-0,-2.279 -0.921,-4.504 -2.529,-6.112c-1.609,-1.605 -3.838,-2.53 -6.113,-2.53c-2.271,0 -4.5,0.925 -6.109,2.53c-1.608,1.608 -2.529,3.833 -2.529,6.112c0,2.275 0.921,4.5 2.529,6.108c1.609,1.613 3.838,2.53 6.109,2.53Z" style="fill:#e6e8ef;fill-rule:nonzero;"/><path d="M1207.54,1151.69l0.041,-0c4.775,-0 8.642,-3.867 8.642,-8.638c0,-4.771 -3.867,-8.642 -8.642,-8.642l-0.041,0c-4.775,0 -8.642,3.871 -8.642,8.642c0,4.771 3.867,8.638 8.642,8.638Z" style="fill:#e6e8ef;fill-rule:nonzero;"/><path d="M1162.98,1151.69l0.042,-0c4.775,-0 8.642,-3.867 8.642,-8.638c-0,-4.771 -3.867,-8.642 -8.642,-8.642l-0.042,0c-4.77,0 -8.641,3.871 -8.641,8.642c-0,4.771 3.871,8.638 8.641,8.638Z" style="fill:#e6e8ef;fill-rule:nonzero;"/><path d="M1116.44,681.992l-0,-13.792l-7.65,-0l-0,13.792l-13.796,-0l-0,7.654l13.796,-0l-0,13.791l7.65,0l-0,-13.791l13.792,-0l-0,-7.654l-13.792,-0Z" style="fill:#fff;fill-rule:nonzero;"/><path d="M444.517,1291.42l0.046,-0c4.77,-0 8.637,-3.871 8.637,-8.642c0,-4.775 -3.867,-8.642 -8.637,-8.642l-0.046,0c-4.771,0 -8.638,3.867 -8.638,8.642c0,4.771 3.867,8.642 8.638,8.642Zm-44.534,-17.284c-2.279,0 -4.504,0.925 -6.112,2.534c-1.608,1.604 -2.529,3.829 -2.529,6.108c-0,2.275 0.921,4.5 2.529,6.108c1.608,1.613 3.833,2.534 6.112,2.534c2.275,-0 4.5,-0.921 6.109,-2.534c1.608,-1.608 2.533,-3.833 2.533,-6.108c0,-2.279 -0.925,-4.504 -2.533,-6.108c-1.609,-1.609 -3.834,-2.534 -6.109,-2.534Zm44.58,44.138l-0.046,-0c-4.771,-0 -8.638,3.871 -8.638,8.637c0,4.775 3.867,8.642 8.638,8.642l0.046,-0c4.77,-0 8.637,-3.867 8.637,-8.642c0,-4.766 -3.867,-8.637 -8.637,-8.637Zm-44.58,-0c-2.279,-0 -4.504,0.921 -6.112,2.529c-1.608,1.608 -2.529,3.833 -2.529,6.108c-0,2.279 0.921,4.504 2.529,6.113c1.608,1.608 3.833,2.529 6.112,2.529c2.275,-0 4.5,-0.921 6.109,-2.529c1.608,-1.609 2.533,-3.834 2.533,-6.113c0,-2.275 -0.925,-4.5 -2.533,-6.108c-1.609,-1.608 -3.834,-2.529 -6.109,-2.529Z" style="fill:#fff;fill-rule:nonzero;"/><rect x="968.559" y="1433.9" width="19.775" height="63.325" style="fill-rule:nonzero;"/><rect x="568.825" y="1433.9" width="19.775" height="63.325" style="fill-rule:nonzero;"/><rect x="487.396" y="1479.09" width="582.367" height="30.537" style="fill-rule:nonzero;"/><path d="M1248.54,802.721l-2.412,-0.042c-0.012,-1.667 -0.254,-3.275 -0.696,-4.796l2.321,-0.683c-0.521,-1.763 -1.283,-3.45 -2.287,-4.988l-2.042,1.305c-0.858,-1.35 -1.921,-2.571 -3.133,-3.621l1.591,-1.829c-1.396,-1.221 -2.95,-2.217 -4.629,-2.971l-1,2.204c-1.454,-0.658 -2.987,-1.108 -4.616,-1.338l0.345,-2.416c-0.879,-0.121 -1.787,-0.184 -2.692,-0.188c-0.937,0 -1.874,0.063 -2.791,0.192l0.35,2.417c-1.629,0.237 -3.163,0.683 -4.604,1.35l-1.005,-2.23c-1.687,0.767 -3.225,1.771 -4.629,2.984l1.605,1.837c-1.221,1.046 -2.271,2.259 -3.155,3.621l-2.054,-1.312c-0.996,1.55 -1.771,3.233 -2.279,4.991l2.338,0.679c-0.434,1.517 -0.7,3.088 -0.705,4.734l-2.416,0.033c-0.004,1.833 0.254,3.671 0.77,5.429l2.342,-0.687c0.446,1.575 1.134,3.037 1.992,4.366l-2.046,1.325c0.987,1.538 2.2,2.946 3.584,4.15l1.591,-1.833c1.213,1.05 2.558,1.917 4.033,2.592l-1.012,2.229c1.679,0.771 3.454,1.279 5.267,1.55l0.345,-2.413c0.784,0.113 1.571,0.188 2.392,0.192c0.825,0 1.613,-0.071 2.417,-0.179l0.329,2.417c1.833,-0.259 3.591,-0.78 5.279,-1.542l-1.004,-2.233c1.462,-0.667 2.829,-1.525 4.029,-2.571l1.604,1.841c1.388,-1.212 2.609,-2.595 3.604,-4.145l-2.054,-1.317c0.867,-1.342 1.542,-2.804 2.017,-4.375l2.333,0.7c0.513,-1.758 0.779,-3.571 0.783,-5.429Zm-8.387,-24.617c9.438,4.2 16.013,13.654 15.983,24.642c-0.041,14.862 -12.125,26.866 -26.958,26.825c-14.854,-0.046 -26.85,-12.113 -26.808,-26.979c0.029,-10.988 6.641,-20.4 16.1,-24.546l0.433,-154.325c-9.433,-4.196 -15.992,-13.65 -15.962,-24.638c0.029,-8.987 4.466,-16.929 11.266,-21.779l-0.066,23.646l15.654,9.104l15.683,-9.017l0.067,-23.641c6.775,4.883 11.187,12.85 11.162,21.837c-0.029,10.988 -6.662,20.404 -16.121,24.55l-0.433,154.321Z" style="fill:#e6e8ef;fill-rule:nonzero;"/></svg>