<?xml version="1.0" encoding="UTF-8" standalone="no"?><!DOCTYPE svg PUBLIC "-//W3C//DTD SVG 1.1//EN" "http://www.w3.org/Graphics/SVG/1.1/DTD/svg11.dtd"><svg width="100%" height="100%" viewBox="0 0 807 1051" version="1.1" xmlns="http://www.w3.org/2000/svg" xmlns:xlink="http://www.w3.org/1999/xlink" xml:space="preserve" xmlns:serif="http://www.serif.com/" style="fill-rule:evenodd;clip-rule:evenodd;stroke-linejoin:round;stroke-miterlimit:2;"><path d="M474.593,73.648c11.175,-26.891 22.542,-53.837 51.533,-67.456c23.463,-11.021 47.978,-6.871 68.826,8.805c59.079,44.422 7.593,93.361 74.842,177.595c20.892,26.173 46.179,47.307 58.701,77.979c17.518,42.931 -3.352,63.548 -36.81,84.109c-160.044,98.381 -243.942,-103.613 -240.932,-149.822c2.243,-34.375 16.647,-113.899 23.84,-131.21Z" style="fill:#13375b;fill-rule:nonzero;"/><path d="M308.489,597.201c6.749,-1.068 23.136,-12.806 28.922,-13.874c4.485,-0.828 14.18,-2.295 18.312,-2.915c5.062,-18.902 30.769,-121.954 33.649,-152.162c3.119,-32.725 26.26,-174.304 26.26,-174.304l59.925,10.892c0,0 -24.886,108.913 -31.768,161.727c-5.908,45.358 -55.678,147.347 -62.006,158.11c-0.009,0.26 -0.011,0.511 -0.028,0.786c-0.964,16.007 -8.675,10.672 -8.675,10.672l-12.533,3.202c0,-0 -44.345,4.267 -47.238,5.335c-2.891,1.068 -11.567,-6.403 -4.82,-7.469Z" style="fill:#f7a491;fill-rule:nonzero;"/><path d="M467.884,171.184c-42.363,14.365 -66.45,129.53 -66.45,129.53c0,0 66.463,18.554 83.492,8.823c0,0 19.329,-85.674 26.254,-82.679l-43.296,-55.674Z" style="fill:#6a97ce;fill-rule:nonzero;"/><path d="M140.199,796.176c-12.964,34.184 -19.689,67.114 -20.295,71.097c-0.29,1.913 2.414,11.207 2.163,13.196c-26.021,35.49 -63.415,43.254 -95.468,45.516c16.336,-15.947 40.325,-31.058 41.478,-36.109c1.833,-8.041 11.702,-43.842 16.555,-93.456c19.938,9.225 33.465,1.914 55.567,-0.244Z" style="fill:#f7a491;fill-rule:nonzero;"/><path d="M508.875,413.73l57.252,161.241c0,-0 -92,17.317 -126.395,23.625c-34.393,6.305 -226.562,14.702 -231.431,18.112c-3.615,2.533 -43.311,130.924 -61.044,201.721c-20.117,4.427 -54.552,-0.89 -72.871,-7.202c9.898,-101.296 45.647,-261.78 57.094,-279.25c18.643,-28.454 377.395,-118.247 377.395,-118.247Z" style="fill:#256653;fill-rule:nonzero;"/><path d="M285.228,866.858c-6.328,36.006 -6.763,69.613 -6.61,73.638c0.071,1.937 4.469,10.555 4.596,12.558c-18.909,39.739 -54.186,54.372 -85.248,62.602c13.059,-18.727 33.791,-38.067 33.978,-43.245c0.295,-8.243 3.279,-45.258 -1.253,-94.901c21.314,5.324 33.234,-4.392 54.537,-10.652Z" style="fill:#f7a491;fill-rule:nonzero;"/><path d="M575.703,422.1l22.224,37.927c33.791,57.743 7.881,132.033 -54.499,156.235c-0.338,0.131 -0.671,0.259 -0.997,0.384c-32.601,12.641 -219.793,56.898 -223.936,61.161c-3.077,3.166 -18.01,136.721 -22.162,209.587c-18.931,8.117 -53.753,9.347 -72.928,6.579c-9.261,-101.356 -4.219,-265.694 3.752,-285c12.981,-31.445 348.546,-186.873 348.546,-186.873Z" style="fill:#327f6b;fill-rule:nonzero;"/><path d="M275.748,941.618c4.984,-5.504 23.283,24.79 27.854,31.255c5.142,7.271 3.679,12.751 3.064,13.887c-1.623,3 -98.112,59.766 -121.644,63.808c-2.222,0.382 -6.074,-1.021 -7.044,-1.88c-9.196,-8.142 33.134,-68.251 52.143,-76.15c12.284,-5.106 23.205,-6.154 45.627,-30.92Z" style="fill:#13375b;fill-rule:nonzero;"/><path d="M116.825,868.363c5.928,-4.474 18.225,28.713 21.505,35.92c3.69,8.104 1.225,13.215 0.406,14.216c-2.156,2.642 -107.574,40.323 -131.446,39.883c-2.253,-0.042 -5.774,-2.145 -6.565,-3.168c-7.511,-9.72 45.336,-60.833 65.487,-65.031c13.025,-2.713 23.949,-1.697 50.613,-21.82Z" style="fill:#13375b;fill-rule:nonzero;"/><path d="M508.058,170.854l-0.002,-0c-1.095,0.006 -2.664,-0.378 -4.272,-0.882c-7.866,-1.407 -25.065,-3.468 -38.451,2.18c-16.278,6.868 -41.504,71.035 -40.003,136.903c0.604,10.069 1.214,19.085 1.734,25.37c4.109,49.752 18.383,143.115 19.153,143.61c19.418,12.498 136.568,-35.955 144.627,-46.597c8.06,-10.646 12.811,-139.966 16.718,-146.414l7.704,-112.47c-13.587,-4.056 -86.378,-1.849 -107.208,-1.7Z" style="fill:#9bc1f9;fill-rule:nonzero;"/><path d="M555.539,129.436c-0,0 -7.544,39.015 -6.034,54.406c1.509,15.392 -5.753,64.993 -38.33,65.158c-32.576,0.162 -6.185,-63.065 -3.117,-78.146c3.069,-15.082 3.794,-61.768 3.794,-61.768l43.687,20.35Z" style="fill:#f7a491;fill-rule:nonzero;"/><path d="M511.18,132.509c0.508,-12.773 0.672,-23.423 0.672,-23.423l43.687,20.35c-0,0 -1.543,7.977 -3.093,18.141c-19.122,3.843 -32.98,-3.234 -41.266,-15.068Z" style="fill:#f47458;fill-rule:nonzero;"/><path d="M571.504,21.753c0,0 16.832,9.338 22.981,29.58c6.172,20.241 -0.843,72.471 -44.328,85.072c-43.484,12.604 -62.32,-28.753 -53.364,-61.088c8.954,-32.334 28.436,-73.281 74.711,-53.564Z" style="fill:#f7a491;fill-rule:nonzero;"/><path d="M491.354,62.784c0.852,8.686 5.643,15.322 10.703,14.827c5.06,-0.496 8.468,-7.94 7.618,-16.623c-0.853,-8.685 -5.644,-15.323 -10.704,-14.826c-5.057,0.495 -8.468,7.937 -7.617,16.622Z" style="fill:#f7a491;fill-rule:nonzero;"/><path d="M566.407,19.113c-0,0 7.875,58.265 26.724,68.779c18.827,10.515 10.945,36.36 10.945,36.36c0,0 17.096,-60.016 2.199,-79.291c-14.898,-19.276 -39.868,-25.848 -39.868,-25.848Z" style="fill:#13375b;fill-rule:nonzero;"/><path d="M581.964,96.256c-5.107,7.59 -5.085,16.542 0.044,19.997c5.129,3.452 13.432,0.097 18.538,-7.493c5.107,-7.593 5.107,-16.545 -0.044,-19.997c-5.129,-3.453 -13.432,-0.098 -18.538,7.493Z" style="fill:#f7a491;fill-rule:nonzero;"/><path d="M518.615,99.497l30.648,7.713c-0,0 -3.684,11.641 -17.262,8.643c-16.556,-3.654 -13.386,-16.356 -13.386,-16.356Z" style="fill:#fff;fill-rule:nonzero;"/><path d="M805.891,585.572c-0.555,-1.394 -1.776,-1.423 -3.02,-1.461c-12.122,-0.371 -24.244,-0.915 -36.255,-2.713c-2.021,-0.3 -3.997,-0.75 -5.839,-1.487c-3.353,-1.337 -6.639,-1.304 -10.036,-0.369c-1.82,0.506 -3.685,0.602 -5.572,0.593c-6.083,-0.027 -23.49,-5.946 -32.415,-7.507c-2.042,-0.357 -3.663,-1.9 -4.174,-3.909c-8.791,-34.768 -27.641,-112.774 -30.083,-138.426c-3.13,-32.803 -25.779,-180.699 -25.779,-180.699l-60.608,16.903c-0,-0 24.932,109.168 31.837,162.104c5.329,40.876 46.18,127.616 58.99,152.557c6.239,18.563 20.293,19.081 23.534,19.478c1.865,0.229 3.597,1.143 4.818,2.571c2.198,2.577 4.729,4.822 7.637,6.652c2.154,1.356 3.797,3.123 5.218,5.19c2.575,3.761 4.884,7.689 7.171,11.63c1.51,2.613 3.086,3.439 5.328,2.824c2.398,-0.66 3.553,-2.438 3.508,-5.369c-0.066,-4.327 -1.465,-8.246 -3.619,-11.938c-2.042,-3.459 -1.887,-5.47 0.467,-8.654c1.376,-1.829 2.775,-3.603 4.551,-5.057c1.821,-1.481 3.752,-2.605 6.217,-2.258c4.351,1.088 8.747,1.969 13.209,2.464l3.664,0.746l1.998,0.426c0.311,0.08 6.772,0.786 8.97,0.789c1.776,0.002 4.64,0.119 7.082,0.239c2.22,0.107 6.905,-1.048 7.06,-1.052c2.154,-0.049 4.063,-0.826 5.661,-2.269c0.644,-0.591 1.288,-1.254 0.955,-2.256c-0.311,-0.923 -1.021,-1.314 -1.976,-1.483c-1.443,-0.262 -8.969,-1.177 -8.903,-1.496c2.243,-0 9.236,-0.165 11.479,-0.225c3.019,-0.079 5.617,-1.158 7.704,-3.385c0.821,-0.882 1.776,-1.752 1.221,-3.153Z" style="fill:#f7a491;fill-rule:nonzero;"/><path d="M615.999,172.315c29.906,-5.44 54.594,128.399 54.594,128.399c0,0 -66.472,18.554 -83.501,8.823c0,0 -19.326,-85.674 -26.253,-82.679l55.16,-54.543Z" style="fill:#9bc1f9;fill-rule:nonzero;"/></svg>