<?xml version="1.0" encoding="UTF-8" standalone="no"?><!DOCTYPE svg PUBLIC "-//W3C//DTD SVG 1.1//EN" "http://www.w3.org/Graphics/SVG/1.1/DTD/svg11.dtd"><svg width="100%" height="100%" viewBox="0 0 1416 876" version="1.1" xmlns="http://www.w3.org/2000/svg" xmlns:xlink="http://www.w3.org/1999/xlink" xml:space="preserve" xmlns:serif="http://www.serif.com/" style="fill-rule:evenodd;clip-rule:evenodd;stroke-linejoin:round;stroke-miterlimit:2;"><path d="M1300.57,864.054l-1185.23,0c-33.52,0 -60.695,-27.175 -60.695,-60.696l-0,-742.658c-0,-33.525 27.175,-60.7 60.695,-60.7l1185.23,0c33.521,0 60.696,27.175 60.696,60.7l-0,742.658c-0,33.521 -27.175,60.696 -60.696,60.696Z" style="fill-rule:nonzero;"/><path d="M1341.47,875.754l-1267.31,0c-40.954,0 -74.158,-33.2 -74.158,-74.158l-0,-1.446l1415.62,-0l0,1.446c0,40.958 -33.204,74.158 -74.158,74.158Z" style="fill-rule:nonzero;"/><rect x="89.717" y="34.333" width="1232.82" height="729.675" style="fill:#d7d9d9;fill-rule:nonzero;"/><path d="M579.146,800.15l17.567,27.942l247.187,-0l16.312,-27.942l-281.066,-0Z" style="fill:#696464;fill-rule:nonzero;"/><rect x="130.829" y="82.921" width="1135.05" height="680.808" style="fill:#fff;fill-rule:nonzero;"/><path d="M179.279,116.5c0,5.258 -4.262,9.521 -9.521,9.521c-5.262,-0 -9.525,-4.263 -9.525,-9.521c0,-5.263 4.263,-9.525 9.525,-9.525c5.259,-0 9.521,4.262 9.521,9.525Z" style="fill:#335863;fill-rule:nonzero;"/><path d="M218.142,116.5c-0,5.258 -4.263,9.521 -9.521,9.521c-5.259,-0 -9.525,-4.263 -9.525,-9.521c-0,-5.263 4.266,-9.525 9.525,-9.525c5.258,-0 9.521,4.262 9.521,9.525Z" style="fill:#335863;fill-rule:nonzero;"/><path d="M257.008,116.5c0,5.258 -4.266,9.521 -9.525,9.521c-5.258,-0 -9.525,-4.263 -9.525,-9.521c0,-5.263 4.267,-9.525 9.525,-9.525c5.259,-0 9.525,4.262 9.525,9.525Z" style="fill:#335863;fill-rule:nonzero;"/><path d="M1265.88,158.167c0,0.595 -254.108,1.083 -567.496,1.083c-313.495,0 -567.554,-0.488 -567.554,-1.083c0,-0.605 254.059,-1.088 567.554,-1.088c313.388,0 567.496,0.483 567.496,1.088Z" style="fill:#335863;fill-rule:nonzero;"/><rect x="54.642" y="800.733" width="1306.62" height="4.167" style="fill:#696464;fill-rule:nonzero;"/><rect x="223.892" y="488.933" width="248.254" height="16.604" style="fill:#696464;fill-rule:nonzero;"/><rect x="544.546" y="258.367" width="248.254" height="16.608" style="fill:#696464;fill-rule:nonzero;"/><path d="M1162.03,320.212c0,0.6 -138.242,1.088 -308.729,1.088c-170.546,-0 -308.754,-0.488 -308.754,-1.088c-0,-0.595 138.208,-1.083 308.754,-1.083c170.487,0 308.729,0.488 308.729,1.083Z" style="fill:#335863;fill-rule:nonzero;"/><path d="M1162.03,356.479c0,0.596 -138.242,1.083 -308.729,1.083c-170.546,0 -308.754,-0.487 -308.754,-1.083c-0,-0.596 138.208,-1.087 308.754,-1.087c170.487,-0 308.729,0.491 308.729,1.087Z" style="fill:#335863;fill-rule:nonzero;"/><path d="M1162.03,392.742c0,0.595 -138.242,1.083 -308.729,1.083c-170.546,-0 -308.754,-0.488 -308.754,-1.083c-0,-0.6 138.208,-1.088 308.754,-1.088c170.487,0 308.729,0.488 308.729,1.088Z" style="fill:#335863;fill-rule:nonzero;"/><path d="M1162.03,429.004c0,0.596 -138.242,1.088 -308.729,1.088c-170.546,-0 -308.754,-0.492 -308.754,-1.088c-0,-0.6 138.208,-1.087 308.754,-1.087c170.487,-0 308.729,0.487 308.729,1.087Z" style="fill:#335863;fill-rule:nonzero;"/><path d="M1162.03,465.267c0,0.6 -138.242,1.087 -308.729,1.087c-170.546,0 -308.754,-0.487 -308.754,-1.087c-0,-0.6 138.208,-1.088 308.754,-1.088c170.487,0 308.729,0.488 308.729,1.088Z" style="fill:#335863;fill-rule:nonzero;"/><path d="M785.579,501.529c0,0.6 -53.958,1.088 -120.508,1.088c-66.575,-0 -120.525,-0.488 -120.525,-1.088c-0,-0.596 53.95,-1.087 120.525,-1.087c66.55,-0 120.508,0.491 120.508,1.087Z" style="fill:#335863;fill-rule:nonzero;"/><path d="M1157.51,571.908c-0,0.596 -90.863,1.084 -202.921,1.084c-112.092,-0 -202.938,-0.488 -202.938,-1.084c0,-0.6 90.846,-1.087 202.938,-1.087c112.058,-0 202.921,0.487 202.921,1.087Z" style="fill:#335863;fill-rule:nonzero;"/><path d="M1157.51,610.4c-0,0.604 -90.863,1.087 -202.921,1.087c-112.092,0 -202.938,-0.483 -202.938,-1.087c0,-0.6 90.846,-1.083 202.938,-1.083c112.058,-0 202.921,0.483 202.921,1.083Z" style="fill:#335863;fill-rule:nonzero;"/><path d="M1157.51,648.896c-0,0.6 -90.863,1.083 -202.921,1.083c-112.092,0 -202.938,-0.483 -202.938,-1.083c0,-0.6 90.846,-1.084 202.938,-1.084c112.058,0 202.921,0.484 202.921,1.084Z" style="fill:#335863;fill-rule:nonzero;"/><path d="M1157.51,687.392c-0,0.595 -90.863,1.079 -202.921,1.079c-112.092,-0 -202.938,-0.484 -202.938,-1.079c0,-0.605 90.846,-1.088 202.938,-1.088c112.058,0 202.921,0.483 202.921,1.088Z" style="fill:#335863;fill-rule:nonzero;"/><path d="M472.775,568.225c-0,0.596 -54.163,1.087 -120.962,1.087c-66.821,0 -120.976,-0.491 -120.976,-1.087c0,-0.6 54.155,-1.088 120.976,-1.088c66.799,0 120.962,0.488 120.962,1.088Z" style="fill:#335863;fill-rule:nonzero;"/><path d="M472.775,598.454c-0,0.6 -54.163,1.088 -120.962,1.088c-66.821,-0 -120.976,-0.488 -120.976,-1.088c0,-0.6 54.155,-1.083 120.976,-1.083c66.799,-0 120.962,0.483 120.962,1.083Z" style="fill:#335863;fill-rule:nonzero;"/><path d="M472.775,628.687c-0,0.596 -54.163,1.084 -120.962,1.084c-66.821,-0 -120.976,-0.488 -120.976,-1.084c0,-0.6 54.155,-1.087 120.976,-1.087c66.799,-0 120.962,0.487 120.962,1.087Z" style="fill:#335863;fill-rule:nonzero;"/><path d="M472.775,658.917c-0,0.6 -54.163,1.083 -120.962,1.083c-66.821,-0 -120.976,-0.483 -120.976,-1.083c0,-0.6 54.155,-1.084 120.976,-1.084c66.799,0 120.962,0.484 120.962,1.084Z" style="fill:#335863;fill-rule:nonzero;"/><path d="M472.775,689.146c-0,0.6 -54.163,1.083 -120.962,1.083c-66.821,0 -120.976,-0.483 -120.976,-1.083c0,-0.6 54.155,-1.084 120.976,-1.084c66.799,0 120.962,0.484 120.962,1.084Z" style="fill:#335863;fill-rule:nonzero;"/><rect x="223.892" y="204.104" width="248.883" height="240.787" style="fill:#d7d9d9;fill-rule:nonzero;"/><path d="M453.479,424.954c-0.021,-0.021 -0.037,-0.354 -0.058,-0.987c-0.013,-0.721 -0.034,-1.642 -0.059,-2.809c-0.025,-2.558 -0.066,-6.175 -0.116,-10.837c-0.063,-9.546 -0.15,-23.354 -0.263,-40.892c-0.129,-35.167 -0.308,-85.254 -0.521,-145.387l1.017,1.02c-60.904,0.046 -133.1,0.105 -210.267,0.171c-0.287,0.246 2.221,-2.233 1.163,-1.158l-0,13.658c-0,4.546 -0.004,9.075 -0.004,13.588c-0,9.025 -0.004,17.966 -0.009,26.812c-0.008,17.696 -0.016,35.017 -0.024,51.884c-0.042,33.725 -0.084,65.604 -0.117,94.933l-1.029,-1.029c62.762,0.216 115.187,0.4 152.041,0.525c18.38,0.112 32.867,0.204 42.884,0.271c4.896,0.05 8.691,0.091 11.379,0.12c1.229,0.025 2.196,0.046 2.946,0.059c0.666,0.016 1.016,0.037 1.037,0.058c0.021,0.017 -0.291,0.038 -0.921,0.058c-0.725,0.017 -1.65,0.038 -2.837,0.059c-2.638,0.025 -6.367,0.066 -11.175,0.121c-9.959,0.062 -24.375,0.154 -42.65,0.27c-37.017,0.13 -89.667,0.305 -152.704,0.521l-1.034,0.004l0,-1.037c-0.037,-29.329 -0.075,-61.208 -0.116,-94.933c-0.009,-16.867 -0.021,-34.188 -0.03,-51.884c-0.004,-8.846 -0.004,-17.787 -0.008,-26.812l0,-20.429l-0.004,-3.43l-0,-3.387c-1.054,1.042 1.442,-1.479 1.212,-1.217c77.167,0.063 149.363,0.121 210.267,0.167l1.021,0l-0.004,1.017c-0.217,60.404 -0.396,110.708 -0.521,146.037c-0.112,17.438 -0.204,31.171 -0.267,40.663c-0.05,4.575 -0.087,8.125 -0.112,10.641c-0.029,1.121 -0.046,2.004 -0.058,2.696c-0.021,0.6 -0.038,0.892 -0.059,0.875Z" style="fill:#335863;fill-rule:nonzero;"/><rect x="544.396" y="553.542" width="176.137" height="170.408" style="fill:#d7d9d9;fill-rule:nonzero;"/><path d="M706.875,709.837c-0.013,-0.012 -0.029,-0.245 -0.042,-0.695c-0.008,-0.513 -0.021,-1.163 -0.037,-1.988c-0.021,-1.812 -0.05,-4.371 -0.084,-7.667c-0.045,-6.758 -0.108,-16.533 -0.187,-28.941c-0.092,-24.892 -0.217,-60.338 -0.371,-102.892l0.721,0.717c-43.1,0.037 -94.196,0.079 -148.808,0.121c-0.2,0.175 1.575,-1.58 0.825,-0.817l-0,19.283c-0.005,6.384 -0.005,12.713 -0.009,18.975c-0.008,12.525 -0.012,24.784 -0.02,36.717c-0.03,23.867 -0.055,46.433 -0.08,67.187l-0.733,-0.733c44.421,0.158 81.521,0.288 107.604,0.375c13.009,0.083 23.263,0.146 30.35,0.192c3.463,0.037 6.15,0.066 8.054,0.087c0.867,0.017 1.55,0.029 2.084,0.038c0.47,0.012 0.72,0.029 0.733,0.041c0.017,0.013 -0.204,0.03 -0.65,0.042c-0.517,0.013 -1.171,0.025 -2.008,0.046c-1.867,0.017 -4.504,0.042 -7.909,0.079c-7.05,0.046 -17.25,0.113 -30.183,0.196c-26.2,0.092 -63.463,0.217 -108.075,0.371l-0.729,-0l-0,-0.734c-0.025,-20.754 -0.05,-43.32 -0.079,-67.187c-0.009,-11.933 -0.017,-24.192 -0.021,-36.717c-0.004,-6.262 -0.004,-12.591 -0.004,-18.975c-0.004,-3.196 -0.004,-6.4 -0.004,-9.621l-0,-9.662c-0.746,0.737 1.016,-1.05 0.854,-0.863c54.612,0.046 105.708,0.088 148.808,0.117l0.725,0.004l-0.004,0.721c-0.154,42.746 -0.279,78.346 -0.371,103.35c-0.079,12.338 -0.142,22.058 -0.188,28.775c-0.033,3.242 -0.062,5.75 -0.083,7.533c-0.017,0.792 -0.029,1.421 -0.037,1.909c-0.013,0.421 -0.025,0.629 -0.042,0.616Z" style="fill:#335863;fill-rule:nonzero;"/></svg>