<?xml version="1.0" encoding="UTF-8" standalone="no"?><!DOCTYPE svg PUBLIC "-//W3C//DTD SVG 1.1//EN" "http://www.w3.org/Graphics/SVG/1.1/DTD/svg11.dtd"><svg width="100%" height="100%" viewBox="0 0 789 2634" version="1.1" xmlns="http://www.w3.org/2000/svg" xmlns:xlink="http://www.w3.org/1999/xlink" xml:space="preserve" xmlns:serif="http://www.serif.com/" style="fill-rule:evenodd;clip-rule:evenodd;stroke-linejoin:round;stroke-miterlimit:2;"><g id="Person-left" serif:id="Person left"><path d="M95.24,822.362c2.708,9.375 4.25,12.458 7.708,18.75c22.25,40.542 73.917,98.375 73.917,98.375l39.999,-90.042c0,0 -6.541,-28.291 -17.833,-68.708c-38.583,10.083 -75.375,15.917 -103.791,41.625Z" style="fill:#f8a492;fill-rule:nonzero;"/><path d="M324.365,744.279c-0,-0 -222.917,96 -230.125,94.166c-4.625,-1.208 -91.417,-146.458 -92.375,-283.083c-0.417,-63.083 65.125,-139 138.208,-123.958c36.833,7.541 36.25,17.791 90.708,96.916c54.459,79.125 93.584,215.959 93.584,215.959Z" style="fill:#13375b;fill-rule:nonzero;"/><path d="M514.615,2465.24l-5.292,87.708c-1.958,11.125 -9.625,38.584 -9.625,48.709c-0,37.958 180.25,-32.25 139.875,-49.084c-3.667,-1.5 -22.833,-13 -24.042,-25.916c-1.833,-19.917 -6.542,-60.209 -6.542,-60.209l-94.374,-1.208Z" style="fill:#f7a491;fill-rule:nonzero;"/><path d="M639.115,2552.24c-0,0 -42.334,11.583 -64.001,14.5c-21.666,2.917 -50.249,-21.542 -65.583,-14.917c-16.875,7.25 -16.208,72.667 -16.208,72.667c0,0 226.917,18.625 290.75,-0.625c25.292,-7.667 -58.458,-44.583 -144.958,-71.625Z" style="fill:#dd513a;fill-rule:nonzero;"/><path d="M145.906,2465.24l-5.333,87.708c-1.917,11.125 -9.584,38.584 -9.584,48.709c0,37.958 180.251,-32.25 139.834,-49.084c-3.625,-1.5 -28.459,-21.625 -29.667,-34.541c-1.875,-19.875 -0.875,-51.584 -0.875,-51.584l-94.375,-1.208Z" style="fill:#f7a491;fill-rule:nonzero;"/><path d="M270.406,2552.24c0,0 -42.333,11.583 -64,14.5c-21.666,2.917 -50.25,-21.542 -65.583,-14.917c-16.875,7.25 -17.542,72.667 -17.542,72.667c0,0 227.958,21.708 292.083,-0.625c24.875,-8.708 -58.458,-44.583 -144.958,-71.625Z" style="fill:#dd513a;fill-rule:nonzero;"/><path d="M200.99,870.904l158.75,-222.417c0.666,-1.917 2.125,-5.917 4.333,-12c8,-22.083 24.625,-68 39.125,-113.667l0.125,-0.5c4.583,-15.958 14.208,-43.791 23.542,-70.75c10.374,-29.958 23.249,-67.125 23.708,-73.458c-0.375,-1.083 -1.125,-3.042 -2.125,-5.625c-5.833,-15.083 -13.708,-51.083 -16.5,-66.708c-1.75,-9.959 -3.542,-34.209 8.333,-34.209c18.584,0 9.75,24.209 18.333,39.292c3.125,-10.083 9.501,-30.125 12.875,-50.375l3.125,-47.292c0.584,-3.541 -3.208,-29.625 9.875,-29.625l0.625,0c11.709,0.875 11.459,28.584 16.334,75.5c1.542,-5.416 3.083,-11.916 4.25,-17.875c-0.125,-3.208 2.208,-17.333 3.958,-24.75c-2.333,-13.083 -0.958,-33.708 12.958,-31.75c6.959,0.959 6.376,29.75 6.376,29.75c-0.042,3.917 -0.459,34.334 -0.25,40.375c1.416,-10.208 7,-53.75 17.916,-53.75c9.042,0 9.792,11.709 9.584,21c-0.084,5.459 -5.792,52.625 -6.084,58.125c4.25,-7.166 9.292,-48.708 13.542,-48.708c17.625,0 11.25,59.083 4.75,74.458c-0.584,1.584 -1.25,4.667 -2,8.25c-2.209,10.542 -5.875,28.167 -15.125,43.959c-11.084,18.958 -26.375,49.125 -28.709,53.75c-1.708,9.416 -7.041,43.291 -13.708,85.916c-2.875,18.209 -6,38.209 -9.25,58.917l-0.166,-0.042c-0.625,4.5 -3.917,18.75 -16.501,72.209c-17.166,73.166 -18.958,76.333 -19.708,77.666c-7.458,13.209 -178.625,245.625 -185.917,255.542l-4.291,5.833l-72.083,-97.041Z" style="fill:#f7a491;fill-rule:nonzero;"/><path d="M496.24,352.237c-0,-0 -12.875,-32.958 -35.792,-33.042c0,0 12.792,-4.625 23.792,4.084c11,8.708 12,28.958 12,28.958Z" style="fill:#f47458;fill-rule:nonzero;"/><path d="M162.656,288.57l-20.458,129.209c0,-0 77.875,62.541 123.25,49.333c38.083,-11.042 12,-60.833 12,-60.833c-0,-0 -20.292,-69 -14.083,-105.167c6.208,-36.167 -100.709,-12.542 -100.709,-12.542Z" style="fill:#f7a491;fill-rule:nonzero;"/><path d="M177.323,327.612c19.5,9.25 58.083,21.792 88.125,24.875c-2.875,-18.125 -4.5,-37.25 -2.083,-51.375c2.875,-16.667 -18.376,-20.625 -42.042,-20.042c-31.042,2.625 -58.667,7.5 -58.667,7.5l-3.958,24.834c5.917,6.208 12.125,11.166 18.625,14.208Z" style="fill:#fe875e;fill-rule:nonzero;"/><path d="M64.365,139.487c-3.209,-0 30.791,144.375 83.416,169.208c52.584,24.834 131.042,11.917 145.75,-27c16.292,-43 -43.083,-190.291 -117.083,-209c-74,-18.708 -112.083,66.792 -112.083,66.792Z" style="fill:#f7a491;fill-rule:nonzero;"/><path d="M125.239,6.82c-41.999,24.25 -61.291,60.209 -67.791,74.917c-19.709,9.375 -43.583,29.583 -55.042,84.167c-14.083,67.041 36,118.75 89.084,134.291c53.083,15.542 61.291,50.667 61.291,50.667l6.042,-37.792c0,0 -11.834,-32.916 -29.583,-49.416c-17.75,-16.459 8.416,-40.459 10.708,-60.042c1.792,-15.083 -9.333,-44.375 -6.917,-69.125c0,0 29.5,-44.708 58.584,-55.75c49.583,-18.833 -12.459,-103 -66.376,-71.917Z" style="fill:#13375b;fill-rule:nonzero;"/><path d="M147.614,228.737c6.876,16.667 4.042,33.25 -6.291,37c-10.334,3.708 -24.292,-6.75 -31.167,-23.417c-6.875,-16.666 -4.083,-33.25 6.292,-37c10.333,-3.75 24.291,6.75 31.166,23.417Z" style="fill:#f7a491;fill-rule:nonzero;"/><path d="M343.573,874.445l306.208,-49.916c0,-0 -34.833,-87.709 -47.291,-87.709c-12.459,0 -231.542,95.667 -231.542,95.667l-17.417,34.958l-9.958,7Z" style="fill:#f8a492;fill-rule:nonzero;"/><path d="M186.739,1084.4c0,-0 -30.541,147.666 -18.124,259.666c12.458,111.959 13.458,509.709 13.458,509.709l-47.542,636.416l112.709,2.459c-0,-0 133.666,-636.125 131.166,-619.792c-2.458,16.333 44.834,-447.875 44.834,-447.875l-159.334,-354.583l-77.167,14Z" style="fill:#184655;fill-rule:nonzero;"/><path d="M216.615,1077.4c-0,-0 -19.917,132.958 4.958,191.291c24.916,58.334 213.541,630.542 216.041,677.167c2.501,46.667 65.209,562.333 65.209,562.333l131.042,-3.666l28.374,-573.334l-59.375,-720.583l-57.624,-182.208l-328.625,49Z" style="fill:#13375b;fill-rule:nonzero;"/><path d="M142.198,417.779c0,-0 32.333,21.208 62.458,18.75c30.167,-2.417 72.792,-30.25 72.792,-30.25l-5.959,-20.084c0,0 -77.958,-11.375 -79.916,-10.125c-1.958,1.209 -49.375,41.709 -49.375,41.709Z" style="fill:#f7a491;fill-rule:nonzero;"/><path d="M486.656,732.487c0,-0 115.834,109.333 168.125,90.667c52.292,-18.667 73.917,-82.459 -53.666,-175.792c-114.167,-83.542 -114.459,85.125 -114.459,85.125Z" style="fill:#f8a492;fill-rule:nonzero;"/><path d="M565.156,867.445c-17.208,-93.583 -141.916,-384.875 -151.875,-438.541c-4.833,-26.084 -72.125,-26.667 -136.166,-23.25c-67.667,3.583 -134.917,12.125 -134.917,12.125c0,-0 -59.917,9.875 -86.25,34.541c-26.375,24.709 -33.375,93 4.5,222.667c29.916,102.375 67,158.583 85.375,233.125c3.708,25 6.875,49.667 11.125,78.5c6.708,111.5 -0.083,258.75 -0.083,258.75c-0,0 326.124,67.667 448.125,-35c-0,-0 -22.209,-247 -39.834,-342.917Z" style="fill:#355389;fill-rule:nonzero;"/><path d="M648.281,666.195c0,0 -127.958,105.625 -135.416,105.625c-4.792,0 -182.625,-130.791 -223.667,-238.25c-22.667,-59.416 24.917,-125.875 79.25,-125.666c37.708,0.166 54.458,9.875 129.125,72.833c74.708,63 150.708,185.458 150.708,185.458Z" style="fill:#466eb6;fill-rule:nonzero;"/><path d="M234.156,251.32l43.375,-32.458c0,0 11.5,17.542 -7.166,32.375c-22.751,18.083 -36.209,0.083 -36.209,0.083Z" style="fill:#fff;fill-rule:nonzero;"/></g></svg>