<?xml version="1.0" encoding="UTF-8" standalone="no"?><!DOCTYPE svg PUBLIC "-//W3C//DTD SVG 1.1//EN" "http://www.w3.org/Graphics/SVG/1.1/DTD/svg11.dtd"><svg width="100%" height="100%" viewBox="0 0 1595 2492" version="1.1" xmlns="http://www.w3.org/2000/svg" xmlns:xlink="http://www.w3.org/1999/xlink" xml:space="preserve" xmlns:serif="http://www.serif.com/" style="fill-rule:evenodd;clip-rule:evenodd;stroke-linejoin:round;stroke-miterlimit:2;"><g id="Person-right" serif:id="Person right"><path d="M132.799,839.757c45.5,7.417 42.833,14.834 48.666,15.625c6.917,0.917 89.084,-40.333 89.084,-40.333c-0,0 243.041,-119.958 255.917,-126.917l175.412,-220.708l135.212,62.375c-0,0 -197.291,234.625 -209.791,244.959c-12.459,10.333 -360.917,132.541 -391.209,144.333c0,-0 -30.583,27.916 -50.333,44.791c-19.791,16.834 -46.208,23.542 -52.5,27.375c-0.958,0.584 -22.75,12.084 -53.583,18.792c-26.542,5.792 -4.417,-12.25 -4.417,-12.25c0,0 47,-19.833 44.667,-23.417c-1.792,-2.791 -26.75,9.625 -56.042,16.334c-7.542,1.708 -15,3.416 -21.834,4.875c-17.999,3.875 -25.874,-6.417 -7.833,-13.584c6.375,-2.5 17.084,-6.458 25.167,-8.125c8.708,-1.833 16.041,-6.416 23.083,-9.083c14,-5.333 24.292,-9.042 23.75,-9.5c-0.75,-0.625 1.25,-3.75 -6.833,-2.167c-9.667,1.917 -29.25,10.625 -43.75,12.25c-8.208,0.959 -25.25,3.959 -25.25,3.959c0,-0 -30.167,2.875 -30.375,-1.334c-0.417,-9.25 18.125,-14.375 29.541,-14.166c7.167,-3.667 25.209,-6.292 25.209,-6.292c-0,0 34.958,-13.833 32.917,-19c-0.792,-2.042 -21.959,1.125 -44.417,2.667c-23.75,1.625 -40.958,1.625 -42.25,-3c-2,-7.292 16.917,-10.042 16.917,-10.042c-0,0 16.666,-2.417 22.125,-3.667c6.375,-1.458 25.166,-7.375 25.166,-7.375c0,0 64.333,-23.625 62,-28.333c-2.333,-4.75 -12.958,-14.708 -17.499,-14.667c-4.542,0 -12.626,4.542 -17.168,4.584c-4.541,-0 -14.291,-0.875 -14.958,-6.584c-0.708,-5.708 24.5,-17.5 24.5,-17.5c0,0 17.542,-7 30.709,-4.875Z" style="fill:#f8a492;fill-rule:nonzero;"/><path d="M579.794,604.132c0,0 43.792,39.75 62.005,52.834c15.12,10.875 88.875,46.416 88.875,46.416c0,0 73.333,-112.333 105.416,-168.666c38.917,-68.375 65.875,-170 56.667,-172.75c-25.833,-7.75 -61.333,-12.459 -94.125,2.583c-113.504,52.083 -218.838,239.583 -218.838,239.583Z" style="fill:#355389;fill-rule:nonzero;"/><path d="M175.299,898.466c-19.5,3.083 -39.417,-0.625 -48.042,-18.459c-1.916,21.167 30.125,31.667 48.042,18.459Z" style="fill:#fe875e;fill-rule:nonzero;"/><path d="M1298.13,2326.01l4.875,86.167c1.791,10.917 8.834,37.917 8.834,47.833c-0,37.292 -165.459,-31.666 -128.376,-48.166c3.334,-1.5 20.917,-12.834 22.042,-25.5c1.708,-19.584 6,-59.125 6,-59.125l86.625,-1.209Z" style="fill:#f7a491;fill-rule:nonzero;"/><path d="M1181.88,2412.22c0,-0 38.834,11.375 58.709,14.25c19.917,2.833 46.125,-21.167 60.208,-14.667c15.5,7.125 14.876,71.375 14.876,71.375c-0,0 -208.292,18.292 -266.876,-0.625c-23.207,-7.5 53.668,-43.792 133.083,-70.333Z" style="fill:#f7cc7f;fill-rule:nonzero;"/><path d="M1573.63,2321.55l4.917,86.167c1.75,10.916 8.791,37.916 8.791,47.833c0,37.292 -165.458,-31.667 -128.375,-48.167c3.375,-1.5 26.167,-21.25 27.25,-33.958c1.709,-19.542 0.834,-50.667 0.834,-50.667l86.583,-1.208Z" style="fill:#f7a491;fill-rule:nonzero;"/><path d="M1459.38,2407.01c-0,0 38.834,11.417 58.75,14.25c19.875,2.875 46.125,-21.125 60.167,-14.666c15.5,7.166 16.124,71.416 16.124,71.416c0,0 -206.833,8.5 -268.124,-0.625c-24.084,-3.583 53.666,-43.791 133.083,-70.375Z" style="fill:#f7cc7f;fill-rule:nonzero;"/><path d="M1524.59,955.466c-0,-0 28.042,145.083 16.584,255.125c-11.417,110 -12.292,500.791 -12.292,500.791l52.709,625.042l-112.584,2.625c0,0 -122.666,-624.958 -120.417,-608.917c2.292,16.042 -41.125,-440.041 -41.125,-440.041l146.251,-348.375l70.874,13.75Z" style="fill:#355389;fill-rule:nonzero;"/><path d="M1485.34,861.799c0,-0 127.042,133.792 79.792,279.917c-19,58.708 -196,619.5 -198.292,665.333c-2.291,45.833 -59.875,552.458 -59.875,552.458l-120.291,-3.625l-26.042,-563.291l34.375,-758.959l73.042,-128l217.291,-43.833Z" style="fill:#466eb6;fill-rule:nonzero;"/><path d="M714.132,426.299c41.625,-46.417 132.125,-112.458 132.125,-112.458c0,-0 53.958,-46.042 75.917,-53.625c32.375,-11.167 87.792,-40.917 168,80.583c57.332,86.958 419.375,537.167 478.791,552.292l-388.083,185.666c-10.625,-88.666 -202.416,-256.208 -230,-287.458c-61.709,-69.833 -276.129,-321.042 -236.75,-365Z" style="fill:#f47458;fill-rule:nonzero;"/><path d="M732.257,237.674l120.875,70.75c-0,-0 3.417,103.208 -36.125,130c-33.166,22.5 -58.375,-31.5 -58.375,-31.5c0,0 -44.958,-62.292 -79.125,-81.667c-34.125,-19.416 52.75,-87.583 52.75,-87.583Z" style="fill:#f7a491;fill-rule:nonzero;"/><path d="M752.507,283.091c-4.542,21.541 -15.042,52.666 -31.375,78.291c-13.291,-14.416 -28.292,-28.541 -41.625,-36.125c-15.75,-8.958 -5.709,-28.291 9.625,-46.541c21.709,-22.584 43.125,-41.042 43.125,-41.042l23.208,13.583c1.5,8.834 -1.417,24.667 -2.958,31.834Z" style="fill:#f47458;fill-rule:nonzero;"/><path d="M669.257,60.299c2.042,-2.5 101.416,121.208 89.167,179.208c-12.25,58.042 -72.338,110.959 -114.083,96.417c-46.167,-16.125 -132.042,-161.75 -101.25,-232.458c30.791,-70.667 126.166,-43.167 126.166,-43.167Z" style="fill:#f7a491;fill-rule:nonzero;"/><path d="M560.465,21.299c43.329,-24.125 114.001,-31.042 166.792,-3.375c64.917,33.958 79.708,119.5 59.375,171.667c-20.334,52.166 2.958,81.625 2.958,81.625l-34.458,-20.084c-0,0 -20.126,-31.416 -22.75,-56.416c-2.625,-25.042 -39.125,-20.584 -56.916,-31.959c-13.751,-8.75 -31.25,-37.125 -53.459,-51.875c0,0 -55.875,-6.833 -83.375,8.584c-46.875,26.291 -40.208,-63.667 21.833,-98.167Z" style="fill:#13375b;fill-rule:nonzero;"/><path d="M703.382,183.632c-0.334,18.542 8.459,33.709 19.583,33.917c11.167,0.167 20.417,-14.708 20.75,-33.292c0.334,-18.541 -8.458,-33.75 -19.583,-33.916c-11.125,-0.167 -20.416,14.708 -20.75,33.291Z" style="fill:#f7a491;fill-rule:nonzero;"/><path d="M601.591,282.091l52.624,-39.334c0,0 13.917,21.292 -8.712,39.25c-27.621,21.917 -43.912,0.084 -43.912,0.084Z" style="fill:#fff;fill-rule:nonzero;"/><path d="M469.465,1064.67c13.167,-19.25 18.917,-47.042 37.167,-68.25c6.083,-7.125 15.834,-15.125 26.917,-23.125c87.667,-51.292 316,-183.5 324.875,-193.75c10.541,-12.167 166.374,-271.083 166.374,-271.083l-139.957,-31.709l-136.792,241.542c-11.417,9.042 -228.546,169.542 -228.546,169.542c-0,-0 -43.162,33.708 -66.788,49.5c-11.916,6.958 -23.458,11.458 -33.583,15c-12.75,4.416 -37,16.541 -41.917,20.833c-5.708,5.042 -17.125,15.75 -23.916,22.292c-6.792,6.583 -15,13.958 -18.167,17.875c-1.959,2.375 -7.958,5.625 -12.334,7.833c-6.583,3.25 -5.708,12.958 1.334,14.958c6.625,1.875 15.625,-2.291 21.167,-4.875c15.75,-7.416 34.958,-27.333 35.958,-24.916c1,2.458 -18.5,45.166 -20.417,50.208c-1.875,5.042 -24.291,54.833 -25.458,65.917c-1.125,11.125 5.542,13.666 10.542,9.625c4.291,-3.5 40.291,-70 40.291,-70c0,-0 4.625,-8.459 6.417,-3.625c1.792,4.875 -30.792,65.291 -34,75.208c-3.167,9.917 -0.625,18.042 8.542,14.583c11.166,-4.25 41.958,-70.875 41.958,-70.875c0,0 4,-8.291 6.75,-5.416c2.708,2.875 -25.833,53.833 -26.167,59.708c-0.333,5.875 5,11.667 12.709,6.75c9.041,-5.792 36.041,-65.5 36.041,-65.5c0,0 3.334,-3.958 4.375,-1.167c1.042,2.75 -20.208,47.959 -18.625,54.542c1.334,5.542 6.334,4.417 6.334,4.417c11.125,-0 25.75,-46.792 38.916,-66.042Z" style="fill:#f8a492;fill-rule:nonzero;"/><path d="M986.465,645.257c0,0 -45.583,-14.5 -74.791,-27.916c-19.583,-8.959 -105,-51.459 -105,-51.459c-0,0 36.833,-155.333 61.708,-211.208c91.375,-204.958 195.167,-63.583 209.25,-30.625c31.541,73.667 -91.167,321.208 -91.167,321.208Z" style="fill:#355389;fill-rule:nonzero;"/></g></svg>