<?xml version="1.0" encoding="UTF-8" standalone="no"?><!DOCTYPE svg PUBLIC "-//W3C//DTD SVG 1.1//EN" "http://www.w3.org/Graphics/SVG/1.1/DTD/svg11.dtd"><svg width="100%" height="100%" viewBox="0 0 4269 4297" version="1.1" xmlns="http://www.w3.org/2000/svg" xmlns:xlink="http://www.w3.org/1999/xlink" xml:space="preserve" xmlns:serif="http://www.serif.com/" style="fill-rule:evenodd;clip-rule:evenodd;stroke-linejoin:round;stroke-miterlimit:2;"><path d="M1422.2,0l0,1433.59l1422.22,-0l-0,1433.58l1422.2,-0l0,-2867.17l-2844.43,0Z" style="fill:#666;fill-rule:nonzero;"/><rect x="1429.17" y="1432.19" width="1416.67" height="1436.38" style="fill:#919191;fill-rule:nonzero;"/><path d="M1422.22,1433.59l-1422.22,-0l1422.22,-1433.59l-0,1433.59Z" style="fill:#919191;fill-rule:nonzero;"/><path d="M2843.2,4296.58l-0,-1432.18l1425.01,0l-1425.01,1432.18Z" style="fill:#919191;fill-rule:nonzero;"/><circle cx="1521.51" cy="1311.1" r="7.485" style="fill:#404040;"/><circle cx="1560.42" cy="1311.1" r="7.485" style="fill:#404040;"/><circle cx="1599.35" cy="1311.1" r="7.485" style="fill:#404040;"/><circle cx="1638.27" cy="1311.1" r="7.485" style="fill:#404040;"/><circle cx="1677.19" cy="1311.1" r="7.485" style="fill:#404040;"/><circle cx="1716.11" cy="1311.1" r="7.485" style="fill:#404040;"/><circle cx="1755.03" cy="1311.1" r="7.485" style="fill:#404040;"/><circle cx="1793.94" cy="1311.1" r="7.485" style="fill:#404040;"/><circle cx="1832.86" cy="1311.1" r="7.485" style="fill:#404040;"/><circle cx="1871.78" cy="1311.1" r="7.485" style="fill:#404040;"/><circle cx="1910.7" cy="1311.1" r="7.485" style="fill:#404040;"/><circle cx="1521.51" cy="1275.17" r="7.485" style="fill:#404040;"/><circle cx="1560.42" cy="1275.17" r="7.485" style="fill:#404040;"/><circle cx="1599.35" cy="1275.17" r="7.485" style="fill:#404040;"/><circle cx="1638.27" cy="1275.17" r="7.485" style="fill:#404040;"/><circle cx="1677.19" cy="1275.17" r="7.485" style="fill:#404040;"/><circle cx="1716.11" cy="1275.17" r="7.485" style="fill:#404040;"/><circle cx="1755.03" cy="1275.17" r="7.485" style="fill:#404040;"/><circle cx="1793.94" cy="1275.17" r="7.485" style="fill:#404040;"/><circle cx="1521.51" cy="1239.25" r="7.485" style="fill:#404040;"/><circle cx="1560.42" cy="1239.25" r="7.485" style="fill:#404040;"/><circle cx="1599.35" cy="1239.25" r="7.485" style="fill:#404040;"/><circle cx="1638.27" cy="1239.25" r="7.485" style="fill:#404040;"/><circle cx="1677.19" cy="1239.25" r="7.485" style="fill:#404040;"/><circle cx="1521.51" cy="1203.32" r="7.485" style="fill:#404040;"/><circle cx="1560.42" cy="1203.32" r="7.485" style="fill:#404040;"/><circle cx="1599.35" cy="1203.32" r="7.485" style="fill:#404040;"/><circle cx="2984.01" cy="2661.65" r="7.485" style="fill:#404040;"/><circle cx="3022.93" cy="2661.65" r="7.485" style="fill:#404040;"/><circle cx="3061.85" cy="2661.65" r="7.485" style="fill:#404040;"/><circle cx="3100.77" cy="2661.65" r="7.485" style="fill:#404040;"/><circle cx="3139.69" cy="2661.65" r="7.485" style="fill:#404040;"/><circle cx="3178.61" cy="2661.65" r="7.485" style="fill:#404040;"/><circle cx="3217.53" cy="2661.65" r="7.485" style="fill:#404040;"/><circle cx="2984.01" cy="2697.58" r="7.485" style="fill:#404040;"/><circle cx="3022.93" cy="2697.58" r="7.485" style="fill:#404040;"/><circle cx="3061.85" cy="2697.58" r="7.485" style="fill:#404040;"/><circle cx="3100.77" cy="2697.58" r="7.485" style="fill:#404040;"/><circle cx="3139.69" cy="2697.58" r="7.485" style="fill:#404040;"/><circle cx="3178.61" cy="2697.58" r="7.485" style="fill:#404040;"/><circle cx="2984.01" cy="2733.5" r="7.485" style="fill:#404040;"/><circle cx="3022.93" cy="2733.5" r="7.485" style="fill:#404040;"/><circle cx="3061.85" cy="2733.5" r="7.485" style="fill:#404040;"/><circle cx="3100.77" cy="2733.5" r="7.485" style="fill:#404040;"/><circle cx="3139.69" cy="2733.5" r="7.485" style="fill:#404040;"/><circle cx="2984.01" cy="2769.43" r="7.485" style="fill:#404040;"/><circle cx="3022.93" cy="2769.43" r="7.485" style="fill:#404040;"/><circle cx="3061.85" cy="2769.43" r="7.485" style="fill:#404040;"/></svg>