<?xml version="1.0" encoding="UTF-8" standalone="no"?><!DOCTYPE svg PUBLIC "-//W3C//DTD SVG 1.1//EN" "http://www.w3.org/Graphics/SVG/1.1/DTD/svg11.dtd"><svg width="100%" height="100%" viewBox="0 0 9106 10441" version="1.1" xmlns="http://www.w3.org/2000/svg" xmlns:xlink="http://www.w3.org/1999/xlink" xml:space="preserve" xmlns:serif="http://www.serif.com/" style="fill-rule:evenodd;clip-rule:evenodd;stroke-linejoin:round;stroke-miterlimit:2;"><path d="M646.885,3785.01c-5.671,-0 -10.275,-4.583 -10.292,-10.292l-0.583,-221.792c-0.017,-5.666 4.584,-10.291 10.271,-10.333l2728.25,-7.166l0.042,-0c5.666,-0 10.292,4.582 10.292,10.249l0.583,221.834c-0,5.667 -4.584,10.291 -10.25,10.291l-2728.29,7.209l-0.029,-0Z" style="fill:#d7d9d9;fill-rule:nonzero;"/><path d="M649.26,4210.97c-8.654,0 -15.679,-7 -15.704,-15.625l-0.558,-211c-0.017,-8.667 6.995,-15.708 15.666,-15.75l705.484,-1.833l0.041,-0c8.654,-0 15.68,7 15.704,15.667l0.555,210.958c0.02,8.667 -6.992,15.708 -15.663,15.75l-705.483,1.833l-0.042,0Z" style="fill:#cbdbfd;fill-rule:nonzero;"/><path d="M1403.2,4209.43c-5.671,-0 -10.28,-4.584 -10.296,-10.251l-0.579,-221.791c-0.021,-5.709 4.583,-10.333 10.266,-10.333l1978.53,-5.208c5.708,-0 10.291,4.582 10.333,10.249l0.583,221.833c0,5.667 -4.583,10.292 -10.291,10.292l-1978.52,5.209l-0.029,-0Z" style="fill:#d7d9d9;fill-rule:nonzero;"/><path d="M649.848,4636.8c-8.655,0 -15.684,-6.999 -15.709,-15.666l-0.554,-211c-0.025,-8.667 6.988,-15.709 15.658,-15.75l705.484,-1.834l0.041,0c8.655,0 15.684,7.001 15.705,15.667l0.558,210.958c0.025,8.709 -6.992,15.751 -15.667,15.751l-705.479,1.874l-0.037,0Z" style="fill:#cbdbfd;fill-rule:nonzero;"/><path d="M1403.36,4635.26c-5.675,-0 -10.279,-4.625 -10.296,-10.292l-0.583,-221.791c-0.017,-5.667 4.583,-10.292 10.271,-10.334l1978.53,-5.208c5.708,0 10.292,4.625 10.334,10.292l0.583,221.791c-0,5.667 -4.584,10.292 -10.292,10.333l-1978.52,5.209l-0.029,-0Z" style="fill:#d7d9d9;fill-rule:nonzero;"/><path d="M4160.78,4633.26c-5.458,-0 -9.875,-4.417 -9.875,-9.875l-0.583,-222.625c-0,-5.458 4.416,-9.875 9.875,-9.917l944.75,-2.458l0.041,-0c5.417,-0 9.834,4.417 9.875,9.833l0.584,222.625c-0,5.458 -4.417,9.917 -9.875,9.917l-944.75,2.5l-0.042,-0Z" style="fill:#d7d9d9;fill-rule:nonzero;"/><path d="M4159.95,4206.2c-5.458,0 -9.874,-4.417 -9.874,-9.875l-0.584,-222.625c0,-5.458 4.417,-9.875 9.875,-9.917l944.75,-2.458l0.042,0c5.416,0 9.833,4.417 9.875,9.833l0.583,222.626c0,5.458 -4.417,9.916 -9.875,9.916l-944.75,2.5l-0.042,0Z" style="fill:#d7d9d9;fill-rule:nonzero;"/><path d="M4161.2,3779.25c-5.459,-0 -9.875,-4.417 -9.875,-9.875l-0.584,-222.625c0,-5.459 4.417,-9.875 9.875,-9.917l944.75,-2.458l0.042,-0c5.416,-0 9.833,4.417 9.875,9.833l0.583,222.625c0,5.458 -4.417,9.917 -9.875,9.917l-944.75,2.5l-0.041,-0Z" style="fill:#d7d9d9;fill-rule:nonzero;"/><path d="M656.881,5063.22c-8.654,-0 -15.675,-7.042 -15.696,-15.667l-0.558,-210.999c-0.021,-8.667 6.991,-15.709 15.667,-15.75l705.474,-1.834l0.046,-0c8.654,-0 15.684,7 15.705,15.667l0.554,210.958c0.025,8.667 -6.992,15.708 -15.663,15.75l-705.479,1.875l-0.05,-0Z" style="fill:#cbdbfd;fill-rule:nonzero;"/><path d="M1415,5061.63c-5.675,-0 -10.288,-4.584 -10.3,-10.25l-0.588,-221.792c-0.012,-5.708 4.584,-10.333 10.271,-10.333l1978.53,-5.208l0.042,-0c5.666,-0 10.25,4.583 10.291,10.249l0.584,221.792c-0,5.708 -4.584,10.333 -10.292,10.333l-1978.51,5.209l-0.021,-0Z" style="fill:#d7d9d9;fill-rule:nonzero;"/><path d="M4169.66,5059.68c-5.458,0 -9.875,-4.416 -9.875,-9.875l-0.583,-222.624c-0,-5.459 4.416,-9.875 9.833,-9.917l944.792,-2.5c5.458,-0 9.875,4.416 9.916,9.875l0.584,222.625c-0,5.458 -4.417,9.916 -9.875,9.916l-944.75,2.5l-0.042,0Z" style="fill:#d7d9d9;fill-rule:nonzero;"/><path d="M655.81,5505.68c-8.65,-0 -15.675,-7.001 -15.696,-15.667l-0.554,-210.959c-0.025,-8.666 6.987,-15.75 15.658,-15.75l705.484,-1.874l0.05,-0c8.65,-0 15.675,6.999 15.696,15.666l0.554,211c0.029,8.667 -6.988,15.708 -15.663,15.75l-705.479,1.834l-0.05,-0Z" style="fill:#d7d9d9;fill-rule:nonzero;"/><path d="M1412.2,5504.13c-5.679,-0 -10.292,-4.583 -10.3,-10.292l-0.588,-221.792c-0.012,-5.666 4.584,-10.291 10.267,-10.291l1978.54,-5.209l0.042,0c5.667,0 10.25,4.584 10.25,10.251l0.584,221.791c0.041,5.709 -4.584,10.334 -10.251,10.334l-1978.52,5.208l-0.021,-0Z" style="fill:#d7d9d9;fill-rule:nonzero;"/><path d="M4167.91,5502.13c-5.458,-0 -9.875,-4.417 -9.875,-9.833l-0.583,-222.667c-0.042,-5.458 4.375,-9.875 9.833,-9.875l944.792,-2.5c5.458,-0 9.875,4.416 9.875,9.833l0.583,222.667c0.042,5.458 -4.375,9.875 -9.833,9.875l-944.75,2.5l-0.042,-0Z" style="fill:#d7d9d9;fill-rule:nonzero;"/><path d="M662.864,5932.09c-8.658,0 -15.683,-7 -15.708,-15.667l-0.554,-210.995c-0.025,-8.671 6.987,-15.713 15.666,-15.713l705.475,-1.871l0.046,0c8.65,0 15.683,6.996 15.704,15.667l0.554,210.954c0.026,8.708 -6.987,15.75 -15.662,15.75l-705.479,1.875l-0.042,0Z" style="fill:#d7d9d9;fill-rule:nonzero;"/><path d="M1423.83,5930.55c-5.675,0 -10.288,-4.625 -10.3,-10.291l-0.588,-221.792c-0.012,-5.708 4.584,-10.333 10.271,-10.333l1978.53,-5.208l0.042,-0c5.667,-0 10.25,4.583 10.292,10.291l0.583,221.792c0,5.666 -4.583,10.291 -10.292,10.291l-1978.51,5.25l-0.025,0Z" style="fill:#d7d9d9;fill-rule:nonzero;"/><path d="M4176.78,5928.55c-5.458,0 -9.875,-4.416 -9.875,-9.875l-0.583,-222.62c-0.042,-5.463 4.375,-9.88 9.833,-9.921l944.792,-2.455c5.458,0 9.875,4.372 9.875,9.83l0.625,222.625c-0,5.458 -4.417,9.917 -9.875,9.917l-944.75,2.499l-0.042,0Z" style="fill:#d7d9d9;fill-rule:nonzero;"/><path d="M660.739,6358.34c-5.67,0 -10.279,-4.583 -10.296,-10.25l-0.583,-221.833c-0.017,-5.667 4.587,-10.292 10.271,-10.292l2743.24,-7.25l0.042,0c5.667,0 10.292,4.625 10.292,10.292l0.583,221.791c0,5.709 -4.583,10.292 -10.291,10.334l-2743.23,7.208l-0.029,0Z" style="fill:#d7d9d9;fill-rule:nonzero;"/><path d="M4177.2,6354.34c-5.458,-0 -9.875,-4.417 -9.875,-9.833l-0.584,-222.667c-0.041,-5.458 4.375,-9.875 9.834,-9.875l944.791,-2.5l0.042,0c5.417,0 9.833,4.417 9.833,9.834l0.584,222.666c0.041,5.459 -4.375,9.875 -9.834,9.875l-944.75,2.5l-0.041,-0Z" style="fill:#d7d9d9;fill-rule:nonzero;"/><path d="M672.214,6784.3c-8.658,0 -15.687,-7 -15.704,-15.666l-0.558,-210.959c-0.025,-8.708 6.991,-15.75 15.666,-15.75l676.021,-1.791l0.034,-0c8.658,-0 15.687,7 15.712,15.667l0.554,210.958c0.021,8.708 -6.991,15.75 -15.662,15.75l-676.021,1.791l-0.042,0Z" style="fill:#d7d9d9;fill-rule:nonzero;"/><path d="M1435.62,6782.72c-5.675,0 -10.284,-4.583 -10.296,-10.25l-0.588,-221.792c-0.016,-5.708 4.588,-10.333 10.271,-10.333l1978.53,-5.208l0.042,-0c5.667,-0 10.25,4.583 10.292,10.292l0.583,221.791c0,5.667 -4.584,10.292 -10.292,10.292l-1978.51,5.208l-0.025,0Z" style="fill:#d7d9d9;fill-rule:nonzero;"/><path d="M4186.08,6780.76c-5.458,-0 -9.875,-4.417 -9.875,-9.875l-0.584,-222.625c-0.041,-5.458 4.375,-9.875 9.834,-9.917l944.791,-2.458c5.459,-0 9.875,4.416 9.875,9.833l0.584,222.625c0.041,5.458 -4.375,9.917 -9.834,9.917l-944.791,2.5Z" style="fill:#d7d9d9;fill-rule:nonzero;"/><path d="M658.56,8056.88c-8.658,0 -15.679,-7 -15.708,-15.667l-0.554,-211c-0.021,-8.667 6.991,-15.708 15.666,-15.75l705.48,-1.833l0.041,0c8.658,0 15.683,7 15.704,15.666l0.559,210.959c0.02,8.667 -6.992,15.75 -15.667,15.75l-705.479,1.875l-0.042,0Z" style="fill:#d7d9d9;fill-rule:nonzero;"/><path d="M1420.5,8055.3c-5.68,-0 -10.288,-4.584 -10.305,-10.251l-0.583,-221.791c-0.016,-5.709 4.579,-10.334 10.271,-10.334l1978.53,-5.208c5.709,0 10.292,4.583 10.292,10.25l0.625,221.833c-0,5.667 -4.584,10.292 -10.292,10.292l-1978.52,5.209l-0.021,-0Z" style="fill:#d7d9d9;fill-rule:nonzero;"/><path d="M4172.49,8053.34c-5.458,-0 -9.875,-4.416 -9.875,-9.875l-0.625,-222.625c0,-5.458 4.417,-9.875 9.875,-9.916l944.751,-2.5l0.041,-0c5.458,-0 9.875,4.416 9.875,9.875l0.583,222.624c0.042,5.459 -4.374,9.875 -9.833,9.917l-944.792,2.5Z" style="fill:#d7d9d9;fill-rule:nonzero;"/><path d="M657.393,8483.13c-5.666,-0 -10.271,-4.584 -10.283,-10.25l-0.587,-221.833c-0.013,-5.667 4.583,-10.292 10.271,-10.292l2743.24,-7.25l0.042,-0c5.666,-0 10.25,4.625 10.292,10.291l0.583,221.792c-0,5.667 -4.584,10.292 -10.292,10.333l-2743.23,7.209l-0.038,-0Z" style="fill:#d7d9d9;fill-rule:nonzero;"/><path d="M4172.91,8479.13c-5.458,-0 -9.875,-4.417 -9.916,-9.875l-0.584,-222.625c0,-5.459 4.417,-9.875 9.875,-9.917l944.75,-2.458l0.042,-0c5.458,-0 9.875,4.416 9.875,9.833l0.583,222.625c0.042,5.458 -4.375,9.917 -9.833,9.917l-944.792,2.5Z" style="fill:#d7d9d9;fill-rule:nonzero;"/><path d="M667.902,8909.09c-8.654,0 -15.671,-7 -15.696,-15.666l-0.559,-211.001c-0.02,-8.666 6.992,-15.708 15.667,-15.749l676.021,-1.751l0.042,0c8.654,0 15.679,7 15.704,15.667l0.558,210.958c0.017,8.667 -6.996,15.709 -15.67,15.751l-676.017,1.791l-0.05,0Z" style="fill:#d7d9d9;fill-rule:nonzero;"/><path d="M1432.29,8907.51c-5.671,-0 -10.279,-4.584 -10.296,-10.25l-0.583,-221.792c-0.017,-5.708 4.579,-10.333 10.271,-10.333l1978.53,-5.209l0.042,0c5.666,0 10.249,4.584 10.291,10.292l0.583,221.792c0,5.666 -4.583,10.292 -10.291,10.292l-1978.51,5.208l-0.029,-0Z" style="fill:#d7d9d9;fill-rule:nonzero;"/><path d="M4181.74,8905.51c-5.417,-0 -9.834,-4.375 -9.876,-9.834l-0.583,-222.625c0,-5.458 4.417,-9.875 9.875,-9.916l944.75,-2.5l0.042,-0c5.458,-0 9.875,4.417 9.875,9.875l0.583,222.625c0.042,5.458 -4.375,9.916 -9.833,9.916l-944.792,2.459l-0.041,-0Z" style="fill:#d7d9d9;fill-rule:nonzero;"/><path d="M665.089,7218.01c-8.658,-0 -15.687,-7 -15.708,-15.667l-0.558,-210.958c-0.017,-8.709 6.991,-15.75 15.666,-15.75l676.021,-1.792l0.042,0c8.654,0 15.679,7 15.704,15.667l0.554,210.958c0.025,8.708 -6.987,15.75 -15.662,15.75l-676.021,1.792l-0.038,-0Z" style="fill:#d7d9d9;fill-rule:nonzero;"/><path d="M1421.49,7216.47c-5.675,0 -10.287,-4.583 -10.3,-10.25l-0.583,-221.791c-0.017,-5.709 4.579,-10.334 10.266,-10.334l1978.5,-5.208l0.041,0c5.667,0 10.292,4.583 10.292,10.25l0.583,221.791c0.042,5.709 -4.583,10.334 -10.25,10.334l-1978.53,5.208l-0.021,0Z" style="fill:#d7d9d9;fill-rule:nonzero;"/><path d="M4175.95,7214.47c-5.459,0 -9.875,-4.417 -9.875,-9.833l-0.583,-222.667c-0.042,-5.416 4.374,-9.875 9.833,-9.875l944.75,-2.5l0.042,0c5.458,0 9.874,4.417 9.874,9.875l0.584,222.625c0.042,5.458 -4.375,9.875 -9.833,9.875l-944.792,2.5Z" style="fill:#d7d9d9;fill-rule:nonzero;"/><path d="M671.885,7644.43c-8.65,0 -15.675,-7 -15.696,-15.666l-0.554,-210.958c-0.025,-8.709 6.988,-15.75 15.658,-15.75l676.025,-1.792l0.034,-0c8.662,-0 15.687,7 15.716,15.666l0.551,210.959c0.024,8.667 -6.988,15.75 -15.663,15.75l-676.021,1.791l-0.05,0Z" style="fill:#d7d9d9;fill-rule:nonzero;"/><path d="M1433.11,7642.88c-5.679,-0 -10.287,-4.584 -10.3,-10.292l-0.587,-221.792c-0.009,-5.666 4.583,-10.291 10.271,-10.333l1978.54,-5.208c5.667,-0 10.292,4.583 10.292,10.291l0.583,221.792c0.042,5.667 -4.583,10.292 -10.25,10.333l-1978.52,5.209l-0.025,-0Z" style="fill:#d7d9d9;fill-rule:nonzero;"/><path d="M4184.83,7640.88c-5.459,-0 -9.875,-4.417 -9.875,-9.875l-0.625,-222.625c-0,-5.459 4.416,-9.875 9.875,-9.875l944.75,-2.5l0.042,-0c5.458,-0 9.875,4.416 9.875,9.833l0.583,222.625c0.042,5.459 -4.375,9.917 -9.833,9.917l-944.792,2.5Z" style="fill:#d7d9d9;fill-rule:nonzero;"/><path d="M3756.7,9188.47c-3.167,0 -5.75,-2.541 -5.75,-5.75l-15.708,-5961.88c-0,-3.166 2.583,-5.75 5.75,-5.75l77.458,-0.208c3.166,0 5.75,2.541 5.75,5.75l15.708,5961.88c0,3.167 -2.541,5.75 -5.75,5.75l-77.458,0.208Z" style="fill:#d7d9d9;fill-rule:nonzero;"/><path d="M6366.2,10266.8l-5355.18,-0c-47.874,-0 -86.683,38.833 -86.683,86.666c0,47.875 38.809,86.709 86.683,86.709l5355.18,-0c47.875,-0 86.666,-38.834 86.666,-86.709c-0,-47.833 -38.791,-86.666 -86.666,-86.666Z"/><path d="M5607.7,9385.43l-3838.17,-0c-115.708,-0 -209.508,93.791 -209.508,209.499l-0,671.834l4257.18,-0l-0,-671.834c-0,-115.708 -93.792,-209.499 -209.5,-209.499Z"/><path d="M5323.7,9011.05l-3270.21,0c-115.709,0 -209.509,93.834 -209.509,209.542l0,164.834l3689.26,-0l-0,-164.834c-0,-115.708 -93.792,-209.542 -209.542,-209.542Z"/><path d="M4673.7,9011.05l-1970.21,0l-0,-1051.5c-0,-29.125 23.624,-52.749 52.791,-52.749l1864.67,-0c29.125,-0 52.75,23.624 52.75,52.749l-0,1051.5Z"/><path d="M475.802,4747.59c-48.009,44.209 -52.184,118.584 -9.425,167.875l2695.99,3148.21c44.583,51.416 122.833,55.791 172.916,9.708l229.375,-211.209l-2969.18,-3224.75l-119.679,110.167Z"/><path d="M844.985,3736.13c-91.779,-95.667 -243.212,-100.333 -340.741,-10.542l-241.796,222.626c-97.525,89.791 -105.329,241.124 -17.55,340.458l3216.85,3668.29l674.292,-620.875c54.667,-50.333 57.167,-135.875 5.5,-189.292l-3296.55,-3410.67Z"/><path d="M1075.68,4504.76l-25.287,23.291c-78.313,72.125 -83.342,194.042 -11.242,272.334l1697.55,1843.71c72.125,78.292 194.041,83.333 272.333,11.209l25.292,-23.292c78.333,-72.083 83.333,-194 11.25,-272.334l-1697.55,-1843.67c-72.1,-78.292 -194.033,-83.334 -272.342,-11.25Z" style="fill:#224e96;"/><path d="M3057.33,6610.84l-71.292,65.625l-1958.63,-2127.25l71.279,-65.625l1958.65,2127.25Z" style="fill:#d7d9d9;fill-rule:nonzero;"/><path d="M4343.16,7087.18c321.5,349.167 299.083,892.834 -50.125,1214.33c-349.125,321.5 -892.833,299.083 -1214.33,-50.084c-321.5,-349.166 -299.042,-892.875 50.125,-1214.37c349.167,-321.459 892.833,-299.042 1214.33,50.124Z" style="fill:#224e96;"/><path d="M4193.87,7224.63c245.584,266.708 228.459,682.041 -38.249,927.583c-266.75,245.583 -682.042,228.459 -927.625,-38.25c-245.584,-266.708 -228.417,-682.042 38.291,-927.625c266.708,-245.542 682,-228.416 927.583,38.292Z" style="fill:#fff;fill-rule:nonzero;"/><path d="M834.852,4182.72l212.925,131.75c46.475,28.75 107.516,13.375 134.875,-33.917l1648.13,-2891.71c26.25,-45.376 11.667,-103.376 -32.916,-130.96l-111.084,-68.72l-1851.93,2993.55Z"/><path d="M2620.33,456.288l224.458,138.858c90.542,56.008 119.667,174.138 65.542,265.804l-1979.92,3380.89l-625.963,-387.25c-50.762,-31.416 -65.704,-98.458 -33.079,-148.417l2081.88,-3189.85c57.834,-89.367 176.542,-116.051 267.084,-60.042Z"/><path d="M2011.79,1309.72l-1107.1,1789.54c-48.979,79.209 -24.504,183.083 54.675,232.083c79.175,48.959 183.067,24.5 232.05,-54.667l1107.08,-1789.58c49,-79.167 24.5,-183.042 -54.666,-232.042c-79.167,-48.97 -183.083,-24.499 -232.042,54.668Z" style="fill:#224e96;"/><path d="M926.281,3310.88l66.167,40.917l1284.46,-2076.29l-66.166,-40.916l-1284.46,2076.29Z" style="fill:#d7d9d9;fill-rule:nonzero;"/><path d="M103.323,3689.76c-200.521,324.125 -100.313,749.458 223.824,949.958c324.134,200.542 749.451,100.334 949.971,-223.833c200.521,-324.125 100.313,-749.417 -223.821,-949.958c-324.133,-200.501 -749.449,-100.292 -949.974,223.833Z" style="fill:#224e96;"/><path d="M241.91,3775.47c-153.171,247.625 -76.625,572.5 170.971,725.667c247.596,153.167 572.479,76.625 725.65,-170.958c153.175,-247.584 76.629,-572.5 -170.967,-725.667c-247.596,-153.166 -572.483,-76.625 -725.654,170.958Z" style="fill:#fff;fill-rule:nonzero;"/><path d="M4935.58,1656.47l-107.667,177.042c-43.417,71.375 -121.958,103.458 -176.75,72.124l-2021.12,-1142.19l300.292,-493.629c24.333,-40.033 68.791,-57.075 98.416,-37.729l1889.62,1234.26c53,34.25 60.626,118.75 17.209,190.125Z"/><path d="M3183.33,78.979c-255.584,-155.483 -588.834,-74.32 -744.333,181.292c-155.501,255.609 -74.334,588.863 181.291,744.35c255.584,155.488 588.875,74.322 744.333,-181.292c155.501,-255.604 74.334,-588.866 -181.291,-744.35Z" style="fill:#224e96;"/><path d="M3116.87,188.267c-195.25,-118.771 -449.833,-56.771 -568.583,138.479c-118.791,195.255 -56.791,449.817 138.458,568.588c195.25,118.771 449.834,56.77 568.584,-138.483c118.791,-195.246 56.791,-449.813 -138.459,-568.584Z" style="fill:#fff;fill-rule:nonzero;"/><path d="M5277.33,1706.88l452.625,-326.75l627.12,762.708l-95.078,112.292l-567.001,-608.25l-350.291,256.375l-67.375,-196.375Z" style="fill:#224e96;"/><path d="M6823.41,4815.22c-3.291,0 -6.625,-0.541 -9.875,-1.708l-9,-3.167l-398.421,-140.958c-11.912,-4.25 -19.833,-15.542 -19.708,-28.167l0.087,-13.833l1.954,-242.375l0.839,-103.834c-38.876,-24.916 -76.334,-51.374 -112.464,-79.291c-92.745,-71.708 -176.287,-152.958 -249.745,-241.75c-5.292,-6.375 -10.5,-12.792 -15.667,-19.25l-358,40.75c-1.125,0.125 -2.25,0.167 -3.375,0.167c-11.292,-0 -21.708,-6.459 -26.666,-16.833l-89.542,-187.584l-96.625,-202.459c-5.458,-11.374 -3.042,-25 5.958,-33.833l5.917,-5.875l250.875,-246.875c-25.292,-115.583 -37.709,-234.583 -36.292,-354.916c0.625,-50.792 3.708,-101.792 9.375,-152.833l-190.291,-151.417l-91.501,-72.792c-9.875,-7.876 -13.666,-21.125 -9.458,-33.042l17.042,-48.166l127.125,-359.25c4.167,-11.834 15.333,-19.75 27.875,-19.75l0.25,-0l360.083,2.875c93.459,-145.75 208.917,-272.625 340.25,-377.833l-40.708,-358.001c-1.459,-12.542 5.25,-24.625 16.625,-30.083l390.042,-186.15c4.083,-1.942 8.417,-2.883 12.749,-2.883c7.75,-0 15.417,3.053 21.084,8.841l252.75,256.817c109.541,-23.958 222.166,-36.417 336.041,-36.417c57,-0 114.334,3.125 171.75,9.458l224.167,-281.741c5.75,-7.2 14.333,-11.171 23.167,-11.171c3.333,0 6.666,0.554 9.875,1.696l407.416,144.134c11.918,4.208 19.834,15.541 19.75,28.166l-2.874,360.042c145.75,93.458 272.666,208.957 377.874,340.291l357.958,-40.75c1.125,-0.125 2.25,-0.166 3.376,-0.166c11.291,-0 21.749,6.457 26.709,16.832l186.166,390.043c5.417,11.374 3.042,25 -5.958,33.832l-51.25,50.459l-162.043,159.459l-43.499,42.833c19,86.874 30.75,175.666 34.792,265.542c3.583,80.124 1.083,161.083 -7.876,242.207l281.751,224.209c9.874,7.876 13.708,21.125 9.458,33.041l-144.125,407.417c-4.209,11.834 -15.375,19.75 -27.917,19.75l-0.208,0l-360.083,-2.875c-33.125,51.626 -69.001,100.917 -107.334,147.667c-69.958,85.292 -148.125,162.25 -232.959,230.167l1.459,12.833l20.875,183.375l18.416,161.792c1.418,12.541 -5.25,24.625 -16.666,30.042l-106.417,50.833l-283.624,135.375c-4.042,1.916 -8.417,2.875 -12.709,2.875c-7.792,-0 -15.416,-3.083 -21.125,-8.833l-126.209,-128.25l-126.499,-128.584c-109.542,23.959 -222.167,36.417 -336.042,36.417c-57,-0 -114.333,-3.125 -171.75,-9.459l-82.375,103.5l-141.833,178.25c-1.917,2.417 -4.208,4.5 -6.709,6.167c-4.874,3.25 -10.625,5 -16.458,5Zm-463.374,-2428.25c-8.501,-0 -16.834,4.292 -21.589,12.042c-2.25,3.666 -4.495,7.333 -6.703,11c-1.125,1.874 -2.25,3.75 -3.376,5.667c-0.379,0.666 -0.791,1.333 -1.166,2c-28.833,49.041 -53.875,100.582 -74.667,153.916c-4.25,10.792 -8.291,21.666 -12.171,32.625c-12.287,34.75 -22.704,69.875 -31.329,105.209c-58.041,238.166 -32.666,486.999 74.375,711.208c122.875,257.458 338.708,451.666 607.709,546.875c34.791,12.292 69.958,22.75 105.333,31.375c83.125,20.25 167.5,30.333 251.708,30.333c157.042,0 313.417,-35.083 459.333,-104.75c257.501,-122.917 451.75,-338.708 546.917,-607.708c196.375,-555.083 -95.458,-1166.79 -650.75,-1363.25c-34.249,-12.125 -68.958,-22.459 -103.999,-31c-82.959,-20.208 -167.834,-30.376 -252.793,-30.376c-70.583,0 -141.208,7.043 -210.791,21.126c-13.792,2.791 -22.542,16.167 -19.833,29.874c2.041,9.959 9.624,17.334 18.833,19.584c1.958,0.5 3.958,0.708 6,0.708c1.666,0 3.334,-0.166 5.041,-0.5c66.292,-13.417 133.542,-20.124 200.75,-20.124c80.918,-0 161.792,9.707 240.834,28.958c33.375,8.125 66.458,17.958 99.041,29.5c528.917,187.125 807.042,769.458 619.876,1298.62c-90.667,256.208 -275.667,461.792 -520.959,578.833c-139,66.376 -287.917,99.792 -437.542,99.792c-80.166,-0 -160.583,-9.583 -239.75,-28.875c-33.707,-8.209 -67.208,-18.167 -100.374,-29.917c-189.042,-66.875 -346.042,-184.291 -461.209,-331.709c-207.042,-264.999 -278.917,-627 -158.624,-966.916c24.203,-68.417 55.624,-134.209 93.416,-195.5c7.292,-11.875 3.62,-27.5 -8.292,-34.833c-2.292,-1.459 -4.796,-2.459 -7.291,-3.083c-2,-0.459 -4,-0.709 -5.958,-0.709Zm882.375,131.166c-200.292,0 -374.668,138.418 -421.668,331.25c-5,20.376 -8.541,41.418 -10.542,62.917c-22.166,238.5 153.793,450.584 392.334,472.792c13.709,1.292 27.416,1.916 41.041,1.916c100.959,0 197.917,-34.832 276.584,-100.125c89.292,-74.082 144.417,-178.541 155.125,-294.082c22.209,-238.5 -153.749,-450.584 -392.291,-472.792c-13.625,-1.292 -27.125,-1.876 -40.583,-1.876Zm0.916,767.543c-10.417,-0 -20.917,-0.501 -31.458,-1.501c-182.834,-17 -317.792,-179.624 -300.75,-362.5c15.999,-172.458 161.5,-302.208 331.374,-302.208c10.293,-0 20.709,0.459 31.126,1.459c182.833,16.999 317.791,179.624 300.791,362.5c-1.542,16.583 -4.291,32.833 -8.166,48.708c-16.834,69 -55.167,130.542 -110.792,176.749c-60.333,50.042 -134.667,76.793 -212.125,76.793Z"/><path d="M7243.58,3387.01c-13.625,0 -27.332,-0.624 -41.041,-1.916c-238.541,-22.208 -414.5,-234.292 -392.334,-472.792c2.001,-21.499 5.542,-42.541 10.542,-62.917c47,-192.832 221.376,-331.25 421.668,-331.25c13.458,0 26.958,0.584 40.583,1.876c238.542,22.208 414.5,234.292 392.291,472.792c-10.708,115.541 -65.833,220 -155.125,294.082c-78.667,65.293 -175.625,100.125 -276.584,100.125Zm-1.083,-767.541c-169.874,-0 -315.375,129.75 -331.374,302.208c-17.042,182.876 117.916,345.5 300.75,362.5c10.541,1 21.041,1.501 31.458,1.501c77.458,-0 151.792,-26.751 212.125,-76.793c55.625,-46.207 93.958,-107.749 110.792,-176.749c3.875,-15.875 6.624,-32.125 8.166,-48.708c17,-182.876 -117.958,-345.501 -300.791,-362.5c-10.417,-1 -20.833,-1.459 -31.126,-1.459Z" style="fill:#fff;"/><path d="M7248.16,4029.22c-84.208,0 -168.583,-10.083 -251.708,-30.333c-35.375,-8.625 -70.542,-19.083 -105.333,-31.375c-269.001,-95.209 -484.834,-289.417 -607.709,-546.875c-107.041,-224.209 -132.416,-473.042 -74.375,-711.208c8.625,-35.334 19.042,-70.459 31.329,-105.209c3.88,-10.959 7.921,-21.833 12.171,-32.625c20.792,-53.334 45.834,-104.875 74.667,-153.916c0.375,-0.667 0.787,-1.334 1.166,-2c1.126,-1.917 2.251,-3.793 3.376,-5.667c2.208,-3.667 4.453,-7.334 6.703,-11c4.755,-7.75 13.088,-12.042 21.589,-12.042c1.958,-0 3.958,0.25 5.958,0.709c2.495,0.624 4.999,1.624 7.291,3.083c11.912,7.333 15.584,22.958 8.292,34.833c-37.792,61.291 -69.213,127.083 -93.416,195.5c-120.293,339.916 -48.418,701.917 158.624,966.916c115.167,147.418 272.167,264.834 461.209,331.709c33.166,11.75 66.667,21.708 100.374,29.917c79.167,19.292 159.584,28.875 239.75,28.875c149.625,-0 298.542,-33.416 437.542,-99.792c245.292,-117.041 430.292,-322.625 520.959,-578.833c187.166,-529.167 -90.959,-1111.5 -619.876,-1298.62c-32.583,-11.542 -65.666,-21.375 -99.041,-29.5c-79.042,-19.251 -159.916,-28.958 -240.834,-28.958c-67.208,-0 -134.458,6.707 -200.75,20.124c-1.707,0.334 -3.375,0.5 -5.041,0.5c-2.042,0 -4.042,-0.208 -6,-0.708c-9.209,-2.25 -16.792,-9.625 -18.833,-19.584c-2.709,-13.707 6.041,-27.083 19.833,-29.874c69.583,-14.083 140.208,-21.126 210.791,-21.126c84.959,0 169.834,10.168 252.793,30.376c35.041,8.541 69.75,18.875 103.999,31c555.292,196.458 847.125,808.167 650.75,1363.25c-95.167,269 -289.416,484.791 -546.917,607.708c-145.916,69.667 -302.291,104.75 -459.333,104.75Z" style="fill:#fff;"/><path d="M5185.83,1523.05l-197.209,-118.959c-4.333,-2.584 -9.916,-1.208 -12.5,3.125l-357.791,593.291c-2.584,4.292 -1.208,9.876 3.125,12.5l197.208,118.917c4.292,2.584 9.875,1.209 12.459,-3.125l357.791,-593.249c2.584,-4.334 1.208,-9.917 -3.083,-12.5Z" style="fill:#084d98;"/><path d="M5159.33,2246.8l-69.75,553.875l970.041,184.625l52.959,-137.249l-805.667,-205.959l57.084,-430.333l-204.667,35.041Z" style="fill:#224e96;"/><path d="M5013.2,2232.38c93.083,76.292 223.041,102.541 344.083,57.749c181.542,-67.207 274.208,-268.833 207,-450.374c-34,-91.875 -102.458,-161 -185.291,-198.125l-365.792,590.75Z"/><path d="M4814.03,2109.43l-57.25,94.958c-10.333,17.125 -3.833,39.958 14.5,51l176.042,106.167c18.291,11.083 41.542,6.125 51.875,-11.001l456.5,-757c10.333,-17.124 3.833,-40 -14.5,-51.041l-176.042,-106.167c-18.333,-11.041 -41.542,-6.125 -51.875,11l-52.458,87l-346.792,575.084Z" style="fill:#224e96;"/><path d="M8027.66,7292.09c-0.5,0 -1,-0.042 -1.5,-0.083l-245.084,-21.875c-7.124,-0.667 -13.124,-5.75 -14.832,-12.75l-12.959,-52.334l-36.375,-146.624c-71.292,-23.542 -138.333,-55.709 -200.125,-95.126c-19.291,-12.333 -38.083,-25.375 -56.333,-39.083l-103.583,39.5l-88.042,33.583c-1.959,0.709 -4,1.084 -6,1.084c-4.917,-0 -9.667,-2.125 -12.959,-6.042l-23.625,-28.291l-134.166,-160.459c-4.584,-5.5 -5.208,-13.333 -1.501,-19.5l6.626,-11l99.292,-164.666c-12.75,-25.334 -24.334,-51.334 -34.709,-77.917c-22.833,-58.709 -39.667,-120.292 -49.791,-183.875c-0.751,-4.792 -1.459,-9.583 -2.167,-14.417l-187.042,-83.791c-6.541,-2.959 -10.542,-9.709 -9.875,-16.876l11.333,-126.833l10.542,-118.208c0.667,-7.167 5.75,-13.125 12.751,-14.875l198.958,-49.292c0.166,-0.542 0.332,-1.083 0.499,-1.625c29.292,-88.042 71.75,-169.666 124.75,-242.708c2.959,-4.083 5.917,-8.125 8.959,-12.121l-65.5,-171.754l-7.583,-19.917c-2.543,-6.708 -0.584,-14.291 4.958,-18.916l188.75,-157.792c3.125,-2.583 6.958,-3.917 10.792,-3.917c3,0 6.041,0.792 8.708,2.417l175.667,105.875c85.541,-43.042 178.583,-72.792 276.207,-86.625l29.25,-65.334l54.542,-121.708c2.75,-6.125 8.793,-10 15.375,-10c0.501,0 1,0.042 1.501,0.084l245.042,21.916c7.166,0.625 13.124,5.75 14.874,12.708l23.791,96.042l25.501,102.917c93.583,30.917 179.874,76.666 256.458,134.208l191.667,-73.041c1.958,-0.751 3.958,-1.125 6,-1.125c4.874,-0 9.667,2.166 12.917,6.041l60.125,71.958l97.666,116.792c4.625,5.542 5.208,13.379 1.5,19.546l-105.875,175.621c43.042,85.583 72.791,178.625 86.625,276.208l187.042,83.792c6.583,2.958 10.541,9.75 9.916,16.875l-21.916,245.083c-0.625,7.125 -5.75,13.125 -12.709,14.834l-198.958,49.291c-4.25,12.875 -8.791,25.584 -13.584,38.125c-30.125,79 -70.999,152.292 -120.666,218.375l9.291,24.334l63.792,167.291c2.584,6.709 0.583,14.333 -4.916,18.917l-5.917,4.958l-182.875,152.833c-3.083,2.625 -6.916,3.959 -10.792,3.959c-3,-0 -6,-0.834 -8.708,-2.417l-175.625,-105.916c-85.584,43.083 -178.625,72.791 -276.209,86.624l-48.916,109.167l-34.875,77.917c-2.749,6.083 -8.792,9.958 -15.375,9.958Zm-591.083,-1274.46l-0.167,-0c-6.083,0.083 -11.667,4 -13.584,10.125c-0.708,2.333 -1.416,4.667 -2.125,7c-0.332,1.208 -0.708,2.416 -1.041,3.625c-0.125,0.416 -0.249,0.833 -0.375,1.25c-8.959,31.125 -15.499,63.083 -19.417,95.416c-0.791,6.584 -1.499,13.125 -2.083,19.709c-1.875,20.916 -2.666,41.75 -2.416,62.458c1.666,139.542 50.833,273.167 141.541,381.667c104.167,124.583 250.625,201.208 412.417,215.667c18.5,1.625 36.916,2.458 55.25,2.458c2.458,-0 4.875,-0.042 7.292,-0.042c139.5,-1.667 273.083,-50.875 381.542,-141.583c124.624,-104.167 201.207,-250.625 215.666,-412.375c29.833,-333.875 -217.584,-629.917 -551.542,-659.792c-18.084,-1.583 -36.208,-2.417 -54.292,-2.417c-2.499,0 -4.958,0.042 -7.416,0.084c-89,1.041 -176.792,21.583 -256.958,60.416c-7.209,3.463 -10.125,12.084 -6.709,19.254c2.5,5.167 7.625,8.167 13,8.167l0.167,0c2.042,-0.045 4.125,-0.504 6.125,-1.462c76.334,-36.996 159.958,-56.542 244.708,-57.542c2.375,-0.041 4.75,-0.041 7.125,-0.041c17.209,-0 34.458,0.754 51.708,2.291c318.084,28.417 553.751,310.209 525.334,628.459c-13.751,154.125 -86.709,293.624 -205.417,392.833c-103.333,86.417 -230.583,133.25 -363.458,134.833c-2.375,0.042 -4.708,0.042 -7.084,0.042c-17.416,0 -34.916,-0.75 -52.5,-2.334c-113.707,-10.166 -216.874,-52.708 -301.207,-117.708c-151.626,-116.875 -242.46,-306.333 -224.126,-510.75c3.667,-41.166 11.667,-81.875 23.834,-121c2.375,-7.625 -1.875,-15.708 -9.459,-18.083c-1.459,-0.417 -2.916,-0.625 -4.333,-0.625Zm563.291,-59.792c-12.874,0 -25.958,1 -39.083,3.125c-122.5,19.542 -209.75,126.417 -208.333,246.959c0.167,11.958 1.167,24.041 3.083,36.208c19.416,121.5 124.75,208.333 244.084,208.333c12.874,0 25.958,-1 39.083,-3.083c65.249,-10.417 122.499,-45.584 161.291,-99.084c38.75,-53.458 54.375,-118.833 43.959,-184.083c-19.375,-121.542 -124.708,-208.375 -244.084,-208.375Zm-0.207,436.959c-91.501,-0.042 -172.293,-66.625 -187.168,-159.792c-16.5,-103.25 54.167,-200.625 157.417,-217.084c10.041,-1.625 20.042,-2.375 29.958,-2.375c91.501,0 172.25,66.584 187.126,159.75c1.499,9.375 2.292,18.709 2.374,28c0.5,40.459 -11.958,79.792 -36.083,113.125c-29.75,41.042 -73.666,68.001 -123.666,75.959c-10.084,1.625 -20.084,2.417 -29.958,2.417Z"/><path d="M7999.62,6452.47c-119.334,0 -224.668,-86.833 -244.084,-208.333c-1.916,-12.167 -2.916,-24.25 -3.083,-36.208c-1.417,-120.542 85.833,-227.417 208.333,-246.959c13.125,-2.125 26.209,-3.125 39.083,-3.125c119.376,0 224.709,86.833 244.084,208.375c10.416,65.25 -5.209,130.625 -43.959,184.083c-38.792,53.5 -96.042,88.667 -161.291,99.084c-13.125,2.083 -26.209,3.083 -39.083,3.083Zm0.249,-436.917c-9.916,0 -19.917,0.75 -29.958,2.375c-103.25,16.459 -173.917,113.834 -157.417,217.084c14.875,93.167 95.667,159.75 187.168,159.792c9.874,-0 19.874,-0.792 29.958,-2.417c50,-7.958 93.916,-34.917 123.666,-75.959c24.125,-33.333 36.583,-72.666 36.083,-113.125c-0.082,-9.291 -0.875,-18.625 -2.374,-28c-14.876,-93.166 -95.625,-159.75 -187.126,-159.75Z" style="fill:#fff;"/><path d="M8004.58,6817.01c-18.334,-0 -36.75,-0.833 -55.25,-2.458c-161.792,-14.459 -308.25,-91.084 -412.417,-215.667c-90.708,-108.5 -139.875,-242.125 -141.541,-381.667c-0.25,-20.708 0.541,-41.542 2.416,-62.458c0.584,-6.584 1.292,-13.125 2.083,-19.709c3.918,-32.333 10.458,-64.291 19.417,-95.416c0.126,-0.417 0.25,-0.834 0.375,-1.25c0.333,-1.209 0.709,-2.417 1.041,-3.625c0.709,-2.333 1.417,-4.667 2.125,-7c1.917,-6.125 7.501,-10.042 13.584,-10.125l0.167,-0c1.417,-0 2.874,0.208 4.333,0.625c7.584,2.375 11.834,10.458 9.459,18.083c-12.167,39.125 -20.167,79.834 -23.834,121c-18.334,204.417 72.5,393.875 224.126,510.75c84.333,65 187.5,107.542 301.207,117.708c17.584,1.584 35.084,2.334 52.5,2.334c2.376,0 4.709,0 7.084,-0.042c132.875,-1.583 260.125,-48.416 363.458,-134.833c118.708,-99.209 191.666,-238.708 205.417,-392.833c28.417,-318.25 -207.25,-600.042 -525.334,-628.459c-17.25,-1.537 -34.499,-2.291 -51.708,-2.291c-2.375,-0 -4.75,-0 -7.125,0.041c-84.75,1 -168.374,20.546 -244.708,57.542c-2,0.958 -4.083,1.417 -6.125,1.462l-0.167,0c-5.375,0 -10.5,-3 -13,-8.167c-3.416,-7.17 -0.5,-15.791 6.709,-19.254c80.166,-38.833 167.958,-59.375 256.958,-60.416c2.458,-0.042 4.917,-0.084 7.416,-0.084c18.084,0 36.208,0.834 54.292,2.417c333.958,29.875 581.375,325.917 551.542,659.792c-14.459,161.75 -91.042,308.208 -215.666,412.375c-108.459,90.708 -242.042,139.916 -381.542,141.583c-2.417,0 -4.834,0.042 -7.292,0.042Z" style="fill:#fff;"/></svg>