<?xml version="1.0" encoding="UTF-8" standalone="no"?><!DOCTYPE svg PUBLIC "-//W3C//DTD SVG 1.1//EN" "http://www.w3.org/Graphics/SVG/1.1/DTD/svg11.dtd"><svg width="100%" height="100%" viewBox="0 0 2451 1514" version="1.1" xmlns="http://www.w3.org/2000/svg" xmlns:xlink="http://www.w3.org/1999/xlink" xml:space="preserve" xmlns:serif="http://www.serif.com/" style="fill-rule:evenodd;clip-rule:evenodd;stroke-linejoin:round;stroke-miterlimit:2;"><path d="M631.217,460.604l-0,-3.287c-32.8,-0.004 -62.463,-13.3 -83.946,-34.805c-21.475,-21.508 -34.75,-51.2 -34.75,-84.004c-0,-32.75 13.275,-62.416 34.75,-83.912c21.479,-21.492 51.146,-34.788 83.946,-34.788c32.804,0 62.47,13.296 83.95,34.788c21.479,21.496 34.75,51.162 34.75,83.912c-0,32.804 -13.271,62.496 -34.75,84.004c-21.48,21.505 -51.146,34.801 -83.95,34.805l-0,3.287c67.416,0 121.991,-54.679 121.991,-122.096c0,-67.312 -54.575,-121.991 -121.991,-121.991c-67.413,-0 -121.984,54.679 -121.984,121.991c0,67.417 54.571,122.096 121.984,122.096Zm171.862,-100.704l3.288,0l-0,-42.708c-0,-5.088 -4.121,-9.209 -9.209,-9.209l-10.991,0c-2.471,0 -4.646,-1.687 -5.184,-4.05c-3.846,-16.758 -10.395,-32.491 -19.233,-46.67c-0.575,-0.926 -0.854,-1.951 -0.854,-2.967c-0,-1.379 0.517,-2.713 1.542,-3.742l7.725,-7.729c1.804,-1.8 2.704,-4.175 2.704,-6.525c-0,-2.35 -0.909,-4.713 -2.704,-6.5l-30.192,-30.196c-1.771,-1.771 -4.104,-2.7 -6.45,-2.696c-2.359,-0.004 -4.754,0.875 -6.571,2.696l-7.721,7.721c-1.029,1.025 -2.362,1.537 -3.746,1.542c-1.012,-0 -2.041,-0.284 -2.962,-0.859c-14.179,-8.841 -29.917,-15.4 -46.688,-19.254c-2.358,-0.537 -4.045,-2.708 -4.045,-5.179l-0,-10.962c-0,-5.084 -4.121,-9.205 -9.209,-9.209l-42.704,0c-5.088,0.004 -9.208,4.125 -9.212,9.209l-0,10.958c0.004,2.475 -1.684,4.646 -4.046,5.183c-16.771,3.85 -32.513,10.409 -46.692,19.25c-0.925,0.575 -1.95,0.854 -2.967,0.854c-1.379,0 -2.712,-0.512 -3.741,-1.541l-7.713,-7.713c-1.779,-1.779 -4.125,-2.7 -6.471,-2.696c-2.354,-0.004 -4.741,0.884 -6.554,2.696l-30.196,30.196c-1.804,1.808 -2.696,4.188 -2.696,6.542c0,2.35 0.917,4.7 2.7,6.483l7.721,7.721c1.025,1.029 1.538,2.362 1.542,3.741c0,1.013 -0.283,2.042 -0.858,2.967c-8.834,14.179 -15.388,29.917 -19.234,46.684c-0.537,2.362 -2.712,4.045 -5.183,4.045l-10.979,0c-5.088,0 -9.208,4.121 -9.208,9.209l-0,42.708c-0,5.083 4.12,9.204 9.208,9.208l10.983,0c2.471,0 4.646,1.684 5.184,4.046c3.849,16.767 10.404,32.5 19.237,46.671c0.575,0.925 0.858,1.954 0.858,2.967c-0.004,1.379 -0.516,2.712 -1.541,3.741l-7.734,7.734c-1.816,1.816 -2.696,4.212 -2.696,6.57c0,2.346 0.925,4.68 2.696,6.45l30.196,30.2c1.821,1.817 4.217,2.7 6.575,2.696c2.346,0 4.679,-0.925 6.45,-2.696l7.738,-7.741c1.029,-1.025 2.362,-1.538 3.746,-1.542c1.012,0 2.037,0.284 2.962,0.859c14.175,8.824 29.904,15.37 46.667,19.216c2.362,0.538 4.05,2.709 4.046,5.183l-0,11.013c0.004,5.088 4.124,9.208 9.212,9.213l42.704,-0c5.088,-0.005 9.209,-4.125 9.209,-9.213l-0,-11.017c-0,-2.47 1.687,-4.645 4.05,-5.183c16.758,-3.842 32.487,-10.388 46.662,-19.217c0.921,-0.575 1.95,-0.854 2.963,-0.858c1.379,0.004 2.712,0.517 3.741,1.542l7.746,7.745c1.8,1.8 4.171,2.7 6.525,2.696c2.35,0.004 4.708,-0.908 6.496,-2.696l30.192,-30.2c1.795,-1.787 2.704,-4.145 2.699,-6.495c0.005,-2.354 -0.895,-4.725 -2.699,-6.525l-7.734,-7.738c-1.025,-1.029 -1.542,-2.362 -1.542,-3.742c0,-1.012 0.276,-2.041 0.851,-2.966c8.837,-14.171 15.391,-29.904 19.241,-46.667c0.534,-2.362 2.709,-4.046 5.179,-4.046l11,0c5.088,-0.004 9.209,-4.125 9.209,-9.208l-3.288,0c-0.008,3.267 -2.65,5.913 -5.921,5.917l-11,-0c-3.962,-0 -7.483,2.691 -8.387,6.6c-3.767,16.408 -10.179,31.8 -18.821,45.666c-0.9,1.446 -1.358,3.08 -1.358,4.704c-0,2.205 0.85,4.409 2.512,6.071l7.738,7.734c1.154,1.162 1.729,2.671 1.729,4.2c-0,1.512 -0.575,3.012 -1.729,4.17l-30.196,30.201c-1.159,1.154 -2.659,1.729 -4.171,1.733c-1.529,-0.004 -3.037,-0.575 -4.2,-1.733l-7.746,-7.746c-1.658,-1.663 -3.862,-2.509 -6.066,-2.504c-1.621,-0 -3.259,0.45 -4.705,1.354c-13.862,8.633 -29.254,15.041 -45.658,18.804c-3.908,0.9 -6.6,4.425 -6.6,8.387l0,11.017c-0.008,3.271 -2.65,5.917 -5.921,5.921l-42.704,-0c-3.271,-0.004 -5.917,-2.65 -5.921,-5.921l0,-11.013c0,-3.966 -2.691,-7.487 -6.6,-8.391c-16.408,-3.763 -31.8,-10.167 -45.666,-18.804c-1.446,-0.9 -3.08,-1.35 -4.7,-1.35c-2.209,-0.004 -4.409,0.841 -6.071,2.504l-7.738,7.742c-1.154,1.15 -2.641,1.729 -4.125,1.733c-1.554,-0.004 -3.079,-0.571 -4.246,-1.733l-30.196,-30.201c-1.154,-1.154 -1.733,-2.641 -1.733,-4.125c0,-1.554 0.567,-3.079 1.733,-4.245l7.73,-7.734c1.662,-1.658 2.508,-3.862 2.508,-6.066c-0,-1.625 -0.454,-3.259 -1.358,-4.704c-8.642,-13.867 -15.055,-29.263 -18.825,-45.671c-0.904,-3.913 -4.425,-6.6 -8.388,-6.6l-10.983,-0c-3.271,-0.004 -5.913,-2.65 -5.921,-5.917l-0,-42.708c0.008,-3.267 2.65,-5.913 5.921,-5.921l10.979,-0c3.962,-0 7.483,-2.688 8.387,-6.6c3.767,-16.408 10.18,-31.804 18.821,-45.679c0.905,-1.446 1.355,-3.079 1.355,-4.705c0.004,-2.204 -0.842,-4.408 -2.505,-6.066l-7.721,-7.721c-1.158,-1.158 -1.733,-2.654 -1.733,-4.158c0,-1.538 0.571,-3.05 1.733,-4.213l30.196,-30.2c1.163,-1.162 2.679,-1.729 4.225,-1.733c1.496,0.004 2.988,0.579 4.146,1.733l7.713,7.717c1.658,1.662 3.862,2.504 6.066,2.504c1.625,-0 3.259,-0.454 4.709,-1.354c13.87,-8.65 29.27,-15.067 45.687,-18.834c3.913,-0.904 6.6,-4.424 6.6,-8.391l0,-10.958c0.004,-3.267 2.65,-5.913 5.921,-5.917l42.704,-0c3.271,0.004 5.913,2.65 5.921,5.917l0,10.962c0,3.963 2.688,7.483 6.6,8.387c16.412,3.771 31.808,10.188 45.679,18.838c1.446,0.904 3.084,1.354 4.704,1.354c2.209,0.004 4.409,-0.842 6.071,-2.504l7.721,-7.721c1.167,-1.166 2.692,-1.729 4.246,-1.733c1.483,-0 2.971,0.583 4.125,1.733l30.196,30.2c1.154,1.159 1.729,2.658 1.729,4.171c-0,1.529 -0.575,3.038 -1.729,4.2l-7.73,7.729c-1.662,1.658 -2.508,3.863 -2.508,6.067c0,1.625 0.454,3.258 1.35,4.704c8.65,13.875 15.058,29.267 18.825,45.671c0.9,3.912 4.421,6.6 8.388,6.6l10.991,-0c3.271,0.008 5.913,2.654 5.921,5.921l0,42.708Z" style="fill:#d3dbef;fill-rule:nonzero;"/><path d="M882.904,567.35c-42.762,0 -77.383,-34.688 -77.383,-77.454c-0,-42.7 34.621,-77.392 77.383,-77.392c42.767,0 77.388,34.692 77.388,77.392c-0,42.766 -34.621,77.454 -77.388,77.454Zm118.242,-62.879l-0,-29.108c-0,-2.846 -2.308,-5.155 -5.154,-5.155l-7.492,0c-2.192,0 -4.133,-1.487 -4.625,-3.629c-2.592,-11.3 -7.008,-21.904 -12.962,-31.462c-1.192,-1.909 -0.967,-4.367 0.624,-5.959l5.267,-5.266c2.013,-2.013 2.013,-5.275 0,-7.292l-20.579,-20.579c-2.012,-2.013 -5.275,-2.013 -7.288,-0l-5.262,5.262c-1.592,1.592 -4.05,1.813 -5.958,0.625c-9.559,-5.962 -20.167,-10.383 -31.471,-12.979c-2.138,-0.491 -3.629,-2.433 -3.629,-4.625l-0,-7.466c-0,-2.846 -2.309,-5.155 -5.154,-5.155l-29.105,0c-2.846,0 -5.154,2.309 -5.154,5.155l0,7.466c0,2.192 -1.492,4.134 -3.629,4.625c-11.308,2.596 -21.921,7.017 -31.479,12.975c-1.909,1.192 -4.367,0.967 -5.954,-0.625l-5.259,-5.258c-2.012,-2.013 -5.275,-2.013 -7.291,-0l-20.575,20.579c-2.013,2.017 -2.013,5.279 -0,7.292l5.262,5.262c1.588,1.588 1.813,4.046 0.625,5.954c-5.958,9.563 -10.375,20.171 -12.966,31.475c-0.492,2.138 -2.434,3.625 -4.626,3.625l-7.483,0c-2.846,0 -5.154,2.309 -5.154,5.155l-0,29.108c-0,2.846 2.308,5.154 5.154,5.154l7.488,-0c2.191,-0 4.129,1.487 4.621,3.625c2.599,11.304 7.016,21.912 12.97,31.467c1.192,1.908 0.967,4.366 -0.625,5.958l-5.266,5.267c-2.013,2.012 -2.013,5.275 -0,7.291l20.575,20.579c2.016,2.013 5.279,2.013 7.291,0l5.275,-5.275c1.588,-1.587 4.046,-1.816 5.955,-0.624c9.554,5.949 20.158,10.362 31.462,12.954c2.137,0.491 3.629,2.429 3.629,4.625l0,7.504c0,2.85 2.308,5.158 5.154,5.158l29.105,0c2.845,0 5.154,-2.308 5.154,-5.158l-0,-7.509c-0,-2.191 1.491,-4.133 3.629,-4.62c11.3,-2.596 21.904,-7.009 31.458,-12.959c1.909,-1.187 4.367,-0.962 5.954,0.625l5.279,5.279c2.013,2.013 5.276,2.013 7.288,0l20.579,-20.579c2.013,-2.012 2.013,-5.279 0,-7.291l-5.275,-5.271c-1.587,-1.592 -1.812,-4.05 -0.625,-5.959c5.954,-9.554 10.371,-20.158 12.967,-31.462c0.492,-2.138 2.433,-3.625 4.625,-3.625l7.496,-0c2.846,-0 5.154,-2.308 5.154,-5.154Z" style="fill:#d3dbef;fill-rule:nonzero;"/><path d="M467.196,1260.98c-0,7.792 -6.317,14.108 -14.108,14.108c-7.792,0 -14.109,-6.316 -14.109,-14.108c0,-7.796 6.317,-14.108 14.109,-14.108c7.791,-0 14.108,6.312 14.108,14.108Z" style="fill:#94a5d4;fill-rule:nonzero;"/><path d="M2357.33,875.471c0,7.792 -6.316,14.108 -14.108,14.108c-7.792,0 -14.108,-6.316 -14.108,-14.108c-0,-7.792 6.316,-14.108 14.108,-14.108c7.792,-0 14.108,6.316 14.108,14.108Z" style="fill:#94a5d4;fill-rule:nonzero;"/><path d="M2329.11,371.683c-0,7.792 -6.317,14.109 -14.109,14.109c-7.792,-0 -14.108,-6.317 -14.108,-14.109c-0,-7.791 6.316,-14.108 14.108,-14.108c7.792,-0 14.109,6.317 14.109,14.108Z" style="fill:#94a5d4;fill-rule:nonzero;"/><path d="M1816.58,200.45c0,4.888 -3.958,8.85 -8.846,8.85c-4.887,-0 -8.85,-3.962 -8.85,-8.85c0,-4.888 3.963,-8.85 8.85,-8.85c4.888,0 8.846,3.962 8.846,8.85Z" style="fill:#94a5d4;fill-rule:nonzero;"/><path d="M508.321,82.563c-0,4.887 -3.963,8.849 -8.85,8.849c-4.888,0 -8.85,-3.962 -8.85,-8.849c-0,-4.888 3.962,-8.85 8.85,-8.85c4.887,-0 8.85,3.962 8.85,8.85Z" style="fill:#94a5d4;fill-rule:nonzero;"/><path d="M704.196,627.546c-0,4.887 -3.963,8.85 -8.85,8.85c-4.888,-0 -8.85,-3.963 -8.85,-8.85c-0,-4.888 3.962,-8.85 8.85,-8.85c4.887,-0 8.85,3.962 8.85,8.85Z" style="fill:#94a5d4;fill-rule:nonzero;"/><path d="M379.525,1275.09c0,4.888 -3.962,8.85 -8.85,8.85c-4.888,0 -8.85,-3.962 -8.85,-8.85c0,-4.891 3.962,-8.85 8.85,-8.85c4.888,0 8.85,3.959 8.85,8.85Z" style="fill:#94a5d4;fill-rule:nonzero;"/><path d="M2150.37,1269.31c-0,7.791 -6.317,14.108 -14.109,14.108c-7.791,-0 -14.108,-6.317 -14.108,-14.108c0,-7.792 6.317,-14.109 14.108,-14.109c7.792,0 14.109,6.317 14.109,14.109Z" style="fill:#94a5d4;fill-rule:nonzero;"/><path d="M2450.37,1269.31c-0,7.791 -6.317,14.108 -14.109,14.108c-7.791,-0 -14.108,-6.317 -14.108,-14.108c0,-7.792 6.317,-14.109 14.108,-14.109c7.792,0 14.109,6.317 14.109,14.109Z" style="fill:#94a5d4;fill-rule:nonzero;"/><path d="M765.671,44.096c-0,7.792 -6.321,14.108 -14.109,14.108c-7.791,0 -14.108,-6.316 -14.108,-14.108c0,-7.792 6.317,-14.109 14.108,-14.109c7.788,0 14.109,6.317 14.109,14.109Z" style="fill:#94a5d4;fill-rule:nonzero;"/><path d="M1725,686.004c0,10.425 -8.45,18.875 -18.879,18.875c-10.425,0 -18.875,-8.45 -18.875,-18.875c-0,-10.429 8.45,-18.879 18.875,-18.879c10.429,-0 18.879,8.45 18.879,18.879Z" style="fill:#94a5d4;fill-rule:nonzero;"/><path d="M332.642,452.562c-0,10.43 -8.45,18.88 -18.875,18.88c-10.429,-0 -18.879,-8.45 -18.879,-18.88c-0,-10.424 8.45,-18.875 18.879,-18.875c10.425,0 18.875,8.451 18.875,18.875Z" style="fill:#94a5d4;fill-rule:nonzero;"/><path d="M279.525,170.771l-23.738,-0c-1.529,-0 -2.766,-1.238 -2.766,-2.767l-0,-23.737c-0,-1.53 1.237,-2.767 2.766,-2.767l23.738,-0c1.529,-0 2.767,1.237 2.767,2.767l-0,23.737c-0,1.529 -1.238,2.767 -2.767,2.767Z" style="fill:#fff;fill-rule:nonzero;"/><path d="M318.683,170.771l-23.737,-0c-1.529,-0 -2.767,-1.238 -2.767,-2.767l0,-23.737c0,-1.53 1.238,-2.767 2.767,-2.767l23.737,-0c1.53,-0 2.767,1.237 2.767,2.767l0,23.737c0,1.529 -1.237,2.767 -2.767,2.767Z" style="fill:#fff;fill-rule:nonzero;"/><path d="M357.842,170.771l-23.738,-0c-1.529,-0 -2.766,-1.238 -2.766,-2.767l-0,-23.737c-0,-1.53 1.237,-2.767 2.766,-2.767l23.738,-0c1.529,-0 2.766,1.237 2.766,2.767l0,23.737c0,1.529 -1.237,2.767 -2.766,2.767Z" style="fill:#fff;fill-rule:nonzero;"/><path d="M2273.6,1198.83l-23.737,0c-1.53,0 -2.767,-1.237 -2.767,-2.767l-0,-23.737c-0,-1.529 1.237,-2.771 2.767,-2.771l23.737,0c1.529,0 2.767,1.242 2.767,2.771l-0,23.737c-0,1.53 -1.238,2.767 -2.767,2.767Z" style="fill:#d3dbef;fill-rule:nonzero;"/><path d="M2312.76,1198.83l-23.738,0c-1.529,0 -2.767,-1.237 -2.767,-2.767l0,-23.737c0,-1.529 1.238,-2.771 2.767,-2.771l23.738,0c1.529,0 2.766,1.242 2.766,2.771l0,23.737c0,1.53 -1.237,2.767 -2.766,2.767Z" style="fill:#d3dbef;fill-rule:nonzero;"/><path d="M2351.92,1198.83l-23.738,0c-1.529,0 -2.766,-1.237 -2.766,-2.767l-0,-23.737c-0,-1.529 1.237,-2.771 2.766,-2.771l23.738,0c1.529,0 2.767,1.242 2.767,2.771l-0,23.737c-0,1.53 -1.238,2.767 -2.767,2.767Z" style="fill:#d3dbef;fill-rule:nonzero;"/><path d="M463.333,1182.78l-23.741,0c-1.529,0 -2.767,-1.241 -2.767,-2.766l0,-23.742c0,-1.529 1.238,-2.767 2.767,-2.767l23.741,0c1.525,0 2.767,1.238 2.767,2.767l0,23.742c0,1.525 -1.242,2.766 -2.767,2.766Z" style="fill:#d3dbef;fill-rule:nonzero;"/><path d="M502.492,1182.78l-23.742,0c-1.529,0 -2.767,-1.241 -2.767,-2.766l0,-23.742c0,-1.529 1.238,-2.767 2.767,-2.767l23.742,0c1.525,0 2.766,1.238 2.766,2.767l0,23.742c0,1.525 -1.241,2.766 -2.766,2.766Z" style="fill:#d3dbef;fill-rule:nonzero;"/><path d="M541.646,1182.78l-23.738,0c-1.529,0 -2.766,-1.241 -2.766,-2.766l-0,-23.742c-0,-1.529 1.237,-2.767 2.766,-2.767l23.738,0c1.529,0 2.771,1.238 2.771,2.767l-0,23.742c-0,1.525 -1.242,2.766 -2.771,2.766Z" style="fill:#d3dbef;fill-rule:nonzero;"/><path d="M1524.59,1434.39l-563.759,-0c-49.129,-0 -88.954,-39.825 -88.954,-88.955l0,-1254.84c0,-49.129 39.825,-88.954 88.954,-88.954l563.759,-0c49.129,-0 88.954,39.825 88.954,88.954l-0,1254.84c-0,49.13 -39.825,88.955 -88.954,88.955Z" style="fill:#3156a6;fill-rule:nonzero;"/><path d="M1521.74,1414.03l-558.059,0c-43.033,0 -77.916,-34.883 -77.916,-77.917l-0,-1244.01c-0,-43.029 34.883,-77.917 77.916,-77.917l558.059,0c43.033,0 77.916,34.888 77.916,77.917l0,1244.01c0,43.034 -34.883,77.917 -77.916,77.917Z" style="fill:#fff;fill-rule:nonzero;"/><path d="M1568.41,89.663l0,1242.56c0,29.142 -23.625,52.767 -52.766,52.767l-545.859,-0c-29.141,-0 -52.766,-23.625 -52.766,-52.767l-0,-1242.56c-0,-29.142 23.625,-52.767 52.766,-52.767l91.025,-0c5.054,-0 9.671,2.85 11.934,7.366l9.666,19.301c4.405,8.904 13.496,14.479 23.384,14.479l273.841,-0c9.888,-0 18.979,-5.575 23.384,-14.479l9.666,-19.301c2.263,-4.516 6.879,-7.366 11.934,-7.366l91.025,-0c29.141,-0 52.766,23.625 52.766,52.767Z" style="fill:#d3dbef;fill-rule:nonzero;"/><path d="M1357.63,55.471l-220.558,-0c-5.125,-0 -9.283,-4.158 -9.283,-9.288c-0,-5.129 4.158,-9.287 9.283,-9.287l220.558,-0c5.13,-0 9.288,4.158 9.288,9.287c-0,5.13 -4.158,9.288 -9.288,9.288Z" style="fill:#d3dbef;fill-rule:nonzero;"/><path d="M1458.12,1339.78l-11.821,0c-1.15,0 -2.084,0.933 -2.084,2.083c0,1.15 0.934,2.084 2.084,2.084l11.821,-0c1.15,-0 2.083,-0.934 2.083,-2.084c-0,-1.15 -0.933,-2.083 -2.083,-2.083Zm-23.642,0l-11.821,0c-1.15,0 -2.083,0.933 -2.083,2.083c-0,1.15 0.933,2.084 2.083,2.084l11.821,-0c1.15,-0 2.083,-0.934 2.083,-2.084c0,-1.15 -0.933,-2.083 -2.083,-2.083Zm-23.642,0l-11.821,0c-1.15,0 -2.083,0.933 -2.083,2.083c0,1.15 0.933,2.084 2.083,2.084l11.821,-0c1.15,-0 2.084,-0.934 2.084,-2.084c-0,-1.15 -0.934,-2.083 -2.084,-2.083Zm-23.641,0l-11.821,0c-1.15,0 -2.083,0.933 -2.083,2.083c-0,1.15 0.933,2.084 2.083,2.084l11.821,-0c1.15,-0 2.083,-0.934 2.083,-2.084c-0,-1.15 -0.933,-2.083 -2.083,-2.083Zm-23.642,0l-11.821,0c-1.15,0 -2.083,0.933 -2.083,2.083c-0,1.15 0.933,2.084 2.083,2.084l11.821,-0c1.15,-0 2.083,-0.934 2.083,-2.084c0,-1.15 -0.933,-2.083 -2.083,-2.083Zm-23.642,0l-11.821,0c-1.15,0 -2.083,0.933 -2.083,2.083c0,1.15 0.933,2.084 2.083,2.084l11.821,-0c1.15,-0 2.084,-0.934 2.084,-2.084c-0,-1.15 -0.934,-2.083 -2.084,-2.083Zm-23.641,0l-11.821,0c-1.15,0 -2.083,0.933 -2.083,2.083c-0,1.15 0.933,2.084 2.083,2.084l11.821,-0c1.15,-0 2.083,-0.934 2.083,-2.084c0,-1.15 -0.933,-2.083 -2.083,-2.083Zm-23.642,0l-11.821,0c-1.15,0 -2.083,0.933 -2.083,2.083c-0,1.15 0.933,2.084 2.083,2.084l11.821,-0c1.15,-0 2.083,-0.934 2.083,-2.084c0,-1.15 -0.933,-2.083 -2.083,-2.083Zm-23.642,0l-11.821,0c-1.15,0 -2.083,0.933 -2.083,2.083c0,1.15 0.933,2.084 2.083,2.084l11.821,-0c1.15,-0 2.084,-0.934 2.084,-2.084c-0,-1.15 -0.934,-2.083 -2.084,-2.083Zm-23.641,0l-11.821,0c-1.15,0 -2.083,0.933 -2.083,2.083c-0,1.15 0.933,2.084 2.083,2.084l11.821,-0c1.15,-0 2.083,-0.934 2.083,-2.084c0,-1.15 -0.933,-2.083 -2.083,-2.083Zm-23.642,0l-11.821,0c-1.15,0 -2.083,0.933 -2.083,2.083c-0,1.15 0.933,2.084 2.083,2.084l11.821,-0c1.15,-0 2.083,-0.934 2.083,-2.084c0,-1.15 -0.933,-2.083 -2.083,-2.083Zm-23.642,0l-11.82,0c-1.15,0 -2.084,0.933 -2.084,2.083c0,1.15 0.934,2.084 2.084,2.084l11.82,-0c1.15,-0 2.084,-0.934 2.084,-2.084c-0,-1.15 -0.934,-2.083 -2.084,-2.083Zm-23.641,0l-11.821,0c-1.15,0 -2.083,0.933 -2.083,2.083c-0,1.15 0.933,2.084 2.083,2.084l11.821,-0c1.15,-0 2.083,-0.934 2.083,-2.084c0,-1.15 -0.933,-2.083 -2.083,-2.083Zm-23.642,0l-11.821,0c-1.15,0 -2.083,0.933 -2.083,2.083c-0,1.15 0.933,2.084 2.083,2.084l11.821,-0c1.15,-0 2.083,-0.934 2.083,-2.084c0,-1.15 -0.933,-2.083 -2.083,-2.083Zm-23.642,0l-11.82,0c-1.15,0 -2.084,0.933 -2.084,2.083c0,1.15 0.934,2.084 2.084,2.084l11.82,-0c1.15,-0 2.084,-0.934 2.084,-2.084c-0,-1.15 -0.934,-2.083 -2.084,-2.083Zm-23.641,0l-11.821,0c-1.15,0 -2.084,0.933 -2.084,2.083c0,1.15 0.934,2.084 2.084,2.084l11.821,-0c1.15,-0 2.083,-0.934 2.083,-2.084c0,-1.15 -0.933,-2.083 -2.083,-2.083Zm-23.642,0l-11.821,0c-1.15,0 -2.083,0.933 -2.083,2.083c-0,1.15 0.933,2.084 2.083,2.084l11.821,-0c1.15,-0 2.083,-0.934 2.083,-2.084c0,-1.15 -0.933,-2.083 -2.083,-2.083Zm-23.642,0l-11.82,0c-1.15,0 -2.084,0.933 -2.084,2.083c0,1.15 0.934,2.084 2.084,2.084l11.82,-0c1.15,-0 2.084,-0.934 2.084,-2.084c-0,-1.15 -0.934,-2.083 -2.084,-2.083Zm-23.641,0l-11.821,0c-1.15,0 -2.084,0.933 -2.084,2.083c0,1.15 0.934,2.084 2.084,2.084l11.821,-0c1.15,-0 2.083,-0.934 2.083,-2.084c0,-1.15 -0.933,-2.083 -2.083,-2.083Zm-23.642,0l-11.821,0c-1.15,0 -2.083,0.933 -2.083,2.083c-0,1.15 0.933,2.084 2.083,2.084l11.821,-0c1.15,-0 2.083,-0.934 2.083,-2.084c0,-1.15 -0.933,-2.083 -2.083,-2.083Zm-23.279,-0.425c-3.738,-0.608 -7.258,-1.846 -10.454,-3.6c-1.009,-0.554 -2.275,-0.187 -2.83,0.821c-0.554,1.012 -0.183,2.275 0.825,2.829c3.605,1.979 7.58,3.375 11.788,4.063c1.137,0.183 2.204,-0.588 2.392,-1.725c0.183,-1.134 -0.588,-2.205 -1.721,-2.388Zm-19.121,-10.479c-2.463,-2.742 -4.471,-5.896 -5.904,-9.35c-0.438,-1.063 -1.659,-1.567 -2.721,-1.125c-1.062,0.442 -1.567,1.658 -1.125,2.721c1.617,3.896 3.875,7.45 6.65,10.537c0.767,0.859 2.083,0.929 2.942,0.159c0.854,-0.767 0.925,-2.084 0.158,-2.942Zm-8.346,-20.133c-0.033,-0.592 -0.05,-1.192 -0.05,-1.792l0,-9.917c0,-1.15 -0.933,-2.083 -2.083,-2.083c-1.15,0 -2.083,0.933 -2.083,2.083l-0,9.917c-0,0.675 0.016,1.35 0.054,2.017c0.062,1.15 1.041,2.029 2.191,1.966c1.15,-0.062 2.03,-1.041 1.971,-2.191Zm-0.05,-23.53l0,-11.82c0,-1.15 -0.933,-2.084 -2.083,-2.084c-1.15,0 -2.083,0.934 -2.083,2.084l-0,11.82c-0,1.15 0.933,2.084 2.083,2.084c1.15,-0 2.083,-0.934 2.083,-2.084Zm0,-23.641l0,-11.821c0,-1.15 -0.933,-2.083 -2.083,-2.083c-1.15,-0 -2.083,0.933 -2.083,2.083l-0,11.821c-0,1.15 0.933,2.083 2.083,2.083c1.15,0 2.083,-0.933 2.083,-2.083Zm0,-23.642l0,-11.821c0,-1.15 -0.933,-2.083 -2.083,-2.083c-1.15,-0 -2.083,0.933 -2.083,2.083l-0,11.821c-0,1.15 0.933,2.083 2.083,2.083c1.15,0 2.083,-0.933 2.083,-2.083Zm0,-23.641l0,-11.821c0,-1.15 -0.933,-2.084 -2.083,-2.084c-1.15,0 -2.083,0.934 -2.083,2.084l-0,11.821c-0,1.15 0.933,2.083 2.083,2.083c1.15,-0 2.083,-0.933 2.083,-2.083Zm0,-23.642l0,-11.821c0,-1.15 -0.933,-2.083 -2.083,-2.083c-1.15,-0 -2.083,0.933 -2.083,2.083l-0,11.821c-0,1.15 0.933,2.083 2.083,2.083c1.15,0 2.083,-0.933 2.083,-2.083Zm0,-23.642l0,-11.821c0,-1.15 -0.933,-2.083 -2.083,-2.083c-1.15,0 -2.083,0.933 -2.083,2.083l-0,11.821c-0,1.15 0.933,2.083 2.083,2.083c1.15,0 2.083,-0.933 2.083,-2.083Zm0,-23.642l0,-9.712c0,-0.667 0.021,-1.325 0.058,-1.979c0.067,-1.15 -0.808,-2.138 -1.954,-2.204c-1.15,-0.071 -2.137,0.808 -2.204,1.954c-0.046,0.737 -0.066,1.479 -0.066,2.229l-0,9.712c-0,1.15 0.933,2.084 2.083,2.084c1.15,-0 2.083,-0.934 2.083,-2.084Zm2.567,-22.462c1.454,-3.446 3.479,-6.592 5.958,-9.321c0.775,-0.85 0.713,-2.171 -0.141,-2.942c-0.851,-0.775 -2.167,-0.712 -2.942,0.138c-2.792,3.075 -5.075,6.621 -6.713,10.504c-0.45,1.058 0.05,2.284 1.109,2.729c1.062,0.446 2.283,-0.05 2.729,-1.108Zm14.662,-16.146c3.209,-1.733 6.738,-2.95 10.475,-3.537c1.138,-0.18 1.913,-1.246 1.734,-2.38c-0.175,-1.137 -1.242,-1.916 -2.38,-1.737c-4.212,0.662 -8.195,2.033 -11.812,3.992c-1.008,0.546 -1.387,1.808 -0.838,2.82c0.546,1.013 1.809,1.388 2.821,0.842Zm21.95,-3.933l11.821,-0c1.15,-0 2.084,-0.934 2.084,-2.083c-0,-1.15 -0.934,-2.084 -2.084,-2.084l-11.821,0c-1.15,0 -2.083,0.934 -2.083,2.084c-0,1.149 0.933,2.083 2.083,2.083Zm23.642,-0l11.821,-0c1.15,-0 2.083,-0.934 2.083,-2.083c0,-1.15 -0.933,-2.084 -2.083,-2.084l-11.821,0c-1.15,0 -2.083,0.934 -2.083,2.084c-0,1.149 0.933,2.083 2.083,2.083Zm23.642,-0l11.82,-0c1.15,-0 2.084,-0.934 2.084,-2.083c-0,-1.15 -0.934,-2.084 -2.084,-2.084l-11.82,0c-1.15,0 -2.084,0.934 -2.084,2.084c0,1.149 0.934,2.083 2.084,2.083Zm23.641,-0l11.821,-0c1.15,-0 2.084,-0.934 2.084,-2.083c-0,-1.15 -0.934,-2.084 -2.084,-2.084l-11.821,0c-1.15,0 -2.083,0.934 -2.083,2.084c-0,1.149 0.933,2.083 2.083,2.083Zm23.642,-0l11.821,-0c1.15,-0 2.083,-0.934 2.083,-2.083c0,-1.15 -0.933,-2.084 -2.083,-2.084l-11.821,0c-1.15,0 -2.083,0.934 -2.083,2.084c-0,1.149 0.933,2.083 2.083,2.083Zm23.642,-0l11.82,-0c1.15,-0 2.084,-0.934 2.084,-2.083c-0,-1.15 -0.934,-2.084 -2.084,-2.084l-11.82,0c-1.15,0 -2.084,0.934 -2.084,2.084c0,1.149 0.934,2.083 2.084,2.083Zm23.641,-0l11.821,-0c1.15,-0 2.084,-0.934 2.084,-2.083c-0,-1.15 -0.934,-2.084 -2.084,-2.084l-11.821,0c-1.15,0 -2.083,0.934 -2.083,2.084c0,1.149 0.933,2.083 2.083,2.083Zm23.642,-0l11.821,-0c1.15,-0 2.083,-0.934 2.083,-2.083c0,-1.15 -0.933,-2.084 -2.083,-2.084l-11.821,0c-1.15,0 -2.083,0.934 -2.083,2.084c-0,1.149 0.933,2.083 2.083,2.083Zm23.642,-0l11.821,-0c1.15,-0 2.083,-0.934 2.083,-2.083c-0,-1.15 -0.933,-2.084 -2.083,-2.084l-11.821,0c-1.15,0 -2.084,0.934 -2.084,2.084c0,1.149 0.934,2.083 2.084,2.083Zm23.641,-0l11.821,-0c1.15,-0 2.084,-0.934 2.084,-2.083c-0,-1.15 -0.934,-2.084 -2.084,-2.084l-11.821,0c-1.15,0 -2.083,0.934 -2.083,2.084c0,1.149 0.933,2.083 2.083,2.083Zm23.642,-0l11.821,-0c1.15,-0 2.083,-0.934 2.083,-2.083c0,-1.15 -0.933,-2.084 -2.083,-2.084l-11.821,0c-1.15,0 -2.083,0.934 -2.083,2.084c-0,1.149 0.933,2.083 2.083,2.083Zm23.642,-0l11.821,-0c1.15,-0 2.083,-0.934 2.083,-2.083c-0,-1.15 -0.933,-2.084 -2.083,-2.084l-11.821,0c-1.15,0 -2.084,0.934 -2.084,2.084c0,1.149 0.934,2.083 2.084,2.083Zm23.641,-0l11.821,-0c1.15,-0 2.084,-0.934 2.084,-2.083c-0,-1.15 -0.934,-2.084 -2.084,-2.084l-11.821,0c-1.15,0 -2.083,0.934 -2.083,2.084c0,1.149 0.933,2.083 2.083,2.083Zm23.642,-0l11.821,-0c1.15,-0 2.083,-0.934 2.083,-2.083c0,-1.15 -0.933,-2.084 -2.083,-2.084l-11.821,0c-1.15,0 -2.083,0.934 -2.083,2.084c-0,1.149 0.933,2.083 2.083,2.083Zm23.642,-0l11.821,-0c1.15,-0 2.083,-0.934 2.083,-2.083c-0,-1.15 -0.933,-2.084 -2.083,-2.084l-11.821,0c-1.15,0 -2.084,0.934 -2.084,2.084c0,1.149 0.934,2.083 2.084,2.083Zm23.641,-0l11.821,-0c1.15,-0 2.083,-0.934 2.083,-2.083c0,-1.15 -0.933,-2.084 -2.083,-2.084l-11.821,0c-1.15,0 -2.083,0.934 -2.083,2.084c0,1.149 0.933,2.083 2.083,2.083Zm23.642,-0l11.821,-0c1.15,-0 2.083,-0.934 2.083,-2.083c0,-1.15 -0.933,-2.084 -2.083,-2.084l-11.821,0c-1.15,0 -2.083,0.934 -2.083,2.084c-0,1.149 0.933,2.083 2.083,2.083Zm23.642,-0l11.821,-0c1.15,-0 2.083,-0.934 2.083,-2.083c-0,-1.15 -0.933,-2.084 -2.083,-2.084l-11.821,0c-1.15,0 -2.084,0.934 -2.084,2.084c0,1.149 0.934,2.083 2.084,2.083Zm23.641,-0l11.821,-0c1.15,-0 2.083,-0.934 2.083,-2.083c0,-1.15 -0.933,-2.084 -2.083,-2.084l-11.821,0c-1.15,0 -2.083,0.934 -2.083,2.084c-0,1.149 0.933,2.083 2.083,2.083Zm23.642,-0l11.821,-0c1.15,-0 2.083,-0.934 2.083,-2.083c0,-1.15 -0.933,-2.084 -2.083,-2.084l-11.821,0c-1.15,0 -2.083,0.934 -2.083,2.084c-0,1.149 0.933,2.083 2.083,2.083Zm23.642,-0l11.808,-0c1.15,0.004 2.087,-0.921 2.096,-2.071c0.004,-1.154 -0.921,-2.092 -2.071,-2.096l-11.833,0c-1.15,0 -2.084,0.934 -2.084,2.084c0,1.149 0.934,2.083 2.084,2.083Zm22.7,1.916c3.529,1.267 6.779,3.117 9.629,5.442c0.896,0.725 2.208,0.592 2.933,-0.3c0.725,-0.891 0.592,-2.204 -0.3,-2.933c-3.212,-2.613 -6.875,-4.704 -10.854,-6.129c-1.083,-0.392 -2.275,0.175 -2.662,1.258c-0.392,1.079 0.175,2.275 1.254,2.662Zm16.916,13.767c1.913,3.117 3.321,6.575 4.109,10.263c0.237,1.125 1.345,1.841 2.471,1.604c1.125,-0.242 1.841,-1.346 1.604,-2.475c-0.888,-4.159 -2.475,-8.063 -4.63,-11.575c-0.604,-0.979 -1.887,-1.288 -2.866,-0.684c-0.979,0.6 -1.288,1.884 -0.688,2.867Zm4.829,21.592l0,11.821c0,1.15 0.934,2.083 2.084,2.083c1.15,-0 2.083,-0.933 2.083,-2.083l0,-11.821c0,-1.15 -0.933,-2.083 -2.083,-2.083c-1.15,-0 -2.084,0.933 -2.084,2.083Zm0,23.642l0,11.82c0,1.15 0.934,2.084 2.084,2.084c1.15,-0 2.083,-0.934 2.083,-2.084l0,-11.82c0,-1.15 -0.933,-2.084 -2.083,-2.084c-1.15,0 -2.084,0.934 -2.084,2.084Zm0,23.641l0,11.821c0,1.15 0.934,2.083 2.084,2.083c1.15,0 2.083,-0.933 2.083,-2.083l0,-11.821c0,-1.15 -0.933,-2.083 -2.083,-2.083c-1.15,-0 -2.084,0.933 -2.084,2.083Zm0,23.642l0,11.821c0,1.15 0.934,2.083 2.084,2.083c1.15,-0 2.083,-0.933 2.083,-2.083l0,-11.821c0,-1.15 -0.933,-2.084 -2.083,-2.084c-1.15,0 -2.084,0.934 -2.084,2.084Zm0,23.641l0,11.821c0,1.15 0.934,2.084 2.084,2.084c1.15,-0 2.083,-0.934 2.083,-2.084l0,-11.821c0,-1.15 -0.933,-2.083 -2.083,-2.083c-1.15,0 -2.084,0.933 -2.084,2.083Zm0,23.642l0,11.821c0,1.15 0.934,2.083 2.084,2.083c1.15,0 2.083,-0.933 2.083,-2.083l0,-11.821c0,-1.15 -0.933,-2.083 -2.083,-2.083c-1.15,-0 -2.084,0.933 -2.084,2.083Zm0,23.642l0,11.821c0,1.15 0.934,2.083 2.084,2.083c1.15,0 2.083,-0.933 2.083,-2.083l0,-11.821c0,-1.15 -0.933,-2.084 -2.083,-2.084c-1.15,0 -2.084,0.934 -2.084,2.084Zm0,23.642l0,3.362c0,2.717 -0.329,5.354 -0.949,7.875c-0.276,1.121 0.408,2.246 1.524,2.521c1.117,0.275 2.246,-0.404 2.521,-1.525c0.7,-2.842 1.071,-5.817 1.071,-8.871l0,-3.362c0,-1.151 -0.933,-2.084 -2.083,-2.084c-1.15,0 -2.084,0.933 -2.084,2.084Zm-5.375,21.37c-2.041,3.109 -4.595,5.846 -7.541,8.096c-0.917,0.7 -1.092,2.009 -0.392,2.921c0.7,0.912 2.004,1.087 2.921,0.392c3.317,-2.538 6.192,-5.621 8.492,-9.117c0.633,-0.963 0.366,-2.254 -0.596,-2.887c-0.959,-0.63 -2.25,-0.363 -2.884,0.595Zm-17.337,13.234c-3.183,1.029 -6.583,1.587 -10.117,1.587l-11.821,0c-1.15,0 -2.083,0.933 -2.083,2.083c0,1.15 0.933,2.084 2.083,2.084l11.821,-0c3.975,-0 7.809,-0.625 11.4,-1.792c1.096,-0.354 1.696,-1.529 1.342,-2.621c-0.354,-1.096 -1.529,-1.695 -2.625,-1.341Z" style="fill:#548ac8;fill-rule:nonzero;"/><path d="M1433.24,743.171l-11.821,-0c-1.15,-0 -2.083,0.933 -2.083,2.083c-0,1.15 0.933,2.083 2.083,2.083l11.821,0c1.15,0 2.083,-0.933 2.083,-2.083c-0,-1.15 -0.933,-2.083 -2.083,-2.083Zm-23.642,-0l-11.821,-0c-1.15,-0 -2.083,0.933 -2.083,2.083c-0,1.15 0.933,2.083 2.083,2.083l11.821,0c1.15,0 2.083,-0.933 2.083,-2.083c0,-1.15 -0.933,-2.083 -2.083,-2.083Zm-23.642,-0l-11.821,-0c-1.15,-0 -2.083,0.933 -2.083,2.083c0,1.15 0.933,2.083 2.083,2.083l11.821,0c1.15,0 2.084,-0.933 2.084,-2.083c-0,-1.15 -0.934,-2.083 -2.084,-2.083Zm-23.641,-0l-11.821,-0c-1.15,-0 -2.083,0.933 -2.083,2.083c-0,1.15 0.933,2.083 2.083,2.083l11.821,0c1.15,0 2.083,-0.933 2.083,-2.083c-0,-1.15 -0.933,-2.083 -2.083,-2.083Zm-23.642,-0l-11.821,-0c-1.15,-0 -2.083,0.933 -2.083,2.083c-0,1.15 0.933,2.083 2.083,2.083l11.821,0c1.15,0 2.083,-0.933 2.083,-2.083c0,-1.15 -0.933,-2.083 -2.083,-2.083Zm-23.642,-0l-11.821,-0c-1.15,-0 -2.083,0.933 -2.083,2.083c0,1.15 0.933,2.083 2.083,2.083l11.821,0c1.15,0 2.084,-0.933 2.084,-2.083c-0,-1.15 -0.934,-2.083 -2.084,-2.083Zm-23.641,-0l-11.821,-0c-1.15,-0 -2.083,0.933 -2.083,2.083c-0,1.15 0.933,2.083 2.083,2.083l11.821,0c1.15,0 2.083,-0.933 2.083,-2.083c0,-1.15 -0.933,-2.083 -2.083,-2.083Zm-23.642,-0l-11.821,-0c-1.15,-0 -2.083,0.933 -2.083,2.083c-0,1.15 0.933,2.083 2.083,2.083l11.821,0c1.15,0 2.083,-0.933 2.083,-2.083c0,-1.15 -0.933,-2.083 -2.083,-2.083Zm-23.642,-0l-11.821,-0c-1.15,-0 -2.083,0.933 -2.083,2.083c0,1.15 0.933,2.083 2.083,2.083l11.821,0c1.15,0 2.084,-0.933 2.084,-2.083c-0,-1.15 -0.934,-2.083 -2.084,-2.083Zm-23.641,-0l-7.055,-0c-1.487,-0 -2.941,-0.142 -4.349,-0.408c-1.13,-0.213 -2.221,0.529 -2.434,1.662c-0.217,1.129 0.525,2.217 1.659,2.433c1.658,0.317 3.375,0.479 5.124,0.479l7.055,0c1.15,0 2.083,-0.933 2.083,-2.083c0,-1.15 -0.933,-2.083 -2.083,-2.083Zm-21.188,-4.825c-2.854,-2.213 -5.179,-5.079 -6.741,-8.367c-0.496,-1.042 -1.738,-1.483 -2.776,-0.987c-1.041,0.491 -1.483,1.737 -0.987,2.775c1.85,3.887 4.588,7.262 7.95,9.87c0.913,0.705 2.221,0.542 2.925,-0.37c0.704,-0.909 0.538,-2.217 -0.371,-2.921Zm-8.966,-18.929l-0,-11.821c-0,-1.15 -0.934,-2.084 -2.084,-2.084c-1.15,0 -2.083,0.934 -2.083,2.084l-0,11.821c-0,1.15 0.933,2.083 2.083,2.083c1.15,0 2.084,-0.933 2.084,-2.083Zm-0,-23.642l-0,-11.821c-0,-1.15 -0.934,-2.083 -2.084,-2.083c-1.15,-0 -2.083,0.933 -2.083,2.083l-0,11.821c-0,1.15 0.933,2.083 2.083,2.083c1.15,0 2.084,-0.933 2.084,-2.083Zm-0,-23.642l-0,-11.82c-0,-1.15 -0.934,-2.084 -2.084,-2.084c-1.15,0 -2.083,0.934 -2.083,2.084l-0,11.82c-0,1.15 0.933,2.084 2.083,2.084c1.15,-0 2.084,-0.934 2.084,-2.084Zm-0,-23.641l-0,-11.821c-0,-1.15 -0.934,-2.084 -2.084,-2.084c-1.15,0 -2.083,0.934 -2.083,2.084l-0,11.821c-0,1.15 0.933,2.083 2.083,2.083c1.15,0 2.084,-0.933 2.084,-2.083Zm-0,-23.642l-0,-11.821c-0,-1.15 -0.934,-2.083 -2.084,-2.083c-1.15,-0 -2.083,0.933 -2.083,2.083l-0,11.821c-0,1.15 0.933,2.083 2.083,2.083c1.15,0 2.084,-0.933 2.084,-2.083Zm-0,-23.642l-0,-1.47c-0,-3.288 0.683,-6.4 1.916,-9.226c0.458,-1.058 -0.021,-2.283 -1.075,-2.745c-1.058,-0.459 -2.283,0.021 -2.746,1.079c-1.454,3.337 -2.262,7.025 -2.262,10.892l-0,1.47c-0,1.15 0.933,2.084 2.083,2.084c1.15,-0 2.084,-0.934 2.084,-2.084Zm8.383,-19.279c2.754,-2.275 6.037,-3.925 9.641,-4.729c1.121,-0.254 1.825,-1.367 1.575,-2.492c-0.25,-1.12 -1.366,-1.829 -2.487,-1.575c-4.258,0.955 -8.137,2.904 -11.383,5.588c-0.888,0.733 -1.013,2.046 -0.28,2.933c0.734,0.888 2.05,1.013 2.934,0.275Zm20.958,-5.291l11.821,-0c1.15,-0 2.083,-0.93 2.083,-2.084c0,-1.15 -0.933,-2.083 -2.083,-2.083l-11.821,-0c-1.15,-0 -2.083,0.933 -2.083,2.083c-0,1.154 0.933,2.084 2.083,2.084Zm23.642,-0l11.821,-0c1.15,-0 2.083,-0.93 2.083,-2.084c-0,-1.15 -0.933,-2.083 -2.083,-2.083l-11.821,-0c-1.15,-0 -2.083,0.933 -2.083,2.083c-0,1.154 0.933,2.084 2.083,2.084Zm23.641,-0l11.821,-0c1.15,-0 2.084,-0.93 2.084,-2.084c-0,-1.15 -0.934,-2.083 -2.084,-2.083l-11.821,-0c-1.15,-0 -2.083,0.933 -2.083,2.083c0,1.154 0.933,2.084 2.083,2.084Zm23.642,-0l11.821,-0c1.15,-0 2.083,-0.93 2.083,-2.084c0,-1.15 -0.933,-2.083 -2.083,-2.083l-11.821,-0c-1.15,-0 -2.083,0.933 -2.083,2.083c-0,1.154 0.933,2.084 2.083,2.084Zm23.642,-0l11.821,-0c1.15,-0 2.083,-0.93 2.083,-2.084c-0,-1.15 -0.933,-2.083 -2.083,-2.083l-11.821,-0c-1.15,-0 -2.084,0.933 -2.084,2.083c0,1.154 0.934,2.084 2.084,2.084Zm23.641,-0l11.821,-0c1.15,-0 2.084,-0.93 2.084,-2.084c-0,-1.15 -0.934,-2.083 -2.084,-2.083l-11.821,-0c-1.15,-0 -2.083,0.933 -2.083,2.083c0,1.154 0.933,2.084 2.083,2.084Zm23.642,-0l11.821,-0c1.15,-0 2.083,-0.93 2.083,-2.084c0,-1.15 -0.933,-2.083 -2.083,-2.083l-11.821,-0c-1.15,-0 -2.083,0.933 -2.083,2.083c-0,1.154 0.933,2.084 2.083,2.084Zm23.642,-0l11.821,-0c1.15,-0 2.083,-0.93 2.083,-2.084c-0,-1.15 -0.933,-2.083 -2.083,-2.083l-11.821,-0c-1.15,-0 -2.084,0.933 -2.084,2.083c0,1.154 0.934,2.084 2.084,2.084Zm23.642,-0l11.82,-0c1.15,-0 2.084,-0.93 2.084,-2.084c-0,-1.15 -0.934,-2.083 -2.084,-2.083l-11.82,-0c-1.15,-0 -2.084,0.933 -2.084,2.083c0,1.154 0.934,2.084 2.084,2.084Zm23.641,-0l11.821,-0c1.15,-0 2.083,-0.93 2.083,-2.084c0,-1.15 -0.933,-2.083 -2.083,-2.083l-11.821,-0c-1.15,-0 -2.083,0.933 -2.083,2.083c-0,1.154 0.933,2.084 2.083,2.084Zm23.642,-0l0.812,-0c3.5,-0 6.809,0.779 9.775,2.166c1.046,0.488 2.284,0.038 2.771,-1.004c0.488,-1.042 0.038,-2.283 -1.004,-2.771c-3.504,-1.641 -7.421,-2.558 -11.542,-2.558l-0.812,-0c-1.15,-0 -2.084,0.933 -2.084,2.083c0,1.154 0.934,2.084 2.084,2.084Zm19,8.858c2.2,2.804 3.762,6.129 4.475,9.758c0.225,1.129 1.317,1.863 2.446,1.642c1.129,-0.225 1.866,-1.317 1.641,-2.446c-0.841,-4.292 -2.691,-8.221 -5.287,-11.529c-0.709,-0.904 -2.017,-1.063 -2.925,-0.35c-0.904,0.708 -1.063,2.016 -0.35,2.925Zm4.912,21.141l0,11.821c0,1.15 0.934,2.084 2.084,2.084c1.15,-0 2.083,-0.934 2.083,-2.084l0,-11.821c0,-1.15 -0.933,-2.083 -2.083,-2.083c-1.15,0 -2.084,0.933 -2.084,2.083Zm0,23.642l0,11.821c0,1.15 0.934,2.083 2.084,2.083c1.15,0 2.083,-0.933 2.083,-2.083l0,-11.821c0,-1.15 -0.933,-2.083 -2.083,-2.083c-1.15,-0 -2.084,0.933 -2.084,2.083Zm0,23.642l0,11.821c0,1.15 0.934,2.083 2.084,2.083c1.15,-0 2.083,-0.933 2.083,-2.083l0,-11.821c0,-1.15 -0.933,-2.083 -2.083,-2.083c-1.15,-0 -2.084,0.933 -2.084,2.083Zm0,23.641l0,11.821c0,1.15 0.934,2.084 2.084,2.084c1.15,-0 2.083,-0.934 2.083,-2.084l0,-11.821c0,-1.15 -0.933,-2.083 -2.083,-2.083c-1.15,0 -2.084,0.933 -2.084,2.083Zm0,23.642l0,11.821c0,1.15 0.934,2.083 2.084,2.083c1.15,0 2.083,-0.933 2.083,-2.083l0,-11.821c0,-1.15 -0.933,-2.083 -2.083,-2.083c-1.15,-0 -2.084,0.933 -2.084,2.083Zm-0.412,23.221c-0.692,3.638 -2.238,6.967 -4.421,9.787c-0.704,0.909 -0.537,2.217 0.371,2.921c0.908,0.704 2.217,0.542 2.921,-0.371c2.579,-3.32 4.404,-7.258 5.225,-11.554c0.212,-1.129 -0.53,-2.221 -1.659,-2.437c-1.129,-0.217 -2.22,0.525 -2.437,1.654Zm-12.792,16.525c-2.996,1.425 -6.346,2.221 -9.896,2.221l-11.821,-0c-1.15,-0 -2.083,0.933 -2.083,2.083c0,1.15 0.933,2.083 2.083,2.083l11.821,0c4.175,0 8.142,-0.937 11.688,-2.624c1.037,-0.492 1.479,-1.738 0.987,-2.775c-0.495,-1.038 -1.737,-1.484 -2.779,-0.988Z" style="fill:#548ac8;fill-rule:nonzero;"/><path d="M1509.3,1058.3l-502.842,-0c-16.571,-0 -30.004,-13.434 -30.004,-30.004l0,-212.088c0,-16.571 13.433,-30.004 30.004,-30.004l502.842,0c16.571,0 30.004,13.433 30.004,30.004l0,212.088c0,16.57 -13.433,30.004 -30.004,30.004Z" style="fill:#4061a5;fill-rule:nonzero;"/><path d="M1516.67,794.146l-0,212.208c-0,16.542 -13.417,29.917 -29.959,29.917l-500.708,-0c-16.541,-0 -29.958,-13.375 -29.958,-29.917l-0,-212.208c-0,-16.542 13.417,-29.959 29.958,-29.959l500.708,0c16.542,0 29.959,13.417 29.959,29.959Z" style="fill:#708dc8;fill-rule:nonzero;"/><path d="M1149.71,1014.16l-147.512,0c-11.183,0 -20.25,-9.066 -20.25,-20.254l-0,-147.508c-0,-11.188 9.067,-20.254 20.25,-20.254l147.512,-0c11.188,-0 20.255,9.066 20.255,20.254l-0,147.508c-0,11.188 -9.067,20.254 -20.255,20.254Z" style="fill:#fff;fill-rule:nonzero;"/><path d="M1324.54,849.929l-129.912,0c-3.533,0 -6.396,-2.862 -6.396,-6.396c0,-3.529 2.863,-6.396 6.396,-6.396l129.912,0c3.534,0 6.401,2.867 6.401,6.396c-0,3.534 -2.867,6.396 -6.401,6.396Z" style="fill:#a0b9e0;fill-rule:nonzero;"/><path d="M1265.34,875.471l-70.712,-0c-3.533,-0 -6.396,-2.867 -6.396,-6.396c0,-3.533 2.863,-6.4 6.396,-6.4l70.712,-0c3.534,-0 6.396,2.867 6.396,6.4c0,3.529 -2.862,6.396 -6.396,6.396Z" style="fill:#a0b9e0;fill-rule:nonzero;"/><path d="M1482.7,875.471l-191.342,-0c-3.533,-0 -6.395,-2.867 -6.395,-6.396c-0,-3.533 2.862,-6.4 6.395,-6.4l191.342,-0c3.534,-0 6.396,2.867 6.396,6.4c-0,3.529 -2.862,6.396 -6.396,6.396Z" style="fill:#a0b9e0;fill-rule:nonzero;"/><path d="M1304.03,901.008l-109.408,0c-3.533,0 -6.396,-2.862 -6.396,-6.395c0,-3.534 2.863,-6.396 6.396,-6.396l109.408,-0c3.529,-0 6.396,2.862 6.396,6.396c0,3.533 -2.867,6.395 -6.396,6.395Z" style="fill:#a0b9e0;fill-rule:nonzero;"/><path d="M1396.9,901.008l-68.779,0c-3.534,0 -6.396,-2.862 -6.396,-6.395c0,-3.534 2.862,-6.396 6.396,-6.396l68.779,-0c3.529,-0 6.396,2.862 6.396,6.396c-0,3.533 -2.867,6.395 -6.396,6.395Z" style="fill:#a0b9e0;fill-rule:nonzero;"/><path d="M1482.7,901.008l-63.342,0c-3.529,0 -6.395,-2.862 -6.395,-6.395c-0,-3.534 2.866,-6.396 6.395,-6.396l63.342,-0c3.534,-0 6.396,2.862 6.396,6.396c-0,3.533 -2.862,6.395 -6.396,6.395Z" style="fill:#a0b9e0;fill-rule:nonzero;"/><path d="M1482.7,926.546l-288.079,-0c-3.533,-0 -6.396,-2.863 -6.396,-6.396c0,-3.533 2.863,-6.396 6.396,-6.396l288.079,0c3.534,0 6.396,2.863 6.396,6.396c-0,3.533 -2.862,6.396 -6.396,6.396Z" style="fill:#a0b9e0;fill-rule:nonzero;"/><path d="M1353.17,952.083l-158.55,0c-3.533,0 -6.396,-2.862 -6.396,-6.396c0,-3.533 2.863,-6.395 6.396,-6.395l158.55,-0c3.529,-0 6.396,2.862 6.396,6.395c-0,3.534 -2.867,6.396 -6.396,6.396Z" style="fill:#a0b9e0;fill-rule:nonzero;"/><path d="M1482.7,952.083l-103.971,0c-3.529,0 -6.396,-2.862 -6.396,-6.396c0,-3.533 2.867,-6.395 6.396,-6.395l103.971,-0c3.534,-0 6.396,2.862 6.396,6.395c-0,3.534 -2.862,6.396 -6.396,6.396Z" style="fill:#a0b9e0;fill-rule:nonzero;"/><path d="M1287.78,977.621l-93.154,-0c-3.533,-0 -6.396,-2.863 -6.396,-6.396c0,-3.533 2.863,-6.396 6.396,-6.396l93.154,0c3.534,0 6.396,2.863 6.396,6.396c0,3.533 -2.862,6.396 -6.396,6.396Z" style="fill:#a0b9e0;fill-rule:nonzero;"/><path d="M1406.15,977.621l-93.154,-0c-3.534,-0 -6.396,-2.863 -6.396,-6.396c-0,-3.533 2.862,-6.396 6.396,-6.396l93.154,0c3.533,0 6.396,2.863 6.396,6.396c-0,3.533 -2.863,6.396 -6.396,6.396Z" style="fill:#a0b9e0;fill-rule:nonzero;"/><path d="M1482.7,977.621l-54.054,-0c-3.533,-0 -6.396,-2.863 -6.396,-6.396c0,-3.533 2.863,-6.396 6.396,-6.396l54.054,0c3.534,0 6.396,2.863 6.396,6.396c-0,3.533 -2.862,6.396 -6.396,6.396Z" style="fill:#a0b9e0;fill-rule:nonzero;"/><path d="M1324.54,1003.16l-129.912,-0c-3.533,-0 -6.396,-2.867 -6.396,-6.396c0,-3.534 2.863,-6.4 6.396,-6.4l129.912,-0c3.534,-0 6.401,2.866 6.401,6.4c-0,3.529 -2.867,6.396 -6.401,6.396Z" style="fill:#a0b9e0;fill-rule:nonzero;"/><path d="M1482.7,849.929l-129.917,0c-3.533,0 -6.395,-2.862 -6.395,-6.396c-0,-3.529 2.862,-6.396 6.395,-6.396l129.917,0c3.534,0 6.396,2.867 6.396,6.396c-0,3.534 -2.862,6.396 -6.396,6.396Z" style="fill:#a0b9e0;fill-rule:nonzero;"/><path d="M1516.67,794.146l-0,8.917l-560.625,-0l-0,-8.917c-0,-16.542 13.417,-29.959 29.958,-29.959l500.708,0c16.542,0 29.959,13.417 29.959,29.959Z" style="fill:#255fac;fill-rule:nonzero;"/><path d="M1411,784.325c0,3.837 -3.108,6.946 -6.946,6.946c-3.833,-0 -6.946,-3.109 -6.946,-6.946c0,-3.833 3.113,-6.942 6.946,-6.942c3.838,0 6.946,3.109 6.946,6.942Z" style="fill:#d3dbef;fill-rule:nonzero;"/><path d="M1446.53,784.325c0,3.837 -3.112,6.946 -6.946,6.946c-3.833,-0 -6.945,-3.109 -6.945,-6.946c-0,-3.833 3.112,-6.942 6.945,-6.942c3.834,0 6.946,3.109 6.946,6.942Z" style="fill:#d3dbef;fill-rule:nonzero;"/><path d="M1482.07,784.325c-0,3.837 -3.113,6.946 -6.946,6.946c-3.838,-0 -6.946,-3.109 -6.946,-6.946c-0,-3.833 3.108,-6.942 6.946,-6.942c3.833,0 6.946,3.109 6.946,6.942Z" style="fill:#d3dbef;fill-rule:nonzero;"/><path d="M1129.62,747.121l-0,-3.734l-110.959,0c-7.716,0 -14.687,-3.12 -19.745,-8.179c-5.059,-5.058 -8.18,-12.029 -8.184,-19.746l0,-110.958c0.004,-7.716 3.125,-14.687 8.184,-19.746c5.058,-5.058 12.029,-8.179 19.745,-8.183l110.959,-0c7.716,0.004 14.687,3.125 19.746,8.183c5.058,5.059 8.179,12.03 8.179,19.746l-0,110.958c-0,7.717 -3.121,14.688 -8.179,19.746c-5.059,5.059 -12.03,8.179 -19.746,8.179l-0,3.734c17.483,-0 31.658,-14.175 31.658,-31.659l-0,-110.958c-0,-17.483 -14.175,-31.658 -31.658,-31.658l-110.959,-0c-17.483,-0 -31.658,14.175 -31.658,31.658l-0,110.958c-0,17.484 14.175,31.659 31.658,31.659l110.959,-0Z" style="fill:#3c61ad;fill-rule:nonzero;"/><path d="M1045.07,632.854l-24.571,24.571c-1.358,1.358 -1.358,3.562 0,4.925l24.767,24.763c1.358,1.362 3.562,1.362 4.925,-0c1.358,-1.359 1.358,-3.563 -0,-4.925l-22.305,-22.301l22.109,-22.108c1.362,-1.362 1.362,-3.567 -0,-4.925c-1.359,-1.362 -3.563,-1.362 -4.925,0Z" style="fill:#3c61ad;fill-rule:nonzero;"/><path d="M1098.28,637.779l22.108,22.108l-22.304,22.301c-1.358,1.362 -1.358,3.566 0,4.925c1.359,1.362 3.567,1.362 4.925,-0l24.767,-24.763c0.646,-0.65 1.017,-1.546 1.017,-2.463c-0,-0.916 -0.371,-1.816 -1.017,-2.462l-24.571,-24.571c-1.362,-1.362 -3.567,-1.362 -4.925,0c-1.362,1.358 -1.362,3.563 0,4.925Z" style="fill:#3c61ad;fill-rule:nonzero;"/><path d="M1082.49,633.842l-23.012,49.337c-0.812,1.742 -0.058,3.813 1.683,4.629c1.746,0.813 3.817,0.059 4.629,-1.687l23.013,-49.333c0.813,-1.742 0.058,-3.817 -1.687,-4.63c-1.742,-0.812 -3.813,-0.058 -4.626,1.684Z" style="fill:#3c61ad;fill-rule:nonzero;"/><path d="M1516.67,158.437l-0,346.959c-0,18.833 -15.25,34.083 -34.083,34.083l-492.459,0c-18.792,0 -34.083,-15.25 -34.083,-34.083l-0,-346.959c-0,-18.833 15.291,-34.083 34.083,-34.083l492.459,0c18.833,0 34.083,15.25 34.083,34.083Z" style="fill:#a0b9e0;fill-rule:nonzero;"/><path d="M1484.38,233.979c0,44.875 -36.375,81.25 -81.25,81.25c-44.875,0 -81.25,-36.375 -81.25,-81.25c0,-44.875 36.375,-81.25 81.25,-81.25c44.875,0 81.25,36.375 81.25,81.25Z" style="fill:#e8eff9;fill-rule:nonzero;"/><path d="M1285.59,539.479l-295.459,0c-18.792,0 -34.083,-15.25 -34.083,-34.083l-0,-54.625l129.292,-223.959c6.75,-11.708 23.666,-11.708 30.416,0l97.625,169.084l72.5,125.583c3.5,6 2.959,12.833 -0.291,18Z" style="fill:#fff;fill-rule:nonzero;"/><path d="M1413,539.479l-282.542,0l82.917,-143.583l44.667,-77.375c6.083,-10.542 21.292,-10.542 27.375,-0l127.583,220.958Z" style="fill:#e8eff9;fill-rule:nonzero;"/><rect x="1755.6" y="1184.19" width="217.821" height="327.346" style="fill:#3357a7;fill-rule:nonzero;"/><rect x="1973.42" y="1184.19" width="83.4" height="327.346" style="fill:#3c61ad;fill-rule:nonzero;"/><rect x="1985.35" y="1196.76" width="61.233" height="10.45" style="fill:#a0b9e0;fill-rule:nonzero;"/><rect x="1985.35" y="1219.2" width="61.233" height="10.446" style="fill:#a0b9e0;fill-rule:nonzero;"/><rect x="1985.35" y="1241.65" width="61.233" height="10.446" style="fill:#a0b9e0;fill-rule:nonzero;"/><rect x="1985.35" y="1264.09" width="61.233" height="10.446" style="fill:#a0b9e0;fill-rule:nonzero;"/><rect x="1985.35" y="1286.53" width="61.233" height="10.45" style="fill:#a0b9e0;fill-rule:nonzero;"/><rect x="1985.35" y="1308.98" width="61.233" height="10.446" style="fill:#a0b9e0;fill-rule:nonzero;"/><rect x="1985.35" y="1331.42" width="61.233" height="10.446" style="fill:#a0b9e0;fill-rule:nonzero;"/><rect x="1985.35" y="1353.86" width="61.233" height="10.45" style="fill:#a0b9e0;fill-rule:nonzero;"/><rect x="1985.35" y="1376.3" width="61.233" height="10.45" style="fill:#a0b9e0;fill-rule:nonzero;"/><rect x="1985.35" y="1398.75" width="61.233" height="10.446" style="fill:#a0b9e0;fill-rule:nonzero;"/><rect x="1985.35" y="1421.19" width="61.233" height="10.446" style="fill:#a0b9e0;fill-rule:nonzero;"/><rect x="1985.35" y="1443.63" width="61.233" height="10.45" style="fill:#a0b9e0;fill-rule:nonzero;"/><rect x="1985.35" y="1466.07" width="61.233" height="10.45" style="fill:#a0b9e0;fill-rule:nonzero;"/><rect x="1985.35" y="1488.52" width="61.233" height="10.446" style="fill:#a0b9e0;fill-rule:nonzero;"/><path d="M1720.21,1511.53l110.704,0c-0,0 6.183,-19.712 -7.225,-44.133c-0,0 -8.909,7.146 -35.6,2.312c-0,0 -11.138,9.459 -18.829,13.159c-7.734,3.742 -52.034,12.437 -49.05,28.662Z" style="fill:#1f0207;fill-rule:nonzero;"/><path d="M1727.93,1199.39c7.15,42.667 40.142,187.005 54.325,272.271c25.921,2.209 38.371,-0.766 44.967,-2.287c-1.292,-29.733 -3.85,-100.854 -3.55,-132.046c0.492,-52.713 2.967,-122.225 -20.237,-160.371l-78.026,6.142c0.476,4.116 0.909,7.471 1.288,9.862c0.375,2.3 0.804,4.421 1.233,6.429Z" style="fill:#0c2d4e;fill-rule:nonzero;"/><path d="M1519.98,1511.53l110.704,0c0,0 6.188,-19.712 -7.22,-44.133c-0,0 -8.913,7.146 -35.601,2.312c0,0 -11.137,9.459 -18.829,13.159c-7.733,3.742 -52.037,12.437 -49.054,28.662Z" style="fill:#1f0207;fill-rule:nonzero;"/><path d="M1584.65,1469.17c21.15,5.233 36.471,4.725 43.729,3.908c5.888,-34.275 15.184,-109.688 23.55,-145.038c12.988,-54.941 25.692,-130.504 16.863,-157.462l-76.75,-19.275c-0.254,2.429 -6.504,233.687 -7.392,317.867Z" style="fill:#001d30;fill-rule:nonzero;"/><path d="M1890.12,1072.62c-1.542,-15.167 -3.317,-26.246 -3.317,-26.246l-85.75,20.988l-72.842,16.596c-27.004,6.012 -59.625,13.258 -88.387,19.758c-32.271,7.333 -53.696,31.846 -46.625,64.162l8.088,39.196c45.137,-0.617 257.354,-20.962 275.508,-30.125c20.508,-10.358 26.679,-46.975 13.325,-104.329Z" style="fill:#001d30;fill-rule:nonzero;"/><path d="M2018.13,1072.62c-1.542,-15.167 -8.937,-31.442 -8.937,-31.442l-80.13,26.184l-72.841,16.596c-27.004,6.012 -59.629,13.258 -88.388,19.758c-32.271,7.333 -53.696,31.846 -46.629,64.162l8.092,39.196c45.137,-0.617 233.792,-7.192 275.504,-30.125c20.133,-11.071 26.683,-46.975 13.329,-104.329Z" style="fill:#0c2d4e;fill-rule:nonzero;"/><path d="M1778.12,949.729c-0,0 38.087,-17.204 48.566,0.05c5.738,9.446 1.771,26.992 -11.22,34.358c-12.988,7.367 -86.392,38.413 -155.676,55.726c0,-0 -2.958,-9.638 -7.729,-19.767c0,-0 31.079,-12.892 61.98,-34.592c30.899,-21.7 64.079,-35.775 64.079,-35.775Z" style="fill:#f58e8d;fill-rule:nonzero;"/><path d="M1787.64,830.792l-32.642,130.379c-0,-0 3.371,32.962 36.658,16.783c33.292,-16.179 55.35,-120.05 55.35,-120.05l-59.366,-27.112Z" style="fill:#f58e8d;fill-rule:nonzero;"/><path d="M1842.86,903.712c-4.038,-0.975 -7.892,-2.045 -11.609,-3.158c-3.808,-1.116 -7.433,-2.275 -10.866,-3.483c-31.017,-10.634 -47.78,-23.404 -47.78,-23.404c9.75,-42.392 21.5,-70.854 31.946,-89.613c0.279,-0.466 0.559,-0.883 0.792,-1.396c0.279,-0.462 0.554,-0.929 0.833,-1.391c5.621,-9.334 13.7,-17.175 22.709,-23.634c0.929,-0.65 1.808,-1.254 2.737,-1.904l3.85,68.071l0.65,7.013l6.738,72.899Z" style="fill:#fff;fill-rule:nonzero;"/><path d="M1842.86,903.712c-4.038,-0.975 -7.892,-2.045 -11.609,-3.158c-3.808,-1.116 -7.433,-2.275 -10.866,-3.483c6.512,-45.854 12.395,-74.667 12.395,-74.667l3.342,8.409l6.738,72.899Z" style="fill:#acdfec;fill-rule:nonzero;"/><path d="M2035.56,786.004c-0.791,20.15 -4.32,52.513 -7.383,85.017c-0.975,10.308 -1.904,20.662 -2.696,30.646c-0.554,6.225 -9.933,39.425 -10.308,45.366c-1.671,28.417 -15.6,49.684 -2.412,92.959c3.158,10.354 3.945,15.696 3.945,19.966c0,2.971 -3.854,6.084 -5.383,6.921c-5.529,3.204 -16.392,5.429 -29.579,7.054l-0.046,0c-25.958,3.159 -60.967,3.763 -82.096,3.763c-28.371,-0 -70.954,-4.504 -76.337,-11.654c-4.925,-6.546 -0.371,-16.067 1.95,-29.209c10.45,-59.296 6.733,-90.216 6.083,-133.029c-0,-1.067 -0.046,-2.137 -0.046,-3.25c-1.066,-66.029 -5.437,-122.537 -2.366,-142.921c0.929,-0.65 1.808,-1.254 2.737,-1.904c4.5,-3.062 8.917,-5.804 13.188,-8.217c0.37,-0.187 0.837,-0.466 1.295,-0.745c1.304,-0.742 2.65,-1.442 3.905,-2.138c0.466,-0.275 0.975,-0.508 1.487,-0.741c9.613,-4.692 23.633,-9.705 31.667,-12.492c1.02,-0.325 1.95,-0.65 2.741,-0.879c7.567,-0.467 15.788,-0.559 24.654,-0.33c7.709,0.234 19.505,1.255 32.317,2.93l0.046,-0c14.488,1.854 30.321,4.595 42.904,8.029l0.233,0.096c2.371,0.741 17.738,6.504 33.759,23.637c5.337,5.663 10.816,12.625 15.741,21.125Z" style="fill:#fff;fill-rule:nonzero;"/><path d="M2012.76,1039.99c3.158,10.354 3.945,15.696 3.945,19.966c0,2.971 -3.854,6.084 -5.383,6.921c-5.529,3.204 -16.392,5.429 -29.579,7.054c5.433,-0.65 14.808,-9.266 14.812,-17.037c0,-5.446 -7.058,-42.209 -5.108,-65.938c1.95,-23.679 5.804,-61.383 -1.533,-91.566c-7.384,-30.18 -14.3,-69.88 -14.3,-69.88l41.37,24.98c0,-0 5.342,7.475 11.192,16.529c-0.975,10.308 -1.904,20.662 -2.696,30.646c-0.554,6.225 -25.908,95.05 -12.72,138.325Z" style="fill:#acdfec;fill-rule:nonzero;"/><path d="M1830.75,611.496c0,-0 3.579,43.271 17.925,46.179c14.346,2.904 10.825,-15.479 10.825,-15.479l-2.004,-20.546l-26.746,-10.154Z" style="fill:#0c2d4e;fill-rule:nonzero;"/><path d="M1896.91,768.313c-28.091,-3.342 -17.6,-30.646 -13.745,-36.917c1.02,-0.325 5.85,-1.809 6.221,-2.042l0.095,-0.046c0.929,-0.746 1.625,-1.858 2.179,-3.25c2.742,-7.2 1.488,-21.546 1.396,-22.475l0,-2.645c0.463,-1.721 0.93,-3.346 1.3,-4.876l14.767,-11.608l31.25,-24.567c0,0 -8.313,41.096 -1.625,67.005c0.508,1.95 1.529,4.691 4.129,6.225l0.046,-0c0.838,0.554 1.858,0.925 3.112,1.112c7.663,3.621 -3.016,39.563 -49.125,34.084Z" style="fill:#f58e8d;fill-rule:nonzero;"/><path d="M1921.67,686.004c-0,0 -0.263,27.425 -30.029,40.038c2.766,-7.159 1.491,-21.517 1.404,-22.438l12.471,-9.792l16.154,-7.808Z" style="fill:#ec6a66;fill-rule:nonzero;"/><path d="M1837.61,617.654c-0,0 6.495,89.779 30.737,97.409c0,-0 30.883,2.908 53.058,-26.921c6.392,-8.596 14.463,-10.525 17.1,-20.905c4.284,-16.854 10.325,-47.95 2.617,-66.687c-10.975,-26.688 -102.471,-47.875 -103.512,17.104Z" style="fill:#f58e8d;fill-rule:nonzero;"/><path d="M1941.5,585.733c-0.396,-16.308 -16.904,-22.4 -16.904,-22.4c-16.434,-7.691 -50.584,-4.375 -85.796,3.48c-3.571,0.795 -7.529,0.304 -11.342,-0.192c-5.008,-0.654 -9.762,-1.304 -13.029,0.967c-6.971,4.833 -0.033,26.916 -0.033,26.916c13.583,41.129 63.558,27.754 78.575,22.679c3.571,10.588 3.112,25.313 12.016,32.904c5.075,4.33 13.892,4.45 22.854,2.959c1.105,2.096 5.251,3.946 6.092,6.825c2.825,9.617 2.421,24.646 2.334,36.25l4.237,-2.071c0.554,-3.142 44.388,-106.971 0.996,-108.317Z" style="fill:#0c2d4e;fill-rule:nonzero;"/><path d="M1862.48,647.892l-1.029,0.175c0.154,0.933 0.238,1.858 0.238,2.758c-0,2.929 -0.813,5.608 -2.167,7.612c-1.367,2.009 -3.234,3.334 -5.429,3.709c-0.413,0.071 -0.825,0.108 -1.238,0.108c-4.6,0.038 -9.266,-4.483 -10.362,-10.962c-0.159,-0.938 -0.234,-1.863 -0.234,-2.763c-0.004,-2.929 0.809,-5.604 2.159,-7.612c1.366,-2.005 3.233,-3.334 5.433,-3.709c0.413,-0.071 0.825,-0.104 1.238,-0.104c4.6,-0.042 9.266,4.479 10.362,10.963l1.029,-0.175l1.029,-0.175c-1.241,-7.221 -6.441,-12.659 -12.42,-12.7c-0.53,-0 -1.063,0.041 -1.588,0.133c-2.838,0.479 -5.196,2.208 -6.808,4.6c-1.617,2.396 -2.521,5.467 -2.521,8.779c-0,1.017 0.079,2.058 0.262,3.113c1.238,7.216 6.438,12.658 12.421,12.696c0.525,0.004 1.058,-0.042 1.588,-0.134c2.833,-0.479 5.196,-2.208 6.804,-4.6c1.616,-2.396 2.525,-5.466 2.525,-8.779c-0,-1.017 -0.084,-2.058 -0.263,-3.108l-1.029,0.175Z" style="fill:#fff;fill-rule:nonzero;"/><path d="M1891.77,642.417l-1.025,0.175c0.158,0.937 0.233,1.862 0.233,2.762c0,2.929 -0.808,5.604 -2.166,7.608c-1.359,2.009 -3.23,3.338 -5.425,3.713c-0.417,0.071 -0.83,0.104 -1.238,0.104c-4.604,0.042 -9.267,-4.479 -10.362,-10.962c-0.159,-0.934 -0.238,-1.859 -0.238,-2.763c0,-2.929 0.808,-5.604 2.167,-7.608c1.362,-2.009 3.229,-3.338 5.425,-3.713c0.416,-0.071 0.829,-0.104 1.237,-0.104c4.604,-0.042 9.267,4.483 10.367,10.963l1.025,-0.175l1.029,-0.175c-1.233,-7.217 -6.433,-12.659 -12.421,-12.7c-0.525,-0 -1.054,0.046 -1.587,0.133c-2.83,0.483 -5.192,2.208 -6.804,4.604c-1.617,2.396 -2.521,5.467 -2.526,8.775c0,1.021 0.088,2.063 0.267,3.113c1.234,7.216 6.434,12.658 12.421,12.7c0.525,-0 1.058,-0.042 1.588,-0.134c2.833,-0.479 5.191,-2.208 6.804,-4.6c1.616,-2.396 2.525,-5.466 2.525,-8.779c-0,-1.017 -0.088,-2.058 -0.267,-3.112l-1.029,0.175Z" style="fill:#fff;fill-rule:nonzero;"/><path d="M1863.36,648.438l-0.362,-0.226l0.329,0.275l0.033,-0.049l-0.362,-0.226l0.329,0.275c0.021,-0.016 0.921,-1.145 4.929,-1.158c0.638,0 1.359,0.029 2.159,0.1l0.179,-2.079c-0.854,-0.075 -1.634,-0.108 -2.338,-0.108c-5.004,-0.025 -6.47,1.746 -6.666,2.1l1.77,1.095Z" style="fill:#fff;fill-rule:nonzero;"/><path d="M1892.19,645.237l25.041,-4.004l-0.329,-2.058l-25.042,4" style="fill:#fff;fill-rule:nonzero;"/><path d="M1918.9,671.988c17.246,6.604 22.629,-35.838 6.254,-37.721c-12.416,-1.425 -12.925,15.9 -12.925,15.9c0,-0 -3.175,18.046 6.671,21.821Z" style="fill:#f58e8d;fill-rule:nonzero;"/><path d="M1920.94,662.604c-0,0 -0.25,-0.304 -0.617,-0.879c-0.321,-0.592 -0.971,-1.383 -1.408,-2.471c-0.484,-1.075 -0.992,-2.371 -1.267,-3.85c-0.338,-1.462 -0.429,-3.096 -0.304,-4.733c0.154,-1.633 0.579,-3.267 1.271,-4.663c0.658,-1.416 1.608,-2.554 2.495,-3.387c1.863,-1.642 3.48,-1.954 3.48,-1.954c-0,-0 -1.117,1.146 -2.138,3.041c-1.008,1.846 -1.9,4.359 -2.092,7.059c-0.766,0.625 -1.404,1.345 -1.845,1.983c-0.696,0.958 -1.034,1.683 -1.034,1.683l2.821,1.009c0.058,1.204 0.2,2.333 0.284,3.35c0.116,1.129 0.216,2.07 0.287,2.733c0.067,0.675 0.067,1.079 0.067,1.079Z" style="fill:#f37d7a;fill-rule:nonzero;"/><path d="M1920.33,655.45l-0.025,-0.008l-2.821,-1.009c0,0 0.338,-0.725 1.034,-1.683c0.441,-0.638 1.079,-1.358 1.845,-1.983c0.4,-0.325 0.834,-0.625 1.292,-0.88c1.329,-0.758 2.784,-1.104 3.854,-1.183c0.317,-0.029 0.6,-0.037 0.842,-0.037c0.583,-0 0.933,0.058 0.933,0.058c0,0 -0.708,0.075 -1.671,0.442c-0.966,0.341 -2.158,1.021 -3.058,1.937c-0.921,0.896 -1.512,2.009 -1.808,2.875c-0.321,0.863 -0.417,1.471 -0.417,1.471Z" style="fill:#f37d7a;fill-rule:nonzero;"/><path d="M2084.7,966.913l-0.004,0.041c-7.58,8.792 -36.338,15.2 -50.175,3.038c-4.35,-3.875 -9.259,-14.084 -14.08,-26.75c-12.27,-32.388 -23.883,-80.842 -23.883,-80.842l64.358,-32.888c0,0 8.28,37.125 15.413,72.405c0,-0 0.062,0.358 0.196,0.983c2.321,11.3 4.483,22.417 6.179,31.954l0.125,0.758c1.7,11.392 2.792,23.263 1.871,31.301Z" style="fill:#f58e8d;fill-rule:nonzero;"/><path d="M1972.25,817.325c6.217,25.842 25.75,74.817 25.75,74.817c13.683,2.27 32.029,-0.25 47.233,-5.713c17.55,-6.304 30.088,-19.542 30.088,-19.542c-0,0 -12.954,-36.408 -24.583,-62.57c-10.438,-23.484 -16.705,-32.25 -21.221,-36.904c-6.8,-7.126 -17.771,-15.292 -25.554,-19l-31.713,68.912Z" style="fill:#fff;fill-rule:nonzero;"/><path d="M2053.63,834.204l-37.766,-16.296l-29.759,-76.675c0,0 5.454,1.659 12.638,4.559l0.033,-0c0.138,0.071 0.45,0.171 0.967,0.379l0.55,0.246c6.421,3 31.312,17.675 48.541,70.975c0.138,0.45 0.276,0.895 0.413,1.345c1.829,6.146 3.175,11.084 3.9,13.638l0.208,0.758l0.275,1.071Z" style="fill:#fff;fill-rule:nonzero;"/><path d="M2084.7,966.913l-0.004,0.041c-0.554,4.713 -1.854,8.1 -4.184,9.3l-6.025,3.621c-7.866,4.812 -22.137,12.996 -39.891,20.629c-43.05,18.596 -105.592,40.167 -139.309,50.054c0,0 -3.329,-9.525 -8.52,-19.446c-0,0 30.495,-14.162 60.474,-37.125c30.021,-22.912 73.2,-50.745 73.2,-50.745l10.905,-12.83c-0,0 38.758,-35.67 44.983,-28.495c0,-0 0.062,0.358 0.196,0.983c0.925,3.721 4,17.408 6.179,31.954l0.125,0.758c1.7,11.392 2.792,23.263 1.871,31.301Z" style="fill:#f58e8d;fill-rule:nonzero;"/><path d="M1891.22,1028.93c-0,0 -7.579,4.567 -15.3,2.942c-4.271,-0.896 -5.996,-2.646 -9.154,-3.2c-3.159,-0.554 -11.575,-1.592 -15.742,-3.637c-4.158,-2.042 -5.783,-2.271 -5.637,1.912c0.145,4.179 8.362,7.796 10.591,8.954c2.229,1.159 5.025,4.871 5.321,5.334c0.304,0.466 -13.687,7.791 -17.458,6.304c-0,-0 -1.117,3.37 -0.479,5.254c0.637,1.879 3.516,2.542 3.741,3.487c0.221,0.942 -0.662,2.875 -0.041,4.38c0.62,1.5 3.191,1.504 4.233,3.941c1.037,2.438 -0.109,2.479 0.65,5.021c0.758,2.546 4.004,3.004 4.625,4.312c0.616,1.313 0.291,2.846 1.654,3.751c1.367,0.904 13.954,-3.138 18.55,-5.105c4.592,-1.97 16.875,-19.645 30.463,-25.67l-16.017,-17.98Z" style="fill:#f58e8d;fill-rule:nonzero;"/><path d="M1955.55,1107.84l-97.904,-0l0,-9.58l97.904,0c2.646,0 4.792,2.142 4.792,4.788c-0,2.646 -2.146,4.792 -4.792,4.792Z" style="fill:#106488;fill-rule:nonzero;"/><path d="M1902.58,1107.84l-245.137,-0c-2.938,-0 -5.513,-1.959 -6.296,-4.788l-50.175,-180.612c-1.108,-3.996 1.896,-7.954 6.046,-7.954l237.054,-0c5.517,-0 10.367,3.683 11.842,9.008l49.996,179.962c0.612,2.204 -1.046,4.384 -3.33,4.384Z" style="fill:#106488;fill-rule:nonzero;"/><path d="M1893.71,1107.84l-245.133,-0c-2.938,-0 -5.512,-1.959 -6.296,-4.788l-50.175,-180.612c-1.108,-3.996 1.896,-7.954 6.046,-7.954l237.05,-0c5.525,-0 10.367,3.683 11.85,9.008l49.992,179.962c0.612,2.204 -1.046,4.384 -3.334,4.384Z" style="fill:#2a79be;fill-rule:nonzero;"/><path d="M922.146,991.142l28.396,-29.113c-0,0 0.983,-12.983 2.529,-15.721c1.55,-2.737 5.542,-12.879 7.529,-13.983c1.992,-1.108 5.971,-0 5.971,-0c-0,-0 3.946,-1.325 5.712,-1.325c1.771,0 5.08,1.612 5.08,1.612c-0,0 4.245,-0.287 6.016,-0.287c1.767,-0 2.334,0.496 2.334,0.496c-0,-0 6.845,-7.875 10.162,-10.529c3.317,-2.65 8.388,-7.538 9.892,-7.517c1.416,0.017 2.041,2.508 1.008,5.163c-1.029,2.654 -5.521,6.933 -5.521,6.933l-12.937,19.604c-0,-0 2.208,-0.883 3.387,-1.621c1.183,-0.737 9.071,-8.108 9.55,-8.404c0.475,-0.292 4.013,-2.65 6.079,-0.292c2.063,2.359 -13.546,21.055 -16.054,23.563c-2.504,2.504 -16.854,9.771 -16.854,9.771c-0,-0 -15.15,27.254 -16.625,29.021c-1.475,1.77 -35.654,-7.371 -35.654,-7.371Z" style="fill:#f58f90;fill-rule:nonzero;"/><path d="M948.871,856.758c-0,0 -15.863,91.884 -30.792,94.013c0,-0 -59.604,2.408 -72.879,-69.9c-11.517,-62.704 34.671,-76.075 56.271,-71.279c21.604,4.796 52.037,7.916 47.4,47.166Z" style="fill:#f58f90;fill-rule:nonzero;"/><path d="M896.192,936.079c-0,0 -8.35,11.254 -11.275,38.517c-0,-0 -24.821,3.55 -47.709,-8.233c0,-0 12.334,-38.459 13.846,-80.209" style="fill:#f58f90;fill-rule:nonzero;"/><path d="M879.383,794.208c-32.57,7.196 -29.966,27.488 -29.966,27.488c-15.246,3.775 -18.525,10.067 -18.4,38.216c0.125,28.146 10.312,61.946 15.929,64.696c5.612,2.75 37.458,2.884 40.117,1.917c2.658,-0.963 13.799,-26.788 11.204,-31.329c-2.6,-4.542 0.129,-22.409 7.546,-23.084c7.416,-0.679 5.962,10.817 5.962,10.817l6.1,-1.337l4.704,-11.542c43.042,2.563 54.163,-46.488 54.163,-46.488c-10.342,-6.741 -64.784,-36.55 -97.359,-29.354Z" style="fill:#0c2d4e;fill-rule:nonzero;"/><path d="M517.825,1416.23l32.933,4.758l-10.908,38.459l-35.667,-8.996c0,-0 -14.512,-19.671 7.396,-34.221c1.058,-0.704 4.521,-0.392 6.246,-0Z" style="fill:#f58e8d;fill-rule:nonzero;"/><path d="M763.633,1317.45l-48.541,-146.975c-0,0 -14.713,-5.242 -22.246,0c-0,0 -50.567,27.192 -45.175,104.725c4.066,58.45 16.408,121.842 21.408,147.262l-129.504,-4.783c-0,0 -15.979,18.988 -5.642,43.709c0,-0 162.734,43.766 185.654,47.808c18.63,3.287 39.021,5.825 48.867,-2.613c17.346,-14.858 -4.821,-189.133 -4.821,-189.133Z" style="fill-rule:nonzero;"/><path d="M671.163,1416.23l32.933,4.758l-10.909,38.459l-35.666,-8.996c-0,-0 -14.513,-19.671 7.4,-34.221c1.054,-0.704 4.517,-0.392 6.242,-0Z" style="fill:#f58e8d;fill-rule:nonzero;"/><path d="M659.213,1436.39c-0.738,7.57 5.887,14.387 4.675,16.274c-1.213,1.888 -23.351,39.03 -23.351,39.03c0,-0 16.713,7.279 14.017,17.791l-42.325,0c0,0 -11.054,-9.975 -10.783,-24.262c-0,-0 2.875,-16.442 10.425,-31c7.55,-14.559 24.708,-47.425 24.708,-47.425c0,-0 5.208,-2.104 14.109,0.271c10.424,2.779 20.475,9.158 20.475,9.158c-0,-0 -10.13,1.454 -11.95,20.163Z" style="fill:#2a79be;fill-rule:nonzero;"/><path d="M998.258,1475.71c-10.45,-38.991 -108.77,-205.454 -142.033,-250.4c-68.317,-29.662 -141.133,-54.833 -141.133,-54.833c-30.113,7.192 -44.946,67.871 -27.867,108.321c11.717,27.754 86.05,97.6 131.571,138.721l-126.317,-0.15c0,-0 -14.883,22.241 -1.396,43.366c0,0 210.088,47.771 228.517,50.467c18.429,2.696 59.779,-0 59.779,-0c0,-0 27.675,-2.667 18.879,-35.492Z" style="fill:#0c2d4e;fill-rule:nonzero;"/><path d="M505.875,1436.39c-0.738,7.57 5.888,14.387 4.675,16.274c-1.212,1.888 -23.35,39.03 -23.35,39.03c0,-0 16.713,7.279 14.017,17.791l-42.325,0c-0,0 -11.055,-9.975 -10.784,-24.262c0,-0 2.875,-16.442 10.425,-31c7.546,-14.559 24.709,-47.425 24.709,-47.425c-0,-0 5.208,-2.104 14.108,0.271c10.425,2.779 20.475,9.158 20.475,9.158c-0,-0 -10.133,1.454 -11.95,20.163Z" style="fill:#2a79be;fill-rule:nonzero;"/><path d="M1156.42,962.85l-67.754,119.179l-48.525,-48.367l-40.163,59.784l11.663,5.6l-4.196,3.491c-0,0 93.642,45.605 104.863,35.546c11.22,-10.062 63.504,-161.683 63.504,-161.683l-19.392,-13.55Z" style="fill:#f58f90;fill-rule:nonzero;"/><path d="M1048.8,1041.23c-0,0 -12.792,53.959 -38.375,79.542l-65.458,-24.917c-0,0 -30.376,51.083 -60.084,90.25c-11.416,15.125 -15.208,36.417 -28.625,39.208c-0.833,-0.291 -1.625,-0.541 -2.458,-0.749c-36.375,-10.917 -90.046,0.666 -134.334,-15.792c-48.916,-18.208 -39.416,-28.459 -39.416,-28.459c-0,0 29.667,-53.458 46.5,-110.083c7.5,-25.041 12.708,-48.25 16.166,-66.375c6.205,-32.083 31.917,-57.166 64.334,-61.542c0.375,-0.041 0.708,-0.124 1.083,-0.166c37.084,-4.708 134.167,6.75 153.042,14.833c18.875,8.084 87.625,84.25 87.625,84.25Z" style="fill:#2a79be;fill-rule:nonzero;"/><path d="M944.963,1095.85c-0,0 -30.376,51.083 -60.084,90.25c-11.416,15.125 -15.208,36.417 -28.625,39.208c5.875,-2.083 15.625,-33 19.083,-39.958c3.501,-6.917 9.042,-13.875 21.042,-38.167c11.958,-24.333 28.192,-59.995 28.192,-59.995l20.392,8.662Z" style="fill:#3b8fcd;fill-rule:nonzero;"/><path d="M818.796,1417.52c-0,-0 1.029,-0.229 2.846,-0.463c1.816,-0.187 4.42,-0.566 7.554,-0.687c6.262,-0.342 14.641,-0.092 22.933,1.058c4.138,0.596 8.263,1.329 12.071,2.287c3.817,0.9 7.333,1.967 10.283,3.05c2.971,1.013 5.355,2.138 7.021,2.884c1.667,0.762 2.592,1.254 2.592,1.254c-0,0 -1.05,-0.121 -2.846,-0.429c-1.779,-0.379 -4.358,-0.725 -7.408,-1.246c-6.104,-1.021 -14.192,-2.321 -22.317,-3.408c-4.054,-0.63 -8.133,-1.067 -11.95,-1.605c-3.833,-0.479 -7.408,-0.929 -10.475,-1.312c-6.183,-0.829 -10.304,-1.383 -10.304,-1.383Z" style="fill-rule:nonzero;"/><path d="M1207.06,918.983c-1.095,-0.112 -8.037,5.463 -11.391,8.217l3.862,-7.396c0,0 5.109,-4.933 6.946,-7.641c1.842,-2.709 0.871,-5.417 -0.579,-5.563c-1.021,-0.104 -7.133,4.746 -10.671,7.629l0.779,-1.487c0,-0 5.109,-4.934 6.946,-7.642c1.838,-2.708 0.871,-5.417 -0.579,-5.563c-1.454,-0.145 -13.204,9.721 -13.204,9.721l-5.725,7.663l4.317,-8.379c-0,-0 2.27,-2.78 3.787,-5.809c1.513,-3.029 0.421,-3.958 -0.421,-4.966c-0.842,-1.009 -8.754,4.883 -10.775,7.237c-2.021,2.358 -8.416,11.913 -8.921,13.258l-6.612,13.68c-0.421,-3.963 -1.088,-10.746 -1.554,-15.067c-0.675,-6.229 -6.313,-7.704 -6.509,-4.675c-0.195,3.033 -3.337,17.929 -2.625,26.013c0.709,8.079 2.063,13.379 2.567,17.924c0.508,4.546 -4.208,13.63 -4.208,13.63c-0,-0 18.854,11.708 21.975,8.204c3.116,-3.508 9.75,-11.288 12.958,-16.529c4.404,-7.2 7.379,-16.667 7.379,-16.667l5.892,-12.587c-0,-0 5.108,-4.934 6.946,-7.642c1.837,-2.713 0.87,-5.421 -0.58,-5.563Z" style="fill:#f58f90;fill-rule:nonzero;"/><path d="M2289.35,541.363l-0,-3.734l-221.1,0c-15.2,0.004 -27.521,12.325 -27.521,27.525l0,52.229c0.004,14.025 10.483,25.6 24.05,27.309c0.921,0.116 1.604,0.891 1.604,1.82l0,28.596c-0.008,1.034 0.454,2.004 1.138,2.617c0.679,0.621 1.541,0.946 2.445,0.95c1.042,0.017 2.188,-0.508 2.884,-1.492l22.521,-31.496c0.35,-0.487 0.916,-0.779 1.516,-0.779l192.463,0c15.2,0 27.521,-12.321 27.521,-27.525l-0,-52.229c-0,-15.2 -12.321,-27.521 -27.521,-27.525l-0,3.734c6.575,-0 12.512,2.658 16.821,6.966c4.308,4.313 6.966,10.25 6.97,16.825l0,52.229c-0.004,6.58 -2.662,12.513 -6.97,16.825c-4.309,4.309 -10.246,6.967 -16.821,6.967l-192.463,-0c-1.804,-0 -3.5,0.875 -4.55,2.342l-22.525,31.491l0.154,0.109l0,-0.175l-0.149,0.066l0.149,0.109l0,-0.175l0,0.12l0.08,-0.087l-0.08,-0.033l0,0.12l0.08,-0.087l-0.121,0.133l0.191,0l-0.07,-0.133l-0.121,0.133l0.191,0l0,-28.596c0,-2.804 -2.083,-5.175 -4.87,-5.524c-11.713,-1.475 -20.792,-11.48 -20.788,-23.605l0,-52.229c0.004,-6.575 2.663,-12.512 6.971,-16.825c4.308,-4.308 10.246,-6.966 16.821,-6.966l221.1,-0Z" style="fill:#fff;fill-rule:nonzero;"/><path d="M2104.03,591.192l-3.729,-0c-0.008,3.633 -2.95,6.575 -6.583,6.583c-3.634,-0.008 -6.575,-2.95 -6.584,-6.583c0.009,-3.634 2.95,-6.575 6.584,-6.584c3.633,0.009 6.575,2.95 6.583,6.584l3.729,-0c0,-5.696 -4.617,-10.313 -10.312,-10.313c-5.696,0 -10.313,4.617 -10.313,10.313c0,5.695 4.617,10.312 10.313,10.312c5.695,0 10.312,-4.617 10.312,-10.312Z" style="fill:#fff;fill-rule:nonzero;"/><path d="M2146.57,591.192l-3.733,-0c-0.005,3.633 -2.946,6.575 -6.58,6.583c-3.637,-0.008 -6.579,-2.95 -6.583,-6.583c0.004,-3.634 2.946,-6.575 6.583,-6.584c3.634,0.009 6.575,2.95 6.58,6.584l3.733,-0c-0,-5.696 -4.617,-10.313 -10.313,-10.313c-5.7,0 -10.312,4.617 -10.316,10.313c0.004,5.695 4.616,10.312 10.316,10.312c5.696,0 10.313,-4.617 10.313,-10.312Z" style="fill:#fff;fill-rule:nonzero;"/><path d="M2189.11,591.192l-3.729,-0c-0.008,3.633 -2.95,6.575 -6.583,6.583c-3.633,-0.008 -6.575,-2.95 -6.583,-6.583c0.008,-3.634 2.95,-6.575 6.583,-6.584c3.633,0.009 6.575,2.95 6.583,6.584l3.729,-0c0,-5.696 -4.616,-10.313 -10.312,-10.313c-5.696,0 -10.313,4.617 -10.313,10.313c0,5.695 4.617,10.312 10.313,10.312c5.696,0 10.312,-4.617 10.312,-10.312Z" style="fill:#fff;fill-rule:nonzero;"/><path d="M2231.65,591.192l-3.733,-0c-0.005,3.633 -2.946,6.575 -6.584,6.583c-3.633,-0.008 -6.575,-2.95 -6.579,-6.583c0.004,-3.634 2.946,-6.575 6.579,-6.584c3.638,0.009 6.579,2.95 6.584,6.584l3.733,-0c-0.004,-5.696 -4.617,-10.313 -10.317,-10.313c-5.695,0 -10.312,4.617 -10.312,10.313c-0,5.695 4.617,10.312 10.312,10.312c5.7,0 10.313,-4.617 10.317,-10.312Z" style="fill:#fff;fill-rule:nonzero;"/><path d="M2274.19,591.192l-3.73,-0c-0.008,3.633 -2.95,6.575 -6.583,6.583c-3.633,-0.008 -6.575,-2.95 -6.583,-6.583c0.008,-3.634 2.95,-6.575 6.583,-6.584c3.633,0.009 6.575,2.95 6.583,6.584l3.73,-0c-0,-5.696 -4.617,-10.313 -10.313,-10.313c-5.696,0 -10.312,4.617 -10.312,10.313c-0,5.695 4.616,10.312 10.312,10.312c5.696,0 10.313,-4.617 10.313,-10.312Z" style="fill:#fff;fill-rule:nonzero;"/><path d="M542.258,766.617l0,3.733l221.096,0c6.575,0 12.517,2.658 16.825,6.967c4.309,4.312 6.967,10.245 6.971,16.821l0,52.233c0.004,12.121 -9.075,22.129 -20.788,23.604c-2.791,0.35 -4.874,2.721 -4.874,5.525l-0,28.592l0.195,-0l-0.125,-0.129l-0.07,0.129l0.195,-0l-0.125,-0.129l0.084,0.083l-0,-0.117l-0.084,0.034l0.084,0.083l-0,-0.117l-0,0.175l0.15,-0.108l-0.15,-0.067l-0,0.175l0.15,-0.108l-22.521,-31.492c-1.05,-1.471 -2.746,-2.341 -4.55,-2.341l-192.463,-0c-6.575,-0 -12.512,-2.659 -16.82,-6.967c-4.309,-4.313 -6.971,-10.25 -6.971,-16.825l-0,-52.233c-0,-6.576 2.662,-12.509 6.971,-16.821c4.308,-4.309 10.245,-6.967 16.82,-6.967l0,-3.733c-15.2,-0 -27.521,12.32 -27.521,27.521l0,52.233c0,15.2 12.321,27.521 27.521,27.521l192.463,-0c0.6,-0 1.166,0.291 1.516,0.783l22.521,31.492c0.692,0.987 1.842,1.508 2.884,1.491c0.904,0 1.766,-0.329 2.446,-0.95c0.683,-0.612 1.145,-1.579 1.137,-2.616l0,-28.592c0,-0.929 0.679,-1.708 1.604,-1.825c13.567,-1.708 24.046,-13.279 24.05,-27.304l0,-52.233c0,-15.201 -12.321,-27.521 -27.525,-27.521l-221.096,-0Z" style="fill:#fff;fill-rule:nonzero;"/><path d="M731.304,820.179l-3.733,0c0.004,5.696 4.621,10.313 10.316,10.313c5.696,-0 10.309,-4.617 10.309,-10.313c-0,-5.7 -4.613,-10.312 -10.309,-10.316c-5.695,0.004 -10.312,4.616 -10.316,10.316l3.733,0c0.009,-3.637 2.946,-6.579 6.583,-6.583c3.634,0.004 6.575,2.946 6.58,6.583c-0.005,3.633 -2.946,6.575 -6.58,6.579c-3.637,-0.004 -6.574,-2.946 -6.583,-6.579Z" style="fill:#fff;fill-rule:nonzero;"/><path d="M688.767,820.179l-3.734,0c0,5.696 4.617,10.313 10.313,10.313c5.7,-0 10.312,-4.617 10.317,-10.313c-0.005,-5.7 -4.617,-10.312 -10.317,-10.316c-5.696,0.004 -10.313,4.616 -10.313,10.316l3.734,0c0.004,-3.637 2.945,-6.579 6.579,-6.583c3.637,0.004 6.575,2.946 6.583,6.583c-0.008,3.633 -2.946,6.575 -6.583,6.579c-3.634,-0.004 -6.575,-2.946 -6.579,-6.579Z" style="fill:#fff;fill-rule:nonzero;"/><path d="M646.225,820.179l-3.729,0c-0,5.696 4.616,10.313 10.312,10.313c5.696,-0 10.313,-4.617 10.313,-10.313c-0,-5.7 -4.617,-10.312 -10.313,-10.316c-5.696,0.004 -10.312,4.616 -10.312,10.316l3.729,0c0.008,-3.637 2.95,-6.579 6.583,-6.583c3.634,0.004 6.575,2.946 6.584,6.583c-0.009,3.633 -2.95,6.575 -6.584,6.579c-3.633,-0.004 -6.575,-2.946 -6.583,-6.579Z" style="fill:#fff;fill-rule:nonzero;"/><path d="M603.688,820.179l-3.734,0c0.004,5.696 4.617,10.313 10.317,10.313c5.696,-0 10.312,-4.617 10.312,-10.313c0,-5.7 -4.616,-10.312 -10.312,-10.316c-5.7,0.004 -10.313,4.616 -10.317,10.316l3.734,0c0.004,-3.637 2.945,-6.579 6.583,-6.583c3.633,0.004 6.575,2.946 6.579,6.583c-0.004,3.633 -2.946,6.575 -6.579,6.579c-3.638,-0.004 -6.579,-2.946 -6.583,-6.579Z" style="fill:#fff;fill-rule:nonzero;"/><path d="M561.146,820.179l-3.729,0c-0,5.696 4.616,10.313 10.312,10.313c5.696,-0 10.313,-4.617 10.313,-10.313c-0,-5.7 -4.617,-10.312 -10.313,-10.316c-5.696,0.004 -10.312,4.616 -10.312,10.316l3.729,0c0.008,-3.637 2.95,-6.579 6.583,-6.583c3.634,0.004 6.575,2.946 6.583,6.583c-0.008,3.633 -2.949,6.575 -6.583,6.579c-3.633,-0.004 -6.575,-2.946 -6.583,-6.579Z" style="fill:#fff;fill-rule:nonzero;"/><path d="M1523.17,160.011l0,346.958c0,18.833 -15.25,34.083 -34.083,34.083l-492.458,0c-18.792,0 -34.084,-15.25 -34.084,-34.083l0,-346.958c0,-18.834 15.292,-34.084 34.084,-34.084l492.458,0c18.833,0 34.083,15.25 34.083,34.084Z" style="fill:#a0b9e0;fill-rule:nonzero;"/><g><rect x="964.718" y="213.758" width="555.828" height="316.928" style="fill:#ade7ff;"/><rect x="1487" y="213.758" width="33.551" height="316.928" style="fill:#82d2f5;"/><rect x="964.718" y="131.97" width="555.828" height="81.788" style="fill:#685c79;"/><rect x="1487" y="131.97" width="33.551" height="81.788" style="fill:#594f69;"/><ellipse cx="1021.2" cy="172.864" rx="16.775" ry="15.335" style="fill:#ffd659;"/><ellipse cx="1079.35" cy="172.864" rx="16.775" ry="15.335" style="fill:#4fb1f5;"/><ellipse cx="1137.51" cy="172.864" rx="16.775" ry="15.335" style="fill:#ff2c5c;"/><path d="M1225.68,431.968c-21.495,30.486 -58.972,50.667 -101.593,50.667c-66.71,0 -120.783,-49.43 -120.783,-110.413c-0,-60.973 54.073,-110.414 120.783,-110.414l0,110.414l101.593,59.746Z" style="fill:#ffd659;fill-rule:nonzero;"/><path d="M1244.87,372.222l-120.784,-0l0,-110.414c66.7,-0 120.784,49.441 120.784,110.414Z" style="fill:#ff2c5c;fill-rule:nonzero;"/><path d="M1244.87,372.222c-0,22.011 -7.046,42.519 -19.191,59.746l-101.593,-59.746l120.784,-0Z" style="fill:#4fb1f5;fill-rule:nonzero;"/><path d="M1339.37,472.412l-35.788,-0c-2.47,-0 -4.473,-1.831 -4.473,-4.09l-0,-181.978c-0,-2.258 2.003,-4.089 4.473,-4.089l35.788,-0c2.47,-0 4.473,1.831 4.473,4.089l0,181.978c0,2.259 -2.003,4.09 -4.473,4.09Z" style="fill:#ffd659;fill-rule:nonzero;"/><path d="M1410.95,472.412l-35.788,-0c-2.47,-0 -4.473,-1.831 -4.473,-4.09l-0,-126.002c-0,-2.259 2.003,-4.09 4.473,-4.09l35.788,0c2.471,0 4.474,1.831 4.474,4.09l-0,126.002c-0,2.259 -2.003,4.09 -4.474,4.09Z" style="fill:#4fb1f5;fill-rule:nonzero;"/><path d="M1482.52,472.412l-35.787,-0c-2.471,-0 -4.474,-1.831 -4.474,-4.09l0,-151.661c0,-2.258 2.003,-4.089 4.474,-4.089l35.787,-0c2.471,-0 4.474,1.831 4.474,4.089l-0,151.661c-0,2.259 -2.003,4.09 -4.474,4.09Z" style="fill:#ff2c5c;fill-rule:nonzero;"/><g><path d="M1021.2,149.861c-13.876,-0 -25.164,10.319 -25.164,23.003c0,12.683 11.288,23.002 25.164,23.002c13.875,0 25.163,-10.319 25.163,-23.002c-0,-12.684 -11.288,-23.003 -25.163,-23.003Zm-0,30.67c-4.626,0 -8.388,-3.439 -8.388,-7.667c-0,-4.229 3.762,-7.668 8.388,-7.668c4.625,-0 8.387,3.439 8.387,7.668c0,4.228 -3.762,7.667 -8.387,7.667Z" style="fill-rule:nonzero;"/><path d="M1079.35,195.866c13.875,0 25.163,-10.319 25.163,-23.002c-0,-12.684 -11.288,-23.003 -25.163,-23.003c-13.876,-0 -25.164,10.319 -25.164,23.003c0,12.683 11.288,23.002 25.164,23.002Zm-0,-30.67c4.625,-0 8.387,3.439 8.387,7.668c0,4.228 -3.762,7.667 -8.387,7.667c-4.626,0 -8.388,-3.439 -8.388,-7.667c-0,-4.229 3.762,-7.668 8.388,-7.668Z" style="fill-rule:nonzero;"/><path d="M1162.67,172.864c-0,-12.684 -11.288,-23.003 -25.163,-23.003c-13.876,-0 -25.164,10.319 -25.164,23.003c0,12.683 11.288,23.002 25.164,23.002c13.875,0 25.163,-10.319 25.163,-23.002Zm-33.551,-0c-0,-4.229 3.762,-7.668 8.388,-7.668c4.625,-0 8.387,3.439 8.387,7.668c0,4.228 -3.762,7.667 -8.387,7.667c-4.626,0 -8.388,-3.439 -8.388,-7.667Z" style="fill-rule:nonzero;"/><path d="M994.914,372.222c0,65.11 57.946,118.081 129.171,118.081c44.109,-0 84.722,-20.256 108.643,-54.182c13.429,-19.048 20.529,-41.143 20.529,-63.899c-0,-65.111 -57.946,-118.082 -129.172,-118.082c-71.225,0 -129.171,52.971 -129.171,118.082Zm227.99,48.997l-70.277,-41.33l83.545,0c-1.177,14.523 -5.69,28.581 -13.268,41.33Zm13.267,-56.665l-103.698,-0l0,-94.795c55.302,3.748 99.598,44.241 103.698,94.795Zm-120.473,-94.795l-0,102.463c-0,0.065 0.009,0.128 0.011,0.194c0.002,0.084 0.009,0.166 0.013,0.25c0.01,0.152 0.019,0.303 0.038,0.452c0.01,0.08 0.027,0.158 0.039,0.235c0.02,0.123 0.035,0.248 0.062,0.367c0.001,0.005 0.001,0.01 0.002,0.016c0.02,0.093 0.049,0.182 0.074,0.274c0.021,0.08 0.044,0.159 0.067,0.239c0.057,0.189 0.121,0.375 0.193,0.557c0.021,0.05 0.037,0.1 0.059,0.149c0.018,0.043 0.034,0.086 0.053,0.129c0.133,0.303 0.287,0.596 0.459,0.877c0.022,0.036 0.048,0.071 0.07,0.107c0.121,0.19 0.249,0.375 0.386,0.555c0.053,0.067 0.109,0.132 0.162,0.198c0.028,0.034 0.054,0.068 0.082,0.1c0.032,0.038 0.061,0.078 0.095,0.116c0.083,0.093 0.171,0.181 0.258,0.271c0.067,0.069 0.135,0.138 0.204,0.205c0.111,0.106 0.226,0.208 0.343,0.308c0.058,0.05 0.118,0.099 0.178,0.148c0.017,0.013 0.032,0.028 0.048,0.041c0.042,0.033 0.08,0.069 0.121,0.1c0.247,0.189 0.508,0.362 0.778,0.525c0.018,0.011 0.034,0.024 0.052,0.034l94.272,55.441c-21.205,25.718 -54.163,40.857 -89.732,40.857c-61.975,0 -112.395,-46.091 -112.395,-102.745c-0,-54.076 45.935,-98.527 104.008,-102.463Z" style="fill-rule:nonzero;"/><path d="M1339.37,480.079c7.091,0 12.861,-5.274 12.861,-11.757l-0,-181.978c-0,-6.482 -5.77,-11.757 -12.861,-11.757l-35.788,0c-7.092,0 -12.861,5.275 -12.861,11.757l-0,181.978c-0,6.483 5.769,11.757 12.861,11.757l35.788,0Zm-31.874,-190.157l27.959,0l0,174.822l-27.959,0l0,-174.822Z" style="fill-rule:nonzero;"/><path d="M1410.95,480.079c7.092,0 12.861,-5.274 12.861,-11.757l0,-126.002c0,-6.483 -5.769,-11.757 -12.861,-11.757l-35.788,-0c-7.091,-0 -12.861,5.274 -12.861,11.757l0,126.002c0,6.483 5.77,11.757 12.861,11.757l35.788,0Zm-31.873,-134.181l27.959,0l-0,118.846l-27.959,0l-0,-118.846Z" style="fill-rule:nonzero;"/><path d="M1482.52,480.079c7.092,0 12.862,-5.274 12.862,-11.757l-0,-151.661c-0,-6.483 -5.77,-11.757 -12.862,-11.757l-35.787,-0c-7.092,-0 -12.861,5.274 -12.861,11.757l-0,151.661c-0,6.483 5.769,11.757 12.861,11.757l35.787,0Zm-31.873,-159.84l27.959,0l0,144.505l-27.959,0l0,-144.505Z" style="fill-rule:nonzero;"/><path d="M1520.55,266.92c-4.633,-0 -8.388,3.432 -8.388,7.667l0,248.431l-539.052,-0l-0,-19.425c-0,-4.235 -3.756,-7.667 -8.388,-7.667c-4.632,-0 -8.388,3.432 -8.388,7.667l0,27.092c0,4.236 3.756,7.668 8.388,7.668l555.828,0c4.633,0 8.388,-3.432 8.388,-7.668l-0,-256.098c-0,-4.235 -3.755,-7.667 -8.388,-7.667Z" style="fill-rule:nonzero;"/><path d="M1520.55,124.302l-555.828,0c-4.632,0 -8.388,3.432 -8.388,7.668l0,338.908c0,4.236 3.756,7.668 8.388,7.668c4.632,-0 8.388,-3.432 8.388,-7.668l-0,-249.453l54.241,0c4.632,0 8.387,-3.432 8.387,-7.667c0,-4.236 -3.755,-7.668 -8.387,-7.668l-54.241,-0l-0,-66.453l539.052,0l0,66.453l-447.905,-0c-4.633,-0 -8.388,3.432 -8.388,7.668c0,4.235 3.755,7.667 8.388,7.667l447.905,0l0,20.447c0,4.236 3.755,7.668 8.388,7.668c4.633,-0 8.388,-3.432 8.388,-7.668l-0,-109.902c-0,-4.236 -3.755,-7.668 -8.388,-7.668Z" style="fill-rule:nonzero;"/></g></g><path id="HERE" d="M1877.54,418.996l-402.983,-0c-22.225,-0 -40.241,-18.017 -40.241,-40.242c-0,-22.225 18.016,-40.241 40.241,-40.241l402.983,-0c22.226,-0 40.242,18.016 40.242,40.241c0,22.225 -18.016,40.242 -40.242,40.242Z" style="fill:#fff;fill-rule:nonzero;"/><path d="M1877.54,420.862l0,-3.729l-402.983,0c-10.604,-0.004 -20.187,-4.296 -27.137,-11.241c-6.946,-6.95 -11.238,-16.534 -11.238,-27.138c0,-10.604 4.292,-20.183 11.238,-27.133c6.95,-6.95 16.533,-11.242 27.137,-11.242l402.983,0c10.605,0 20.188,4.292 27.138,11.242c6.946,6.95 11.237,16.529 11.237,27.133c0,10.604 -4.291,20.188 -11.237,27.138c-6.95,6.945 -16.533,11.237 -27.138,11.241l0,3.729c23.259,0 42.109,-18.849 42.109,-42.108c-0,-23.254 -18.85,-42.104 -42.109,-42.108l-402.983,-0c-23.258,0.004 -42.108,18.854 -42.108,42.108c-0,23.259 18.85,42.108 42.108,42.108l402.983,0Z" style="fill:#3c61ad;fill-rule:nonzero;"/><path d="M1875.11,375.979l-6.963,0c-0.004,4.963 -2,9.417 -5.254,12.671c-3.246,3.25 -7.704,5.246 -12.663,5.25c-4.958,-0.004 -9.42,-2 -12.675,-5.25c-3.245,-3.254 -5.241,-7.708 -5.241,-12.671c-0,-4.958 1.996,-9.412 5.241,-12.666c3.255,-3.25 7.717,-5.246 12.675,-5.251c4.959,0.005 9.417,2.001 12.663,5.251c3.254,3.254 5.25,7.708 5.254,12.666l6.963,0c-0,-13.741 -11.138,-24.879 -24.88,-24.879c-13.75,0 -24.883,11.138 -24.883,24.879c0,13.746 11.133,24.884 24.883,24.884c13.742,-0 24.88,-11.138 24.88,-24.884Z" style="fill:#3c61ad;fill-rule:nonzero;"/><path d="M1862.9,393.575l11.821,11.817c1.362,1.358 3.566,1.358 4.925,-0c1.362,-1.359 1.362,-3.567 -0,-4.925l-11.817,-11.817c-1.358,-1.358 -3.563,-1.358 -4.929,0c-1.358,1.362 -1.358,3.567 -0,4.925Z" style="fill:#3c61ad;fill-rule:nonzero;"/><path d="M1267.09,1513.48l-101.384,-0c-17.733,-0 -32.112,-14.379 -32.112,-32.117l-0,-101.379c-0,-17.737 14.379,-32.117 32.112,-32.117l101.384,0c17.737,0 32.116,14.38 32.116,32.117l0,101.379c0,17.738 -14.379,32.117 -32.116,32.117Z" style="fill:#1e448c;fill-rule:nonzero;"/><path d="M1236.91,1513.48l-101.379,-0c-17.737,-0 -32.117,-14.379 -32.117,-32.117l0,-101.379c0,-17.737 14.38,-32.117 32.117,-32.117l101.379,0c17.738,0 32.117,14.38 32.117,32.117l0,101.379c0,17.738 -14.379,32.117 -32.117,32.117Z" style="fill:#3c61ad;fill-rule:nonzero;"/><path d="M1166.66,1399.41l47.542,27.446c2.933,1.696 2.933,5.929 0,7.625l-47.542,27.446c-2.933,1.696 -6.6,-0.421 -6.6,-3.813l0,-54.891c0,-3.388 3.667,-5.509 6.6,-3.813Z" style="fill:#fff;fill-rule:nonzero;"/><path d="M2315.78,1513.48l-132.529,-0c-23.188,-0 -41.984,-18.8 -41.984,-41.983l0,-132.53c0,-23.187 18.796,-41.983 41.984,-41.983l132.529,0c23.187,0 41.983,18.796 41.983,41.983l0,132.53c0,23.183 -18.796,41.983 -41.983,41.983Z" style="fill:#1e448c;fill-rule:nonzero;"/><path d="M2276.32,1513.48l-132.529,-0c-23.188,-0 -41.984,-18.8 -41.984,-41.983l0,-132.53c0,-23.187 18.796,-41.983 41.984,-41.983l132.529,0c23.187,0 41.983,18.796 41.983,41.983l0,132.53c0,23.183 -18.796,41.983 -41.983,41.983Z" style="fill:#3c61ad;fill-rule:nonzero;"/><path d="M2236.07,1350.1c-0,14.367 -11.646,26.012 -26.013,26.012c-14.362,0 -26.008,-11.645 -26.008,-26.012c-0,-14.367 11.646,-26.013 26.008,-26.013c14.367,0 26.013,11.646 26.013,26.013Z" style="fill:#fff;fill-rule:nonzero;"/><path d="M2264.28,1438.16l0,38.4c0,3.471 -2.812,6.284 -6.279,6.284l-95.887,-0c-3.471,-0 -6.284,-2.813 -6.284,-6.284l0,-38.4c0,-29.945 24.279,-54.22 54.225,-54.22c29.95,-0 54.225,24.275 54.225,54.22Z" style="fill:#fff;fill-rule:nonzero;"/><path d="M1725.9,465.354l-85.121,0c-3.529,0 -6.396,-2.862 -6.396,-6.396c0,-3.529 2.867,-6.396 6.396,-6.396l85.121,0c3.533,0 6.396,2.867 6.396,6.396c-0,3.534 -2.863,6.396 -6.396,6.396Z" style="fill:#e8eff9;fill-rule:nonzero;"/><path d="M1811.05,465.354l-61.6,0c-3.529,0 -6.396,-2.862 -6.396,-6.396c0,-3.529 2.867,-6.396 6.396,-6.396l61.6,0c3.533,0 6.4,2.867 6.4,6.396c0,3.534 -2.867,6.396 -6.4,6.396Z" style="fill:#e8eff9;fill-rule:nonzero;"/><path d="M1676.95,493.479l-36.167,0c-3.529,0 -6.396,-2.862 -6.396,-6.396c0,-3.529 2.867,-6.396 6.396,-6.396l36.167,0c3.529,0 6.396,2.867 6.396,6.396c-0,3.534 -2.867,6.396 -6.396,6.396Z" style="fill:#e8eff9;fill-rule:nonzero;"/><path d="M1811.05,493.479l-112.641,0c-3.53,0 -6.396,-2.862 -6.396,-6.396c-0,-3.529 2.866,-6.396 6.396,-6.396l112.641,0c3.533,0 6.4,2.867 6.4,6.396c0,3.534 -2.867,6.396 -6.4,6.396Z" style="fill:#e8eff9;fill-rule:nonzero;"/><path d="M1752.98,521.604l-112.204,0c-3.529,0 -6.396,-2.862 -6.396,-6.396c0,-3.529 2.867,-6.396 6.396,-6.396l112.204,0c3.534,0 6.396,2.867 6.396,6.396c0,3.534 -2.862,6.396 -6.396,6.396Z" style="fill:#e8eff9;fill-rule:nonzero;"/><path d="M1811.05,521.604l-36.162,0c-3.534,0 -6.396,-2.862 -6.396,-6.396c-0,-3.529 2.862,-6.396 6.396,-6.396l36.162,0c3.533,0 6.4,2.867 6.4,6.396c0,3.534 -2.867,6.396 -6.4,6.396Z" style="fill:#e8eff9;fill-rule:nonzero;"/><path d="M648.042,1118.66l-297.146,0c-8.796,0 -15.929,-7.133 -15.929,-15.929l-0,-150c-0,-8.8 7.133,-15.929 15.929,-15.929l297.146,0c8.8,0 15.933,7.129 15.933,15.929l-0,150c-0,8.796 -7.133,15.929 -15.933,15.929Z" style="fill:#1e448c;fill-rule:nonzero;"/><path d="M348.95,963.233l301.042,0c1.029,0 1.866,-0.833 1.866,-1.866c0,-1.029 -0.837,-1.867 -1.866,-1.867l-301.042,-0c-1.033,-0 -1.867,0.838 -1.867,1.867c0,1.033 0.834,1.866 1.867,1.866Z" style="fill:#fff;fill-rule:nonzero;"/><path d="M645.692,948.867c-0,2.012 -1.634,3.645 -3.646,3.645c-2.017,0 -3.646,-1.633 -3.646,-3.645c-0,-2.013 1.629,-3.646 3.646,-3.646c2.012,-0 3.646,1.633 3.646,3.646Z" style="fill:#fff;fill-rule:nonzero;"/><path d="M626.679,948.867c0,2.012 -1.633,3.645 -3.646,3.645c-2.012,0 -3.646,-1.633 -3.646,-3.645c0,-2.013 1.634,-3.646 3.646,-3.646c2.013,-0 3.646,1.633 3.646,3.646Z" style="fill:#fff;fill-rule:nonzero;"/><path d="M607.671,948.867c-0,2.012 -1.634,3.645 -3.646,3.645c-2.017,0 -3.646,-1.633 -3.646,-3.645c0,-2.013 1.629,-3.646 3.646,-3.646c2.012,-0 3.646,1.633 3.646,3.646Z" style="fill:#fff;fill-rule:nonzero;"/><path d="M405.067,985.846l-51.084,-0c-2.779,-0 -5.033,-2.254 -5.033,-5.033c-0,-2.78 2.254,-5.034 5.033,-5.034l51.084,0c2.779,0 5.033,2.254 5.033,5.034c0,2.779 -2.254,5.033 -5.033,5.033Z" style="fill:#4e88c7;fill-rule:nonzero;"/><path d="M405.067,1009.11l-51.084,0c-2.779,0 -5.033,-2.254 -5.033,-5.037c-0,-2.779 2.254,-5.033 5.033,-5.033l51.084,-0c2.779,-0 5.033,2.254 5.033,5.033c0,2.783 -2.254,5.037 -5.033,5.037Z" style="fill:#4e88c7;fill-rule:nonzero;"/><path d="M405.067,1032.38l-51.084,0c-2.779,0 -5.033,-2.254 -5.033,-5.033c-0,-2.784 2.254,-5.038 5.033,-5.038l51.084,0c2.779,0 5.033,2.254 5.033,5.038c0,2.779 -2.254,5.033 -5.033,5.033Z" style="fill:#4e88c7;fill-rule:nonzero;"/><path d="M405.067,1055.64l-51.084,0c-2.779,0 -5.033,-2.254 -5.033,-5.033c-0,-2.779 2.254,-5.033 5.033,-5.033l51.084,-0c2.779,-0 5.033,2.254 5.033,5.033c0,2.779 -2.254,5.033 -5.033,5.033Z" style="fill:#4e88c7;fill-rule:nonzero;"/><path d="M405.067,1078.9l-51.084,0c-2.779,0 -5.033,-2.254 -5.033,-5.037c-0,-2.779 2.254,-5.034 5.033,-5.034l51.084,0c2.779,0 5.033,2.255 5.033,5.034c0,2.783 -2.254,5.037 -5.033,5.037Z" style="fill:#4e88c7;fill-rule:nonzero;"/><path d="M405.067,1102.17l-51.084,-0c-2.779,-0 -5.033,-2.254 -5.033,-5.034c-0,-2.783 2.254,-5.037 5.033,-5.037l51.084,-0c2.779,-0 5.033,2.254 5.033,5.037c0,2.78 -2.254,5.034 -5.033,5.034Z" style="fill:#4e88c7;fill-rule:nonzero;"/><path d="M644.954,985.846l-220.137,-0c-2.78,-0 -5.034,-2.254 -5.034,-5.033c0,-2.78 2.254,-5.034 5.034,-5.034l220.137,0c2.783,0 5.038,2.254 5.038,5.034c-0,2.779 -2.255,5.033 -5.038,5.033Z" style="fill:#2266b1;fill-rule:nonzero;"/><path d="M644.954,1009.11l-220.137,0c-2.78,0 -5.034,-2.254 -5.034,-5.037c0,-2.779 2.254,-5.033 5.034,-5.033l220.137,-0c2.783,-0 5.038,2.254 5.038,5.033c-0,2.783 -2.255,5.037 -5.038,5.037Z" style="fill:#2266b1;fill-rule:nonzero;"/><path d="M644.954,1032.38l-220.137,0c-2.78,0 -5.034,-2.254 -5.034,-5.033c0,-2.784 2.254,-5.038 5.034,-5.038l220.137,0c2.783,0 5.038,2.254 5.038,5.038c-0,2.779 -2.255,5.033 -5.038,5.033Z" style="fill:#2266b1;fill-rule:nonzero;"/><path d="M644.954,1055.64l-220.137,0c-2.78,0 -5.034,-2.254 -5.034,-5.033c0,-2.779 2.254,-5.033 5.034,-5.033l220.137,-0c2.783,-0 5.038,2.254 5.038,5.033c-0,2.779 -2.255,5.033 -5.038,5.033Z" style="fill:#2266b1;fill-rule:nonzero;"/><path d="M644.954,1078.9l-220.137,0c-2.78,0 -5.034,-2.254 -5.034,-5.037c0,-2.779 2.254,-5.034 5.034,-5.034l220.137,0c2.783,0 5.038,2.255 5.038,5.034c-0,2.783 -2.255,5.037 -5.038,5.037Z" style="fill:#2266b1;fill-rule:nonzero;"/><path d="M644.954,1102.17l-220.137,-0c-2.78,-0 -5.034,-2.254 -5.034,-5.034c0,-2.783 2.254,-5.037 5.034,-5.037l220.137,-0c2.783,-0 5.038,2.254 5.038,5.037c-0,2.78 -2.255,5.034 -5.038,5.034Z" style="fill:#2266b1;fill-rule:nonzero;"/><path d="M2195.9,137.083l-3.287,0c-0.005,36.95 -14.975,70.388 -39.188,94.605c-24.217,24.216 -57.658,39.187 -94.608,39.187c-36.95,0 -70.388,-14.971 -94.609,-39.187c-24.212,-24.217 -39.183,-57.655 -39.183,-94.605c0,-36.954 14.971,-70.387 39.183,-94.608c24.221,-24.213 57.659,-39.183 94.609,-39.187c36.95,0.004 70.391,14.974 94.608,39.187c24.213,24.221 39.183,57.654 39.188,94.608l3.287,0c0,-75.708 -61.371,-137.083 -137.083,-137.083c-75.709,0 -137.084,61.375 -137.084,137.083c0,75.709 61.375,137.08 137.084,137.084c75.712,-0.004 137.083,-61.375 137.083,-137.084Z" style="fill:#d3dbef;fill-rule:nonzero;"/><path d="M2176.57,137.083c-0,65.029 -52.717,117.746 -117.75,117.746c-65.03,0 -117.75,-52.717 -117.75,-117.746c-0,-65.029 52.72,-117.75 117.75,-117.75c65.033,0 117.75,52.721 117.75,117.75Z" style="fill:#3156a6;fill-rule:nonzero;"/><path d="M2069.54,137.083c0,5.917 -4.799,10.717 -10.72,10.717c-5.917,-0 -10.717,-4.8 -10.717,-10.717c0,-5.92 4.8,-10.721 10.717,-10.721c5.921,0 10.72,4.801 10.72,10.721Z" style="fill:#fff;fill-rule:nonzero;"/><path d="M2057.65,134.975c-1.621,0.9 -3.658,0.312 -4.558,-1.304l-34.63,-62.463c-0.9,-1.621 -0.312,-3.658 1.305,-4.558c1.621,-0.896 3.662,-0.313 4.558,1.308l34.629,62.459c0.9,1.62 0.317,3.662 -1.304,4.558Z" style="fill:#fff;fill-rule:nonzero;"/><path d="M2060.52,138.783c1.308,-1.308 3.429,-1.308 4.741,0l29.959,29.963c1.308,1.308 1.308,3.429 -0,4.737c-1.308,1.313 -3.433,1.313 -4.742,0l-29.958,-29.958c-1.308,-1.308 -1.308,-3.429 -0,-4.742Z" style="fill:#fff;fill-rule:nonzero;"/><path d="M2063.7,42.833l0,-13.541c0,-2.3 -1.866,-4.167 -4.166,-4.167c-2.3,-0 -4.167,1.867 -4.167,4.167l-0,13.541c-0,2.305 1.867,4.167 4.167,4.167c2.3,-0 4.166,-1.862 4.166,-4.167Z" style="fill:#fff;fill-rule:nonzero;"/><path d="M2153.07,141.971l13.541,-0c2.3,-0 4.167,-1.867 4.167,-4.167c-0,-2.304 -1.867,-4.167 -4.167,-4.167l-13.541,0c-2.304,0 -4.167,1.863 -4.167,4.167c-0,2.3 1.863,4.167 4.167,4.167Z" style="fill:#fff;fill-rule:nonzero;"/><path d="M2053.93,231.329l0,13.542c0,2.304 1.867,4.167 4.167,4.167c2.3,-0 4.167,-1.863 4.167,-4.167l-0,-13.542c-0,-2.3 -1.867,-4.166 -4.167,-4.166c-2.3,-0 -4.167,1.866 -4.167,4.166Z" style="fill:#fff;fill-rule:nonzero;"/><path d="M1964.57,132.196l-13.542,-0c-2.304,-0 -4.167,1.862 -4.167,4.166c0,2.3 1.863,4.167 4.167,4.167l13.542,0c2.3,0 4.166,-1.867 4.166,-4.167c0,-2.304 -1.866,-4.166 -4.166,-4.166Z" style="fill:#fff;fill-rule:nonzero;"/><path d="M2012.32,57.183c-0.721,0 -1.421,-0.37 -1.809,-1.041l-6.77,-11.725c-0.575,-0.996 -0.234,-2.271 0.762,-2.846c0.329,-0.192 0.688,-0.279 1.042,-0.279c0.721,-0 1.421,0.37 1.804,1.041l6.771,11.725c0.575,1 0.233,2.271 -0.763,2.846c-0.329,0.192 -0.687,0.279 -1.037,0.279Z" style="fill:#808fc7;fill-rule:nonzero;"/><path d="M2140.8,92.667c-0.721,-0 -1.421,-0.371 -1.804,-1.042c-0.575,-0.996 -0.233,-2.271 0.762,-2.846l11.725,-6.771c0.33,-0.187 0.688,-0.279 1.042,-0.279c0.721,0 1.421,0.375 1.804,1.042c0.575,0.996 0.238,2.271 -0.758,2.846l-11.729,6.771c-0.33,0.191 -0.688,0.279 -1.042,0.279Z" style="fill:#808fc7;fill-rule:nonzero;"/><path d="M2112.09,232.875c-0.721,-0 -1.421,-0.375 -1.809,-1.042l-6.771,-11.729c-0.575,-0.996 -0.233,-2.271 0.763,-2.846c0.329,-0.187 0.688,-0.279 1.042,-0.279c0.716,0 1.416,0.375 1.804,1.042l6.771,11.729c0.575,0.996 0.233,2.271 -0.763,2.846c-0.329,0.187 -0.687,0.279 -1.037,0.279Z" style="fill:#808fc7;fill-rule:nonzero;"/><path d="M1965.11,192.437c-0.716,0 -1.421,-0.374 -1.804,-1.041c-0.575,-1 -0.233,-2.271 0.763,-2.846l11.725,-6.771c0.329,-0.192 0.687,-0.279 1.041,-0.279c0.721,-0 1.421,0.371 1.805,1.042c0.575,0.996 0.237,2.266 -0.763,2.846l-11.725,6.77c-0.329,0.188 -0.687,0.279 -1.042,0.279Z" style="fill:#808fc7;fill-rule:nonzero;"/><path d="M1977.55,91.417c-0.354,-0 -0.712,-0.088 -1.042,-0.28l-11.725,-6.77c-0.995,-0.575 -1.337,-1.85 -0.762,-2.846c0.388,-0.667 1.087,-1.042 1.804,-1.042c0.354,0 0.713,0.092 1.042,0.279l11.725,6.771c1,0.575 1.342,1.85 0.762,2.846c-0.383,0.671 -1.083,1.042 -1.804,1.042Z" style="fill:#808fc7;fill-rule:nonzero;"/><path d="M2106.56,57.908c-0.35,0 -0.708,-0.091 -1.037,-0.279c-0.996,-0.579 -1.337,-1.85 -0.762,-2.85l6.77,-11.725c0.384,-0.671 1.084,-1.041 1.805,-1.041c0.354,-0 0.712,0.087 1.041,0.279c0.996,0.575 1.338,1.85 0.763,2.846l-6.771,11.725c-0.388,0.67 -1.088,1.045 -1.809,1.045Z" style="fill:#808fc7;fill-rule:nonzero;"/><path d="M2151.8,193.683c-0.354,0 -0.712,-0.087 -1.041,-0.279l-11.726,-6.771c-0.995,-0.575 -1.337,-1.85 -0.762,-2.845c0.383,-0.667 1.083,-1.042 1.804,-1.042c0.354,-0 0.713,0.092 1.042,0.279l11.725,6.771c1,0.575 1.337,1.85 0.762,2.846c-0.383,0.67 -1.083,1.041 -1.804,1.041Z" style="fill:#808fc7;fill-rule:nonzero;"/><path d="M2004.3,232.154c-0.354,0 -0.713,-0.091 -1.042,-0.279c-0.996,-0.575 -1.337,-1.85 -0.762,-2.846l6.77,-11.729c0.388,-0.667 1.088,-1.042 1.809,-1.042c0.354,0 0.712,0.092 1.037,0.279c1,0.575 1.342,1.85 0.763,2.846l-6.771,11.73c-0.383,0.666 -1.083,1.041 -1.804,1.041Z" style="fill:#808fc7;fill-rule:nonzero;"/><path d="M449.621,818.679l-148.729,0c-22.021,0 -39.871,-17.85 -39.871,-39.871l-0,-148.729c-0,-22.021 17.85,-39.875 39.871,-39.875l148.729,0c22.021,0 39.871,17.854 39.871,39.875l-0,148.729c-0,22.021 -17.85,39.871 -39.871,39.871Z" style="fill:#1e448c;fill-rule:nonzero;"/><path d="M439.842,798.888l-164.584,-0c-17.645,-0 -31.946,-14.305 -31.946,-31.942l0,-164.588c0,-17.641 14.301,-31.946 31.946,-31.946l164.584,0c17.641,0 31.941,14.305 31.941,31.946l0,164.588c0,17.637 -14.3,31.942 -31.941,31.942Z" style="fill:#6d81bf;fill-rule:nonzero;"/><path d="M439.842,800.971l-0,-4.167l-164.584,0c-8.254,0 -15.708,-3.342 -21.116,-8.746c-5.409,-5.412 -8.746,-12.862 -8.746,-21.112l-0,-164.588c-0,-8.25 3.337,-15.704 8.746,-21.112c5.408,-5.409 12.862,-8.746 21.116,-8.75l164.584,-0c8.25,0.004 15.704,3.341 21.112,8.75c5.408,5.408 8.746,12.862 8.746,21.112l0,164.588c0,8.25 -3.338,15.7 -8.746,21.112c-5.408,5.404 -12.862,8.746 -21.112,8.746l-0,4.167c18.791,-0.004 34.025,-15.234 34.025,-34.025l-0,-164.588c-0,-18.791 -15.234,-34.025 -34.025,-34.029l-164.584,0c-18.795,0.004 -34.029,15.238 -34.029,34.029l0,164.588c0,18.791 15.234,34.021 34.029,34.025l164.584,-0Z" style="fill:#d3dbef;fill-rule:nonzero;"/><path d="M327.875,645.404c-0,-16.037 13.054,-29.091 29.087,-29.091c16.038,-0 29.088,13.054 29.088,29.091l0,13.088l-58.175,-0l-0,-13.088Zm69.233,13.088l-1.191,-0l-0,-13.088c-0,-21.483 -17.471,-38.958 -38.955,-38.958c-21.483,-0 -38.954,17.475 -38.954,38.958l0,13.088l-0.262,-0c-6.038,-0 -10.929,4.891 -10.929,10.929l-0,49.321c-0,6.037 4.891,10.933 10.929,10.933l79.362,-0c6.038,-0 10.934,-4.896 10.934,-10.933l-0,-49.321c-0,-6.038 -4.896,-10.929 -10.934,-10.929Z" style="fill:#d3dbef;fill-rule:nonzero;"/><path d="M370.258,683.842c0,-7.875 -7.162,-14.075 -15.325,-12.45c-4.812,0.958 -8.804,4.908 -9.808,9.712c-1.208,5.788 1.529,11.071 6.013,13.696c0.912,0.533 1.429,1.533 1.154,2.55l-2.213,8.167c-1.312,4.854 2.342,9.629 7.371,9.629c5.025,-0 8.683,-4.775 7.367,-9.629l-2.188,-8.08c-0.279,-1.029 0.254,-2.041 1.183,-2.57c3.846,-2.18 6.446,-6.292 6.446,-11.025Z" style="fill:#6d81bf;fill-rule:nonzero;"/><path d="M403.354,746.975l-91.85,0c-2.592,0 -4.687,-2.1 -4.687,-4.692c-0,-2.587 2.095,-4.687 4.687,-4.687l91.85,-0c2.588,-0 4.688,2.1 4.688,4.687c-0,2.592 -2.1,4.692 -4.688,4.692Z" style="fill:#d3dbef;fill-rule:nonzero;"/><path d="M403.354,762.858l-91.85,0c-2.592,0 -4.687,-2.1 -4.687,-4.687c-0,-2.592 2.095,-4.688 4.687,-4.688l91.85,0c2.588,0 4.688,2.096 4.688,4.688c-0,2.587 -2.1,4.687 -4.688,4.687Z" style="fill:#d3dbef;fill-rule:nonzero;"/><path d="M2249.27,1087.24l-87.559,0c-12.966,0 -23.475,-10.508 -23.475,-23.475l0,-87.558c0,-12.962 10.509,-23.471 23.475,-23.471l87.559,0c12.962,0 23.47,10.509 23.47,23.471l0,87.558c0,12.967 -10.508,23.475 -23.47,23.475Z" style="fill:#1e448c;fill-rule:nonzero;"/><path d="M2243.51,1075.59l-96.891,0c-10.388,0 -18.809,-8.42 -18.809,-18.808l0,-96.891c0,-10.388 8.421,-18.809 18.809,-18.809l96.891,0c10.388,0 18.804,8.421 18.804,18.809l0,96.891c0,10.388 -8.416,18.808 -18.804,18.808Z" style="fill:#6d81bf;fill-rule:nonzero;"/><path d="M2243.51,1077.67l0,-4.167l-96.891,0c-4.625,-0.004 -8.792,-1.871 -11.825,-4.9c-3.029,-3.033 -4.9,-7.2 -4.9,-11.825l-0,-96.891c-0,-4.625 1.871,-8.792 4.9,-11.825c3.033,-3.03 7.2,-4.896 11.825,-4.901l96.891,0c4.625,0.005 8.792,1.871 11.825,4.901c3.029,3.033 4.896,7.2 4.896,11.825l0,96.891c0,4.625 -1.867,8.792 -4.896,11.825c-3.033,3.029 -7.2,4.896 -11.825,4.9l0,4.167c11.538,-0.004 20.888,-9.354 20.888,-20.892l-0,-96.891c-0,-11.538 -9.35,-20.888 -20.888,-20.892l-96.891,-0c-11.538,0.004 -20.892,9.354 -20.892,20.892l-0,96.891c-0,11.538 9.354,20.888 20.892,20.892l96.891,-0Z" style="fill:#d3dbef;fill-rule:nonzero;"/><path d="M2167.89,1048.5c-0.379,-0 -0.758,-0.046 -1.133,-0.158c-2.221,-0.621 -3.504,-2.925 -2.879,-5.138l20.342,-72.004c0.62,-2.225 2.937,-3.517 5.137,-2.879c2.221,0.625 3.504,2.925 2.879,5.141l-20.341,72.005c-0.517,1.837 -2.188,3.033 -4.005,3.033Z" style="fill:#fff;fill-rule:nonzero;"/><path d="M2201.9,1048.5c-0.379,-0 -0.758,-0.046 -1.133,-0.158c-2.221,-0.621 -3.505,-2.925 -2.879,-5.138l20.345,-72.004c0.621,-2.225 2.938,-3.517 5.138,-2.879c2.221,0.625 3.504,2.925 2.879,5.141l-20.346,72.005c-0.517,1.837 -2.187,3.033 -4.004,3.033Z" style="fill:#fff;fill-rule:nonzero;"/><path d="M2231.06,996.183l-72.004,0c-2.304,0 -4.166,-1.866 -4.166,-4.166c-0,-2.304 1.862,-4.167 4.166,-4.167l72.004,-0c2.305,-0 4.167,1.863 4.167,4.167c0,2.3 -1.862,4.166 -4.167,4.166Z" style="fill:#fff;fill-rule:nonzero;"/><path d="M2231.06,1029.08l-72.004,-0c-2.304,-0 -4.166,-1.862 -4.166,-4.167c-0,-2.3 1.862,-4.166 4.166,-4.166l72.004,-0c2.305,-0 4.167,1.866 4.167,4.166c0,2.305 -1.862,4.167 -4.167,4.167Z" style="fill:#fff;fill-rule:nonzero;"/><path d="M625.517,659.983l-52.075,0c-3.155,0 -5.713,-2.558 -5.713,-5.712c0,-3.15 2.558,-5.709 5.713,-5.709l52.075,0c3.154,0 5.708,2.559 5.708,5.709c-0,3.154 -2.554,5.712 -5.708,5.712Z" style="fill:#e8eff9;fill-rule:nonzero;"/><path d="M677.975,685.329l-104.533,0c-3.155,0 -5.713,-2.554 -5.713,-5.708c0,-3.154 2.558,-5.713 5.713,-5.713l104.533,0c3.154,0 5.708,2.559 5.708,5.713c0,3.154 -2.554,5.708 -5.708,5.708Z" style="fill:#e8eff9;fill-rule:nonzero;"/><path d="M585.787,710.679l-12.345,0c-3.155,0 -5.713,-2.558 -5.713,-5.712c0,-3.155 2.558,-5.709 5.713,-5.709l12.345,0c3.155,0 5.709,2.554 5.709,5.709c-0,3.154 -2.554,5.712 -5.709,5.712Z" style="fill:#e8eff9;fill-rule:nonzero;"/><path d="M677.975,710.679l-72.787,0c-3.155,0 -5.709,-2.558 -5.709,-5.712c0,-3.155 2.554,-5.709 5.709,-5.709l72.787,0c3.154,0 5.708,2.554 5.708,5.709c0,3.154 -2.554,5.712 -5.708,5.712Z" style="fill:#e8eff9;fill-rule:nonzero;"/><path d="M677.975,659.983l-31.567,0c-3.15,0 -5.708,-2.558 -5.708,-5.712c-0,-3.15 2.558,-5.709 5.708,-5.709l31.567,0c3.154,0 5.708,2.559 5.708,5.709c0,3.154 -2.554,5.712 -5.708,5.712Z" style="fill:#e8eff9;fill-rule:nonzero;"/><path d="M384.308,1438.84c-6.783,0 -13.133,1.863 -18.566,5.1c-2.18,-19.441 -18.667,-34.558 -38.692,-34.558c-21.508,0 -38.946,17.438 -38.946,38.946c0,1.442 0.084,2.862 0.238,4.263c-1.788,-0.334 -3.629,-0.517 -5.513,-0.517c-16.421,-0 -29.737,13.317 -29.737,29.737c-0,16.425 13.316,29.738 29.737,29.738l101.479,-0c20.08,-0 36.359,-16.275 36.359,-36.354c-0,-20.08 -16.279,-36.355 -36.359,-36.355Z" style="fill:#fff;fill-rule:nonzero;"/><path d="M126.225,1282.69c-0.983,-5.438 -0.85,-11 0.521,-16.355c4.587,-17.925 9.837,-51.646 -1.829,-88.075c-19.463,-60.77 -98.346,-114.596 -98.346,-114.596c-0,0 21.408,89.684 39.012,127.867c12.888,27.959 35.438,59.771 47.946,76.525c3.471,4.646 5.85,10.004 6.884,15.713c12.754,70.571 10.908,125.2 10.875,126.045l5.92,0.234c0.034,-0.854 1.909,-56.042 -10.983,-127.358Z" style="fill:#d3dbef;fill-rule:nonzero;"/><path d="M189.121,1225.55c15.667,-49.542 22.954,-107.9 22.954,-107.9c0,-0 -70.725,58.358 -76.521,103.512c-3.554,27.659 0.863,49.842 4.821,62.896c1.679,5.546 2.287,11.338 1.667,17.1c-7.159,66.45 -1.55,117.379 -1.459,118.159l5.321,-0.613c-0.083,-0.75 -5.291,-48.137 0.842,-110.929c0.837,-8.596 4.3,-16.725 9.741,-23.438c10.125,-12.487 24.596,-33.379 32.634,-58.787Z" style="fill:#a3b9e0;fill-rule:nonzero;"/><path d="M261.021,1115.35c-0,-0 -76.217,28.283 -96.146,90.512c-12.129,37.871 -6.4,72.884 -1.658,91.013c1.333,5.092 1.258,10.404 -0.013,15.504c-17.854,71.612 -18.129,145.742 -18.129,146.729l6.067,0c-0,-0.971 0.279,-73.329 17.52,-143.562c1.713,-6.975 4.755,-13.534 9.038,-19.3c12.996,-17.509 35.117,-49.009 47.925,-76.796c18.029,-39.1 35.396,-104.1 35.396,-104.1Z" style="fill:#d3dbef;fill-rule:nonzero;"/><path d="M126.542,1377.91c-1.896,-26.05 -8.996,-49.504 -17.6,-69.179c-1.721,-3.937 -2.33,-8.25 -1.775,-12.512c1.062,-8.221 1.504,-20.979 -1.784,-37.196c-6.183,-30.533 -46.708,-96.496 -105.383,-100.358c0,-0 20.246,32.545 30.663,59.775c13.179,34.454 31.991,70.496 63.191,84.325c5.488,2.433 9.784,6.987 12.071,12.533c7.521,18.229 13.558,39.525 15.267,63l5.35,-0.388Z" style="fill:#a3b9e0;fill-rule:nonzero;"/><path d="M86.867,1511.53l96.829,0l25.125,-153.521c1.108,-6.795 -4.134,-12.966 -11.021,-12.966l-125.038,-0c-6.883,-0 -12.129,6.171 -11.016,12.966l25.121,153.521Z" style="fill:#d3dbef;fill-rule:nonzero;"/></svg>