<?xml version="1.0" encoding="UTF-8" standalone="no"?><!DOCTYPE svg PUBLIC "-//W3C//DTD SVG 1.1//EN" "http://www.w3.org/Graphics/SVG/1.1/DTD/svg11.dtd"><svg width="100%" height="100%" viewBox="0 0 2419 2904" version="1.1" xmlns="http://www.w3.org/2000/svg" xmlns:xlink="http://www.w3.org/1999/xlink" xml:space="preserve" xmlns:serif="http://www.serif.com/" style="fill-rule:evenodd;clip-rule:evenodd;stroke-miterlimit:2;"><path d="M986.82,1924.84l-17.458,135.612l-77.875,-80.621l95.333,-54.991Z" style="fill:#f1594d;fill-rule:nonzero;"/><path d="M316.745,1202.53l-132.446,-132.446c-43.421,-43.42 -43.421,-113.82 0,-157.241l132.446,-132.45c43.425,-43.421 113.825,-43.421 157.246,-0l132.446,132.45c43.425,43.421 43.425,113.821 -0,157.241l-132.446,132.446c-43.421,43.425 -113.821,43.425 -157.246,0Z" style="fill:none;stroke:#2b5caa;stroke-width:8.33px;"/><path d="M1260.49,1260.15l-261.75,-261.737c-64.917,-64.95 -64.917,-170.263 -0,-235.217l261.75,-261.737c64.958,-64.955 170.25,-64.955 235.208,-0l261.75,261.737c64.958,64.954 64.958,170.267 0,235.217l-261.75,261.737c-64.958,64.954 -170.25,64.954 -235.208,0Z" style="fill:none;stroke:#2b5caa;stroke-width:8.33px;"/><path d="M1890.36,2589.45l-192.917,-192.95c-64.958,-64.95 -64.958,-170.266 -0,-235.22l192.917,-192.946c64.958,-64.954 170.291,-64.954 235.25,-0l192.917,192.946c64.958,64.954 64.958,170.27 -0,235.22l-192.917,192.95c-64.959,64.955 -170.292,64.955 -235.25,0Z" style="fill:none;stroke:#2b5caa;stroke-width:8.33px;"/><path d="M1248.82,2845.86l-192.958,-192.95c-64.958,-64.955 -64.958,-170.267 -0,-235.221l192.958,-192.946c64.917,-64.954 170.25,-64.954 235.208,-0l192.959,192.946c64.916,64.954 64.916,170.266 -0,235.221l-192.959,192.95c-64.958,64.954 -170.291,64.954 -235.208,-0Z" style="fill:none;stroke:#2b5caa;stroke-width:8.33px;"/><path d="M1347.24,2496.79l-721.034,-721.025c-64.954,-64.954 -64.954,-170.263 0,-235.221l721.034,-721.025c64.958,-64.954 170.25,-64.954 235.208,-0l721.042,721.025c64.916,64.958 64.916,170.267 -0,235.221l-721.042,721.025c-64.958,64.954 -170.25,64.954 -235.208,-0Z" style="fill:none;stroke:#2b5caa;stroke-width:8.33px;"/><path d="M289.545,2099.62l-231.512,-231.517c-64.955,-64.954 -64.955,-170.262 -0,-235.216l231.512,-231.517c64.954,-64.95 170.263,-64.95 235.217,-0l231.516,231.517c64.955,64.954 64.955,170.262 0,235.216l-231.516,231.517c-64.954,64.95 -170.263,64.95 -235.217,-0Z" style="fill:none;stroke:#2b5caa;stroke-width:8.33px;"/><path d="M1317.9,458.88l-112.374,-112.375c-51.417,-51.429 -51.417,-134.816 -0,-186.241l112.374,-112.375c51.459,-51.429 134.834,-51.429 186.25,-0l112.376,112.375c51.416,51.425 51.416,134.812 -0,186.241l-112.376,112.375c-51.416,51.43 -134.791,51.43 -186.25,0Z" style="fill:none;stroke:#2b5caa;stroke-width:8.33px;"/><path d="M1582.36,724.301l-85.25,-85.25c-29.334,-29.341 -29.334,-76.912 -0,-106.254l85.25,-85.25c29.333,-29.342 76.916,-29.342 106.25,0l85.25,85.25c29.375,29.342 29.375,76.913 -0,106.254l-85.25,85.25c-29.334,29.342 -76.917,29.342 -106.25,0Z" style="fill:none;stroke:#2b5caa;stroke-width:8.33px;"/><path d="M773.787,1249.22l-85.25,-85.25c-29.342,-29.342 -29.342,-76.912 -0,-106.254l85.25,-85.25c29.341,-29.342 76.908,-29.342 106.241,-0l85.25,85.25c29.334,29.342 29.334,76.912 0,106.254l-85.25,85.25c-29.333,29.342 -76.9,29.342 -106.241,0Z" style="fill:none;stroke:#2b5caa;stroke-width:8.33px;"/><path d="M725.708,778.497l-27.601,-27.6c-14.254,-14.254 -14.254,-37.367 0,-51.621l27.601,-27.6c14.254,-14.254 37.366,-14.254 51.616,0l27.604,27.6c14.255,14.254 14.255,37.367 0,51.621l-27.604,27.6c-14.25,14.258 -37.362,14.258 -51.616,0Z" style="fill:none;stroke:#2b5caa;stroke-width:8.33px;"/><path d="M383.258,1368.8l-132.45,-132.446c-43.421,-43.421 -43.421,-113.821 -0,-157.241l132.45,-132.446c43.421,-43.425 113.821,-43.425 157.241,-0l132.446,132.446c43.425,43.42 43.425,113.82 -0,157.241l-132.446,132.446c-43.42,43.421 -113.82,43.421 -157.241,0Z" style="fill:#2b5caa;fill-rule:nonzero;"/><path d="M1326.99,1426.42l-261.709,-261.733c-64.958,-64.954 -64.958,-170.271 0,-235.221l261.709,-261.738c64.958,-64.954 170.292,-64.954 235.25,0l261.708,261.738c64.959,64.95 64.959,170.267 -0,235.221l-261.708,261.733c-64.958,64.954 -170.292,64.954 -235.25,0Z" style="fill:#0a4ba0;fill-rule:nonzero;"/><path d="M1413.74,2663.06l-721.025,-721.025c-64.954,-64.959 -64.954,-170.267 -0,-235.221l721.025,-721.025c64.958,-64.954 170.25,-64.954 235.208,-0l721.042,721.025c64.958,64.954 64.958,170.262 -0,235.221l-721.042,721.025c-64.958,64.954 -170.25,64.954 -235.208,-0Z" style="fill:#0f2435;fill-rule:nonzero;"/><path d="M356.053,2265.89l-231.512,-231.513c-64.954,-64.954 -64.954,-170.267 0,-235.221l231.512,-231.508c64.955,-64.954 170.263,-64.954 235.217,-0l231.517,231.508c64.95,64.954 64.95,170.267 -0,235.221l-231.517,231.513c-64.954,64.954 -170.262,64.954 -235.217,-0Z" style="fill:#2b5caa;fill-rule:nonzero;"/><path d="M1384.4,625.151l-112.375,-112.375c-51.416,-51.429 -51.416,-134.812 0,-186.246l112.375,-112.37c51.459,-51.43 134.834,-51.43 186.251,-0l112.374,112.37c51.459,51.434 51.459,134.817 0,186.246l-112.374,112.375c-51.417,51.429 -134.792,51.429 -186.251,0Z" style="fill:#3b68b2;fill-rule:nonzero;"/><path d="M1648.86,890.572l-85.25,-85.25c-29.334,-29.342 -29.334,-76.912 -0,-106.254l85.25,-85.25c29.375,-29.342 76.917,-29.342 106.291,-0l85.251,85.25c29.333,29.342 29.333,76.912 -0,106.254l-85.251,85.25c-29.374,29.342 -76.916,29.342 -106.291,0Z" style="fill:#3b68b2;fill-rule:nonzero;"/><path d="M840.295,1415.49l-85.25,-85.25c-29.342,-29.342 -29.342,-76.913 0,-106.254l85.25,-85.25c29.358,-29.342 76.9,-29.342 106.233,-0l85.246,85.25c29.379,29.341 29.379,76.912 0,106.254l-85.246,85.25c-29.333,29.342 -76.875,29.342 -106.233,-0Z" style="fill:#3b68b2;fill-rule:nonzero;"/><path d="M792.216,944.768l-27.6,-27.6c-14.254,-14.254 -14.254,-37.367 -0,-51.621l27.6,-27.6c14.254,-14.254 37.367,-14.254 51.616,0l27.613,27.6c14.25,14.254 14.25,37.367 0,51.621l-27.613,27.6c-14.249,14.254 -37.362,14.254 -51.616,-0Z" style="fill:#3b68b2;fill-rule:nonzero;"/></svg>