<?xml version="1.0" encoding="UTF-8" standalone="no"?><!DOCTYPE svg PUBLIC "-//W3C//DTD SVG 1.1//EN" "http://www.w3.org/Graphics/SVG/1.1/DTD/svg11.dtd"><svg width="100%" height="100%" viewBox="0 0 364 739" version="1.1" xmlns="http://www.w3.org/2000/svg" xmlns:xlink="http://www.w3.org/1999/xlink" xml:space="preserve" xmlns:serif="http://www.serif.com/" style="fill-rule:evenodd;clip-rule:evenodd;stroke-linejoin:round;stroke-miterlimit:2;"><path d="M305.901,738.867l-251.392,-1.162c-30.238,-0.134 -54.642,-24.684 -54.508,-54.838l2.658,-628.487c0.133,-30.167 24.767,-54.517 55.017,-54.379l251.391,1.162c30.234,0.138 54.638,24.688 54.509,54.838l-2.663,628.491c-0.129,30.167 -24.767,54.517 -55.012,54.375Z" style="fill-rule:nonzero;"/><path d="M308.713,22.851l-48.746,-0.221c-6.533,-0.029 -11.854,5.471 -11.883,12.283l-0.042,8.817c-0.025,6.812 -5.35,12.312 -11.887,12.283l-95.004,-0.437c-6.538,-0.029 -11.813,-5.579 -11.784,-12.396l0.038,-8.813c0.029,-6.816 -5.246,-12.366 -11.784,-12.396l-17.141,-0.079l-42.659,-0.196c-21.187,-0.095 -38.441,16.955 -38.529,38.084l-2.6,613.45c-0.091,21.116 17,38.308 38.175,38.404l250.892,1.158c21.183,0.096 38.433,-16.954 38.525,-38.083l2.6,-613.45c0.087,-21.117 -16.996,-38.308 -38.171,-38.408Z" style="fill:#fff;fill-rule:nonzero;"/><rect x="56.351" y="440.263" width="248.254" height="16.608" style="fill:#696464;fill-rule:nonzero;"/><path d="M295.751,505.646c-0,0.6 -52.992,1.084 -118.338,1.084c-65.379,-0 -118.35,-0.484 -118.35,-1.084c0,-0.6 52.971,-1.087 118.35,-1.087c65.346,-0 118.338,0.487 118.338,1.087Z" style="fill:#335863;fill-rule:nonzero;"/><path d="M295.751,111.742c-0,0.6 -52.992,1.084 -118.338,1.084c-65.379,-0 -118.35,-0.484 -118.35,-1.084c0,-0.6 52.971,-1.083 118.35,-1.083c65.346,-0 118.338,0.483 118.338,1.083Z" style="fill:#335863;fill-rule:nonzero;"/><path d="M295.751,535.876c-0,0.6 -52.992,1.087 -118.338,1.087c-65.379,0 -118.35,-0.487 -118.35,-1.087c0,-0.6 52.971,-1.084 118.35,-1.084c65.346,0 118.338,0.484 118.338,1.084Z" style="fill:#335863;fill-rule:nonzero;"/><path d="M295.751,566.109c-0,0.596 -52.992,1.079 -118.338,1.079c-65.379,0 -118.35,-0.483 -118.35,-1.079c0,-0.604 52.971,-1.088 118.35,-1.088c65.346,0 118.338,0.484 118.338,1.088Z" style="fill:#335863;fill-rule:nonzero;"/><path d="M295.751,596.338c-0,0.596 -52.992,1.083 -118.338,1.083c-65.379,0 -118.35,-0.487 -118.35,-1.083c0,-0.6 52.971,-1.087 118.35,-1.087c65.346,-0 118.338,0.487 118.338,1.087Z" style="fill:#335863;fill-rule:nonzero;"/><path d="M295.751,626.563c-0,0.604 -52.992,1.088 -118.338,1.088c-65.379,-0 -118.35,-0.484 -118.35,-1.088c0,-0.596 52.971,-1.079 118.35,-1.079c65.346,-0 118.338,0.483 118.338,1.079Z" style="fill:#335863;fill-rule:nonzero;"/><path d="M299.138,660.842c0,0.6 -52.992,1.088 -118.342,1.088c-65.37,-0 -118.35,-0.488 -118.35,-1.088c0,-0.6 52.98,-1.087 118.35,-1.087c65.35,-0 118.342,0.487 118.342,1.087Z" style="fill:#335863;fill-rule:nonzero;"/><rect x="59.063" y="146.213" width="248.879" height="240.783" style="fill:#d7d9d9;fill-rule:nonzero;"/><path d="M288.642,367.059c-0.016,-0.021 -0.037,-0.35 -0.058,-0.988c-0.008,-0.72 -0.029,-1.637 -0.054,-2.808c-0.029,-2.562 -0.067,-6.175 -0.121,-10.833c-0.058,-9.55 -0.15,-23.359 -0.263,-40.892c-0.125,-35.171 -0.304,-85.254 -0.52,-145.387l1.016,1.016c-60.904,0.046 -133.096,0.109 -210.266,0.167c-0.284,0.25 2.225,-2.229 1.166,-1.15l0,27.242c-0.004,9.025 -0.004,17.962 -0.008,26.812c-0.013,17.696 -0.021,35.021 -0.029,51.888c-0.042,33.72 -0.084,65.604 -0.117,94.929l-1.033,-1.029c62.766,0.216 115.187,0.395 152.046,0.525c18.379,0.116 32.866,0.204 42.883,0.27c4.892,0.05 8.692,0.092 11.375,0.121c1.233,0.025 2.192,0.042 2.946,0.059c0.671,0.016 1.021,0.037 1.037,0.058c0.021,0.017 -0.287,0.042 -0.921,0.058c-0.72,0.013 -1.65,0.034 -2.833,0.059c-2.637,0.025 -6.371,0.07 -11.175,0.12c-9.962,0.063 -24.375,0.155 -42.65,0.271c-37.017,0.129 -89.671,0.309 -152.708,0.525l-1.034,0.004l0,-1.041c-0.029,-29.325 -0.07,-61.209 -0.112,-94.929c-0.008,-16.867 -0.021,-34.192 -0.029,-51.888c-0.004,-8.85 -0.004,-17.787 -0.009,-26.812l0,-20.43l-0.004,-3.429l0,-3.383c-1.054,1.038 1.442,-1.488 1.209,-1.221c77.17,0.063 149.362,0.121 210.266,0.167l1.021,-0l-0.004,1.021c-0.213,60.4 -0.392,110.704 -0.521,146.033c-0.108,17.433 -0.204,31.167 -0.262,40.662c-0.05,4.575 -0.092,8.125 -0.121,10.642c-0.021,1.121 -0.038,2.004 -0.054,2.696c-0.017,0.6 -0.038,0.892 -0.059,0.875Z" style="fill:#335863;fill-rule:nonzero;"/></svg>