<?xml version="1.0" encoding="UTF-8" standalone="no"?><!DOCTYPE svg PUBLIC "-//W3C//DTD SVG 1.1//EN" "http://www.w3.org/Graphics/SVG/1.1/DTD/svg11.dtd"><svg width="100%" height="100%" viewBox="0 0 5809 2837" version="1.1" xmlns="http://www.w3.org/2000/svg" xmlns:xlink="http://www.w3.org/1999/xlink" xml:space="preserve" xmlns:serif="http://www.serif.com/" style="fill-rule:evenodd;clip-rule:evenodd;stroke-linejoin:round;stroke-miterlimit:2;"><path d="M287.898,2821.72c0,0 -486.542,-603.342 -194.625,-1177.49c291.959,-574.146 846.625,-437.908 1625.13,-1021.79c945.124,-708.834 1608.75,-747.784 2452.29,-437.913c476.875,175.163 554.709,895.284 1313.75,1342.92c684.25,403.542 126.5,1089.9 -233.542,1196.95c-360.083,107.045 -603.333,107.045 -603.333,107.045l-4359.67,-9.733Z" style="fill:#187ff7;fill-rule:nonzero;"/><path d="M3184.77,1524.58c-121.459,246.525 -273.709,920.175 -315.251,957.084c-41.541,36.912 -281.458,179.95 -323,249.158c-41.5,69.212 -23.042,46.141 -4.583,50.758c18.458,4.613 1061.21,9.225 1061.21,9.225c0,0 -119.958,-715.175 -133.792,-719.787c-13.832,-4.617 -284.582,-546.438 -284.582,-546.438Z" style="fill:#a2dff2;fill-rule:nonzero;"/><path d="M3012.07,2787.46c191.542,1.338 393.625,2.392 504.875,2.938l-152.333,-910.942c-81.209,-157.508 -179.833,-354.879 -179.833,-354.879c-15.334,31.08 -31.126,68.954 -47.126,111.475c-15.791,684.192 82.75,875.963 8.708,997.875c-57.749,95.129 -110.457,137.688 -134.291,153.533Z" style="fill:#96cfe0;fill-rule:nonzero;"/><path d="M5177.23,2836.46l-5007.29,-0c-21.333,-0 -38.625,-17.296 -38.625,-38.626c0,-21.333 17.292,-38.625 38.625,-38.625l5007.29,0c21.333,0 38.625,17.292 38.625,38.625c-0,21.33 -17.292,38.626 -38.625,38.626Z" style="fill:#2e5b9a;fill-rule:nonzero;"/><path d="M3824.27,1227.04c173.166,159.871 558.707,311.479 558.707,311.479c0,-0 58.542,541.179 18.584,847.604c-39.958,306.429 -17.75,368.6 -17.75,368.6l-794.916,-0c-0,-0 -106.709,-148.05 -302,-608.408c-124.334,-293.104 -102.125,-621.734 -102.125,-621.734l484.041,-217.608l155.459,-79.933Z" style="fill:#a2dff2;fill-rule:nonzero;"/><path d="M3588.9,2754.72l794.916,-0c0,-0 -22.208,-62.171 17.75,-368.6c32.917,-252.317 -1,-663.796 -13.958,-801.242l-72.334,-30.983c-181.458,52.296 -286.083,323 -316.833,587.554c-20.584,177.008 -313.833,351.263 -505.667,447.2c63.042,120.138 96.126,166.071 96.126,166.071Z" style="fill:#96cfe0;fill-rule:nonzero;"/><path d="M3393.98,671.555c-95.792,213.421 19.208,411.125 15.708,402.788c-3.458,-8.333 145.041,-360.334 145.041,-360.334l-160.749,-42.454Z" style="fill:#2e5b9a;fill-rule:nonzero;"/><path d="M3757.11,829.372l121.541,444.196c3.417,12.538 0.5,25.896 -7.666,35.983c-28.542,35.113 -69.126,107.338 -151,130.509c-15.917,4.503 -35.5,5.708 -51.375,5.766c-16.709,0.062 -31.084,-11.687 -34.25,-28.075l-81.417,-421.308l204.167,-167.071Z" style="fill:#f09959;fill-rule:nonzero;"/><path d="M3733.9,866.497l-44.416,18.208l-136.542,111.738l73.292,373.525c124.333,-77.509 142.458,-129.817 107.666,-503.471Z" style="fill:#e38540;fill-rule:nonzero;"/><path d="M3752.65,1025.86c-26.875,146.125 -136.25,244.95 -244.208,220.733c-108,-24.213 -159.5,-118.792 -146.833,-308.425c9.958,-148.771 83.291,-310.479 191.291,-286.262c108.001,24.212 226.667,227.824 199.75,373.954Z" style="fill:#f09959;fill-rule:nonzero;"/><path d="M4382.98,1538.51c160.834,36.316 190.709,362.991 243.001,707.52c6.041,39.654 36.917,375.296 36.917,375.296c-0,0 3.083,61.525 -58.459,92.284c-52.542,26.283 -73.833,46.146 -378.375,49.22c-292.458,2.954 -669.583,-9.229 -669.583,-9.229c-0,0 -3.334,-108.829 26.666,-162.012c45.125,-79.979 507.584,-194.825 550.667,-200.975c6.125,-86.133 -42.5,-397.779 24.583,-609.084c46.167,-145.354 95.75,-221.487 157.917,-241.387c20.708,-6.633 42.833,-7.016 66.666,-1.633Z" style="fill:#a2dff2;fill-rule:nonzero;"/><path d="M3721.9,2760.24c144.167,2.166 342.042,4.237 504.167,2.599c304.542,-3.074 325.833,-22.937 378.375,-49.22c61.542,-30.759 64.625,-83.055 64.625,-83.055c0,0 -31.083,-357.145 -36.917,-396.829c-33.833,-230.712 -70.416,-494.716 -155.5,-622.154c80.001,234.446 92.875,432.263 94.292,516.754c0.75,42.788 -3.208,101.384 -15.708,142.317c-13.834,45.371 -49.209,73.829 -104.584,58.446c-110.749,-30.763 -249.166,33.837 -249.166,33.837c0,0 104.583,-36.916 203,-3.075c98.458,33.838 301.499,258.4 80,341.454c-67.792,25.417 -473.75,46.142 -762.584,58.926Z" style="fill:#96cfe0;fill-rule:nonzero;"/><path d="M3607.77,2601.85c-0,-0 40.999,-69.725 125.082,-69.725c84.084,-0 77.959,137.4 65.625,182.516c-12.291,45.122 -61.5,47.171 -61.5,47.171l-180.499,-8.204l51.292,-151.758Z" style="fill:#96cfe0;fill-rule:nonzero;"/><path d="M3424.82,2793.12l-1137.67,0c-17.166,0 -31.208,-14.038 -31.208,-31.191l-0,-8.968c-0,-17.158 14.042,-31.195 31.208,-31.195l1137.67,-0c17.167,-0 31.208,14.037 31.208,31.195l0,8.968c0,17.153 -14.041,31.191 -31.208,31.191Z" style="fill:#75a1de;fill-rule:nonzero;"/><path d="M3585.23,2610.05c-176.376,-63.575 -222.667,-39.642 -262.5,-51.27c-98.458,-28.709 -123.084,-4.1 -186.626,170.216c-12.666,34.734 24.584,36.912 61.5,36.912c36.917,0 82.043,-71.774 96.376,-79.978c14.375,-8.205 53.333,-12.305 53.333,-12.305c0,0 -12.292,0 -30.75,36.913c-18.458,36.912 -41.042,51.27 -12.292,51.27c28.708,0 32.792,-47.171 86.125,-36.916c53.292,10.254 32.792,36.916 166.084,34.867c133.333,-2.055 233.916,-0.005 231.749,-79.984c-2.041,-75.879 6.376,-113.821 -65.625,-127.146c-55.375,-10.254 -137.374,57.421 -137.374,57.421Z" style="fill:#f09959;fill-rule:nonzero;"/><path d="M3587.52,2610.05c117.917,-13.329 83.292,133.558 71.001,145.862c-12.292,12.305 65.666,4.322 65.666,4.322c0,-0 36.625,-58.926 5.875,-126.6c-30.791,-67.676 -92.291,-70.75 -92.291,-70.75l-52.292,28.708l2.041,18.458Z" style="fill:#a86b48;fill-rule:nonzero;"/><path d="M3710.65,2597.27c-1.543,18.2 -32.459,30.475 -69.084,27.416c-36.667,-3.062 -65.125,-20.299 -63.583,-38.508c1.5,-18.2 32.416,-30.479 69.083,-27.416c36.625,3.062 65.083,20.3 63.584,38.508Z" style="fill:#2e5b9a;fill-rule:nonzero;"/><path d="M3701.27,2588.21c-1.376,16.262 -29,27.233 -61.751,24.5c-32.708,-2.738 -58.166,-18.142 -56.791,-34.405c1.333,-16.266 29,-27.233 61.708,-24.495c32.75,2.733 58.166,18.133 56.834,34.4Z" style="fill:#3e6bab;fill-rule:nonzero;"/><path d="M3680.82,2580.68c-0.959,11.709 -20.875,19.6 -44.417,17.633c-23.583,-1.97 -41.875,-13.058 -40.917,-24.766c0.959,-11.705 20.875,-19.6 44.459,-17.634c23.542,1.967 41.833,13.059 40.875,24.767Z" style="fill:#f0ceb4;fill-rule:nonzero;"/><path d="M2245.52,2567.77l-1146.08,0c-60.292,0 -111.958,-43.654 -122.875,-103.771l-149.458,-825.079c-14.084,-77.812 44.833,-149.537 122.875,-149.537l1146.08,-0c60.292,-0 111.958,43.658 122.833,103.775l149.5,825.078c14.084,77.813 -44.833,149.534 -122.875,149.534Z" style="fill:#75a1de;fill-rule:nonzero;"/><path d="M2299.07,2421.33l-152.542,-808.004c-11.125,-58.875 -63.874,-101.629 -125.416,-101.629l-1164.67,-0c-24.458,28.392 -36.708,67.245 -29.25,107.733l154.708,842.392c11.292,61.379 64.792,105.95 127.208,105.95l1064.58,0c79.625,0 139.75,-70.242 125.375,-146.442Z" style="fill:#a8ceff;fill-rule:nonzero;"/><path d="M2022.73,2678.26l-217.584,0c-38.791,0 -70.25,-34.554 -70.25,-77.183l0,-397.788c0,-67.845 -50.083,-122.845 -111.833,-122.845l-113.625,-0c-61.792,-0 -111.833,55 -111.833,122.845l-0,445.48c-0,76.179 56.416,137.8 125.791,137.321l593.751,-4.075c-0,-57.305 -42.292,-103.755 -94.417,-103.755Z" style="fill:#75a1de;fill-rule:nonzero;"/><path d="M1406.23,2212.21l-0,438.654c-0,71.408 55.375,129.788 125.416,134.825l579.458,-3.621c-0.041,-9.492 -45.708,-26.792 -102.17,-26.792l-235.329,0c-41.959,0 -76,-34.025 -76,-76l-0,-467.066c-0,-66.805 -54.167,-120.963 -120.959,-120.963l-49.416,0c-66.834,0 -121,54.158 -121,120.963Z" style="fill:#a8ceff;fill-rule:nonzero;"/><path d="M2619.19,2627.71c87.583,-48.655 194.625,-32.438 233.541,16.216c38.917,48.65 45.418,81.083 -42.166,81.083c-87.583,0 -262.708,6.488 -291.917,3.246c-29.166,-3.246 100.542,-100.545 100.542,-100.545Z" style="fill:#f09959;fill-rule:nonzero;"/><path d="M2748.94,2598.52c94.042,-22.705 158.333,32.029 236.792,84.329c68.083,45.408 81.791,89.55 6.458,51.896c-110.25,-55.142 -175.125,-61.625 -175.125,-61.625l-68.125,-74.6Z" style="fill:#f09959;fill-rule:nonzero;"/><path d="M2663.27,2627.41c-47.5,-0 -88.958,-15.146 -122.5,-12.354c-33.541,2.795 -139.708,111.77 -122.958,120.149c1.209,0.604 2.5,1.154 3.917,1.671c25.208,9.275 53.667,-1.004 67.875,-23.804c15.042,-24.117 39.458,-52.175 67.917,-42.133c47.499,16.766 97.374,15.15 97.374,15.15l8.375,-58.679Z" style="fill:#f09959;fill-rule:nonzero;"/><path d="M2635.4,2744.47c-48.624,-19.463 29.209,-181.633 55.167,-181.633c25.958,-0 123.25,77.841 123.25,77.841c0,0 -22.875,12.917 -100.542,-12.97c-19.458,-6.488 -35.667,103.787 -58.375,116.762c-22.708,12.975 -19.5,-0 -19.5,-0Z" style="fill:#f7a96f;fill-rule:nonzero;"/><path d="M3361.52,1023.58c-4.5,178.579 56.334,208.779 98.875,233.029c42.584,24.25 225.917,-15.808 252.833,-59.974c68.834,-112.996 10.876,-218.363 26.292,-216.771c15.417,1.595 29.501,45.583 69.625,102.67c3.751,5.317 29.834,40.6 31.208,28.867c18.625,-159.917 101.917,-209.575 82.084,-371.317c-14.625,-119.237 -90.292,-109.775 -90.292,-109.775c0,0 -48.833,-99.775 -200.833,-88.441c-101.833,7.587 -192.625,47.262 -297.583,74.283c-105.001,27.017 124.166,264.962 260.333,178.029c136.167,-86.929 68.958,104.554 90.417,119.404c21.499,14.85 10.333,1.971 20.208,99.959c9.833,97.983 -114.584,161.958 -150.25,170.345c-114.042,26.821 -133.125,8.009 -158.084,-34.933c-21.666,-37.262 -34.833,-125.375 -34.833,-125.375Z" style="fill:#2e5b9a;fill-rule:nonzero;"/><path d="M3833.57,968.28c-13.084,45.009 -45.083,74.084 -71.417,64.942c-26.374,-9.137 -27.125,-45.713 -24.042,-98.042c2.793,-47.175 45.042,-74.083 71.417,-64.941c26.334,9.141 37.125,53.033 24.042,98.041Z" style="fill:#f09959;fill-rule:nonzero;"/><path d="M1341.65,847.451l-973.5,-0c-10.624,-0 -19.208,-8.591 -19.208,-19.187l-0,-418.93c-0,-10.595 8.584,-19.187 19.208,-19.187l973.5,0c10.626,0 19.209,8.592 19.209,19.187l-0,418.93c-0,10.596 -8.583,19.187 -19.209,19.187Z" style="fill:#b7e1ff;fill-rule:nonzero;"/><path d="M1317.69,825.988l-925.583,0c-8.542,0 -15.5,-6.937 -15.5,-15.499l-0,-284.7c-0,-8.559 6.958,-15.496 15.5,-15.496l925.583,-0c8.542,-0 15.5,6.937 15.5,15.496l-0,284.7c-0,8.562 -6.958,15.499 -15.5,15.499Z" style="fill:#fff;fill-rule:nonzero;"/><path d="M421.732,459.48l-22.459,0c-4.75,0 -8.625,-3.85 -8.625,-8.591l0,-18.501c0,-4.741 3.875,-8.587 8.625,-8.587l22.459,0c4.708,0 8.583,3.846 8.583,8.587l0,18.501c0,4.741 -3.875,8.591 -8.583,8.591Z" style="fill:#fff;fill-rule:nonzero;"/><path d="M493.773,459.48l-22.458,0c-4.708,0 -8.583,-3.85 -8.583,-8.591l-0,-18.501c-0,-4.741 3.875,-8.587 8.583,-8.587l22.458,0c4.75,0 8.625,3.846 8.625,8.587l0,18.501c0,4.741 -3.875,8.591 -8.625,8.591Z" style="fill:#fff;fill-rule:nonzero;"/><path d="M565.857,459.48l-22.458,0c-4.751,0 -8.584,-3.85 -8.584,-8.591l-0,-18.501c-0,-4.741 3.833,-8.587 8.584,-8.587l22.458,0c4.749,0 8.625,3.846 8.625,8.587l-0,18.501c-0,4.741 -3.876,8.591 -8.625,8.591Z" style="fill:#fff;fill-rule:nonzero;"/><path d="M1294.27,579.485l-506,-0c-8.292,-0 -15.124,-6.809 -15.124,-15.134c-0,-8.325 6.832,-15.137 15.124,-15.137l506,-0c8.334,-0 15.125,6.812 15.125,15.137c0,8.325 -6.791,15.134 -15.125,15.134Z" style="fill:#b7e1ff;fill-rule:nonzero;"/><path d="M913.69,813.014l-505.958,-0c-8.334,-0 -15.167,-6.813 -15.167,-15.138c-0,-8.325 6.833,-15.133 15.167,-15.133l505.958,-0c8.333,-0 15.125,6.808 15.125,15.133c0,8.325 -6.792,15.138 -15.125,15.138Z" style="fill:#b7e1ff;fill-rule:nonzero;"/><path d="M1006.9,813.014l-52.333,-0c-2.875,-0 -5.167,-2.33 -5.167,-5.175l0,-19.921c0,-2.846 2.292,-5.175 5.167,-5.175l52.333,-0c2.875,-0 5.167,2.329 5.167,5.175l0,19.921c0,2.845 -2.292,5.175 -5.167,5.175Z" style="fill:#b7e1ff;fill-rule:nonzero;"/><path d="M1085.82,813.014l-52.333,-0c-2.834,-0 -5.167,-2.33 -5.167,-5.175l0,-19.921c0,-2.846 2.333,-5.175 5.167,-5.175l52.333,-0c2.875,-0 5.208,2.329 5.208,5.175l0,19.921c0,2.845 -2.333,5.175 -5.208,5.175Z" style="fill:#b7e1ff;fill-rule:nonzero;"/><path d="M1299.11,645.435l-837.876,-0c-5.624,-0 -10.249,-4.621 -10.249,-10.271c-0,-5.646 4.625,-10.271 10.249,-10.271l837.876,-0c5.666,-0 10.291,4.625 10.291,10.271c0,5.65 -4.625,10.271 -10.291,10.271Z" style="fill:#b7e1ff;fill-rule:nonzero;"/><path d="M1299.11,689.764l-837.876,-0c-5.624,-0 -10.249,-4.625 -10.249,-10.271c-0,-5.65 4.625,-10.271 10.249,-10.271l837.876,0c5.666,0 10.291,4.621 10.291,10.271c0,5.646 -4.625,10.271 -10.291,10.271Z" style="fill:#b7e1ff;fill-rule:nonzero;"/><path d="M1570.32,1168.54l-973.542,-0c-10.583,-0 -19.166,-8.592 -19.166,-19.184l-0,-418.933c-0,-10.596 8.583,-19.188 19.166,-19.188l973.542,0c10.584,0 19.208,8.592 19.208,19.188l0,418.933c0,10.592 -8.624,19.184 -19.208,19.184Z" style="fill:#9ec8ff;fill-rule:nonzero;"/><path d="M1546.36,1147.07l-925.584,0c-8.583,0 -15.5,-6.938 -15.5,-15.496l0,-284.7c0,-8.558 6.917,-15.496 15.5,-15.496l925.584,0c8.542,0 15.5,6.938 15.5,15.496l-0,284.7c-0,8.558 -6.958,15.496 -15.5,15.496Z" style="fill:#fff;fill-rule:nonzero;"/><path d="M650.357,780.564l-22.459,-0c-4.749,-0 -8.583,-3.846 -8.583,-8.588l0,-18.5c0,-4.746 3.834,-8.592 8.583,-8.592l22.459,0c4.75,0 8.583,3.846 8.583,8.592l0,18.5c0,4.742 -3.833,8.588 -8.583,8.588Z" style="fill:#fff;fill-rule:nonzero;"/><path d="M722.44,780.564l-22.458,-0c-4.75,-0 -8.584,-3.846 -8.584,-8.588l0,-18.5c0,-4.746 3.834,-8.592 8.584,-8.592l22.458,0c4.75,0 8.583,3.846 8.583,8.592l0,18.5c0,4.742 -3.833,8.588 -8.583,8.588Z" style="fill:#fff;fill-rule:nonzero;"/><path d="M794.523,780.564l-22.458,-0c-4.75,-0 -8.583,-3.846 -8.583,-8.588l-0,-18.5c-0,-4.746 3.833,-8.592 8.583,-8.592l22.458,0c4.75,0 8.584,3.846 8.584,8.592l-0,18.5c-0,4.742 -3.834,8.588 -8.584,8.588Z" style="fill:#fff;fill-rule:nonzero;"/><path d="M1522.9,900.568l-505.958,-0c-8.334,-0 -15.125,-6.809 -15.125,-15.133c-0,-8.326 6.791,-15.138 15.125,-15.138l505.958,-0c8.334,-0 15.167,6.812 15.167,15.138c0,8.324 -6.833,15.133 -15.167,15.133Z" style="fill:#9ec8ff;fill-rule:nonzero;"/><path d="M1142.36,1134.1l-506,-0c-8.292,-0 -15.125,-6.809 -15.125,-15.133c-0,-8.325 6.833,-15.138 15.125,-15.138l506,0c8.333,0 15.125,6.813 15.125,15.138c-0,8.324 -6.792,15.133 -15.125,15.133Z" style="fill:#9ec8ff;fill-rule:nonzero;"/><path d="M1235.57,1134.1l-52.375,-0c-2.833,-0 -5.167,-2.325 -5.167,-5.175l0,-19.921c0,-2.845 2.334,-5.175 5.167,-5.175l52.375,0c2.833,0 5.167,2.33 5.167,5.175l-0,19.921c-0,2.85 -2.334,5.175 -5.167,5.175Z" style="fill:#9ec8ff;fill-rule:nonzero;"/><path d="M1314.48,1134.1l-52.333,-0c-2.876,-0 -5.209,-2.325 -5.209,-5.175l0,-19.921c0,-2.845 2.333,-5.175 5.209,-5.175l52.333,0c2.833,0 5.166,2.33 5.166,5.175l0,19.921c0,2.85 -2.333,5.175 -5.166,5.175Z" style="fill:#9ec8ff;fill-rule:nonzero;"/><path d="M1527.77,966.522l-837.876,-0c-5.666,-0 -10.291,-4.625 -10.291,-10.271c-0,-5.65 4.625,-10.271 10.291,-10.271l837.876,0c5.666,0 10.291,4.621 10.291,10.271c0,5.646 -4.625,10.271 -10.291,10.271Z" style="fill:#9ec8ff;fill-rule:nonzero;"/><path d="M1527.77,1010.85l-837.876,0c-5.666,0 -10.291,-4.621 -10.291,-10.271c-0,-5.65 4.625,-10.267 10.291,-10.267l837.876,0c5.666,0 10.291,4.617 10.291,10.267c0,5.65 -4.625,10.271 -10.291,10.271Z" style="fill:#9ec8ff;fill-rule:nonzero;"/><path d="M1949.52,1056.64c-0,72.546 -58.829,131.354 -131.371,131.354c-72.542,0 -131.333,-58.808 -131.333,-131.354c-0,-72.546 58.791,-131.354 131.333,-131.354c72.542,-0 131.371,58.808 131.371,131.354Z" style="fill:#9cd499;fill-rule:nonzero;"/><path d="M1805.11,1105.18l-0.375,-0.004c-2.709,-0.1 -5.292,-1.325 -7.125,-3.388l-35.667,-40.541c-3.667,-4.15 -3.25,-10.467 0.917,-14.117c4.124,-3.645 10.458,-3.242 14.083,0.904l28.708,32.626l68.709,-67.226c3.916,-3.862 10.25,-3.795 14.125,0.155c3.87,3.945 3.787,10.274 -0.125,14.141l-76.25,74.6c-1.875,1.834 -4.375,2.85 -7,2.85Z" style="fill:#fff;fill-rule:nonzero;"/><path d="M2791.11,446.485l-835.171,-0c-21.413,-0 -38.912,-17.517 -38.912,-38.926l-0,-298.395c-0,-21.404 17.499,-38.921 38.912,-38.921l835.171,-0c21.416,-0 38.916,17.517 38.916,38.921l0,298.395c0,21.409 -17.5,38.926 -38.916,38.926Z" style="fill:#9ec8ff;fill-rule:nonzero;"/><path d="M2027.27,389.722l-0,207.583l239.208,-239.204c-0,0 -234.334,31.621 -239.208,31.621Z" style="fill:#9ec8ff;fill-rule:nonzero;"/><path d="M2749.82,409.184l-752.583,0c-18.167,0 -33.005,-14.849 -33.005,-32.999l0,-235.642c0,-18.15 14.838,-33 33.005,-33l752.583,0c18.167,0 33,14.85 33,33l-0,235.642c-0,18.15 -14.833,32.999 -33,32.999Z" style="fill:#fff;fill-rule:nonzero;"/><path d="M2410.02,182.143l-369.754,-0c-8.912,-0 -16.246,-7.296 -16.246,-16.217c0,-8.921 7.334,-16.221 16.246,-16.221l369.754,0c8.917,0 16.209,7.3 16.209,16.221c-0,8.921 -7.292,16.217 -16.209,16.217Z" style="fill:#9ec8ff;fill-rule:nonzero;"/><path d="M2718.86,244.147l-685.792,-0c-4.958,-0 -9.042,-4.058 -9.042,-9.017l0,-0.187c0,-4.954 4.084,-9.017 9.042,-9.017l685.792,0c4.958,0 8.999,4.063 8.999,9.017l0,0.187c0,4.959 -4.041,9.017 -8.999,9.017Z" style="fill:#9ec8ff;fill-rule:nonzero;"/><path d="M2718.86,279.447l-685.792,0c-4.958,0 -9.042,-4.058 -9.042,-9.017l0,-0.187c0,-4.959 4.084,-9.017 9.042,-9.017l685.792,0c4.958,0 8.999,4.058 8.999,9.017l0,0.187c0,4.959 -4.041,9.017 -8.999,9.017Z" style="fill:#9ec8ff;fill-rule:nonzero;"/><path d="M2577.11,396.209l-22.458,0c-4.751,0 -8.584,-3.845 -8.584,-8.587l0,-18.5c0,-4.746 3.833,-8.592 8.584,-8.592l22.458,0c4.749,0 8.583,3.846 8.583,8.592l0,18.5c0,4.742 -3.834,8.587 -8.583,8.587Z" style="fill:#9ec8ff;fill-rule:nonzero;"/><path d="M2649.19,396.209l-22.459,0c-4.749,0 -8.582,-3.845 -8.582,-8.587l-0,-18.5c-0,-4.746 3.833,-8.592 8.582,-8.592l22.459,0c4.75,0 8.584,3.846 8.584,8.592l-0,18.5c-0,4.742 -3.834,8.587 -8.584,8.587Z" style="fill:#9ec8ff;fill-rule:nonzero;"/><path d="M2721.27,396.209l-22.459,0c-4.75,0 -8.625,-3.845 -8.625,-8.587l-0,-18.5c-0,-4.746 3.875,-8.592 8.625,-8.592l22.459,0c4.749,0 8.582,3.846 8.582,8.592l0,18.5c0,4.742 -3.833,8.587 -8.582,8.587Z" style="fill:#9ec8ff;fill-rule:nonzero;"/></svg>