<?xml version="1.0" encoding="UTF-8" standalone="no"?><!DOCTYPE svg PUBLIC "-//W3C//DTD SVG 1.1//EN" "http://www.w3.org/Graphics/SVG/1.1/DTD/svg11.dtd"><svg width="100%" height="100%" viewBox="0 0 4814 2899" version="1.1" xmlns="http://www.w3.org/2000/svg" xmlns:xlink="http://www.w3.org/1999/xlink" xml:space="preserve" xmlns:serif="http://www.serif.com/" style="fill-rule:evenodd;clip-rule:evenodd;stroke-linejoin:round;stroke-miterlimit:2;"><path d="M1764.78,2816.1c-1226.03,-71.358 -2209.25,-1368.44 -1556.85,-2121.21c505.974,-583.825 1180.62,265.962 1809.85,-162.175c968.046,-658.671 2536.39,-778.429 2743.97,51.896c207.583,830.325 -480.042,2127.7 -992.5,2205.55c-512.475,77.842 -2004.46,25.946 -2004.46,25.946Z" style="fill:#b9fcfc;fill-rule:nonzero;"/><path d="M1923.7,1058.15c12.975,311.375 9.729,480.034 -103.792,609.771c-113.516,129.738 -431.375,97.3 -431.375,97.3c0,0 -31.354,458.413 -475.704,477.871c-444.354,19.458 -508.142,-570.846 -160.012,-722.208c331.395,-144.084 436.783,-185.959 551.383,-542.738c104.696,-325.933 431.383,-263.8 509.225,-127.575c77.842,136.225 110.275,207.579 110.275,207.579Z" style="fill:#303c60;fill-rule:nonzero;"/><path d="M1777.75,2647.44c-0,0 209.741,41.083 220.554,38.921c10.812,-2.163 240.016,-103.792 263.8,-88.654c23.787,15.133 162.175,73.516 192.446,86.491c30.271,12.976 -17.3,17.3 -41.084,17.3c-23.787,0 -160.008,-56.221 -175.146,-45.408c-15.137,10.813 118.925,32.433 118.925,41.084c0,8.649 -358.941,90.812 -380.562,90.812c-21.625,-0 -188.121,-15.133 -188.121,-15.133l-10.812,-125.413Z" style="fill:#e38540;fill-rule:nonzero;"/><path d="M1603.68,1501.96c112.983,22.167 179.475,141.729 201.096,246.454c21.621,104.721 -201.096,-246.454 -201.096,-246.454Z" style="fill:#6791c9;fill-rule:nonzero;"/><g><clipPath id="_clip1"><path d="M1764.78,2816.1c-1226.03,-71.354 -2209.26,-1368.45 -1556.86,-2121.22c267.512,-308.671 582.175,-216.604 912.341,-124.533c294.313,82.07 600.95,164.137 897.5,-37.638c968.05,-658.671 2536.39,-778.429 2743.97,51.896c207.583,830.321 -480.042,2127.7 -992.5,2205.55c-512.475,77.842 -2004.46,25.946 -2004.46,25.946Z"/></clipPath><g clip-path="url(#_clip1)"><path d="M1414.48,1421.42c-0,0 -217.308,145.958 -334.075,217.312c-116.762,71.354 42.167,840.055 81.088,1125.48c38.92,285.426 713.558,25.95 713.558,25.95c-0,0 -45.408,-240.016 12.971,-625.983c41.821,-276.475 -111.359,-449.762 -198.929,-569.771c-221.025,-302.879 -274.613,-172.983 -274.613,-172.983Z" style="fill:#75a1de;fill-rule:nonzero;"/><path d="M1200.42,1641.97c249.746,304.884 334.167,361.883 272.45,567.604c-48.65,162.171 -64.871,220.554 -74.6,275.696c-9.729,55.134 463.813,-35.679 463.813,-35.679l-3.242,178.387c0,0 -372.996,178.392 -554.633,214.067c-181.629,35.679 -295.15,-6.483 -295.15,-6.483l191.362,-1193.59Z" style="fill:#6791c9;fill-rule:nonzero;"/></g></g><path d="M4327.78,2863.14l-2954.91,-0c-21.329,-0 -38.625,-17.292 -38.625,-38.629c0,-21.33 17.296,-38.626 38.625,-38.626l2954.91,0c21.333,0 38.625,17.296 38.625,38.626c0,21.337 -17.292,38.629 -38.625,38.629Z" style="fill:#2e5b9a;fill-rule:nonzero;"/><path d="M1494.49,1114.37l-112.437,332.992c-0,-0 123.25,334.079 227.041,259.479c35.434,-25.471 -12.975,-227.042 -12.975,-227.042l75.679,-270.287l-177.308,-95.142Z" style="fill:#f09959;fill-rule:nonzero;"/><path d="M1135.55,1629c-155.267,17.25 -168.659,227.038 -240.013,577.334c-71.358,350.291 -49.912,581.504 -16.217,625.983c81.084,107.033 992.492,-265.963 1106.02,-262.721c78.346,2.242 12.971,-129.733 12.971,-129.733l-869.246,132.979c0,-0 123.254,-405.433 123.254,-613.008c0,-207.584 -58.383,-337.325 -116.766,-330.834Z" style="fill:#f09959;fill-rule:nonzero;"/><path d="M1943.17,2446.35c90.817,-22.704 223.796,-74.6 249.742,-51.896c25.95,22.704 132.983,184.879 168.663,230.288c35.675,45.408 -16.217,9.729 -55.138,-25.95c-38.921,-35.675 -71.358,-55.138 -71.358,-55.138c-0,0 -48.65,45.409 -94.059,71.358c-45.408,25.947 -61.625,-25.949 -139.466,-38.924c-77.846,-12.971 -272.45,55.142 -272.45,55.142l214.066,-184.88Z" style="fill:#f09959;fill-rule:nonzero;"/><path d="M1152.85,1603.05c-95.142,4.326 -168.659,84.329 -194.605,207.58c-25.95,123.25 -101.633,514.629 -101.633,514.629c0,-0 -15.133,10.812 142.713,38.92c157.85,28.113 287.587,-4.324 287.587,-4.324c0,-0 32.433,-222.717 23.783,-376.238c-8.645,-153.525 -43.25,-298.4 -99.462,-348.133c-56.221,-49.734 -58.383,-32.434 -58.383,-32.434Z" style="fill:#75a1de;fill-rule:nonzero;"/><path d="M1596.12,1479.8l75.679,-270.287l-177.308,-95.142l-27.083,80.208c-5.892,268.526 62.892,358.334 109.25,391.171c14.479,10.255 26.929,2.329 37.367,-14.416c-7.617,-48.684 -17.905,-91.534 -17.905,-91.534Z" style="fill:#e38540;fill-rule:nonzero;"/><path d="M1956.14,1145.73c0,144.663 -17.266,322.038 -142.712,317.859c-194.608,-6.488 -317.238,-157.763 -317.238,-302.425c0,-144.663 101.75,-261.938 227.267,-261.938c125.513,0 232.683,101.842 232.683,246.504Z" style="fill:#f09959;fill-rule:nonzero;"/><path d="M3408.45,2785.76l-729.53,-0l300.08,-660.171c8.758,-19.267 27.962,-31.634 49.129,-31.634l662.071,0c15.333,0 25.5,15.838 19.166,29.788l-300.916,662.017Z" style="fill:#9bd6e8;fill-rule:nonzero;"/><path d="M3406.86,2785.76l-1345.85,-0c0,-46.892 38.013,-84.905 84.9,-84.905l1260.95,0l0,84.905Z" style="fill:#9bd6e8;fill-rule:nonzero;"/><path d="M3690.2,2093.96l-583.459,0c-21.162,0 -40.371,12.367 -49.129,31.634l-300.075,660.171l650.913,-0l300.916,-662.017c6.334,-13.95 -3.833,-29.788 -19.166,-29.788Z" style="fill:#7bcee8;fill-rule:nonzero;"/><path d="M1742.07,848.952c137.85,-9.733 219.475,116.221 243.262,226.501c17.158,79.566 8.646,95.141 8.646,95.141c-0,0 -15.138,21.621 -123.25,28.108c-108.117,6.488 -121.088,4.325 -121.088,4.325l-6.487,-125.412l-32.438,121.087c0,0 -17.296,23.788 -84.325,-8.65c-67.033,-32.433 -97.308,-140.545 -97.308,-140.545c0,-0 -15.133,-71.359 36.763,-118.93c51.891,-47.566 176.225,-81.625 176.225,-81.625Z" style="fill:#303c60;fill-rule:nonzero;"/><path d="M523.622,1757.25l-0.48,-0.02c-2.75,-0.263 -4.762,-2.705 -4.5,-5.454c5.68,-59.468 35.4,-120.592 83.688,-172.122c54.596,-58.262 132.296,-104.166 224.696,-132.741c205.891,-63.675 385.504,-144.646 498.371,-491.934c0.854,-2.625 3.675,-4.062 6.304,-3.212c2.625,0.854 4.062,3.675 3.208,6.3c-51.871,159.612 -122.479,275.817 -215.85,355.258c-82.354,70.067 -175.125,107.896 -289.079,143.142c-90.742,28.063 -166.942,73.025 -220.354,130.025c-46.784,49.925 -75.559,108.958 -81.029,166.233c-0.25,2.588 -2.425,4.525 -4.975,4.525Z" style="fill:#303c60;fill-rule:nonzero;"/><path d="M616.601,1517.24c-1.492,-0 -2.971,-0.667 -3.954,-1.938c-1.696,-2.183 -1.296,-5.321 0.887,-7.013c0.875,-0.679 88.85,-68.045 216.054,-96.075c244.213,-53.808 408.167,-200.654 474.146,-424.662c0.783,-2.65 3.554,-4.158 6.208,-3.383c2.65,0.779 4.167,3.558 3.388,6.208c-40.758,138.388 -117.438,247.6 -227.9,324.6c-71.133,49.588 -156.488,85.588 -253.692,107.004c-124.908,27.525 -211.225,93.55 -212.079,94.213c-0.908,0.704 -1.992,1.046 -3.058,1.046Z" style="fill:#303c60;fill-rule:nonzero;"/><path d="M3747.7,1445.44l-658.709,0c-6.175,0 -9.358,-5.004 -7.112,-11.18l133.608,-367.091c2.25,-6.171 9.075,-11.175 15.25,-11.175l658.712,0c6.167,0 9.334,5.004 7.084,11.175l-133.584,367.091c-2.249,6.176 -9.083,11.18 -15.249,11.18Z" style="fill:#9ec8ff;fill-rule:nonzero;"/><path d="M3739.74,1428.29l-630.312,-0c-5.767,-0 -8.738,-4.675 -6.642,-10.438l121.662,-334.263c2.101,-5.766 8.476,-10.441 14.242,-10.441l630.3,-0c5.75,-0 8.75,4.675 6.625,10.441l-121.625,334.263c-2.125,5.763 -8.5,10.438 -14.25,10.438Z" style="fill:#fff;fill-rule:nonzero;"/><path d="M3728.36,1406.52l-591.725,-0c-6.479,-0 -9.825,-5.254 -7.466,-11.738l104.874,-288.133c2.359,-6.479 9.526,-11.737 16.009,-11.737l591.725,-0c6.458,-0 9.833,5.258 7.458,11.737l-104.875,288.133c-2.333,6.484 -9.542,11.738 -16,11.738Z" style="fill:#9ec8ff;fill-rule:nonzero;"/><path d="M3597.32,1250.71c-21.75,59.712 -87.749,108.117 -147.462,108.117c-59.704,-0 -90.496,-48.405 -68.787,-108.117c21.75,-59.713 87.791,-108.117 147.499,-108.117c59.709,0 90.501,48.404 68.75,108.117Z" style="fill:#fff;fill-rule:nonzero;"/><path d="M3582.32,1250.71c-18.75,51.417 -75.583,93.095 -126.999,93.095c-51.417,0 -77.917,-41.678 -59.209,-93.095c18.709,-51.412 75.584,-93.096 127,-93.096c51.375,0 77.917,41.684 59.208,93.096Z" style="fill:#9ec8ff;fill-rule:nonzero;"/><path d="M3536.91,1245.74l-41.167,19.65l-41.212,19.646l14.337,-39.296l14.292,-39.296l26.875,19.65l26.875,19.646Z" style="fill:#fff;fill-rule:nonzero;"/><path d="M2738.81,922.198c-11.821,0 -26.037,10.567 -30.421,22.613l-18.887,51.896c-1.788,4.912 -1.696,9.333 0.258,12.116c2.113,3.021 6.013,3.655 8.913,3.655l51.895,-0c12.025,-0 25.959,-10.359 30.417,-22.613l18.888,-51.896c1.791,-4.917 1.695,-9.333 -0.254,-12.121c-2.113,-3.016 -6.013,-3.65 -8.913,-3.65l-51.896,0Zm11.758,110.279l-51.895,0c-10.654,0 -19.875,-4.437 -25.296,-12.179c-5.75,-8.208 -6.721,-19.3 -2.667,-30.433l18.888,-51.896c7.3,-20.058 28.916,-35.771 49.212,-35.771l51.896,0c10.658,0 19.879,4.437 25.296,12.179c5.746,8.208 6.717,19.301 2.662,30.434l-18.887,51.896c-7.3,20.058 -28.917,35.77 -49.209,35.77Z" style="fill:#9cd499;fill-rule:nonzero;"/><path d="M2658.54,1142.75c-11.821,0 -26.037,10.567 -30.421,22.613l-18.887,51.896c-1.788,4.912 -1.696,9.329 0.258,12.121c2.108,3.016 6.013,3.646 8.913,3.646l51.896,-0c12.024,-0 25.958,-10.351 30.416,-22.609l18.892,-51.896c1.787,-4.916 1.691,-9.333 -0.259,-12.121c-2.112,-3.016 -6.012,-3.65 -8.916,-3.65l-51.892,0Zm11.759,110.279l-51.896,0c-10.659,0 -19.875,-4.441 -25.296,-12.179c-5.75,-8.208 -6.721,-19.3 -2.667,-30.433l18.888,-51.896c7.3,-20.058 28.916,-35.771 49.212,-35.771l51.892,0c10.662,0 19.879,4.442 25.3,12.179c5.75,8.209 6.716,19.301 2.662,30.434l-18.887,51.896c-7.3,20.058 -28.913,35.77 -49.208,35.77Z" style="fill:#9cd499;fill-rule:nonzero;"/><path d="M2578.26,1363.31c-12.029,-0 -25.958,10.35 -30.421,22.608l-18.887,51.892c-1.788,4.917 -1.692,9.337 0.258,12.125c2.113,3.016 6.013,3.65 8.913,3.65l51.896,-0c12.025,-0 25.958,-10.354 30.416,-22.613l18.892,-51.891c1.787,-4.917 1.692,-9.338 -0.263,-12.126c-2.108,-3.016 -6.008,-3.645 -8.908,-3.645l-51.896,-0Zm11.759,110.275l-51.896,-0c-10.659,-0 -19.879,-4.442 -25.296,-12.18c-5.75,-8.208 -6.721,-19.299 -2.667,-30.433l18.888,-51.891c7.3,-20.063 28.916,-35.776 49.212,-35.776l51.896,0c10.654,0 19.875,4.442 25.296,12.179c5.746,8.209 6.716,19.301 2.667,30.434l-18.888,51.892c-7.3,20.062 -28.917,35.775 -49.212,35.775Z" style="fill:#9ec8ff;fill-rule:nonzero;"/><path d="M3177.54,990.044l-285.425,0c-5.35,0 -8.137,-4.379 -6.187,-9.734c1.946,-5.349 7.92,-9.729 13.27,-9.729l285.425,0c5.35,0 8.134,4.38 6.188,9.729c-1.95,5.355 -7.921,9.734 -13.271,9.734Z" style="fill:#9ec8ff;fill-rule:nonzero;"/><path d="M3163.37,1028.96l-285.425,-0c-5.35,-0 -8.138,-4.375 -6.188,-9.729c1.946,-5.351 7.921,-9.729 13.271,-9.729l285.425,-0c5.35,-0 8.133,4.378 6.187,9.729c-1.945,5.354 -7.92,9.729 -13.27,9.729Z" style="fill:#9ec8ff;fill-rule:nonzero;"/><path d="M3103.16,1194.38l-285.425,-0c-5.35,-0 -8.133,-4.38 -6.187,-9.734c1.95,-5.354 7.921,-9.729 13.275,-9.729l285.421,0c5.354,0 8.137,4.375 6.191,9.729c-1.95,5.354 -7.925,9.734 -13.275,9.734Z" style="fill:#9ec8ff;fill-rule:nonzero;"/><path d="M3089,1233.3l-285.424,0c-5.35,0 -8.134,-4.375 -6.184,-9.729c1.946,-5.35 7.917,-9.729 13.271,-9.729l285.425,-0c5.35,-0 8.133,4.379 6.183,9.729c-1.945,5.354 -7.916,9.729 -13.271,9.729Z" style="fill:#9ec8ff;fill-rule:nonzero;"/><path d="M3020.53,1421.42l-285.425,0c-5.354,0 -8.138,-4.375 -6.192,-9.729c1.95,-5.35 7.921,-9.729 13.275,-9.729l285.421,-0c5.354,-0 8.142,4.379 6.192,9.729c-1.95,5.354 -7.921,9.729 -13.271,9.729Z" style="fill:#9ec8ff;fill-rule:nonzero;"/><path d="M3006.36,1460.34l-285.425,-0c-5.35,-0 -8.137,-4.38 -6.187,-9.729c1.945,-5.355 7.921,-9.73 13.271,-9.73l285.425,0c5.35,0 8.133,4.375 6.187,9.73c-1.95,5.349 -7.921,9.729 -13.271,9.729Z" style="fill:#9ec8ff;fill-rule:nonzero;"/><path d="M2738.49,1003.29c-0.879,-0 -1.762,-0.117 -2.629,-0.35c-3.021,-0.825 -5.479,-3.013 -6.65,-5.917l-19.587,-48.65c-2.067,-5.125 0.416,-10.95 5.537,-13.012c5.121,-2.063 10.95,0.42 13.013,5.541l14.662,36.409l115.779,-89.246c4.371,-3.367 10.655,-2.558 14.025,1.816c3.375,4.375 2.559,10.654 -1.812,14.025l-126.233,97.304c-1.771,1.363 -3.921,2.08 -6.105,2.08Z" style="fill:#f37168;fill-rule:nonzero;"/><path d="M2658.22,1223.84c-0.879,-0 -1.762,-0.113 -2.629,-0.35c-3.017,-0.821 -5.479,-3.013 -6.646,-5.917l-19.595,-48.65c-2.063,-5.125 0.42,-10.95 5.541,-13.012c5.125,-2.063 10.95,0.42 13.013,5.541l14.662,36.409l115.779,-89.246c4.375,-3.367 10.654,-2.558 14.025,1.816c3.375,4.371 2.559,10.65 -1.816,14.026l-126.23,97.303c-1.77,1.363 -3.92,2.08 -6.104,2.08Z" style="fill:#f37168;fill-rule:nonzero;"/><path d="M4545.49,733.806l-1096.29,0l28.333,-77.841l1096.29,0l-28.333,77.841Z" style="fill:#9ec8ff;fill-rule:nonzero;"/><path d="M4502.99,850.573l-1096.3,0l28.338,-77.842l1096.29,0l-28.334,77.842Z" style="fill:#9ec8ff;fill-rule:nonzero;"/><path d="M3287.82,1784.02l-805.034,-0c-10.521,-0 -15.992,-8.604 -12.166,-19.125c3.829,-10.521 15.57,-19.125 26.087,-19.125l805.029,0c10.542,0 16,8.604 12.167,19.125c-3.833,10.521 -15.542,19.125 -26.083,19.125Z" style="fill:#9ec8ff;fill-rule:nonzero;"/><path d="M3256.9,1869.02l-805.046,-0c-10.521,-0 -15.996,-8.605 -12.167,-19.125c3.829,-10.517 15.571,-19.125 26.088,-19.125l805.049,-0c10.501,-0 16.001,8.608 12.167,19.125c-3.833,10.52 -15.583,19.125 -26.091,19.125Z" style="fill:#9ec8ff;fill-rule:nonzero;"/><path d="M4010.53,2587.75c-0,-13.508 162.667,-463.15 52.667,-752.604c-77,-202.679 -89.167,-445.892 -89.167,-445.892c-0,0 -149.958,214.838 -48.625,543.175c62.375,202.088 87.833,258.075 93.208,317.525c5.417,59.454 -24.292,356.713 -24.292,356.713l16.209,-18.917Z" style="fill:#9cd499;fill-rule:nonzero;"/><path d="M3970.07,1405.14c-12.334,21.246 -36.251,67.75 -53.625,134.304c-22.417,85.729 -38.209,223.246 13.708,391.504c21.083,68.275 37.792,119.442 51.25,160.558c26.5,81.075 38.583,118.075 42.208,157.992c4.709,52.013 -16.666,278.996 -22.791,341.863l4.958,-5.763c0.583,-2.975 2.333,-8.904 6.75,-23.766c93.958,-314.088 109.458,-557.984 46,-724.917c-65.25,-171.704 -84.209,-374.625 -88.458,-431.775Zm24.249,1206.52c-0.666,-0 -1.333,-0.129 -1.999,-0.4c-2,-0.859 -3.209,-2.921 -3,-5.096c0.291,-2.967 29.625,-297.458 24.333,-355.763c-3.542,-38.791 -15.5,-75.454 -41.75,-155.791c-13.458,-41.146 -30.209,-92.358 -51.292,-160.713c-52.708,-170.733 -36.541,-310.375 -13.75,-397.458c24.792,-94.525 61.542,-147.833 63.084,-150.054c1.208,-1.754 3.416,-2.533 5.458,-1.946c2.083,0.592 3.5,2.425 3.625,4.558c0.125,2.425 13,244.784 88.875,444.363c41.125,108.246 49.375,250.983 24.542,424.254c-19.834,138.342 -55.209,256.587 -70.334,307.079c-3.417,11.508 -6.416,21.446 -6.583,23.275c-0,1.196 -0.417,2.125 -1.208,3.029l-16.209,18.921c-1,1.129 -2.375,1.742 -3.792,1.742Z" style="fill:#74b570;fill-rule:nonzero;"/><path d="M4045.66,2633.69c-24.334,-499.938 94.583,-772.875 337.792,-989.063c243.208,-216.191 253.999,-272.941 253.999,-272.941c0,-0 -37.833,421.571 -178.333,567.495c-140.541,145.93 -345.916,254.026 -375.625,329.688c-29.75,75.667 -18.917,329.687 -18.917,329.687l-18.916,45.942l0,-10.808Z" style="fill:#9cd499;fill-rule:nonzero;"/><path d="M4015.91,2676.93c-2.667,-8.108 51.375,-467.508 248.625,-494.529c197.291,-27.025 243.208,18.917 378.333,-2.704c96.417,-15.425 170.25,-45.942 170.25,-45.942c0,0 -51.167,130.254 -227,183.763c-124.292,37.833 -286.458,-24.325 -381.042,-8.109c-94.583,16.217 -143.208,218.892 -143.208,218.892l-16.208,105.392l-29.75,43.237Z" style="fill:#9cd499;fill-rule:nonzero;"/><path d="M4042.95,2608.97c-2.542,-0 -4.75,-1.946 -4.959,-4.542c-0.333,-3.229 -28.291,-325.975 108.667,-573.079c70.792,-127.646 148.041,-201.616 222.75,-273.154c69.625,-66.642 135.375,-129.592 185.208,-229.3c1.25,-2.471 4.25,-3.463 6.708,-2.234c2.501,1.234 3.501,4.238 2.25,6.705c-50.625,101.262 -116.999,164.792 -187.249,232.05c-74.167,71.025 -150.876,144.462 -220.917,270.779c-135.458,244.363 -107.792,564.113 -107.5,567.312c0.292,2.75 -1.75,5.188 -4.5,5.442l-0.458,0.021Z" style="fill:#74b570;fill-rule:nonzero;"/><path d="M4029.45,2544.11c-0.459,0 -0.959,-0.066 -1.417,-0.203c-2.625,-0.767 -4.167,-3.542 -3.417,-6.192c51.75,-178.3 111.125,-282.325 186.833,-327.375c67.709,-40.283 137.709,-27.921 211.792,-14.829c18.125,3.204 36.875,6.516 55.458,8.95c160.959,21.116 239.5,-18.004 240.251,-18.405c2.458,-1.254 5.458,-0.291 6.75,2.159c1.249,2.45 0.291,5.462 -2.167,6.729c-3.25,1.687 -81.625,41.013 -246.167,19.433c-18.75,-2.462 -37.625,-5.796 -55.875,-9.02c-72.208,-12.759 -140.375,-24.809 -204.917,13.574c-73.416,43.68 -131.374,145.859 -182.333,321.567c-0.625,2.188 -2.625,3.612 -4.791,3.612Z" style="fill:#74b570;fill-rule:nonzero;"/><path d="M4287.53,1850.95c-1.5,-0 -3,-0.671 -3.958,-1.951c-1.709,-2.183 -1.292,-5.32 0.875,-7.008c0.958,-0.737 97.083,-73.992 230.458,-99.591c2.708,-0.513 5.333,1.258 5.875,3.97c0.5,2.708 -1.25,5.329 -3.958,5.85c-131.084,25.158 -225.334,96.967 -226.251,97.688c-0.916,0.7 -2,1.042 -3.041,1.042Z" style="fill:#74b570;fill-rule:nonzero;"/><path d="M4134.82,2068.49c-0.874,0 -1.749,-0.229 -2.541,-0.7c-2.375,-1.408 -3.167,-4.479 -1.75,-6.854c70.375,-118.667 152.791,-148.571 332.5,-204.896c2.625,-0.833 5.417,0.642 6.25,3.275c0.833,2.633 -0.625,5.442 -3.25,6.267c-177.208,55.533 -258.417,84.949 -326.917,200.458c-0.916,1.575 -2.583,2.45 -4.292,2.45Z" style="fill:#74b570;fill-rule:nonzero;"/><path d="M4091.11,2799.89l-120.666,0c-42.625,0 -79.209,-30.27 -87.209,-72.12l-38.917,-203.521l372.917,0l-38.916,203.521c-8.001,41.85 -44.584,72.12 -87.209,72.12Z" style="fill:#f39892;fill-rule:nonzero;"/><path d="M4207.78,2576.13l-351.292,-0c-5.542,-0 -10,-4.48 -10,-10.001c0,-5.52 4.458,-10 10,-10l351.292,0c5.542,0 10,4.48 10,10c-0,5.521 -4.458,10.001 -10,10.001Z" style="fill:#d54a41;fill-rule:nonzero;"/></svg>