<?xml version="1.0" encoding="UTF-8" standalone="no"?><!DOCTYPE svg PUBLIC "-//W3C//DTD SVG 1.1//EN" "http://www.w3.org/Graphics/SVG/1.1/DTD/svg11.dtd"><svg width="100%" height="100%" viewBox="0 0 8109 7542" version="1.1" xmlns="http://www.w3.org/2000/svg" xmlns:xlink="http://www.w3.org/1999/xlink" xml:space="preserve" xmlns:serif="http://www.serif.com/" style="fill-rule:evenodd;clip-rule:evenodd;stroke-linejoin:round;stroke-miterlimit:2;"><path d="M7853.21,1935.08c-169,137.367 -409.125,289.833 -606.875,355.471l293.792,55.321l-1213.58,1431.04l-2418.83,696.138l-2862.45,3052.67l2254.84,-0.791l1148.91,-1844.58l2301.83,-1367.58l894,-1905.1l190.417,230.534c-38.084,-204.855 -20.625,-488.751 17.958,-703.113Z" style="fill:#f7cc7f;fill-rule:nonzero;"/><path d="M658.687,5166.75c0,0 -131.099,-235 -162.995,-284.958c-31.896,-49.917 -114.984,-248.417 -117.955,-256.25c-2.966,-7.834 57.221,-101.75 43.788,-104.959c-13.438,-3.25 -28.304,49.5 -42.638,43.209c-14.333,-6.292 -56.204,-133.292 -64.374,-126.959c-15.284,11.75 22.57,78.75 14.425,82.959c-8.151,4.208 -32.83,-73.667 -48.83,-71.375c-16,2.291 30.43,71.375 25.955,77.5c-4.476,6.083 -52.675,-59 -61.396,-45.125c-4.738,7.541 44.316,56.833 34.896,61.458c-9.421,4.625 -53.059,-27.208 -57.68,-18.042c-4.62,9.167 40.359,21.75 53.809,46.5c13.446,24.75 36.35,35.417 45.862,81.25c9.517,45.834 23.729,211.625 72.454,294.375c48.721,82.709 155.871,265.834 155.871,265.834l108.808,-45.417Z" style="fill:#f79c8d;fill-rule:nonzero;"/><path d="M622.4,5090.58c0,0 145.017,156.292 166.575,219.292c21.562,63 -21.012,153.083 -79.812,157.042c-58.8,3.916 -189.65,-277.417 -189.65,-277.417l102.887,-98.917Z" style="fill:#355389;fill-rule:nonzero;"/><path d="M1305.48,6222.12c-10.554,-8.833 -23.313,-4.833 -59.95,-21.792c-7.1,-3.291 -25.754,-8.5 -34.112,-10.166c-1.567,-0.334 -2.809,-1.5 -3.217,-3.042c-11.138,-42.167 -59.921,-236.958 -65.275,-293.125c-5.475,-57.458 -42.525,-301 -48.175,-338.042c-0.388,-2.5 -2.888,-4.125 -5.342,-3.416l-106.446,29.666c-2.179,0.625 -3.504,2.834 -3.004,5.042c6.575,29 47.488,211.292 59.504,303.542c9.584,73.541 119.138,309.458 121.334,324.541l0.062,0.417c0.663,4.542 4.55,7.917 9.138,7.917c27.029,-0 113.679,-0.042 118.62,-0c4.509,0.041 20.163,1.208 16.863,-1.542Z" style="fill:#f48c7f;fill-rule:nonzero;"/><path d="M1068.46,5450.88c-56.641,-171.833 -119.983,-164.5 -119.983,-164.5l48.983,361.208c34.98,-9.541 80.521,-30.833 115.463,-40.708c-11.587,-54.333 -30.513,-113.708 -44.463,-156Z" style="fill:#13375b;fill-rule:nonzero;"/><path d="M1050.88,5004.08c-17.337,-113 -119.571,-194.25 -226.492,-139.416c-24.046,12.291 -56.604,37.333 -73.212,58.666c-44.9,57.625 -56.384,128.792 -102.767,184.75c17.038,12.917 37.642,26.459 62.179,39.5l28.88,-38.5l-9.942,48.042c71.779,34.333 173.154,62.667 311.804,61.875c17.425,-78.5 18.796,-154.667 9.55,-214.917Z" style="fill:#f7cc7f;fill-rule:nonzero;"/><path d="M1084.21,7508.96c-16.321,-12 -29.487,-19.958 -81.608,-45.25c-3.4,-1.625 -15.779,-9.541 -20.242,-12.25c-11.316,-6.916 -22.683,-17.833 -32.466,-28.75c-9.342,-10.416 -13.796,-43.833 -15.896,-70.458c5.362,-59.5 91.558,-1013.5 109.737,-1116.79c18.767,-106.583 -9.816,-269.208 -9.816,-269.208l-66.542,-25.083l-126.317,437.791l9.959,333.292c-0,0 -29.705,96.042 -33.455,153.458c-3.758,57.417 42.938,523.375 42.938,523.375l0.004,0c0,16.667 -0.654,31.709 -2.508,41.125c-3.425,17.417 -22.517,53.292 -13.763,69.709c8.759,16.416 18.771,20.5 18.771,20.5l226.979,3.666c12.363,0.209 4.196,-7.75 -5.775,-15.125Z" style="fill:#f48c7f;fill-rule:nonzero;"/><path d="M739.717,5932.04c-0,-0 -78.817,118.916 -97.584,217.333c-18.771,98.375 13.771,400.792 -22.329,529.75c-19.542,69.833 -93.608,177.625 -104.871,267.833c-11.258,90.209 -50.437,350.542 -50.437,350.542l0.004,-0c-5.925,27.333 -15.212,61.167 -27.262,76.875c-7.384,9.625 -20.855,21.792 -29.7,39.167c-13.771,27.083 -6.159,67.375 3.999,89.541c5.213,11.375 -0.37,11.375 11.505,15.042c35.154,10.875 72.554,-7.458 87.521,-41.208c8.362,-18.834 15.7,-44 17.17,-75.667c1.563,-33.583 6.817,-60.292 12.417,-80l251.942,-618.042l182.396,-533.375l46.725,-274.708l-281.496,36.917Z" style="fill:#f79c8d;fill-rule:nonzero;"/><path d="M517.379,7459.17c-54.529,10 -90.812,-22 -109.691,-45.917c-13.859,27.125 -20.621,67.583 -10.425,89.833c8.979,19.625 35.216,19.042 55.879,19.834c21.846,0.791 38.746,-11.334 49.583,-30.417c5.062,-8.917 10.283,-20 14.654,-33.333Z" style="fill:#86b1f2;fill-rule:nonzero;"/><path d="M982.329,7451.42c-60.029,15.458 -104.404,4.958 -129.225,-5.084c-6.404,18.209 -14.892,41 -10.387,54.167c5.508,16.083 13.358,19.75 20.287,19.917c54.829,1.458 200.846,3.416 242.654,3.958c5.838,0.083 9.059,-6.75 5.305,-11.25c-10.367,-12.417 -124.163,-58.958 -128.634,-61.708Z" style="fill:#86b1f2;fill-rule:nonzero;"/><path d="M790.829,6704.42c4.713,0.333 9.454,0.625 14.221,0.916l0.738,0.042c4.674,0.292 9.37,0.542 14.087,0.792l0.854,0.041c4.717,0.25 9.454,0.5 14.192,0.709l0.729,-0c4.825,0.208 9.658,0.416 14.487,0.541c53.805,1.792 120.263,1.084 162.9,-6.166c21.742,-217.625 29.838,-416.209 37.888,-460.167c19.512,-106.625 -17.008,-274.875 -17.008,-274.875l-17.434,-3.125l11.021,-62.333l-292.729,36.916c0,0 -81.963,118.917 -101.479,217.292c-19.517,98.417 14.325,400.833 -23.217,529.792c0,-0 83.571,13.041 180.75,19.625Z" style="fill:#f7cc7f;fill-rule:nonzero;"/><path d="M803.525,5255.5c0,0 -104.362,-6.667 -145.646,38.458c-41.287,45.084 91.584,401.875 99.092,459.292c7.508,57.375 -38.271,210.042 -38.271,210.042c0,-0 245.154,49.416 315.217,2.958c-0,-0 7.508,-412.792 -0,-453.792c-7.509,-41 -70.063,-207.75 -85.079,-224.166c-15.013,-16.375 -145.313,-32.792 -145.313,-32.792Z" style="fill:#355389;fill-rule:nonzero;"/><path d="M838.267,5115.75c-0,0 -0.542,3.083 -1.513,8.333c-4.65,25.125 -22.571,108.542 -34.675,131.5c-14.629,27.709 50.079,116.084 112.358,105.292c18.542,-3.208 -15.666,-81.208 -14.025,-89.458c3.146,-15.834 7.417,-37.417 11.784,-59.542c2.462,-12.458 4.958,-25.125 7.3,-37c6.662,-33.833 12.096,-61.458 12.096,-61.458l-93.325,2.333Z" style="fill:#f7a491;fill-rule:nonzero;"/><path d="M836.754,5124.08c0.971,-5.25 1.513,-8.333 1.513,-8.333l93.325,-2.333c-0,-0 -5.434,27.625 -12.096,61.458c-2.329,11.792 -4.809,24.375 -7.258,36.792c-14.409,-2.125 -29.467,-9.125 -44.563,-22.375c-16.458,-14.459 -27.242,-31.792 -33.75,-50.334c1.15,-5.875 2.108,-11 2.829,-14.875Z" style="fill:#f47458;fill-rule:nonzero;"/><path d="M901.079,4903.12c0,0 -43.987,-5.083 -71.562,30.667c-27.575,35.75 -57.292,146.25 11.204,206.375c68.496,60.083 136.175,-7.959 146.208,-80.084c10.033,-72.125 13.934,-159.541 -85.85,-156.958Z" style="fill:#f7a491;fill-rule:nonzero;"/><path d="M1007.19,5059.04c-8.175,15.916 -21.9,24.75 -30.65,19.708c-8.754,-5.042 -9.225,-22.083 -1.046,-38c8.175,-15.917 21.9,-24.75 30.65,-19.708c8.754,5.041 9.221,22.083 1.046,38Z" style="fill:#f7a491;fill-rule:nonzero;"/><path d="M905.996,4891.33c-0,0 -58.767,105.084 -100.804,109.959c-42.042,4.833 -47.563,60.708 -47.563,60.708c0,0 15.029,-128.708 56.65,-153.542c41.621,-24.791 91.717,-17.125 91.717,-17.125Z" style="fill:#f7cc7f;fill-rule:nonzero;"/><path d="M816.217,5027.71c3.416,18.667 -3.459,35.792 -15.363,38.209c-11.9,2.458 -24.321,-10.667 -27.737,-29.334c-3.421,-18.666 3.454,-35.791 15.358,-38.25c11.9,-2.458 24.321,10.709 27.742,29.375Z" style="fill:#f7a491;fill-rule:nonzero;"/><path d="M867.996,5095.5l63.596,12.5c-0,-0 -6.217,23.875 -34.342,19.167c-34.296,-5.709 -29.254,-31.667 -29.254,-31.667Z" style="fill:#fff;fill-rule:nonzero;"/><path d="M6106.83,7532.12l26.084,-4.917l-112.667,-597.625l-26.083,4.959l112.666,597.583Z" style="fill:#3c8f7c;fill-rule:nonzero;"/><path d="M4900.62,7534.83l-31.333,0l116.875,-605.25l26.042,4.959l-111.584,600.291Z" style="fill:#3c8f7c;fill-rule:nonzero;"/><path d="M5816.25,7534.83l-31.333,0l116.875,-605.25l26.042,4.959l-111.584,600.291Z" style="fill:#3c8f7c;fill-rule:nonzero;"/><path d="M5186.42,7534.83l25.458,0.334l-112.084,-602.875l-26.041,4.958l112.667,597.583Z" style="fill:#184655;fill-rule:nonzero;"/><path d="M5637.71,5617.88c139.208,14.917 319.374,30.625 500.249,337.583c197.667,335.459 93.625,836.542 -62.416,975.792c-156.001,139.25 -665.584,311.167 -1093.96,53.75c0,-0 -258.625,-155.958 -125.875,-414.833c204.25,-398.375 175.417,-481.459 266.75,-637.584c91.334,-156.125 219.75,-346.333 515.251,-314.708Z" style="fill:#f47458;fill-rule:nonzero;"/><path d="M6137.96,5955.46c-123.458,-209.5 -246.583,-283.333 -356.541,-313.833c42.541,44.042 85.666,100.667 128.833,173.958c197.667,335.459 93.625,836.542 -62.417,975.792c-138.333,123.458 -554.75,272.625 -946,125.292c40.25,44.5 79.75,68.333 79.75,68.333c428.375,257.417 937.958,85.5 1093.96,-53.75c156.041,-139.25 260.083,-640.333 62.416,-975.792Z" style="fill:#b75742;fill-rule:nonzero;"/><path d="M5190.75,6127.75l-35.792,107.375l109.084,-42.917l-73.292,-64.458Z" style="fill:#f79c8d;fill-rule:nonzero;"/><path d="M5303.17,5808.29c-7.25,0.333 -27.167,6.958 -56.334,61.833c-37.167,70.083 -91.541,281.75 -91.541,281.75l162.291,60.208l20.834,-44.166l34.333,-340.125c-0,-0 -67.542,-19.584 -69.583,-19.5Z" style="fill:#6394db;fill-rule:nonzero;"/><path d="M5517.71,5777.79c-46.416,0.083 -161.249,13.583 -214.541,30.541c-0,0 -39.125,335.375 35.25,590.209c16.666,57.041 -13.75,236.5 -13.75,236.5l480.874,-6.334c0,0 -56.958,-433.791 -35.499,-503.875c21.458,-70.041 22,-314.25 22,-314.25c-0,0 -3.334,-0.5 -108.084,-18.541c-48.833,-8.417 -116.708,-14.292 -166.25,-14.25Z" style="fill:#86b1f2;fill-rule:nonzero;"/><path d="M5573.75,7257.5c-0,0 -10.625,122.375 -30.209,156.292c-19.541,33.875 1.042,91.5 2.084,99.416c1,7.875 41.166,19.209 105,12.417c63.833,-6.792 62.792,-21.458 57.667,-45.208c-5.167,-23.709 -39.125,-54.209 -41.209,-76.792c-2.041,-22.583 19.584,-103.917 19.584,-103.917l-112.917,-42.208Z" style="fill:#f7a491;fill-rule:nonzero;"/><path d="M5378.92,6534.04c0,-0 -331.999,-18.375 -406.124,26.375c-74.125,44.708 13.416,136.625 13.416,136.625c0,-0 270.251,117.083 722.709,143.125c107.166,6.166 116.374,-278.417 96.375,-302c-20.042,-23.542 -426.376,-4.125 -426.376,-4.125Z" style="fill:#e5b05c;fill-rule:nonzero;"/><path d="M5658.58,7535.12c65.749,-7 57.583,-39.167 52.291,-63.583c-3.292,-15.292 -22.167,-33.334 -33.417,-50.375c-5.874,4.666 -15.416,12.875 -43.958,21.291c-29.666,8.709 -70.291,-8.541 -96.167,-19.375c-9.25,34.25 -9.666,77.875 -8.791,84.5c1.041,8.167 64.333,34.5 130.042,27.542Z" style="fill:#f47458;fill-rule:nonzero;"/><path d="M5622.29,6770.71c-13.25,100.042 -78.917,597.959 -78.917,597.959l152.375,18.833c-0,0 187.375,-649.917 177.75,-749.333c-9.583,-99.417 -79.75,-107.75 -79.75,-107.75c0,-0 -136.333,-24.459 -171.458,240.291Z" style="fill:#f7cc7f;fill-rule:nonzero;"/><path d="M5797.25,5847.88c-44.958,-16.833 -66.958,386.958 -73,553.125c-79.625,7.625 -218.417,0.042 -253,-2.542c-16.25,-1.208 -53.708,-14.875 -69.875,-17c-16.583,-2.166 -31.583,-3.291 -39.708,-1.875c-3.001,0.542 -86,34.375 -93.084,41.792c-8.833,9.167 -32.625,32.375 -28.625,42.417c4.042,10.041 45.792,-27.959 45.792,-27.959l20.417,-11.416c-25.417,24.75 -73.875,57.333 -66.917,69.208c6.834,11.542 50.542,-21.5 81.708,-44.042c-26.708,24.042 -59.916,67.084 -52.291,73.834c6.875,6 44.666,-43.834 85,-58.167c14.958,-5.333 29.875,9.417 41.625,11.167c8.666,1.333 22,4.083 30.499,1.708l43.709,-12.375c14.875,1.375 15.25,10.125 30.291,13.333c17.459,3.709 46.084,7.584 68.292,13c128.001,31.167 170.667,45.625 209.875,45.625c118.667,-0.083 125.584,-650.125 19.292,-689.833Z" style="fill:#f7a491;fill-rule:nonzero;"/><path d="M5882.58,6226.92c8.417,-170.209 7.209,-380.042 -88.542,-415.834c-37.791,-14.125 -104.416,70.792 -92.416,419.292c51.125,4.208 126.167,7.583 180.958,-3.458Z" style="fill:#86b1f2;fill-rule:nonzero;"/><path d="M5128.17,7362.21c-0,0 13.291,42.459 -10.5,70.584c-23.792,28.083 -122.709,55.625 -135.708,70.875c-13,15.208 -12.001,28.166 -12.001,28.166l277.626,-7.625l-3.001,-83.583l-12.791,-60.042l-103.625,-18.375Z" style="fill:#f7a491;fill-rule:nonzero;"/><path d="M5100.42,7446.79c-0,-0 71.333,28.75 105.791,11.708c34.459,-17 33.417,-21.708 43.375,-15.375c10.001,6.333 13.542,91.708 13.542,91.708l-312.208,2.125c-21.709,-0.5 -32.709,-16.458 -15.042,-30.083c12.083,-9.375 26.083,-15.625 34.042,-20.208c24.416,-13.917 130.5,-39.875 130.5,-39.875Z" style="fill:#f47458;fill-rule:nonzero;"/><path d="M5138.71,6612.46c-21.458,-45 -70.249,-103.625 -156.125,-68.333c-81.916,33.667 -103.916,116.417 -78.083,201.125c25.875,84.708 196,582.708 201.917,651.167l135.833,0.875c0,-0 -24.708,-394.292 -30.75,-489.625c-5.833,-91.709 -35.667,-217.334 -72.792,-295.209Z" style="fill:#f7cc7f;fill-rule:nonzero;"/><path d="M4918.21,6153.79l454.042,-0c12,-0 22.833,7.25 27.375,18.375l139.833,340.958l250.292,-0c7,-0 12.708,5.667 12.708,12.667c0,7 -5.708,12.666 -12.708,12.666l-712.416,0c-19.584,0 -37.334,-11.5 -45.375,-29.375l-140.792,-313.583c-8.792,-19.583 5.541,-41.708 27.041,-41.708Z" style="fill:#355389;fill-rule:nonzero;"/><path d="M5162.67,6352.33c3.041,15.334 16.416,25.584 29.833,22.875c13.417,-2.666 21.792,-17.25 18.75,-32.583c-3.083,-15.333 -16.458,-25.542 -29.875,-22.875c-13.416,2.667 -21.791,17.292 -18.708,32.583Z" style="fill:#fff;fill-rule:nonzero;"/><path d="M5572.88,5634.04l22.25,146.416c-0,0 -81.167,174.334 -129.583,159.209c-40.625,-12.667 -15.625,-166.917 -15.625,-166.917c-0,0 22.125,-82.875 15.499,-124.333c-6.624,-41.459 107.459,-14.375 107.459,-14.375Z" style="fill:#f7a491;fill-rule:nonzero;"/><path d="M5462.58,5711.75c1.542,-9.958 2.792,-20.208 3.5,-30.042c-0.708,9.834 -1.958,20.084 -3.5,30.042Zm3.5,-30.083c0,-0.167 0,-0.334 0.042,-0.5c-0.042,0.166 -0.042,0.333 -0.042,0.5Zm0.042,-0.625l-0,-0.25l-0,0.25Zm0.042,-0.417l-0,-0.125l-0,0.125Zm-0,-0.292l-0,-0.125l-0,0.125Zm0.041,-0.333l0,-0.042l0,0.042Zm-0.708,-31.042l-0,-0.041l-0,0.041Zm-0.042,-0.25l0,-0.041l0,0.041Zm109.292,-2.541l-1.875,-12.125l1.875,12.125Z" style="fill:#f47458;"/><path d="M5462.58,5711.75c1.542,-9.958 2.792,-20.208 3.5,-30.042l0,-0.041c0,-0.167 0,-0.334 0.042,-0.5l-0,-0.375c-0,-0.042 0.042,-0.125 0.042,-0.167l-0,-0.417c-0,-0.083 -0,-0.125 0.041,-0.208l0,-0.042c0.709,-11.375 0.667,-22.125 -0.708,-31l-0,-0.041c-0.042,-0.084 -0.042,-0.167 -0.042,-0.209l0,-0.041c-0.042,-0.084 -0.042,-0.167 -0.042,-0.25c-0.208,-1.167 -0.291,-2.334 -0.291,-3.417c0.042,-15.208 18.792,-19.625 40.625,-19.625c30.542,0 67.125,8.667 67.125,8.667l1.875,12.125c-3.375,8.125 -7.458,15.083 -12.375,20.416c-25.5,27.417 -65.333,43.917 -99.792,45.167Z" style="fill:#f69a86;fill-rule:nonzero;"/><path d="M5591.62,5426.88c3.208,-1.167 25.833,166.792 -17.083,213c-42.959,46.208 -126.625,61.333 -156.625,24.917c-33.209,-40.25 -31.542,-220.75 35.25,-268.292c66.75,-47.542 138.458,30.375 138.458,30.375Z" style="fill:#f7a491;fill-rule:nonzero;"/><path d="M5478.58,5306.67c51.584,10.541 85,42.083 97.292,55.5c23.416,2.791 55.292,15.708 88.167,70.166c40.458,66.959 10.583,141.125 -36.5,177.542c-47.083,36.375 -46.417,78.417 -46.417,78.417l-7.458,-21.75c-5.459,-16.459 -7.709,-33.917 -5.875,-51.209c1.083,-10.375 3.333,-21.583 7.625,-30.791c11.292,-24.292 -24.334,-40.459 -34.334,-60.667c-7.708,-15.583 -8.083,-51.208 -20.166,-76.917l-14.5,-19.666c-0,-0 -33.417,-26 -66.083,-18.667c-32.667,7.333 -28.001,-115.458 38.249,-101.958Z" style="fill:#f7cc7f;fill-rule:nonzero;"/><path d="M5543.29,5553.75c-0.333,20.5 8.958,37.25 20.791,37.458c11.834,0.209 21.709,-16.25 22.042,-36.708c0.333,-20.5 -8.958,-37.292 -20.791,-37.5c-11.834,-0.167 -21.709,16.25 -22.042,36.75Z" style="fill:#f7a491;fill-rule:nonzero;"/><path d="M5485.29,5610.54l-64.709,-3.334c0,0 0.209,24.667 28.626,26.959c34.666,2.791 36.083,-23.625 36.083,-23.625Z" style="fill:#fff;fill-rule:nonzero;"/><path d="M6774.79,4794.25c7.042,29.042 19.792,74.875 19.792,74.875c-1,12.625 -4.749,65.083 -9.166,129.375l94.541,-37.833c0,-0 -1.166,-104.75 3.084,-111.167c3.541,-5.417 9.541,1.333 38.5,-40.125c8.375,-11.958 9.958,-33.333 9.958,-33.333c0,-0 1.708,-26.334 -4.208,-28.792c-5.917,-2.458 -12.667,1.5 -14.834,6.042c-2.125,4.541 -1.583,15.125 -3.708,19.666c-2.167,4.584 -15.833,10.042 -21.583,9.75c-5.75,-0.25 0.708,-77.833 0.708,-77.833c-0,-0 3.25,-22 4.875,-29.208c1.375,-6.125 6.959,-24.125 6.959,-24.125c-0,-0 6.541,-26.084 -1.542,-28.084c-4.792,-1.166 -16.959,20.042 -25.292,42.542c-9,24.25 -14.083,49.958 -16.667,49.583c-6.041,-0.791 -2.833,-43.333 -2.833,-43.333c0,0 6,-19.458 5.875,-28.667c5.666,-11.25 9.417,-32.166 -0.584,-33.875c-1.833,-0.333 -14.999,26.209 -14.999,26.209c-0,-0 -5.209,18.708 -8.209,27.416c-5.333,15.417 -6.125,39.75 -8.916,50.459c-2.292,8.958 -4.376,5.291 -5.334,5.666c-0.75,0.25 0.542,-12.041 2,-28.958c0.75,-8.542 -0.208,-18.333 2.167,-28.042c2.208,-9 3.459,-21.875 4.042,-29.625c1.624,-22 -12.25,-19.75 -17.042,0.375c-1.792,7.625 -3.709,16 -5.625,24.5c-7.459,32.959 -7.25,64.709 -10.792,65c-4.624,0.334 -1.583,-57.5 -1.583,-57.5c0,0 -7.084,-32.041 -14.125,-2.333c-8.166,34.5 -7.292,62.625 -7.167,63.875c0.709,8.417 -5.375,38.5 1.708,67.5Z" style="fill:#f8a492;fill-rule:nonzero;"/><path d="M7778,4717.83c-7.083,29 -19.792,74.875 -19.792,74.875c1,12.584 4.709,65.042 9.167,129.375l-94.542,-37.833c0,-0 1.125,-104.792 -3.083,-111.208c-3.583,-5.417 -9.542,1.375 -38.542,-40.084c-8.333,-12 -9.916,-33.375 -9.916,-33.375c-0,0 -1.709,-26.291 4.208,-28.75c5.875,-2.458 12.667,1.459 14.792,6c2.166,4.584 1.583,15.167 3.749,19.709c2.125,4.541 15.792,10.041 21.584,9.75c5.75,-0.292 -0.75,-77.875 -0.75,-77.875c-0,-0 -3.208,-21.959 -4.833,-29.167c-1.376,-6.125 -6.959,-24.125 -6.959,-24.125c0,0 -6.583,-26.125 1.542,-28.125c4.75,-1.167 16.959,20.042 25.292,42.542c9,24.25 14.083,49.958 16.667,49.625c6.041,-0.834 2.833,-43.334 2.833,-43.334c-0,0 -6.042,-19.5 -5.876,-28.666c-5.666,-11.292 -9.457,-32.167 0.542,-33.917c1.875,-0.292 15.042,26.25 15.042,26.25c-0,0 5.167,18.667 8.208,27.417c5.292,15.416 6.125,39.708 8.875,50.458c2.334,8.917 4.417,5.25 5.375,5.625c0.75,0.292 -0.542,-12 -2.041,-28.917c-0.708,-8.541 0.25,-18.375 -2.126,-28.083c-2.207,-9 -3.499,-21.833 -4.041,-29.625c-1.625,-22 12.208,-19.75 17,0.375c1.833,7.667 3.75,16 5.667,24.5c7.416,32.958 7.208,64.75 10.791,65c4.584,0.333 1.542,-57.5 1.542,-57.5c0,-0 7.083,-32 14.125,-2.292c8.167,34.459 7.333,62.584 7.208,63.834c-0.75,8.416 5.334,38.5 -1.708,67.541Z" style="fill:#f8a492;fill-rule:nonzero;"/><path d="M7519.46,7183.17c-0,-0 52.416,65 65.458,73c13.041,8 -5.834,102.375 -41.376,108.583c-20.041,3.5 -31.208,-18.583 -31.208,-18.583l5.75,-27.167l-74.875,-77.167l76.251,-58.666Z" style="fill:#f7a491;fill-rule:nonzero;"/><path d="M7249.46,7199.25c0,0 43.709,71.125 55.625,80.708c11.917,9.625 -18.875,100.834 -54.916,102.417c-20.334,0.917 -28.583,-22.375 -28.583,-22.375l9.208,-26.25l-64.417,-86.083l83.083,-48.417Z" style="fill:#f7a491;fill-rule:nonzero;"/><path d="M7302.46,7277.17c0,-0 -25.083,32 -38.791,44.75c-17.667,16.416 -40.292,32.5 -40.292,32.5c-0,-0 -25.625,46.5 -32.625,62.75c-15.625,36.125 -33.125,76.416 -30.584,96.625c0.792,6.5 15.376,13.375 27.543,9.666c50.624,-15.583 180.041,-134 196.416,-165.791c18.833,-36.625 -81.667,-80.5 -81.667,-80.5Z" style="fill:#13375b;fill-rule:nonzero;"/><path d="M6933,6193.67c4.709,-13.167 9.208,-25.334 13.542,-36.792c53.875,11.75 114.666,24.667 177.25,38l7.625,229.333c-0.042,-17.708 -47.042,365.709 -47.042,365.709c0,-0 121.542,269.166 204.708,426c-34.125,42.583 -50.166,56.333 -99.541,85.333c-129.084,-154.708 -298,-437.833 -305,-484.917c-4.042,-27.083 -7.667,-464.791 48.458,-622.666Z" style="fill:#3c8f7c;fill-rule:nonzero;"/><path d="M7413.54,6259.96c-16.458,178.709 -53,520.25 -49.959,547.75c9.167,34.25 171.875,350.334 201.167,396.334c-23.25,35.041 -59.25,72.875 -97.958,83.333c-7.626,2.083 -276.125,-380.042 -290.792,-410.333c-16.542,-34.292 -44.125,-221.334 -44.583,-452.834l-7.625,-229.333c104.208,22.25 200.041,44.042 289.75,65.083Z" style="fill:#50bfa5;fill-rule:nonzero;"/><path d="M7071.25,5445.5l122.709,16.833c-0,0 98.166,1.792 110.333,1.792c12.166,0 89.416,448.208 111.75,616.625c22.291,168.458 5,198.25 5,198.25c-0,-0 -155.542,35 -270.625,24.792c-119.709,-10.584 -254.333,-75.209 -254.333,-75.209c-0,0 102.291,-323.666 122.583,-424.75c20.25,-101.041 52.583,-358.333 52.583,-358.333Z" style="fill:#355389;fill-rule:nonzero;"/><path d="M6773.75,4903.33c-0,0 -7.875,333.709 4.708,359.209c18.334,37.125 224.334,300.416 224.334,300.416c-0,0 -98.417,411.875 -139.792,554.084c-4.167,14.333 -22.625,106.833 -22.625,115.875c-0,20 87.083,45.375 97.416,43.875c9.251,-1.375 85.209,-393.125 133.709,-584.834c16.417,-64.958 44.625,-126.333 83.208,-181.166l33.709,-47.917l-258.834,-259.417c0,0 -31.875,-288.75 -31.875,-312.666c0,-6.292 -111.375,-11 -123.958,12.541Z" style="fill:#86b1f2;fill-rule:nonzero;"/><path d="M7300.04,5464.17l322.75,-328.875c-0,-0 44.958,-311 48.166,-322.709c3.125,-11.5 83.292,-17.708 115.584,-20.875c10.375,-1 -5.417,331.25 -20.875,386.917c-18.25,65.792 -262.209,365.583 -262.209,365.583c0,0 -43.708,162.334 -33.166,281.417c17.458,197.833 64.625,469.917 56.166,478.458c-52.458,33.042 -253.75,36.584 -266.5,16.042c-140.708,-226.583 40.084,-855.958 40.084,-855.958Z" style="fill:#86b1f2;fill-rule:nonzero;"/><path d="M7581.96,7253.71c-0,0 -20.792,34.959 -32.75,49.334c-15.417,18.541 -35.834,37.375 -35.834,37.375c-0,-0 -19.458,49.416 -24.333,66.416c-10.834,37.834 -23.126,83.5 -18,103.25c1.624,6.334 15.541,18.417 27.041,10.959c44.417,-28.917 163,-164.292 175.167,-197.917c14,-38.75 -91.291,-69.417 -91.291,-69.417Z" style="fill:#13375b;fill-rule:nonzero;"/><path d="M7203,5035.67c13.75,0.5 27.459,0.375 41.167,-0.834c15.458,-1.375 35.208,-2.333 46.541,0.042c23.875,5.042 61.75,21.958 74.375,53.25c15.75,39 72.042,33.167 5.334,181c-75.459,167.333 -163.709,112.542 -164.917,108.792c-1.208,-3.792 -43.625,-141.75 -43.625,-141.75c-0,-0 -52.75,52.333 -51.875,50c0.833,-2.25 -71.875,-256.459 93,-250.5Z" style="fill:#0e2e35;fill-rule:nonzero;"/><path d="M7195.62,5401.58l-8.792,65.459c0,-0 -19.708,94.333 5.625,112.5c25.334,18.208 107.792,-115.167 107.792,-115.167l-8.708,-165.917l-95.917,103.125Z" style="fill:#f7a491;fill-rule:nonzero;"/><path d="M7294.33,5352.25c-20.916,56.583 -70.791,91.333 -106.166,104.833l7.458,-55.5l95.917,-103.125l2.791,53.792Z" style="fill:#f47458;fill-rule:nonzero;"/><path d="M7262.88,5110.88c-47.208,-27.083 -107.5,-3.708 -125.25,47.083c-7.708,22.084 -16.208,50.042 -22.75,81.167c-15.792,74.833 8.958,155.292 42.958,161.75c34,6.5 137.25,-24.208 161.126,-130.167c14.707,-65.416 -6.584,-131.458 -56.084,-159.833Z" style="fill:#f7a491;fill-rule:nonzero;"/><path d="M7292.29,5274.38c-3.167,16.542 5.208,32.083 18.708,34.667c13.5,2.541 27,-8.792 30.167,-25.375c3.208,-16.542 -5.167,-32.042 -18.667,-34.625c-13.5,-2.584 -27.042,8.75 -30.208,25.333Z" style="fill:#f7a491;fill-rule:nonzero;"/><path d="M7322.5,5249.04c0,-0 -42.208,-4.959 -47.167,-35.167c-4.916,-30.208 -35.916,-103.083 -109.333,-105.417c-73.417,-2.375 77.625,-32.375 82.833,-30.416c5.209,2 67.792,25.125 67.792,25.125c-0,-0 33.208,57.75 33.292,62.75c0.083,5.041 -3.917,57.708 -3.917,57.708l-23.5,25.417Z" style="fill:#0e2e35;fill-rule:nonzero;"/><path d="M7212.88,5325.88l-75.25,-13.042c0,0 -3.292,28.959 29.625,35.667c40.167,8.167 45.625,-22.625 45.625,-22.625Z" style="fill:#fff;fill-rule:nonzero;"/><path d="M3409.8,5632.17c2.833,9.791 4.467,13.041 8.075,19.583c23.267,42.375 77.254,102.792 77.254,102.792l41.746,-94.084c-0,0 -6.792,-29.541 -18.604,-71.75c-40.333,10.5 -78.746,16.625 -108.471,43.459Z" style="fill:#f8a492;fill-rule:nonzero;"/><path d="M3649.21,5550.58c-0,0 -232.901,100.292 -240.434,98.375c-4.85,-1.25 -95.542,-153.041 -96.508,-295.791c-0.45,-65.917 68.02,-145.25 144.416,-129.542c38.459,7.875 37.863,18.583 94.775,101.292c56.875,82.666 97.751,225.666 97.751,225.666Z" style="fill:#13375b;fill-rule:nonzero;"/><path d="M3848.04,7348.88l-5.542,91.667c-2.042,11.625 -10.042,40.291 -10.042,50.875c0,39.666 188.334,-33.667 146.125,-51.25c-3.792,-1.584 -23.833,-13.625 -25.083,-27.125c-1.917,-20.792 -6.834,-62.875 -6.834,-62.875l-98.624,-1.292Z" style="fill:#f7a491;fill-rule:nonzero;"/><path d="M3978.12,7439.79c0,-0 -44.208,12.125 -66.875,15.166c-22.625,3.042 -52.5,-22.5 -68.5,-15.625c-17.667,7.584 -16.959,75.959 -16.959,75.959c0,-0 237.126,19.458 303.792,-0.667c26.417,-8 -61.042,-46.583 -151.458,-74.833Z" style="fill:#dd513a;fill-rule:nonzero;"/><path d="M3462.77,7348.88l-5.559,91.667c-2.033,11.625 -10.033,40.291 -10.033,50.875c0,39.666 188.325,-33.667 146.117,-51.25c-3.792,-1.584 -29.75,-22.625 -31,-36.125c-1.959,-20.792 -0.917,-53.875 -0.917,-53.875l-98.608,-1.292Z" style="fill:#f7a491;fill-rule:nonzero;"/><path d="M3592.83,7439.79c0,-0 -44.208,12.125 -66.858,15.166c-22.646,3.042 -52.504,-22.5 -68.525,-15.625c-17.629,7.584 -18.333,75.959 -18.333,75.959c-0,-0 238.217,22.666 305.216,-0.667c26,-9.083 -61.083,-46.583 -151.5,-74.833Z" style="fill:#dd513a;fill-rule:nonzero;"/><path d="M3520.33,5682.88l165.875,-232.375c0.713,-2.042 2.213,-6.208 4.504,-12.583c8.375,-23.042 25.746,-71 40.875,-118.75l0.167,-0.5c4.75,-16.709 14.834,-45.792 24.625,-73.959c10.833,-31.291 24.292,-70.125 24.75,-76.75c-0.417,-1.125 -1.208,-3.166 -2.25,-5.875c-6.083,-15.791 -14.292,-53.375 -17.208,-69.708c-1.834,-10.417 -3.709,-35.75 8.666,-35.75c19.459,0 10.208,25.292 19.167,41.083c3.292,-10.583 9.958,-31.5 13.5,-52.666l3.25,-49.417c0.625,-3.708 -3.334,-30.958 10.292,-30.958l0.666,-0c12.25,0.916 12,29.875 17.084,78.875c1.625,-5.625 3.208,-12.417 4.416,-18.667c-0.125,-3.375 2.334,-18.083 4.167,-25.875c-2.459,-13.667 -1.042,-35.208 13.5,-33.167c7.292,1.042 6.708,31.084 6.708,31.084c-0.083,4.125 -0.5,35.916 -0.292,42.166c1.501,-10.625 7.334,-56.125 18.75,-56.125c9.459,0 10.209,12.25 10.001,21.917c-0.126,5.75 -6.042,55 -6.376,60.75c4.459,-7.458 9.751,-50.917 14.125,-50.917c18.459,0 11.792,61.75 5.042,77.834c-0.666,1.666 -1.333,4.875 -2.125,8.625c-2.291,11 -6.166,29.416 -15.791,45.916c-11.584,19.834 -27.584,51.334 -30,56.167c-1.792,9.833 -7.375,45.25 -14.334,89.75c-3,19.083 -6.25,39.958 -9.666,61.583l-0.209,0c-0.625,4.667 -4.083,19.542 -17.208,75.417c-17.958,76.458 -19.792,79.75 -20.583,81.167c-7.792,13.791 -186.667,256.708 -194.292,267l-4.458,6.125l-75.338,-101.417Z" style="fill:#f7a491;fill-rule:nonzero;"/><path d="M3828.88,5140.92c0,-0 -13.459,-34.459 -37.459,-34.5c0,-0 13.417,-4.834 24.876,4.25c11.5,9.083 12.583,30.25 12.583,30.25Z" style="fill:#f47458;fill-rule:nonzero;"/><path d="M3480.25,5074.38l-21.354,135.042c-0,-0 81.354,65.333 128.812,51.541c39.792,-11.541 12.5,-63.583 12.5,-63.583c0,-0 -21.208,-72.083 -14.708,-109.875c6.5,-37.792 -105.25,-13.125 -105.25,-13.125Z" style="fill:#f7a491;fill-rule:nonzero;"/><path d="M3495.58,5115.21c20.396,9.625 60.713,22.75 92.088,25.959c-3,-18.917 -4.709,-38.917 -2.167,-53.667c3,-17.458 -19.208,-21.583 -43.958,-20.958c-32.405,2.75 -61.292,7.833 -61.292,7.833l-4.108,25.958c6.166,6.5 12.646,11.667 19.437,14.875Z" style="fill:#fe875e;fill-rule:nonzero;"/><path d="M3377.57,4918.58c-3.359,0.042 32.162,150.875 87.133,176.834c54.971,25.958 136.967,12.416 152.342,-28.209c17,-44.916 -45.042,-198.833 -122.371,-218.416c-77.317,-19.542 -117.104,69.791 -117.104,69.791Z" style="fill:#f7a491;fill-rule:nonzero;"/><path d="M3441.18,4780c-43.912,25.292 -64.062,62.875 -70.846,78.25c-20.608,9.792 -45.546,30.917 -57.512,87.917c-14.721,70.083 37.608,124.125 93.083,140.375c55.479,16.25 64.05,52.958 64.05,52.958l6.288,-39.5c-0,0 -12.342,-34.417 -30.896,-51.625c-18.558,-17.208 8.791,-42.292 11.196,-62.792c1.85,-15.75 -9.754,-46.333 -7.238,-72.208c0,0 30.825,-46.708 61.213,-58.25c51.816,-19.667 -13,-107.625 -69.338,-75.125Z" style="fill:#13375b;fill-rule:nonzero;"/><path d="M3464.55,5011.88c7.183,17.417 4.246,34.708 -6.559,38.625c-10.808,3.917 -25.395,-7.042 -32.579,-24.458c-7.187,-17.417 -4.25,-34.709 6.559,-38.625c10.808,-3.917 25.396,7.041 32.579,24.458Z" style="fill:#f7a491;fill-rule:nonzero;"/><path d="M3669.29,5686.62l320,-52.167c-0,0 -36.417,-91.666 -49.417,-91.666c-13,-0 -241.958,99.916 -241.958,99.916l-18.209,36.584l-10.416,7.333Z" style="fill:#f8a492;fill-rule:nonzero;"/><path d="M3505.41,5906c-0,0 -31.917,154.292 -18.909,271.292c13.008,117 14.029,532.666 14.029,532.666l-49.637,665l117.771,2.584c-0,-0 139.666,-664.709 137.083,-647.667c-2.625,17.083 46.792,-468 46.792,-468l-166.5,-370.5l-80.629,14.625Z" style="fill:#184655;fill-rule:nonzero;"/><path d="M3536.62,5898.67c-0,-0 -20.804,138.958 5.208,199.875c26,60.958 223.125,658.875 225.75,707.625c2.584,48.75 68.125,587.625 68.125,587.625l136.958,-3.875l29.626,-599.084l-62.042,-752.958l-60.208,-190.375l-343.417,51.167Z" style="fill:#13375b;fill-rule:nonzero;"/><path d="M3458.9,5209.42c-0,-0 33.771,22.166 65.267,19.583c31.504,-2.542 76.045,-31.625 76.045,-31.625l-6.208,-20.958c-0,-0 -81.475,-11.875 -83.529,-10.625c-2.054,1.291 -51.575,43.625 -51.575,43.625Z" style="fill:#f7a491;fill-rule:nonzero;"/><path d="M3818.83,5538.25c0,-0 121.042,114.208 175.667,94.75c54.625,-19.542 77.25,-86.167 -56.083,-183.708c-119.292,-87.292 -119.584,88.958 -119.584,88.958Z" style="fill:#f8a492;fill-rule:nonzero;"/><path d="M3900.83,5679.29c-17.958,-97.834 -148.291,-402.209 -158.666,-458.25c-5.084,-27.292 -75.375,-27.875 -142.292,-24.334c-70.733,3.75 -140.979,12.709 -140.979,12.709c-0,-0 -62.604,10.291 -90.146,36.083c-27.542,25.833 -34.858,97.208 4.733,232.667c31.259,106.958 70.005,165.708 89.18,243.583c3.883,26.167 7.208,51.917 11.616,82.042c7.05,116.5 -0.083,270.375 -0.083,270.375c-0,-0 340.804,70.708 468.262,-36.542c0,-0 -23.208,-258.125 -41.625,-358.333Z" style="fill:#355389;fill-rule:nonzero;"/><path d="M3987.75,5468.96c0,0 -133.75,110.375 -141.542,110.375c-5.041,0 -190.833,-136.666 -233.708,-248.958c-23.708,-62.083 26,-131.5 82.833,-131.292c39.375,0.167 56.875,10.292 134.917,76.125c78.042,65.792 157.5,193.75 157.5,193.75Z" style="fill:#466eb6;fill-rule:nonzero;"/><path d="M4188.71,2973.23c-84.125,156.482 -279.208,215.129 -435.708,130.983c-156.458,-84.15 -215.125,-279.217 -130.958,-435.705c84.125,-156.483 279.208,-215.125 435.708,-130.978c156.458,84.145 215.125,279.216 130.958,435.7Zm349.834,61.399c-32.709,-22.075 -66.167,-43.004 -98.417,-65.712c-5.917,-4.15 -11.083,-14.771 -10.458,-21.829c4.25,-45.505 11.125,-90.771 15.041,-136.3c1.167,-13.246 4.167,-20.188 16.875,-25.163c44.75,-17.504 89.084,-36.221 133.542,-54.525c7.209,-2.966 14.292,-6.191 26.75,-11.588c-21.25,-68.237 -42.25,-135.716 -63.75,-204.887c-57.25,11.359 -109.458,20.842 -161.167,32.455c-18.25,4.095 -28.166,1.979 -39.917,-14.93c-23.999,-34.554 -52.791,-65.742 -78.625,-99.079c-3.958,-5.112 -5.666,-15.429 -3.374,-21.387c17.583,-45.5 35.124,-91.113 55.417,-135.43c9.749,-21.266 4.874,-32.708 -14.167,-42.604c-7.334,-3.8 -13.292,-10.245 -19.875,-15.491c-32.875,-17.684 -65.75,-35.367 -98.667,-53.055c-4.125,-0.821 -8.5,-0.996 -12.333,-2.562c-40.125,-16.417 -32.417,-16.083 -55.209,17.408c-27.75,40.809 -54.833,82.084 -78.583,117.738c-61.5,-5.746 -118.917,-11.117 -178.25,-16.663c-22.458,-54.516 -45.959,-111.488 -69.541,-168.829c-72.417,9.742 -138.963,32.533 -204.251,63.504c11.292,56.279 22.167,111.184 33.417,165.996c2.042,9.842 1.417,15.796 -8.208,23.004c-37.75,28.234 -74.834,57.475 -110.555,88.225c-10.295,8.862 -16.916,8.904 -27.974,4.254c-45.646,-19.196 -91.742,-37.333 -137.471,-56.341c-11.363,-4.725 -18.717,-4.375 -27.13,6.733c-37.737,49.842 -63.47,105.596 -84.579,163.912c-4.175,11.542 1.38,16.542 10.096,22.209c40.333,26.217 80.029,53.412 120.538,79.342c11.675,7.474 15.237,13.904 12.908,28.991c-8.063,52.113 -13.088,104.692 -19.767,161.317c-49.554,20.413 -105.787,43.575 -162,66.729c9.625,73.783 29.405,142.075 62.092,207.179c61.35,-12.608 121.033,-24.875 175.092,-35.983c33.712,38.862 64.116,75.8 96.791,110.608c12.334,13.15 14.542,23.071 7.334,39.325c-19.255,43.284 -36.804,87.325 -54.584,131.242c-3.512,8.679 -10.433,18.783 3.117,25.937c55.133,29.1 110.217,58.255 165.296,87.334c11.754,6.183 19.129,2.241 26.212,-8.796c26.371,-41.063 54.584,-80.983 80.25,-122.467c9.917,-16.008 20.583,-16.621 37.167,-14.383c41.042,5.516 82.375,10.237 123.708,11.179c17.792,0.404 24.334,5.046 30.334,20.879c19.333,50.883 40.625,101.009 60.75,150.367c44.124,-0.013 164.333,-37.675 207.666,-64.6c-11.333,-54.159 -22.25,-109.05 -34.666,-163.592c-3.125,-13.645 0.916,-19.504 11.375,-27.717c33.667,-26.495 65.458,-55.366 98.875,-82.208c5.625,-4.516 17.042,-7.004 23.458,-4.492c40.75,15.955 80.958,33.338 121.167,50.717c22.458,9.713 31.5,13.717 40.125,7.938l94.125,-175.071c0.249,-14.254 -9.542,-20.979 -36,-38.838Z" style="fill:#cae1f9;fill-rule:nonzero;"/><path d="M2485.21,4020.62c46.942,234.667 -105.254,463 -339.941,509.917c-234.684,46.958 -462.992,-105.25 -509.934,-339.917c-46.941,-234.704 105.259,-463.004 339.942,-509.946c234.687,-46.937 462.992,105.258 509.933,339.946Zm415.913,-236.508c-52.904,5.15 -105.638,12.171 -158.608,16.266c-9.676,0.746 -24.188,-5.816 -29.563,-13.708c-34.65,-50.888 -66.383,-103.771 -101.375,-154.412c-10.183,-14.738 -13.025,-24.521 -4.092,-40.596c31.467,-56.6 61.4,-114.059 91.855,-171.221c4.933,-9.271 9.545,-18.713 17.82,-34.988c-80.608,-52.625 -160.316,-104.662 -242.033,-158.012c-49.675,60.921 -95.725,115.566 -139.458,172.012c-15.421,19.904 -27.554,26.238 -54.254,18.763c-54.567,-15.288 -111.234,-22.954 -166.667,-35.396c-8.496,-1.904 -19.117,-11.159 -21.846,-19.321c-20.8,-62.325 -41.75,-124.725 -58.708,-188.158c-8.142,-30.442 -23,-38.15 -51.284,-32.063c-10.866,2.338 -22.579,0.754 -33.908,0.959c-49.325,9.862 -98.65,19.729 -147.971,29.595c-4.996,2.692 -9.717,6.284 -15.033,7.942c-55.75,17.4 -47.438,11.108 -42.35,65.442c6.196,66.196 13.504,132.292 19.433,189.704c-68.754,46.792 -133.008,90.521 -199.371,135.683c-70.108,-37.325 -143.366,-76.333 -217.1,-115.592c-66.812,72.251 -116.341,153.03 -157.541,241.213c60.021,48.746 118.416,96.425 177.162,143.646c10.542,8.5 15.029,15.208 11.204,30.958c-14.958,61.713 -28.362,123.917 -39.05,186.459c-3.079,18.041 -9.916,23.791 -25.387,28.458c-63.871,19.208 -127.292,39.958 -191.083,59.458c-15.851,4.875 -23.188,11.542 -22.388,30.292c3.596,84.125 24.729,164.083 52.871,242.75c5.567,15.583 15.625,16 29.542,14.417c64.37,-7.417 128.924,-13.25 193.237,-21.084c18.533,-2.25 27.758,1.375 38.279,19c36.358,61.042 76.271,119.959 117.938,184.459c-33.934,63.75 -72.438,136.041 -110.925,208.333c73.312,68.333 152.462,122.25 242.275,161.792c52.875,-65.75 104.312,-129.709 150.9,-187.625c68.358,11.416 131.625,23.666 195.42,31.75c24.109,3.083 34.896,11.5 41.35,34.583c17.18,61.417 36.755,122.208 55.992,183.083c3.8,12 5.288,28.459 25.496,24.25c82.192,-17.083 164.404,-34.083 246.592,-51.208c17.471,-3.625 21.766,-14.083 19.654,-31.625c-7.85,-65.292 -12.842,-130.917 -21.792,-196.042c-3.45,-25.125 7.084,-34.875 26.25,-46.833c47.329,-29.458 94.313,-60.042 138.013,-94.542c18.837,-14.875 29.596,-15.625 49.425,-4.375c63.721,36.25 128.862,70 192.108,104c45.808,-37.875 138.296,-180.166 160.171,-245.291c-58.263,-46.5 -116.696,-94.125 -176.413,-140.084c-14.941,-11.5 -15.766,-21.083 -11.979,-38.541c12.225,-56.417 20.467,-113.667 32.121,-170.25c1.962,-9.5 11.679,-21.875 20.492,-24.792c56.016,-18.417 112.687,-34.875 169.329,-51.333c31.667,-9.209 44.483,-12.792 48.479,-26.209l-52.521,-262.541c-12,-14.988 -27.908,-13.592 -70.708,-9.425Z" style="fill:#9bc1f9;fill-rule:nonzero;"/><path d="M2316.96,2770.42c-1.424,-0 -3.012,-0.304 -4.799,-0.925c-35.001,-12.179 -69.988,-24.409 -104.992,-36.6c-8.604,-3.001 -5.438,-9.555 -4.142,-14.971c6.533,-27.408 12.925,-54.871 20.371,-82.033c2.796,-10.2 0.625,-15.838 -7.808,-22.476c-22.317,-17.545 -43.488,-36.549 -66.775,-56.396c-30.796,11.355 -64.792,23.892 -99.738,36.776c-25.025,-35.363 -42.746,-73.75 -54.987,-116.271c30.987,-18.629 61.979,-37.263 89.296,-53.688c-1.121,-33.887 -2.859,-65.254 -2.767,-96.612c0.021,-9.075 -2.646,-12.542 -10.175,-15.892c-26.133,-11.633 -51.896,-24.079 -77.95,-35.9c-5.629,-2.554 -9.346,-4.995 -7.917,-12.154c7.208,-36.171 17.367,-71.25 35.108,-103.921c2.846,-5.246 5.876,-7.158 10.001,-7.158c1.599,-0 3.362,0.287 5.349,0.779c28.58,7.1 57.301,13.65 85.855,20.867c2.121,0.533 3.958,0.85 5.637,0.85c3.792,-0 6.783,-1.604 10.429,-5.85c18.25,-21.263 37.45,-41.767 57.125,-61.733c5.025,-5.1 4.846,-8.651 2.78,-14.255c-11.513,-31.229 -22.796,-62.537 -34.45,-94.62c35.62,-24.034 72.712,-43.372 114.412,-55.555c19.004,31.604 37.883,63.008 55.95,93.059c35.383,-2.034 69.637,-4.001 106.296,-6.1c10.787,-23.088 23.029,-49.767 35.712,-76.242c6.713,-13.996 7.196,-18.771 13.4,-18.771c3.421,0 8.584,1.454 17.492,3.613c1.404,0.341 2.883,0.378 4.371,0.378l0.721,0c0.27,-0.004 0.537,-0.004 0.804,-0.004c0.537,0 1.071,0.004 1.6,0.034c20.917,7.463 41.833,14.929 62.741,22.392c4.342,2.491 8.413,5.754 13.063,7.337c12.088,4.112 15.962,10.408 12.133,23.784c-7.979,27.866 -14.216,56.25 -20.496,84.566c-0.82,3.713 1.101,9.625 3.884,12.275c18.166,17.3 37.879,33.067 55.066,51.246c5.146,5.441 9.4,7.687 14.301,7.687c3.108,0 6.479,-0.904 10.5,-2.47c29.37,-11.442 59.22,-21.676 91.858,-33.459c18.825,38.75 37.187,76.55 55.758,114.779c-6.829,4.279 -10.721,6.813 -14.692,9.2c-24.508,14.73 -48.891,29.684 -73.654,43.971c-7.033,4.058 -8.179,8.405 -7.671,16.296c1.75,27.121 1.759,54.346 3.321,81.483c0.242,4.205 4.246,9.988 8.08,11.9c20.987,10.479 42.545,19.796 63.745,29.855c17.15,8.141 23.492,11.224 24.634,19.624l-39.734,111.334c-1.912,1.746 -4.016,2.487 -6.854,2.487c-3.933,0 -9.275,-1.424 -17.45,-3.575c-25.183,-6.633 -50.375,-13.266 -75.767,-19.012c-0.566,-0.13 -1.179,-0.188 -1.825,-0.188c-3.933,0 -9.07,2.213 -11.562,4.926c-17.254,18.762 -33.375,38.57 -50.812,57.153c-5.405,5.759 -7.263,9.567 -4.217,17.313c12.171,30.959 23.483,62.258 34.983,93.092c-23.071,19.695 -90.396,52.562 -116.337,56.504c-16.229,-27.229 -33.234,-54.796 -49.125,-82.988c-4.063,-7.208 -7.654,-9.946 -14.634,-9.946c-1.516,0 -3.191,0.13 -5.071,0.371c-24.37,3.134 -49.108,4.046 -73.72,4.463c-9.967,0.166 -16.175,1.479 -20.571,11.775c-11.396,26.679 -24.413,52.666 -36.263,79.162c-2.416,5.413 -5.308,8.434 -9.821,8.434Zm82.796,-611.496c-78.587,-0 -152.258,48.808 -180.187,127.062c-35.517,99.513 16.366,208.975 115.879,244.492c21.25,7.583 42.954,11.184 64.296,11.184c78.592,-0 152.262,-48.801 180.191,-127.063c35.517,-99.517 -16.362,-208.975 -115.875,-244.492c-21.258,-7.583 -42.954,-11.183 -64.304,-11.183Z" style="fill:#ebf3fe;fill-rule:nonzero;"/><path d="M2454.31,7485.38l-62.966,-0.25c8.312,-274.75 15.629,-692.042 1.746,-715.417c0.037,0.042 0.92,1.5 4.187,3.125l51.1,-13.333c8.258,4.167 13.242,6.667 14.967,123.5c0.887,60.125 0.55,143.167 -1.005,246.792c-2.645,176.416 -7.975,353.791 -8.029,355.583Z" style="fill:#355389;fill-rule:nonzero;"/><path d="M2638.78,7482l-424.796,0c-19.566,0 -35.429,15.875 -35.429,35.458c0,3.417 2.775,6.167 6.196,6.167l483.263,-0c3.421,-0 6.195,-2.75 6.195,-6.167c0,-19.583 -15.862,-35.458 -35.429,-35.458Z" style="fill:#355389;fill-rule:nonzero;"/><path d="M2447.43,7447.08l-52.033,0c-15.396,0 -27.875,12.459 -27.875,27.875c-0,15.375 12.479,27.875 27.875,27.875l52.033,0c15.396,0 27.88,-12.5 27.88,-27.875c-0,-15.416 -12.484,-27.875 -27.88,-27.875Z" style="fill:#355389;fill-rule:nonzero;"/><rect x="916.188" y="6270.38" width="25.137" height="1252.46" style="fill:#13375b;fill-rule:nonzero;"/><path d="M2208.16,5577.42c-2.308,-55.667 5.892,-110.625 30.796,-162.459c21.425,-44.583 74.442,-69.875 122.788,-69.958c153.525,-0.167 173.045,202.667 270.77,280.917c29.863,23.875 63.238,43.375 91.496,69.125c104.334,95.208 57.338,271.458 -38.466,354.916c-66.484,57.917 -170.971,90.834 -252.909,45.542c-42.775,-23.625 -75.245,-62.917 -98.375,-105.958c-32.833,-61.084 -53.995,-131.584 -77.346,-196.709c-24.858,-69.291 -45.683,-141.416 -48.754,-215.416Z" style="fill:#13375b;fill-rule:nonzero;"/><path d="M1784.63,6160.67l334.071,-93.167c0,0 70.388,-94.542 160.938,-221.375c29.608,29.292 46.062,74.333 75.879,103.333l-221.142,244.625c-7.979,8.792 -19.3,13.875 -31.191,13.917l-307,1l-105.055,8.375l0,-67.25l93.5,10.542Z" style="fill:#f48c7f;fill-rule:nonzero;"/><path d="M2265.58,6089.75c-0,0 114.654,-117.583 144.158,-168.667c29.504,-51.083 -20.087,-17.791 -70.75,-31.25c-19.183,-5.083 -14.329,-117.5 -50.595,-80.958c-59.496,59.958 -134.3,164.792 -134.3,164.792l111.487,116.083Z" style="fill:#96d9c9;fill-rule:nonzero;"/><path d="M2428.59,5757.29c-0,-0 102.9,-20.292 149.854,18.916c46.954,39.25 -10.059,388 -10.013,445.834c0.05,57.833 32.242,221.166 32.242,221.166c-0,0 -311.867,54.584 -361.404,-32.208c-0,0 -14.096,-330.667 -11.996,-372.25c2.096,-41.583 48.337,-211.667 61.117,-229.875c12.783,-18.208 140.2,-51.583 140.2,-51.583Z" style="fill:#50bfa5;fill-rule:nonzero;"/><path d="M2429.24,5598.12c-0,-0 0.537,3.083 1.512,8.292c4.667,25.125 22.637,108.458 34.779,131.333c14.671,27.708 -50.229,115.958 -112.696,105.208c-18.596,-3.208 15.717,-81.125 14.071,-89.375c-3.158,-15.791 -7.442,-37.333 -11.821,-59.458c-2.47,-12.458 -4.975,-25.083 -7.325,-36.958c-6.679,-33.75 -12.129,-61.375 -12.129,-61.375l93.609,2.333Z" style="fill:#f7a491;fill-rule:nonzero;"/><path d="M2430.75,5606.42c-0.975,-5.209 -1.512,-8.292 -1.512,-8.292l-93.609,-2.333c0,-0 5.45,27.625 12.129,61.375c2.338,11.791 4.829,24.375 7.284,36.75c14.454,-2.084 29.554,-9.125 44.696,-22.334c16.504,-14.416 27.324,-31.75 33.854,-50.25c-1.155,-5.916 -2.117,-11 -2.842,-14.916Z" style="fill:#f47458;fill-rule:nonzero;"/><path d="M2366.23,5385.79c0,-0 44.121,-5.084 71.775,30.583c27.659,35.708 57.467,146.125 -11.237,206.125c-68.696,60 -136.579,-7.917 -146.646,-79.958c-10.062,-72.042 -13.975,-159.375 86.108,-156.75Z" style="fill:#f7a491;fill-rule:nonzero;"/><path d="M2259.8,5541.5c8.2,15.917 21.963,24.708 30.742,19.667c8.779,-5.042 9.25,-22.042 1.05,-37.959c-8.2,-15.875 -21.967,-24.708 -30.746,-19.666c-8.775,5.041 -9.246,22.041 -1.046,37.958Z" style="fill:#f7a491;fill-rule:nonzero;"/><path d="M2361.3,5374c-0,0 58.946,104.958 101.112,109.792c42.167,4.875 47.705,60.666 47.705,60.666c-0,0 -15.075,-128.541 -56.821,-153.333c-41.746,-24.792 -91.996,-17.125 -91.996,-17.125Z" style="fill:#13375b;fill-rule:nonzero;"/><path d="M2451.35,5510.21c-3.429,18.625 3.471,35.709 15.404,38.167c11.942,2.458 24.396,-10.667 27.825,-29.333c3.429,-18.625 -3.466,-35.709 -15.404,-38.167c-11.937,-2.458 -24.396,10.667 -27.825,29.333Z" style="fill:#f7a491;fill-rule:nonzero;"/><path d="M2054.65,7239.17c0,-0 94.663,113.5 95.287,123.375c0.63,9.875 -3.758,117.666 -15.016,127.541c-11.258,9.875 -44.333,16.875 -33.7,28c8.037,8.375 69.862,6.584 110.833,4.334c11.963,-0.667 26.958,-96.084 31.696,-110.125c6.883,-20.375 23.612,-66.25 17.358,-80.459c-3.046,-6.916 -17.629,-21.125 -38.175,-34.375c-21.612,-13.958 -104.27,-129 -104.27,-129l-64.013,70.709Z" style="fill:#f48c7f;fill-rule:nonzero;"/><path d="M2221.6,7296.75c-0,0 -63.567,179 -88.446,187.625c-6.604,2.292 -38.308,8.125 -44.287,22.125c-1.8,4.25 -0,18.333 -0,18.333l132.491,0c0,0 16.754,-78.833 23.379,-113.5c0,0 35.071,-84.625 31.175,-92.333c-3.895,-7.708 -54.312,-22.25 -54.312,-22.25Z" style="fill:#b75742;fill-rule:nonzero;"/><path d="M1487.63,7293.67c0,-0 -77.304,108.833 -70.504,143.25c3.642,18.458 19.858,42.583 10.554,59.916c-9.304,17.375 -19.942,21.709 -19.942,21.709l-241.141,3.875c-13.134,0.208 -4.454,-8.25 6.137,-16c17.334,-12.709 31.325,-21.125 86.7,-47.875c3.613,-1.75 16.763,-10.084 21.504,-12.959c12.026,-7.333 24.096,-18.875 34.492,-30.416c17.317,-19.25 93.454,-176 93.454,-176l78.746,54.5Z" style="fill:#f7a491;fill-rule:nonzero;"/><path d="M1280.97,7445.54c63.775,16.333 110.917,5.25 137.287,-5.375c6.8,19.25 15.817,43.375 11.034,57.291c-5.855,17.042 -14.188,20.875 -21.555,21.084c-58.249,1.5 -213.379,3.583 -257.795,4.166c-6.2,0.084 -9.625,-7.166 -5.638,-11.916c11.017,-13.125 131.913,-62.334 136.667,-65.25Z" style="fill:#b75742;fill-rule:nonzero;"/><path d="M1767.25,6622.25c0,-0 95.721,109.25 120.133,126.542c24.417,17.333 258.717,448.791 258.717,448.791l-83.471,60.917c0,-0 -209.4,-261.083 -307.742,-400.75c-83.154,-118.083 -52.524,-110.583 -101.42,-182.5c-26.921,-39.542 -20.821,-93.083 14.679,-125.167c4.416,-4 9.212,-8.166 14.429,-12.5c72.379,-60.333 568.517,-128.208 568.517,-128.208l317.337,31.042c0,-0 -259.275,181.833 -268.95,186.666c-9.679,4.834 -358.046,55.667 -365.304,55.667c-7.258,-0 -166.925,-60.5 -166.925,-60.5Z" style="fill:#b75742;fill-rule:nonzero;"/><path d="M2600.67,6443.21c-0,0 54.433,163.334 -27.217,239.542c-81.646,76.167 -566.704,67.708 -726.371,67.708c0,0 -65.321,179.042 -72.579,208.042c-7.254,29.042 -324.175,404.042 -324.175,404.042l-87.091,-55.667c-0,-0 341.108,-662.833 367.72,-691.875c26.613,-29.042 406.434,-145.167 500.784,-171.792c94.345,-26.583 368.929,0 368.929,0Z" style="fill:#f47458;fill-rule:nonzero;"/><path d="M1969.53,6149.46l289.654,-64.083c0,-0 104.754,-134.625 205.355,-250.458c29.608,29.333 46.062,74.333 75.879,103.333l-221.142,244.625c-7.975,8.833 -19.3,13.875 -31.192,13.917l-307,1l-105.054,8.375l0,-67.209l93.5,10.5Z" style="fill:#f7a491;fill-rule:nonzero;"/><path d="M2450.47,6078.54c-0,-0 114.654,-117.584 144.158,-168.625c29.504,-51.084 7.625,-136.667 -43.037,-150.125c-50.659,-13.417 -212.609,202.666 -212.609,202.666l111.488,116.084Z" style="fill:#96d9c9;fill-rule:nonzero;"/><path d="M1374.46,5819.71l477.713,0c12.637,0 24.025,7.667 28.821,19.334l147.091,358.75l263.363,-0c7.367,-0 13.333,6 13.333,13.333c0,7.375 -5.966,13.333 -13.333,13.333l-749.563,0c-20.604,0 -39.291,-12.083 -47.733,-30.916l-148.108,-329.917c-9.25,-20.625 5.825,-43.917 28.416,-43.917Z" style="fill:#b75742;fill-rule:nonzero;"/><path d="M1631.66,6028.62c3.229,16.125 17.284,26.875 31.396,24.083c14.113,-2.833 22.934,-18.166 19.708,-34.291c-3.229,-16.125 -17.283,-26.917 -31.395,-24.084c-14.113,2.834 -22.934,18.167 -19.709,34.292Z" style="fill:#fff;fill-rule:nonzero;"/><path d="M2341.79,6284.96l-1427.22,0c-16.709,0 -30.259,-13.541 -30.259,-30.25c0,-16.708 13.55,-30.25 30.259,-30.25l1427.22,0c16.713,0 30.259,13.542 30.259,30.25c-0,16.709 -13.546,30.25 -30.259,30.25Z" style="fill:#184655;fill-rule:nonzero;"/><path d="M2339.68,5582.83l64.725,-3.333c0,0 -0.216,24.667 -28.637,26.958c-34.658,2.792 -36.088,-23.625 -36.088,-23.625Z" style="fill:#fff;fill-rule:nonzero;"/><path d="M2137.2,6767.21l29.229,-121.666c20.437,-85.084 95.796,-147 183.246,-150.542l370.208,-14.958l11.425,-37.709l-383.129,15.5c-104,4.209 -193.608,77.834 -217.917,179l-31.058,129.292c10.517,0.458 23.342,0.833 37.996,1.083Z" style="fill:#355389;fill-rule:nonzero;"/><path d="M2633.76,6702.42c-0,-0 -508.625,8.708 -561.65,-0c-53.026,-8.709 -75.976,57.75 -60.146,92.583c15.825,34.833 59.354,48.292 123.462,51.458c64.104,3.167 597.525,18.209 612.563,3.959c12.279,-11.667 173.987,-564.5 232.825,-766.667c11.762,-40.417 -11.434,-82.625 -51.813,-94.5c-40.196,-11.792 -82.383,11.042 -94.537,51.125l-200.704,662.042Z" style="fill:#184655;fill-rule:nonzero;"/><rect x="2316.77" y="6270.38" width="25.137" height="1252.46" style="fill:#13375b;fill-rule:nonzero;"/><rect x="916.188" y="6351.46" width="1419.44" height="13.458" style="fill:#13375b;fill-rule:nonzero;"/><path d="M6121.17,243.854c0,0 184.417,119.359 638.918,103.121c-0,0 -487.126,183.967 -677.626,212.421l-78.375,-309.613l117.083,-5.929Z" style="fill:#e25a44;fill-rule:nonzero;"/><path d="M6208.08,399.758c0,0 -37.208,87.179 -125.625,159.638l-40.833,-161.346l2.625,-78.05l163.833,79.758Z" style="fill:#b75742;fill-rule:nonzero;"/><path d="M5507.17,67.221c-0,0 532.5,-35.988 615.333,-5.563l85.583,338.1c0,0 -303.083,-26.05 -598.375,72.442l-102.541,-404.979Z" style="fill:#f47458;fill-rule:nonzero;"/><path d="M5186.38,3835.79c-0,-0 -25.625,41.875 -23.333,54.291c2.333,12.375 33.166,143.667 50.167,152.334c16.999,8.708 60.041,7 50.374,24.041c-7.291,12.875 -84.208,30 -135.541,40.042c-15,2.917 -63.375,-110.292 -73.625,-126.121c-14.875,-23.004 -49.875,-74.458 -46.584,-93.962c1.584,-9.5 15.167,-31.625 36.375,-54.459c22.334,-24 38.167,-68.854 38.167,-68.854l104,72.688Z" style="fill:#f48c7f;fill-rule:nonzero;"/><path d="M5558.96,3823.83l-8.667,94.129c1.167,14.205 0.792,50.163 3.917,62.58c11.834,46.625 200.209,-92.792 147.875,-101.5c-4.75,-0.792 -21.916,-12.334 -27.333,-27.834c-8.334,-23.916 3.75,-59.596 3.75,-59.596l-119.542,32.221Z" style="fill:#f7a491;fill-rule:nonzero;"/><path d="M5482.58,2136.35c0,-0 54.417,150.542 55,152.842c63.25,249.8 236.292,725.204 238.75,774.549c6.042,120.367 -93.25,767.305 -93.25,767.305l-137.708,17.875l-3,-743.721l-135.375,-265.379l-231.583,-533.688l307.166,-169.783Z" style="fill:#3c8f7c;fill-rule:nonzero;"/><path d="M5068.67,2386.49l11.666,152.779l83.917,619.721l-112.208,654.846c-0,0 58.458,76.375 115.708,74.667l262.791,-709.7l62.5,-838.812l-52.583,-169.534l-371.791,216.033Z" style="fill:#50bfa5;fill-rule:nonzero;"/><path d="M5045.67,3830.71c-0,0 134.5,201.25 167.958,204.125c8.875,0.792 49.875,-1.958 61.625,13.5c3.542,4.667 11.042,27.959 11.042,27.959l-168.75,48.541c-0,0 -45.625,-104.583 -64.626,-145.333c0,0 -69.791,-93.625 -67.416,-104.333c2.417,-10.709 60.167,-44.459 60.167,-44.459Z" style="fill:#13375b;fill-rule:nonzero;"/><path d="M5545.83,4004.42l5.167,-87.583c-0,-0 55.959,8.579 80.333,-1.38c24.375,-9.996 70.084,-36.75 70.084,-36.75c109.291,7.667 196.041,2.875 187.75,33.375l-343.334,92.338Z" style="fill:#13375b;fill-rule:nonzero;"/><path d="M5807,1628.29l72.792,55.833c14,-10.809 44.666,-56.321 64.541,-70.5l-66.499,-72.538c-5.459,-4.008 -8.417,-10.616 -7.751,-17.374c0.459,-4.771 1.125,-9.28 1.834,-11.184c2.041,-5.733 3.916,-12.571 5.999,-18.308c2.042,-5.733 -11.666,-17.259 -18.874,-19.308c-7.209,-2.05 -9.625,25.604 -12.75,33.816c-9.417,24.783 -20.75,92.659 -22.959,103.896l-16.333,15.667Z" style="fill:#f48c7f;fill-rule:nonzero;"/><path d="M5887.67,1677.03c-20.459,-21.796 -49.292,-34.045 -70.709,-56.7l-322.958,222.392c0,0 -249.708,-295.271 -385.292,-190.65c59.333,99.934 130.875,195.679 167.709,241.279c82.916,102.683 209.541,151.667 234.25,140.325c27.833,-12.766 369.708,-347.854 377,-356.646Z" style="fill:#13375b;fill-rule:nonzero;"/><path d="M4475.04,937.917c10.708,28.454 29.166,73.233 29.166,73.233c0.5,12.858 3.167,66.325 6.542,131.842l90.875,-49.776c0,0 -13.958,-105.729 -10.458,-112.724c2.958,-5.917 9.833,0.187 34.042,-45.246c6.958,-13.113 5.916,-34.904 5.916,-34.904c-0,-0 -1.458,-26.804 -7.708,-28.554c-6.292,-1.759 -12.667,3.041 -14.251,7.899c-1.624,4.859 0.251,15.492 -1.374,20.347c-1.625,4.857 -14.751,12.066 -20.583,12.483c-5.876,0.416 -8.793,-78.746 -8.793,-78.746c0,-0 0.542,-22.613 1.292,-30.088c0.667,-6.371 4.125,-25.229 4.125,-25.229c0,0 3.417,-27.175 -4.999,-28.2c-5.001,-0.604 -14.709,22.313 -20.376,46.075c-6.124,25.592 -8.125,52.192 -10.75,52.154c-6.208,-0.083 -8.166,-43.441 -8.166,-43.441c-0,-0 3.666,-20.417 2.416,-29.688c4.334,-12.075 5.626,-33.65 -4.708,-34.175c-1.917,-0.096 -11.959,28.337 -11.959,28.337c0,0 -2.958,19.518 -4.958,28.709c-3.5,16.216 -1.333,40.896 -2.833,52.075c-1.25,9.3 -3.792,5.85 -4.709,6.346c-0.708,0.379 -0.916,-12.213 -1.499,-29.488c-0.292,-8.704 -2.459,-18.512 -1.25,-28.612c1.125,-9.35 0.833,-22.504 0.458,-30.421c-1.042,-22.425 -14.75,-18.458 -17.125,2.45c-0.917,7.962 -1.833,16.646 -2.75,25.446c-3.458,34.225 0.625,66.296 -2.916,67c-4.626,0.908 -8.626,-57.9 -8.626,-57.9c0,-0 -11.083,-31.484 -14.541,-0.604c-4.042,35.837 0.25,64.137 0.5,65.375c1.791,8.416 -0.667,39.57 10,68.025Z" style="fill:#f8a492;fill-rule:nonzero;"/><path d="M5112.62,1209.89c0,-0 -54.833,-45.367 -86.375,21.704c0,-0 -32.167,-13.263 -49.667,19.412c0,0 -56.375,-9.796 -59.75,73.167c0,-0 -28.624,-1.896 -28.291,31.833c0.333,33.733 19.916,53.879 19.916,53.879c0,0 -14.291,13.7 -3.458,43.434c9.208,25.287 31.25,26.641 31.25,26.641c-0,0 11.083,43.15 31.709,54.058c20.624,10.905 45.749,1.434 45.749,1.434c0,0 9.75,22.942 31.667,18.146c21.958,-4.8 46.875,-29.259 72.833,-22.754c26,6.504 89.25,-11.33 89.25,-11.33c0,0 68.459,-40.987 37.834,-112.333c-0,0 33.916,-38.946 -4.376,-76.125c0,0 16.501,-67.396 -36.166,-99.621c-52.667,-32.216 -92.125,-21.545 -92.125,-21.545Z" style="fill:#f47458;fill-rule:nonzero;"/><path d="M5267.71,1676.15l-111.541,-57.375c-0,-0 -99.084,14.458 -111.375,15.946c-12.292,1.487 -35.417,463.12 -37.375,636.037c-1.958,172.913 19.166,200.933 19.166,200.933c0,0 161.459,16.334 276.5,-8.045c119.625,-25.346 247.75,-107.092 247.75,-107.092c0,0 -142.916,-314.537 -175.791,-414.175c-32.834,-99.629 -107.334,-266.229 -107.334,-266.229Z" style="fill:#f7cc7f;fill-rule:nonzero;"/><path d="M5049.21,1633.56l-366.292,-292.817c-0,0 -83.459,-308.717 -88.125,-320.163c-4.584,-11.242 -86.334,-7.724 -119.375,-6.954c-10.583,0.246 46,334.004 68.416,388.388c26.5,64.245 309.625,337.291 309.625,337.291c0,0 64.042,158.696 67.959,280.317c6.499,201.996 -7.875,482.683 1.708,490.271c57.042,26.971 260.875,5.933 271.25,-16.363c114.458,-246.162 -145.166,-859.97 -145.166,-859.97Z" style="fill:#13375b;fill-rule:nonzero;"/><path d="M5146.5,1558.8l16.709,64.213c-0,-0 31.083,91.658 7.916,112.854c-23.167,21.2 -121.75,-101.804 -121.75,-101.804l-11.292,-166.459l108.417,91.196Z" style="fill:#f7a491;fill-rule:nonzero;"/><path d="M5041.75,1521.55c27.791,53.879 81.875,82.525 118.917,91.692l-14.167,-54.442l-108.417,-91.196l3.667,53.946Z" style="fill:#f47458;fill-rule:nonzero;"/><path d="M4889.54,1371.52c3.041,25.192 19.833,43.883 37.5,41.745c17.666,-2.141 29.541,-24.295 26.5,-49.487c-3.042,-25.192 -19.876,-43.883 -37.542,-41.742c-17.667,2.138 -29.5,24.292 -26.458,49.484Z" style="fill:#f47458;fill-rule:nonzero;"/><path d="M4973.67,1261.86c1.75,14.475 20.625,24.103 42.125,21.499c21.499,-2.599 37.5,-16.445 35.75,-30.925c-1.751,-14.479 -20.625,-24.103 -42.125,-21.504c-21.5,2.604 -37.5,16.45 -35.75,30.93Z" style="fill:#f47458;fill-rule:nonzero;"/><path d="M5075.67,1286.74c49.291,-23.938 108.291,3.608 122.583,55.704c6.208,22.641 12.792,51.258 17.208,82.892c10.584,76.07 -19.875,155.045 -54.5,159.237c-34.625,4.191 -136.291,-33.587 -152.833,-141.404c-10.25,-66.567 15.792,-131.304 67.542,-156.429Z" style="fill:#f7a491;fill-rule:nonzero;"/><path d="M5034.67,1448.64c2.043,16.817 -7.458,31.805 -21.208,33.468c-13.749,1.662 -26.583,-10.622 -28.583,-27.438c-2.042,-16.821 7.458,-31.804 21.208,-33.467c13.75,-1.667 26.542,10.621 28.583,27.437Z" style="fill:#f7a491;fill-rule:nonzero;"/><path d="M5221.04,1230.66c39.208,24.001 56.958,65.529 39.625,92.759c-17.292,27.225 -63.083,29.837 -102.292,5.837c-39.167,-24.004 -56.917,-65.533 -39.625,-92.758c17.333,-27.225 63.125,-29.842 102.292,-5.838Z" style="fill:#f47458;fill-rule:nonzero;"/><path d="M5130.38,1265.2c1.5,12.313 -12.167,24.092 -30.5,26.313c-18.334,2.216 -34.417,-5.963 -35.917,-18.275c-1.5,-12.313 12.167,-24.092 30.501,-26.309c18.332,-2.221 34.416,5.963 35.916,18.271Z" style="fill:#f47458;fill-rule:nonzero;"/><path d="M5240.62,1347.99c1.917,15.83 -9.208,30.196 -24.875,32.092c-15.625,1.892 -29.875,-9.404 -31.792,-25.233c-1.917,-15.829 9.209,-30.196 24.875,-32.092c15.625,-1.892 29.875,9.404 31.792,25.233Z" style="fill:#f47458;fill-rule:nonzero;"/><path d="M5360.71,1744.78c0,-0 154.834,366.017 209.917,495.025c5.958,13.958 35.916,105.183 37,114.3c2.459,20.208 -82.416,56.504 -93.042,56.246c-9.5,-0.229 -134.166,-386.783 -206.583,-574.554c-24.583,-63.63 -60.542,-122.205 -106.208,-172.859l-35.209,-29.041l-3.374,-10.875c-0,-0 157.249,13.996 197.499,121.758Z" style="fill:#13375b;fill-rule:nonzero;"/><path d="M6136.04,2492.78l-27.75,7.029l-631.167,-2492.78l27.792,-7.029l631.125,2492.78Z" style="fill:#13375b;fill-rule:nonzero;"/><path d="M5957.92,1581.06c-1,-5.512 -2.792,-11.162 -5.042,-16.779c-2.584,-6.004 -6.791,-13.254 -9.625,-15.379c-1.834,-1.35 -3.167,-5.717 -4.917,-10.162c-0.542,-1.425 -1.25,-2.796 -2.166,-4.038l-0.042,-0.083c-2.625,-3.604 -5.917,-6.617 -9.542,-9.192c-3.416,-2.446 -6.416,-5.666 -10.249,-11.142c-3.001,-4.249 -6.876,-7.875 -11.542,-10.154c-4.583,-2.237 -8.126,-2.3 -9.75,0.53c-7.625,13.079 -45.709,54.833 -30.292,75.016c12.917,16.888 29.75,34.475 33.208,42.467c4.792,10.958 21.542,10.2 31.542,6.379c18.833,-7.192 33.625,-19.079 28.417,-47.463Z" style="fill:#f7a491;fill-rule:nonzero;"/><rect x="0" y="7512.92" width="8108.12" height="28.75" style="fill:#184655;fill-rule:nonzero;"/><path d="M5389.83,1097.55c1.5,-3.425 6.708,-4.013 9.208,-1.421c4,4.162 8.083,8.262 12.125,12.383c8.958,9.105 9.041,9.738 10.375,9.533c3.208,-0.491 3.333,-6.287 3.167,-8.42c-0.376,-4.738 -1.917,-9.421 -1.334,-14.2c1.208,-9.329 9.792,-14.125 17.5,-7.863c7.042,5.73 13.792,11.908 20.5,18.105c0.5,-10.188 0.75,-20.405 1.416,-30.576c0.251,-3.612 3.917,-5.191 6.75,-2.987c6.25,4.9 24.834,19.404 30.959,24.188c1.583,1.237 8.25,7.875 10.208,6.67c1.709,-1.079 1.583,-8.195 1.75,-9.775c0.959,-8.733 1.417,-11.808 5.209,-40.15c0.458,-3.379 5.625,-4.966 7.833,-2.316c21.792,26.079 25.083,23.354 27.083,31.158c0.417,1.75 -1,2.933 -2.625,2.771c-4.208,-0.425 -5.166,-0.821 -16.041,-11.334c-2.834,-2.72 -5.583,-5.508 -8.25,-8.362c-3.917,34.508 -4.083,43.296 -12.709,45.887c-5.999,1.796 -6.999,-0.079 -42.041,-27.629c-0.042,10.713 -0.667,21.367 -1.125,32.105c-0.167,4.074 -4.542,5.97 -7.667,3.403c-25.125,-20.662 -24.916,-22.22 -27.625,-23.445c-0.083,-0.033 -0.042,-1.88 -0.458,0.787c-0.75,4.529 3.541,14.325 0.375,22.542c-2.792,7.229 -10.709,12.762 -18.375,8.991c-4.459,-2.191 -5.667,-4.378 -19.084,-17.283c-3.999,8.296 -8.958,16.08 -15.208,23.771c-2.708,3.334 -4.917,5.171 -8.958,6.65c-3.333,1.204 -7.25,-2.362 -6.167,-5.787c3.125,-9.721 11.875,-12.046 23.209,-37.396Z" style="fill:#f47458;fill-rule:nonzero;"/><path d="M5274.38,971.016c9.458,1.621 18.542,2.492 28.5,2.45c1.875,-0.008 5.375,0.397 6.625,-1.487c2.917,-4.529 -4.792,-11.562 -8.208,-29.279c-1.459,-7.692 -5.25,-23.454 5.125,-26.592c5.292,-1.608 11.875,-0.346 17.333,-0.208c4.125,0.104 8.291,0.046 12.417,0.071c-7.375,-28.809 -9.084,-27.209 -6.125,-33.638c0.791,-1.67 3.375,-2.491 4.916,-1.454c5.792,3.846 4.125,3.059 13.792,39.288c0.917,3.308 -1.458,7.295 -5.167,7.196c-5.625,-0.146 -30.958,-2.175 -34.083,-1.922l-0.125,1.959c0.167,11.967 4.25,22.108 8.458,33.054c3.417,8.971 3.209,21.046 -8.208,23.579c-6.167,1.38 -18.875,0.479 -28.625,-0.65c5.167,17.554 10.416,35.08 15.458,52.659c1,3.441 -1.666,8.295 -5.708,7.929c-11.333,-1.017 -22.667,-1.646 -34,-2.192c3.125,10.321 7.833,20.113 13.958,29.038c4.501,6.575 -4.75,14.612 -14.958,-2.75c-6.041,-9.534 -10.375,-19.959 -13.042,-31.092c-0.875,-3.683 1.584,-8.029 5.75,-7.95c11.25,0.208 22.5,0.929 33.709,1.871c-4.917,-17.546 -9.625,-35.158 -14.584,-52.704c-1.208,-4.308 2.584,-7.892 6.792,-7.176Z" style="fill:#66ccb2;fill-rule:nonzero;"/><path d="M5011.04,873.225c-3.292,-0.108 -5.292,-2.254 -5.75,-5.408c-2.25,-15.421 -3.125,-30.667 -0.042,-46.092c1.625,-8.021 13.291,-5.004 12.208,2.842c-1.708,12.308 -2.833,25.021 -1.666,37.479c9.125,-0.192 18.125,-1.271 27.041,-3.433c3.375,-0.821 7.792,1.475 7.542,5.462c-0.584,9.933 -3.958,47.479 -4.375,47.809c0.084,-0.034 0.333,-0.097 0.958,0.037c3.917,0.779 17.375,-1.996 23.5,-1.617c6.834,0.43 9,9.712 9.375,15.325c0.708,11.388 -7.791,23.9 -3.833,35.033c3.833,10.705 20.708,-1.083 33.25,7.663c9.709,6.742 6.333,18.096 2.375,36.025c-1,4.4 -2,8.684 -6.375,10.858c-1.042,0.538 -2.625,0.613 -3.5,-0.391c-4.75,-5.467 -2.292,-11.934 0.917,-28.325c0.375,-2.088 1.708,-5.605 0.249,-7.484c-4.833,-6.262 -19.083,2.65 -30.583,-4.837c-8.958,-5.833 -10.25,-17.296 -8.791,-27c1.166,-7.604 5.833,-16.95 3.375,-24.709c-6.5,0.346 -13.083,0.871 -19.584,0.713c-7.083,-0.179 -11.916,-3.921 -12.249,-11.192c-0.418,-8.033 0.958,-16.37 1.583,-24.379c0.416,-5.392 0.791,-10.779 1.291,-16.162c-8.916,1.421 -17.875,2.075 -26.916,1.783Z" style="fill:#07345a;fill-rule:nonzero;"/><path d="M5481.42,1267.25c27.125,34.771 1.583,51.638 -9.792,41.554c-4.875,-4.32 -5.083,-11.817 0.625,-15.466c2.625,-1.675 6.792,0.966 5.708,4.158c-0.875,2.646 2.125,3.342 3.375,0.542c1.625,-3.771 -1.041,-8.459 -2.666,-11.775c-3.876,-7.742 -8.792,-17.838 -18.334,-19.346c-14.208,-2.25 -29.666,11.987 -21.875,33.746c11.292,31.387 62.125,31.004 71.334,-1.825c5,-17.863 -2.167,-37.325 -16.625,-48.667c-2.833,-2.213 0.625,-5.988 3.499,-4.762c21.667,9.279 29.334,37.458 21.417,58.529c-8.125,21.612 -31.25,31.962 -53.291,28.233c-23.125,-3.913 -41.959,-24.225 -38.917,-48.446c3.333,-26.562 36.542,-40.783 55.542,-16.475Z" style="fill:#3c8f7c;fill-rule:nonzero;"/><path d="M4921.17,976.696c3.792,5.662 5.917,17.208 -1.749,20.791c-3.583,1.667 -7.875,0.601 -9.125,-3.533c-1.208,-4.042 1,-7.733 -2.625,-10.912c-3.084,-2.725 -7.709,-1.225 -10.583,1.137c-8.875,7.208 -6.584,23.021 -1.959,31.954c7.291,14.192 27.25,17.071 37.208,2.146c3.084,-4.663 3.875,-10.15 5.25,-15.471c0.75,-2.937 5.458,-4.262 6.958,-1.104c5.75,12.142 -2.333,26.792 -12.708,33.688c-10.833,7.237 -26.083,6.612 -36.791,-0.55c-12,-7.996 -17.708,-23.73 -17.208,-37.771c1,-29.167 31.208,-38.704 43.332,-20.375Z" style="fill:#f7cc7f;fill-rule:nonzero;"/><path d="M3544.38,5047.29c0,-0 12.917,21 38.458,8.333c31.125,-15.5 18.709,-38.875 18.709,-38.875l-57.167,30.542Z" style="fill:#fff;fill-rule:nonzero;"/><path d="M5120.71,1499.12c0,-0 2.542,24.529 31.042,24.125c34.792,-0.496 33.708,-26.917 33.708,-26.917l-64.75,2.792Z" style="fill:#fff;fill-rule:nonzero;"/></svg>