<?xml version="1.0" encoding="UTF-8" standalone="no"?><!DOCTYPE svg PUBLIC "-//W3C//DTD SVG 1.1//EN" "http://www.w3.org/Graphics/SVG/1.1/DTD/svg11.dtd"><svg width="100%" height="100%" viewBox="0 0 935 652" version="1.1" xmlns="http://www.w3.org/2000/svg" xmlns:xlink="http://www.w3.org/1999/xlink" xml:space="preserve" xmlns:serif="http://www.serif.com/" style="fill-rule:evenodd;clip-rule:evenodd;stroke-linejoin:round;stroke-miterlimit:2;"><path d="M934.737,48.121l0,555.1c0,26.579 -21.545,48.121 -48.124,48.121l-838.492,-0c-26.579,-0 -48.121,-21.542 -48.121,-48.121l0,-555.1c0,-26.579 21.542,-48.121 48.121,-48.121l838.492,0c26.579,0 48.124,21.542 48.124,48.121Z" style="fill-rule:nonzero;"/><rect x="63.95" y="20.537" width="780.621" height="610.267" style="fill:#fff;fill-rule:nonzero;"/><path d="M887.767,300.679c13.8,0 24.991,11.192 24.991,24.992c0,13.804 -11.191,24.991 -24.991,24.991c-13.805,0 -24.992,-11.187 -24.992,-24.991c-0,-13.8 11.187,-24.992 24.992,-24.992Z" style="fill:#696464;fill-rule:nonzero;"/><path d="M37.246,232.646l-0,186.05c-0,2.796 -2.267,5.062 -5.067,5.062l-0.196,0c-2.796,0 -5.062,-2.266 -5.062,-5.062l-0,-186.05c-0,-2.796 2.266,-5.063 5.062,-5.063l0.196,0c2.8,0 5.067,2.267 5.067,5.063Z" style="fill:#696464;fill-rule:nonzero;"/><rect x="419.987" y="66.396" width="248.254" height="16.604" style="fill:#696464;fill-rule:nonzero;"/><rect x="96.629" y="351.917" width="248.25" height="16.608" style="fill:#696464;fill-rule:nonzero;"/><path d="M728.729,128.242c0,0.6 -69.121,1.087 -154.362,1.087c-85.275,0 -154.38,-0.487 -154.38,-1.087c0,-0.6 69.105,-1.084 154.38,-1.084c85.241,0 154.362,0.484 154.362,1.084Z" style="fill:#335863;fill-rule:nonzero;"/><path d="M728.729,164.504c0,0.6 -69.121,1.088 -154.362,1.088c-85.275,-0 -154.38,-0.488 -154.38,-1.088c0,-0.6 69.105,-1.083 154.38,-1.083c85.241,-0 154.362,0.483 154.362,1.083Z" style="fill:#335863;fill-rule:nonzero;"/><path d="M728.729,200.771c0,0.596 -69.121,1.083 -154.362,1.083c-85.275,0 -154.38,-0.487 -154.38,-1.083c0,-0.604 69.105,-1.088 154.38,-1.088c85.241,0 154.362,0.484 154.362,1.088Z" style="fill:#335863;fill-rule:nonzero;"/><path d="M728.729,237.033c0,0.596 -69.121,1.084 -154.362,1.084c-85.275,-0 -154.38,-0.488 -154.38,-1.084c0,-0.6 69.105,-1.087 154.38,-1.087c85.241,-0 154.362,0.487 154.362,1.087Z" style="fill:#335863;fill-rule:nonzero;"/><path d="M728.729,273.296c0,0.596 -69.121,1.083 -154.362,1.083c-85.275,0 -154.38,-0.487 -154.38,-1.083c0,-0.6 69.105,-1.088 154.38,-1.088c85.241,0 154.362,0.488 154.362,1.088Z" style="fill:#335863;fill-rule:nonzero;"/><path d="M661.021,309.558c-0,0.596 -53.959,1.084 -120.513,1.084c-66.571,-0 -120.521,-0.488 -120.521,-1.084c0,-0.6 53.95,-1.087 120.521,-1.087c66.554,-0 120.513,0.487 120.513,1.087Z" style="fill:#335863;fill-rule:nonzero;"/><path d="M504.342,417.296c-0,0.6 -90.671,1.087 -202.492,1.087c-111.862,0 -202.513,-0.487 -202.513,-1.087c0,-0.596 90.651,-1.079 202.513,-1.079c111.821,-0 202.492,0.483 202.492,1.079Z" style="fill:#335863;fill-rule:nonzero;"/><path d="M504.342,447.529c-0,0.596 -90.671,1.083 -202.492,1.083c-111.862,0 -202.513,-0.487 -202.513,-1.083c0,-0.6 90.651,-1.087 202.513,-1.087c111.821,-0 202.492,0.487 202.492,1.087Z" style="fill:#335863;fill-rule:nonzero;"/><path d="M504.342,477.758c-0,0.6 -90.671,1.084 -202.492,1.084c-111.862,-0 -202.513,-0.484 -202.513,-1.084c0,-0.6 90.651,-1.087 202.513,-1.087c111.821,-0 202.492,0.487 202.492,1.087Z" style="fill:#335863;fill-rule:nonzero;"/><path d="M504.342,507.987c-0,0.6 -90.671,1.088 -202.492,1.088c-111.862,-0 -202.513,-0.488 -202.513,-1.088c0,-0.6 90.651,-1.083 202.513,-1.083c111.821,0 202.492,0.483 202.492,1.083Z" style="fill:#335863;fill-rule:nonzero;"/><path d="M504.342,538.217c-0,0.6 -90.671,1.087 -202.492,1.087c-111.862,0 -202.513,-0.487 -202.513,-1.087c0,-0.596 90.651,-1.084 202.513,-1.084c111.821,0 202.492,0.488 202.492,1.084Z" style="fill:#335863;fill-rule:nonzero;"/><rect x="99.337" y="57.862" width="248.879" height="240.788" style="fill:#d7d9d9;fill-rule:nonzero;"/><path d="M118.633,278.042l68.846,-123.905l56.317,79.192l34.216,-42.054l50.909,86.767l-210.288,-0Z" style="fill:#d7d9d9;fill-rule:nonzero;"/><path d="M267.779,130.033c0,9.896 -8.017,17.913 -17.908,17.913c-9.892,-0 -17.909,-8.017 -17.909,-17.913c0,-9.891 8.017,-17.908 17.909,-17.908c9.891,-0 17.908,8.017 17.908,17.908Z" style="fill:#d7d9d9;fill-rule:nonzero;"/><path d="M328.921,278.712c-0.021,-0.016 -0.038,-0.35 -0.059,-0.987c-0.012,-0.721 -0.033,-1.638 -0.058,-2.808c-0.025,-2.563 -0.067,-6.175 -0.117,-10.834c-0.062,-9.55 -0.15,-23.362 -0.262,-40.896c-0.129,-35.17 -0.308,-85.254 -0.521,-145.383l1.017,1.013c-60.904,0.054 -133.1,0.108 -210.267,0.17c-0.283,0.25 2.225,-2.229 1.163,-1.15l-0,27.246c-0.005,9.021 -0.005,17.959 -0.009,26.809c-0.012,17.695 -0.021,35.02 -0.029,51.883c-0.042,33.725 -0.079,65.608 -0.112,94.937l-1.034,-1.033c62.763,0.217 115.188,0.396 152.042,0.525c18.375,0.117 32.867,0.204 42.883,0.271c4.896,0.05 8.692,0.092 11.379,0.121c1.23,0.025 2.196,0.041 2.946,0.058c0.667,0.017 1.017,0.038 1.038,0.058c0.021,0.017 -0.292,0.038 -0.921,0.059c-0.725,0.012 -1.65,0.033 -2.838,0.058c-2.637,0.029 -6.366,0.071 -11.175,0.121c-9.958,0.062 -24.37,0.154 -42.65,0.271c-37.016,0.125 -89.67,0.308 -152.704,0.525l-1.033,0.004l-0,-1.038c-0.033,-29.329 -0.075,-61.212 -0.113,-94.937c-0.008,-16.863 -0.02,-34.188 -0.033,-51.883c0,-8.85 -0.004,-17.788 -0.004,-26.809c-0.004,-4.512 -0.004,-9.046 -0.004,-13.596l-0,-13.65c-1.059,1.042 1.441,-1.487 1.208,-1.22c77.167,0.062 149.363,0.116 210.267,0.166l1.021,0.004l-0.005,1.017c-0.216,60.4 -0.395,110.704 -0.52,146.033c-0.113,17.434 -0.2,31.171 -0.267,40.663c-0.05,4.575 -0.088,8.125 -0.117,10.642c-0.021,1.12 -0.041,2.004 -0.058,2.695c-0.017,0.6 -0.033,0.892 -0.054,0.875Z" style="fill:#335863;fill-rule:nonzero;"/><rect x="560.204" y="383.862" width="176.138" height="170.404" style="fill:#d7d9d9;fill-rule:nonzero;"/><path d="M573.863,539.683l48.72,-87.687l39.859,56.046l24.212,-29.763l36.029,61.404l-148.82,0Z" style="fill:#d7d9d9;fill-rule:nonzero;"/><path d="M679.417,434.937c-0,7 -5.675,12.675 -12.675,12.675c-7.005,0 -12.675,-5.675 -12.675,-12.675c-0,-7 5.67,-12.675 12.675,-12.675c7,0 12.675,5.675 12.675,12.675Z" style="fill:#d7d9d9;fill-rule:nonzero;"/><path d="M722.683,540.158c-0.012,-0.012 -0.025,-0.25 -0.041,-0.7c-0.009,-0.508 -0.021,-1.158 -0.038,-1.983c-0.021,-1.817 -0.05,-4.375 -0.083,-7.671c-0.046,-6.758 -0.109,-16.529 -0.188,-28.937c-0.091,-24.892 -0.216,-60.338 -0.371,-102.892l0.721,0.717c-43.1,0.037 -94.196,0.079 -148.808,0.12c-0.2,0.175 1.575,-1.579 0.825,-0.816l-0,9.662c-0,3.221 -0.004,6.429 -0.004,9.617c-0,6.387 -0,12.717 -0.004,18.975c-0.009,12.525 -0.013,24.783 -0.021,36.721c-0.029,23.866 -0.054,46.429 -0.079,67.187l-0.729,-0.733c44.416,0.158 81.516,0.283 107.599,0.375c13.005,0.079 23.263,0.146 30.351,0.192c3.462,0.033 6.149,0.062 8.054,0.083c0.871,0.017 1.55,0.029 2.083,0.042c0.471,0.012 0.721,0.025 0.733,0.041c0.017,0.013 -0.204,0.029 -0.654,0.042c-0.512,0.008 -1.166,0.025 -2.004,0.042c-1.867,0.02 -4.504,0.045 -7.908,0.083c-7.05,0.046 -17.25,0.112 -30.188,0.192c-26.196,0.091 -63.458,0.22 -108.066,0.37l-0.734,0.005l0,-0.734c-0.025,-20.758 -0.054,-43.321 -0.079,-67.187c-0.004,-11.938 -0.012,-24.196 -0.021,-36.721c0,-6.258 -0.004,-12.588 -0.004,-18.975l-0,-14.454l-0.004,-2.429l-0,-2.396c-0.75,0.737 1.021,-1.05 0.854,-0.863c54.612,0.046 105.708,0.084 148.808,0.121l0.725,0l-0.004,0.721c-0.154,42.742 -0.279,78.346 -0.366,103.346c-0.084,12.341 -0.151,22.058 -0.188,28.779c-0.038,3.237 -0.067,5.75 -0.088,7.529c-0.016,0.796 -0.029,1.421 -0.041,1.913c-0.008,0.42 -0.021,0.629 -0.038,0.616Z" style="fill:#335863;fill-rule:nonzero;"/></svg>