<?xml version="1.0" encoding="UTF-8" standalone="no"?><!DOCTYPE svg PUBLIC "-//W3C//DTD SVG 1.1//EN" "http://www.w3.org/Graphics/SVG/1.1/DTD/svg11.dtd"><svg width="100%" height="100%" viewBox="0 0 10501 7088" version="1.1" xmlns="http://www.w3.org/2000/svg" xmlns:xlink="http://www.w3.org/1999/xlink" xml:space="preserve" xmlns:serif="http://www.serif.com/" style="fill-rule:evenodd;clip-rule:evenodd;stroke-linejoin:round;stroke-miterlimit:2;"><path d="M9164.91,2029.13c0,0 -155.333,338.192 -259.874,481.05c-104.542,142.854 -204.126,279.463 -287.5,675.962c-83.417,396.501 -69.126,436.334 -91.959,538.751c-22.833,102.416 -171.375,517.333 -172.25,593.416c-0.875,76.084 -300.25,509.209 -376.958,711.959c-76.667,202.708 -212.542,492.291 -204.876,639.708l34.126,-8.667c-0,0 27.792,-343.75 264.458,-691.166c236.708,-347.417 202.829,-413 471.625,-591.501c268.75,-178.458 442.334,-671.458 442.334,-671.458c-0,0 273.416,-535.517 260.707,-813.895c-12.707,-278.384 59.834,-529.442 -79.833,-864.159Z" style="fill:#256653;fill-rule:nonzero;"/><path d="M8801.12,1508.99c0,0 -9.041,222.155 -80.707,354.125c-71.625,131.971 -133.375,212.125 -146.376,354.909c-12.999,142.783 -58,510.895 -257.833,690.604c-199.833,179.708 -225.333,718.187 -377.459,881.062c-152.083,162.917 -171.958,280 -143.874,559.375c28.083,279.375 123.499,666.542 -97.125,1171.92l-49.875,-125.708c-0,-0 157.833,-415.75 119.625,-659.209c-38.209,-243.416 -171.167,-611.291 -122.501,-787.708c48.667,-176.417 -132.333,-210.875 -23.333,-477.708c108.959,-266.829 64.209,-359.538 212.584,-590.246c-0,-0 15.208,-10.804 54.208,-205.996c39,-195.2 353.458,-552.967 498.375,-675.054c144.875,-122.088 353.708,-317.75 414.291,-490.363Z" style="fill:#256653;fill-rule:nonzero;"/><path d="M8210.91,2608.92c0,-0 -173.541,297.099 -176,488.325c-2.458,191.224 18.251,346.778 -69.541,608.612c-87.792,261.875 86.458,427.417 36.208,572c-50.208,144.583 -54.083,315.75 -52.583,445.542c1.541,129.833 -198.75,559.416 -229.25,776.916c-30.459,217.542 8.499,218.25 8.499,218.25c0,0 33.209,-287.166 79.292,-382.125c46.084,-94.958 186.209,-422.375 218.959,-549.041c32.708,-126.667 121.454,-207.959 198,-422.459c76.537,-214.541 185.375,-395.208 177.083,-699.625c-8.333,-304.383 114.166,-625.666 -190.667,-1056.39Z" style="fill:#3c8f7c;fill-rule:nonzero;"/><path d="M7843.53,5519.23c0,-0 80.917,-377.042 422.121,-414.708c341.255,-37.625 541.712,29.833 782.754,-245.625c241.083,-275.5 381.084,-712.625 458.084,-787.875c-0,-0 -121.126,-62.334 -322.458,125.916c-201.376,188.25 -342.834,331.084 -459.417,440.667c-116.542,109.625 -211.209,38.166 -334.292,110.417c-103.166,60.541 -236.541,235.583 -295.292,327.249c-19.083,29.792 -41.708,57.126 -67.708,81.084c-23.625,21.833 -51.792,48.583 -69.834,68.25c-36.124,39.375 -140.333,296 -140.333,296l26.375,-1.375Z" style="fill:#3c8f7c;fill-rule:nonzero;"/><path d="M7723.24,5452.73c-0,-0 120.291,-461.125 39.708,-686.792c-80.542,-225.625 -332.708,-392.625 -322.583,-534.375c10.125,-141.75 172.041,-524.875 40.041,-810.083c0,-0 -50.166,254.417 -99.624,311c-49.5,56.625 -389.042,284.833 -328.834,586.292c60.166,301.416 390.292,371.875 471.584,460.625c81.291,88.708 191.083,88.625 191.749,147.625c0.709,59 22.125,273.541 -14.333,485.25l22.292,40.458Z" style="fill:#3c8f7c;fill-rule:nonzero;"/><path d="M7854.74,5144.15l168.958,-486.667c-0,-0 99.246,-391.458 156.75,-717.875c57.542,-326.417 30.458,-1330.69 30.458,-1330.69c0,-0 -173.541,297.099 -176,488.325c-2.458,191.224 18.251,346.778 -69.541,608.612c-87.792,261.875 86.458,427.417 36.208,572c-50.208,144.583 -54.083,315.75 -52.583,445.542c1.541,129.833 -198.75,559.416 -229.25,776.916c-16.667,119.167 -12.542,173.209 -5.375,197.75c-27.084,-190.25 140.375,-553.916 140.375,-553.916Z" style="fill:#327f6b;fill-rule:nonzero;"/><path d="M8686.91,4854.23c-150.708,30.083 -285.458,19.833 -464.374,153c-178.917,133.167 -284.126,275.375 -284.126,275.375c0,-0 -80.417,143.708 -113.666,219.5c-4.792,11.583 -7.584,18.5 -7.584,18.5l26.375,-1.375c0,-0 80.917,-377.042 422.121,-414.708c341.255,-37.625 541.712,29.833 782.754,-245.625c241.083,-275.5 381.084,-712.625 458.084,-787.875c-0,-0 -256.376,199.458 -414.834,376c-158.417,176.5 -254,377.083 -404.75,407.208Z" style="fill:#327f6b;fill-rule:nonzero;"/><path d="M7380.78,3732.48c-49.5,56.625 -389.042,284.833 -328.834,586.292c60.166,301.416 390.292,371.875 471.584,460.625c81.291,88.708 191.083,88.625 191.749,147.625c0.709,59 22.125,273.541 -14.333,485.25l9.75,17.666c17.792,-82.625 42.5,-208.458 50.583,-304c13.125,-155.125 -12,-219.375 -61.875,-345.041c-49.874,-125.709 -359.749,-381.709 -437.416,-516.292c-77.625,-134.625 149.75,-359.583 200.208,-468.208c50.458,-108.626 18.208,-374.917 18.208,-374.917c0,-0 -50.166,254.417 -99.624,311Z" style="fill:#327f6b;fill-rule:nonzero;"/><path d="M8186.32,5229.94l53.047,-128.208c41.166,-94.292 146.458,-139.292 235.208,-100.542c223.708,97.625 320.917,369.375 217.208,607l-75.833,173.709c-33.208,76.083 -21.667,159.833 23.167,218.833c40.667,53.625 47.291,128.167 19.083,192.792l-39.958,91.583c-43.292,99.125 -127.501,172.583 -227.375,202.875c-58.417,17.708 -110,61.542 -137.292,124.042l-56.584,129.666c-62.587,143.334 -222.708,211.792 -357.666,152.917l-77,-33.625c-134.958,-58.917 -193.625,-222.875 -131.041,-366.25c101.207,-171.417 93.124,-299.333 57.249,-386.125c-52.708,-127.583 -52.083,-274.375 4.959,-405.042l8,-18.333c60.166,-137.917 176.458,-240.875 314.875,-284.959c61.125,-19.458 124.833,-66.999 169.953,-170.333Z" style="fill:#50bfa5;fill-rule:nonzero;"/><path d="M7231.24,7040.31c108.541,-140.75 703.75,-894.666 1091.83,-1020.33c428.417,-138.667 24.625,412.167 24.625,412.167c0,-0 759.958,-831 1038.88,-756.084c255.625,68.667 -0,583.75 -0,583.75c-0,0 287.917,-285.25 637.084,-285.25c339.791,0 -237.417,1011.58 -268.584,1065.75l-2523.83,0Z" style="fill:#96d9c9;fill-rule:nonzero;"/><path d="M9521.49,5409.31c-310.5,484.959 -537.126,1023.67 -666.667,1595.96l-21.292,-5.709c129,-560.333 354.125,-1098.08 664.084,-1582.5c72.041,-112.541 149.833,-246.125 284.749,-290.041c2.584,-0.834 3.584,3.125 1.084,4.041c-123.208,46.417 -194.542,173 -261.958,278.25Z" style="fill:#3c8f7c;fill-rule:nonzero;"/><path d="M8929.66,7025.36c347.001,-471.833 768.792,-907.958 1270.38,-1287.21c5.042,-3.792 11.792,4.958 6.75,8.833c-475.708,365.667 -896.583,797.458 -1250.75,1285.42l-26.376,-7.042Z" style="fill:#3c8f7c;fill-rule:nonzero;"/><path d="M9549.87,5108.61c8.001,11.75 38.584,42.417 47.584,82.667c12.083,38.208 2.541,86.041 1.5,84.375c-2.291,0.958 35.416,-30.917 47.208,-81.626c15.25,-48.666 4.584,-116.124 -14.416,-138.458c-32.751,-50.541 -90.001,-55.666 -101.125,-31.166c-11.792,24.333 3.166,57.458 19.249,84.208Z" style="fill:#3c8f7c;fill-rule:nonzero;"/><path d="M9624.16,5541.44c-11.583,-8.208 -41.667,-39.416 -81.749,-49.208c-37.959,-12.792 -85.959,-4.208 -84.334,-3.167c-0.958,2.292 31.625,-34.791 82.583,-45.541c48.917,-14.292 116.167,-2.292 138.126,17.125c49.874,33.75 53.874,91.083 29.166,101.708c-24.584,11.292 -57.375,-4.292 -83.792,-20.917Z" style="fill:#3c8f7c;fill-rule:nonzero;"/><path d="M9512.03,5731.15c-11.584,-8.209 -41.625,-39.417 -81.709,-49.167c-37.958,-12.833 -86,-4.25 -84.334,-3.208c-1,2.291 31.626,-34.792 82.542,-45.542c48.959,-14.292 116.208,-2.292 138.167,17.125c49.875,33.75 53.875,91.083 29.166,101.708c-24.583,11.334 -57.416,-4.291 -83.832,-20.916Z" style="fill:#3c8f7c;fill-rule:nonzero;"/><path d="M9911.91,6171.23c-11.583,-8.25 -41.625,-39.458 -81.75,-49.208c-37.958,-12.834 -85.958,-4.25 -84.292,-3.209c-1,2.292 31.584,-34.791 82.542,-45.541c48.917,-14.292 116.167,-2.292 138.125,17.125c49.876,33.75 53.876,91.083 29.167,101.708c-24.583,11.333 -57.375,-4.292 -83.792,-20.875Z" style="fill:#3c8f7c;fill-rule:nonzero;"/><path d="M10116.2,5991.23c-11.583,-8.208 -41.666,-39.417 -81.75,-49.208c-37.958,-12.834 -85.958,-4.209 -84.334,-3.167c-1,2.292 31.626,-34.792 82.584,-45.583c48.917,-14.25 116.166,-2.25 138.125,17.125c49.875,33.75 53.875,91.083 29.166,101.75c-24.583,11.291 -57.375,-4.292 -83.791,-20.917Z" style="fill:#3c8f7c;fill-rule:nonzero;"/><path d="M9393.03,5323.27c9.751,10.333 44.792,35.791 60,74.166c17.958,35.792 16.084,84.542 14.792,83.042c-2.125,1.333 30.083,-36.125 33.75,-88.042c7.375,-50.458 -13.792,-115.375 -36.042,-134.458c-40.333,-44.75 -97.667,-40.75 -104.791,-14.833c-7.792,25.916 12.208,56.25 32.291,80.125Z" style="fill:#3c8f7c;fill-rule:nonzero;"/><path d="M9228.16,5538.4c13.875,7.375 62.375,20.708 86.75,57c27.584,32.25 31.083,87.458 29.25,86.333c-2.583,2.375 34.542,-53.25 32.917,-112.792c3.458,-59.458 -31.875,-122.833 -63,-134.541c-57.625,-32.625 -131.375,-3.542 -137.416,28.5c-6.959,32.25 22.624,57.5 51.499,75.5Z" style="fill:#3c8f7c;fill-rule:nonzero;"/><path d="M9054.7,5864.27c14.917,4.916 64.917,9.916 95.042,41.583c32.624,27.167 45.375,81 43.375,80.208c-2.167,2.75 25.083,-58.291 13.5,-116.708c-6.626,-59.208 -52.084,-115.75 -84.751,-122.083c-62.291,-22.417 -130.083,18.625 -130.666,51.208c-1.459,32.958 31.958,52.917 63.5,65.792Z" style="fill:#3c8f7c;fill-rule:nonzero;"/><path d="M9568.08,6091.27c10.875,6.791 49.541,20.375 67.291,51.291c20.584,27.792 20.292,72.917 18.875,71.875c-2.25,1.792 31.125,-41.333 33.209,-89.833c6.208,-48.167 -18.916,-101.75 -43.584,-113.083c-45.041,-29.792 -106.666,-10.334 -113.416,15.375c-7.5,25.833 15.125,48.083 37.625,64.375Z" style="fill:#3c8f7c;fill-rule:nonzero;"/><path d="M9835.37,5184.9c-6.499,-5.374 -22.916,-25.166 -46.207,-32.708c-21.917,-9.25 -50.668,-6.25 -49.75,-5.541c-0.668,1.291 20.208,-19.209 50.833,-23.334c29.583,-6.333 68.833,3.709 80.958,16.167c28.042,22.125 27.875,56.208 12.792,61.417c-15,5.624 -33.75,-5.042 -48.626,-16.001Z" style="fill:#3c8f7c;fill-rule:nonzero;"/><path d="M9773.12,5046.4c0.292,8.458 5.917,33.5 -2.333,56.541c-6.042,23 -25.958,43.959 -25.958,42.834c-1.458,-0.25 27.542,-4.334 49.5,-26.042c23.084,-19.542 39.083,-56.792 36.625,-74c-0.417,-35.708 -27.5,-56.417 -40.833,-47.625c-13.625,8.458 -16.625,29.792 -17.001,48.292Z" style="fill:#3c8f7c;fill-rule:nonzero;"/><path d="M10263.3,5807.9c-6.5,-5.334 -22.916,-25.125 -46.208,-32.667c-21.917,-9.25 -50.667,-6.25 -49.75,-5.583c-0.709,1.333 20.208,-19.167 50.833,-23.334c29.583,-6.291 68.834,3.75 80.958,16.167c28.042,22.167 27.875,56.25 12.792,61.458c-15,5.625 -33.75,-5.041 -48.625,-16.041Z" style="fill:#3c8f7c;fill-rule:nonzero;"/><path d="M10188.2,5668.23c1,8.375 8.666,32.917 2.333,56.542c-4.167,23.416 -22.291,45.958 -22.375,44.791c-1.458,-0.125 27.125,-6.541 47.251,-29.958c21.333,-21.417 34.25,-59.792 30.416,-76.75c-3.333,-35.583 -32.042,-54 -44.625,-44.167c-12.875,9.584 -14.083,31.084 -13,49.542Z" style="fill:#3c8f7c;fill-rule:nonzero;"/><path d="M10136,6570.81c-317.042,34.75 -612.333,174.709 -896.625,311.167c-191.666,92.042 -182,118.25 -221.041,131.958c-6.334,2.209 -12.667,-4.666 -9.584,-10.75c15,-29.75 54.417,-49.875 81.791,-67c31.917,-19.916 65.251,-37.541 99.042,-53.958c72.375,-35.125 146.584,-66.708 220.334,-98.75c150.041,-65.208 302.541,-126.542 461.041,-168.042c86.917,-22.75 175.334,-39.166 264.834,-47.208c1.666,-0.167 1.874,2.375 0.208,2.583Z" style="fill:#3c8f7c;fill-rule:nonzero;"/><path d="M9850.2,6472.48c2.041,13.042 15.625,50.792 7.25,88.083c-4.958,36.792 -31.833,73.125 -32,71.334c-2.334,-0.125 41.875,-11.959 71.75,-49.834c31.958,-34.75 49.625,-95.5 42.541,-121.708c-7.5,-55.292 -53.457,-82.167 -72.457,-66c-19.501,15.75 -20.001,49.375 -17.084,78.125Z" style="fill:#3c8f7c;fill-rule:nonzero;"/><path d="M9570.87,6572.52c2.084,13 15.625,50.75 7.25,88.083c-4.958,36.792 -31.791,73.125 -31.999,71.292c-2.292,-0.125 41.875,-11.959 71.749,-49.792c32,-34.75 49.668,-95.542 42.584,-121.75c-7.541,-55.292 -53.5,-82.167 -72.5,-66c-19.458,15.75 -20,49.417 -17.084,78.167Z" style="fill:#3c8f7c;fill-rule:nonzero;"/><path d="M9287.08,6699.02c2.042,13 15.584,50.75 7.25,88.083c-4.958,36.792 -31.834,73.125 -32,71.292c-2.333,-0.084 41.875,-11.959 71.75,-49.792c31.958,-34.75 49.625,-95.542 42.542,-121.75c-7.5,-55.25 -53.501,-82.167 -72.459,-66c-19.5,15.75 -19.999,49.417 -17.083,78.167Z" style="fill:#3c8f7c;fill-rule:nonzero;"/><path d="M9933.58,6733.48c-5.75,-10.75 -16.834,-46.125 -43.792,-68.958c-24.208,-24.375 -64.291,-36.125 -63.416,-34.709c-1.625,1.375 37.541,-14.541 80.667,-3.333c42.957,7.75 89.916,42.667 99.332,65.958c25.292,44.917 6.417,90.375 -16.583,89.084c-23.125,-0.709 -42.333,-25.25 -56.208,-48.042Z" style="fill:#3c8f7c;fill-rule:nonzero;"/><path d="M9643.03,6836.31c-5.708,-10.75 -16.833,-46.125 -43.791,-68.958c-24.209,-24.375 -64.292,-36.125 -63.417,-34.708c-1.625,1.375 37.542,-14.542 80.708,-3.334c42.958,7.75 89.875,42.667 99.292,65.959c25.292,44.916 6.417,90.375 -16.583,89.083c-23.126,-0.708 -42.292,-25.25 -56.209,-48.042Z" style="fill:#3c8f7c;fill-rule:nonzero;"/><path d="M10154.8,6627.61c-5,-6 -16.666,-26.75 -36.625,-37.5c-18.375,-12.125 -45.084,-14.208 -44.375,-13.417c-0.834,1.084 21.667,-14.083 50.208,-12.75c28,-0.791 62.084,14.917 71.084,28.292c21.833,24.875 16,55.917 1.375,58.125c-14.625,2.625 -29.917,-10.25 -41.667,-22.75Z" style="fill:#3c8f7c;fill-rule:nonzero;"/><path d="M10121.3,6491.02c-1.167,7.708 -0.208,31.5 -11.583,51.125c-9.375,19.916 -31.042,35.708 -30.833,34.625c-1.292,-0.459 25.833,0.708 49.458,-15.375c24.292,-13.959 45.125,-45.209 45.791,-61.292c5.584,-32.625 -15.625,-56.042 -29.25,-50.25c-13.833,5.417 -20.124,24.375 -23.583,41.167Z" style="fill:#3c8f7c;fill-rule:nonzero;"/><path d="M1955.56,4632.31c-372.555,-332.208 -564.117,-809.25 -659.213,-1151c-103.237,-370.962 -118.275,-667.033 -118.417,-669.983l-20.25,-1.25c0.142,2.971 15.246,301.221 119.109,674.692c95.979,345.083 289.558,827.041 666.729,1163.33l12.042,-15.792Z" style="fill:#3c8f7c;fill-rule:nonzero;"/><path d="M1220.37,2725.45c18.362,85.421 2.991,166.105 -36.159,224.367c-61.387,-45.187 -109.662,-117.596 -128.025,-203.016c-18.358,-85.417 -2.987,-166.105 36.163,-224.367c61.387,45.187 109.662,117.6 128.021,203.016Z" style="fill:#3c8f7c;fill-rule:nonzero;"/><path d="M1106.1,2968.68c64.188,59.721 101.708,138.162 108.979,213.696c-70.462,3.204 -147.987,-25.392 -212.175,-85.113c-64.187,-59.72 -101.708,-138.158 -108.979,-213.691c70.462,-3.209 147.988,25.391 212.175,85.108Z" style="fill:#3c8f7c;fill-rule:nonzero;"/><path d="M1075.98,3224.24c79.767,25.025 145.188,80.579 183.905,148.058c-57.892,37.171 -135.446,47.855 -215.213,22.842c-79.771,-25.025 -145.188,-80.579 -183.904,-148.058c57.891,-37.171 135.441,-47.871 215.212,-22.842Z" style="fill:#3c8f7c;fill-rule:nonzero;"/><path d="M1198.83,3531.65c63.184,19.962 113.704,70.916 142.321,135.291c-47.904,40.25 -110.633,55.5 -173.821,35.584c-63.183,-19.959 -113.704,-70.917 -142.325,-135.288c47.905,-40.254 110.638,-55.504 173.825,-35.587Z" style="fill:#3c8f7c;fill-rule:nonzero;"/><path d="M1306.73,3092.89c49.725,-50.062 115.587,-71.4 179.337,-64.558c3.534,67.475 -19.733,135.859 -69.462,185.921c-49.725,50.058 -115.588,71.4 -179.342,64.554c-3.529,-67.471 19.738,-135.858 69.467,-185.917Z" style="fill:#3c8f7c;fill-rule:nonzero;"/><path d="M1364.36,3313.21c49.729,-50.062 115.591,-71.404 179.341,-64.558c3.533,67.471 -19.733,135.854 -69.462,185.908c-49.725,50.083 -115.588,71.417 -179.342,64.584c-3.529,-67.5 19.737,-135.876 69.463,-185.934Z" style="fill:#3c8f7c;fill-rule:nonzero;"/><path d="M1731.04,5082.81c-344.034,-50.125 -638.455,-253.958 -824.859,-416.125c-202.367,-176 -324.717,-342.333 -325.929,-344l-12.254,7.042c1.225,1.667 124.45,169.25 328.129,346.458c188.217,163.792 485.683,369.667 833.983,420.459l0.93,-13.834Z" style="fill:#50bfa5;fill-rule:nonzero;"/><path d="M571.962,4256.48c43.45,42.583 65.476,95.417 65.075,144.291c-53.025,-2.708 -108.874,-26.291 -152.325,-68.874c-43.445,-42.625 -65.474,-95.417 -65.075,-144.334c53.03,2.75 108.876,26.292 152.325,68.917Z" style="fill:#50bfa5;fill-rule:nonzero;"/><path d="M598.871,4441.73c60.229,10.083 112.137,41.25 145.35,82.375c-39.729,28.917 -95.771,42.041 -155.996,31.958c-60.229,-10.083 -112.142,-41.291 -145.35,-82.416c39.729,-28.875 95.771,-42 155.996,-31.917Z" style="fill:#50bfa5;fill-rule:nonzero;"/><path d="M679.425,4601.81c55.975,-16.041 115.317,-8.875 163.717,15.5c-19.388,43.834 -60.367,79.792 -116.338,95.875c-55.975,16.042 -115.316,8.875 -163.717,-15.5c19.388,-43.833 60.367,-79.791 116.338,-95.875Z" style="fill:#50bfa5;fill-rule:nonzero;"/><path d="M868.804,4733.4c44.379,-12.667 93.304,-2.417 134.642,24c-12.404,41.791 -43.017,74.75 -87.392,87.375c-44.379,12.666 -93.304,2.416 -134.646,-24c12.409,-41.792 43.017,-74.709 87.396,-87.375Z" style="fill:#50bfa5;fill-rule:nonzero;"/><path d="M763.158,4436.94c9.696,-48.208 39.792,-85.875 79.479,-106.333c27.942,37.833 40.659,86.542 30.963,134.708c-9.696,48.167 -39.796,85.875 -79.483,106.334c-27.942,-37.834 -40.659,-86.542 -30.959,-134.709Z" style="fill:#50bfa5;fill-rule:nonzero;"/><path d="M881.204,4542.9c9.7,-48.209 39.796,-85.876 79.483,-106.375c27.942,37.875 40.655,86.583 30.959,134.75c-9.696,48.166 -39.796,85.875 -79.479,106.333c-27.942,-37.875 -40.659,-86.542 -30.963,-134.708Z" style="fill:#50bfa5;fill-rule:nonzero;"/><path d="M1938.2,6112.52c-396.854,150.666 -833.704,71.083 -1130.3,-22.209c-321.979,-101.291 -552.846,-240.125 -555.146,-241.5l-8.796,16.792c2.309,1.417 234.863,141.333 558.971,243.333c299.5,94.25 740.85,174.584 1142.62,22.042l-7.354,-18.458Z" style="fill:#96d9c9;fill-rule:nonzero;"/><path d="M203.917,5768.19c72.041,28 127.416,82.584 156.529,146.209c-58.134,29.708 -131.875,34.166 -203.917,6.208c-72.041,-28 -127.417,-82.583 -156.529,-146.208c58.129,-29.709 131.875,-34.167 203.917,-6.209Z" style="fill:#96d9c9;fill-rule:nonzero;"/><path d="M344.521,5991.36c70.262,-24.667 144.425,-16.792 204.654,15.708c-24.863,62.334 -76.638,114.459 -146.904,139.167c-70.263,24.667 -144.425,16.75 -204.654,-15.708c24.866,-62.334 76.641,-114.459 146.904,-139.167Z" style="fill:#96d9c9;fill-rule:nonzero;"/><path d="M527.096,6148.36c49.929,-55.917 117.504,-83.792 183.8,-82.542c5.821,68.959 -16.096,141.25 -66.029,197.125c-49.934,55.917 -117.504,83.792 -183.8,82.542c-5.821,-68.917 16.1,-141.25 66.029,-197.125Z" style="fill:#96d9c9;fill-rule:nonzero;"/><path d="M782.546,6229.4c49.929,-55.875 117.504,-83.75 183.796,-82.5c5.825,68.916 -16.096,141.208 -66.025,197.125c-49.934,55.875 -117.505,83.75 -183.8,82.541c-5.821,-68.958 16.096,-141.25 66.029,-197.166Z" style="fill:#96d9c9;fill-rule:nonzero;"/><path d="M542.196,5967.52c-43.942,-57.209 -63.525,-126.167 -58.871,-188.709c57.871,6.75 117.037,40.375 160.975,97.584c43.937,57.208 63.525,126.166 58.867,188.708c-57.867,-6.75 -117.034,-40.375 -160.971,-97.583Z" style="fill:#96d9c9;fill-rule:nonzero;"/><path d="M807.571,6050.56c-44.763,-56.541 -65.413,-125.25 -61.775,-188c57.85,5.75 117.429,38.375 162.196,94.917c44.766,56.542 65.416,125.292 61.779,188.042c-57.854,-5.75 -117.434,-38.375 -162.2,-94.959Z" style="fill:#96d9c9;fill-rule:nonzero;"/><path d="M1118.26,6251.61c11.737,-29.792 35.054,-50.5 62.375,-59.042c13.104,27.542 15.387,60.25 3.649,90.042c-11.737,29.792 -35.054,50.5 -62.375,59.042c-13.108,-27.542 -15.383,-60.25 -3.649,-90.042Z" style="fill:#96d9c9;fill-rule:nonzero;"/><path d="M2789.95,7011.23c-0,-0 505.629,-1999.75 337.954,-2200.67c-231.716,-277.708 -422.862,643.5 -441.617,565.25c-177.124,-738.916 -224.304,-1684.38 -795.691,-1784.42c-324.809,-56.912 75.029,703.042 50.971,908.584c-24.055,205.542 -609.396,-476.875 -965.088,-834.375c-355.696,-357.517 -539.396,-131.162 -314.654,318.375c217.325,434.708 920.371,909.75 775.45,966.125c-144.917,56.375 -1024.72,-505.042 -1132.45,-265.042c-132.1,294.25 1187.64,694.667 1063.37,760.792c-124.276,66.083 -755.034,-151.625 -737.801,73.375c17.23,225.042 865.146,216.625 850.655,315.625c-23.463,160.25 -584.271,-202.5 -608.921,19.25c-25.213,226.792 737.796,185.417 724.579,362.333c-7.596,101.667 -171.317,-51.708 -195.442,89.125c-55.004,321.042 950.834,712.167 950.834,712.167l437.858,-6.5Z" style="fill:#3c8f7c;fill-rule:nonzero;"/><path d="M3175.49,7023.44c0,0 -481.199,-737.791 -712.758,-877.083c-246.729,-148.417 -58.891,295.958 -58.891,295.958c-0,0 -504.192,-599.958 -644.355,-478.083c-140.158,121.917 -12.946,263.083 -12.946,263.083c0,0 -452.645,-134.125 -534.004,32c-125.012,255.334 620.213,467.042 620.213,467.042c-0,-0 -319.913,-3.417 -261.054,168.958c88.762,259.959 1603.8,128.125 1603.8,128.125Z" style="fill:#50bfa5;fill-rule:nonzero;"/><path d="M1212.53,6259.31c81.359,-166.125 534.004,-32 534.004,-32c0,0 -127.212,-141.166 12.946,-263.083c140.163,-121.875 543.488,243 543.488,243c-0,-0 -42.275,-300.917 261.446,-35.833c216.933,189.333 611.07,852.041 611.07,852.041l-1962.95,-764.125Z" style="fill:#96d9c9;fill-rule:nonzero;"/><path d="M2591.38,5170.98l21.596,-14.75c-391.783,-593.333 -511.375,-1297.79 -542.717,-1784.28c-34.004,-527.934 25.688,-920.321 26.296,-924.221l-26.758,-7.771c-0.617,3.925 -60.759,398.938 -26.625,930.017c31.533,490.633 152.241,1201.34 548.208,1801.01Z" style="fill:#96d9c9;fill-rule:nonzero;"/><path d="M2173.68,2355.29c0.854,119.199 -40.496,217.745 -106.512,276.862c-67.046,-85.237 -109.93,-200.325 -110.788,-319.521c-0.85,-119.196 40.5,-217.746 106.513,-276.862c67.049,85.241 109.933,200.329 110.787,319.521Z" style="fill:#96d9c9;fill-rule:nonzero;"/><path d="M1961.46,2623.21c66.779,105.379 94.191,223.709 83.395,325.263c-91.671,-26.075 -183.945,-96.621 -250.725,-202.004c-66.779,-105.38 -94.191,-223.709 -83.395,-325.263c91.67,26.075 183.945,96.621 250.725,202.004Z" style="fill:#96d9c9;fill-rule:nonzero;"/><path d="M1854.42,2943.31c96.121,66.862 165.596,167.341 197.475,271.904c-84.53,23.583 -187.338,4.229 -283.463,-62.629c-96.121,-66.862 -165.6,-167.342 -197.479,-271.9c84.538,-23.587 187.342,-4.234 283.467,62.625Z" style="fill:#96d9c9;fill-rule:nonzero;"/><path d="M1979.78,3502.15c41.921,25.004 73.767,65.129 90.121,108.208c-34.417,12.833 -77.7,8.125 -119.621,-16.917c-41.921,-25 -73.771,-65.125 -90.121,-108.208c34.417,-12.834 77.7,-8.125 119.621,16.917Z" style="fill:#96d9c9;fill-rule:nonzero;"/><path d="M2013.85,3709.15c41.917,25.041 73.767,65.125 90.121,108.25c-34.421,12.791 -77.7,8.083 -119.621,-16.917c-41.921,-25 -73.771,-65.125 -90.121,-108.25c34.417,-12.792 77.7,-8.083 119.621,16.917Z" style="fill:#96d9c9;fill-rule:nonzero;"/><path d="M2186.86,2871.21c77.454,-43.887 168.034,-43.421 248.371,-7.133c-13.466,89.446 -61.712,168.571 -139.167,212.462c-77.454,43.888 -168.029,43.421 -248.37,7.133c13.466,-89.445 61.712,-168.575 139.166,-212.462Z" style="fill:#96d9c9;fill-rule:nonzero;"/><path d="M2202.32,3183.07c77.454,-43.887 168.029,-43.42 248.371,-7.133c-13.467,89.442 -61.713,168.571 -139.167,212.459c-77.454,43.879 -168.029,43.42 -248.371,7.133c13.467,-89.442 61.713,-168.571 139.167,-212.459Z" style="fill:#96d9c9;fill-rule:nonzero;"/><path d="M2186.96,3629.4c50.413,-28.542 109.367,-28.246 161.659,-4.625c-8.767,58.208 -40.167,109.708 -90.579,138.291c-50.413,28.542 -109.371,28.25 -161.659,4.625c8.763,-58.208 40.167,-109.708 90.579,-138.291Z" style="fill:#96d9c9;fill-rule:nonzero;"/><path d="M7715.37,5388.94c45.5,7.417 42.833,14.834 48.666,15.625c6.917,0.917 89.084,-40.333 89.084,-40.333c-0,-0 243.041,-119.959 255.917,-126.917l175.412,-220.708l135.212,62.375c-0,-0 -197.291,234.625 -209.791,244.958c-12.459,10.334 -360.917,132.542 -391.209,144.334c0,-0 -30.583,27.916 -50.333,44.791c-19.791,16.834 -46.208,23.542 -52.5,27.375c-0.958,0.584 -22.75,12.084 -53.583,18.792c-26.542,5.792 -4.417,-12.25 -4.417,-12.25c0,-0 47,-19.833 44.667,-23.417c-1.792,-2.791 -26.75,9.625 -56.042,16.334c-7.542,1.708 -15,3.416 -21.834,4.875c-17.999,3.875 -25.874,-6.417 -7.833,-13.584c6.375,-2.5 17.084,-6.458 25.167,-8.125c8.708,-1.833 16.041,-6.416 23.083,-9.083c14,-5.333 24.292,-9.042 23.75,-9.5c-0.75,-0.625 1.25,-3.75 -6.833,-2.167c-9.667,1.917 -29.25,10.625 -43.75,12.25c-8.208,0.959 -25.25,3.959 -25.25,3.959c0,-0 -30.167,2.875 -30.375,-1.334c-0.417,-9.25 18.125,-14.375 29.541,-14.166c7.167,-3.667 25.209,-6.292 25.209,-6.292c-0,-0 34.958,-13.833 32.917,-19c-0.792,-2.042 -21.959,1.125 -44.417,2.667c-23.75,1.625 -40.958,1.625 -42.25,-3c-2,-7.292 16.917,-10.042 16.917,-10.042c-0,-0 16.666,-2.417 22.125,-3.667c6.375,-1.458 25.166,-7.375 25.166,-7.375c0,0 64.333,-23.625 62,-28.333c-2.333,-4.75 -12.958,-14.709 -17.499,-14.667c-4.542,0 -12.626,4.542 -17.168,4.584c-4.541,-0 -14.291,-0.875 -14.958,-6.584c-0.708,-5.708 24.5,-17.5 24.5,-17.5c0,0 17.542,-7 30.709,-4.875Z" style="fill:#f8a492;fill-rule:nonzero;"/><path d="M8162.36,5153.31c0,0 43.792,39.75 62.005,52.834c15.12,10.875 88.875,46.416 88.875,46.416c0,0 73.333,-112.333 105.416,-168.666c38.917,-68.375 65.875,-170 56.667,-172.75c-25.833,-7.751 -61.333,-12.459 -94.125,2.583c-113.504,52.083 -218.838,239.583 -218.838,239.583Z" style="fill:#355389;fill-rule:nonzero;"/><path d="M7757.87,5447.65c-19.5,3.083 -39.417,-0.625 -48.042,-18.459c-1.916,21.167 30.125,31.667 48.042,18.459Z" style="fill:#fe875e;fill-rule:nonzero;"/><path d="M2318.56,4659.65c2.704,-65.416 -6.892,-130.041 -36.038,-190.916c-25.075,-52.417 -87.121,-82.167 -143.704,-82.208c-179.667,-0.25 -202.517,238.166 -316.884,330.125c-34.945,28.083 -74.012,50.958 -107.074,81.291c-122.109,111.875 -67.109,319 45.012,417.125c77.808,68.042 200.092,106.75 295.983,53.5c50.059,-27.75 88.059,-73.916 115.129,-124.542c38.426,-71.791 63.192,-154.624 90.521,-231.166c29.088,-81.458 53.459,-166.25 57.055,-253.209Z" style="fill:#13375b;fill-rule:nonzero;"/><path d="M2347.91,4976.44c-56.121,-170.25 -130.204,-167.583 -130.204,-167.583l59.858,362.5c34.659,-9.458 79.78,-30.542 114.396,-40.333c-11.475,-53.834 -30.225,-112.667 -44.05,-154.584Z" style="fill:#f7cc7f;fill-rule:nonzero;"/><path d="M2631.53,5557.06l-205.171,-156.5c0,0 -20.637,-146.041 -48.275,-275.583c-34.616,9.75 -65.862,36.917 -100.521,46.375l52.171,290.167l268.909,138.75l75.954,97.583l17.275,-100.208l-60.342,-40.584Z" style="fill:#f48c7f;fill-rule:nonzero;"/><path d="M4501.74,5312.61c63.709,-0 123.459,16.792 175.167,46.167c6.542,3.708 13.625,7.083 21.167,10.208c157.667,64.75 330.166,-55.167 330.166,-225.625l0,-838.208l-838.208,-0c-170.458,-0 -290.379,-172.542 -225.625,-330.167c3.125,-7.583 6.501,-14.667 10.208,-21.208c29.376,-51.667 46.167,-111.459 46.167,-175.167c0,-201.875 -168.333,-364.458 -372.3,-355c-184.571,8.542 -333.208,160.167 -338.362,344.875c-1.834,65.667 14.187,127.458 43.55,180.917c3.654,6.625 7.012,13.833 10.087,21.5c64.23,160.25 -57.608,334.25 -230.237,334.25l-831.008,-0l-0,1909.96c-0,450.542 365.237,815.75 815.779,815.75l1909.95,-0l0,-835.417c0,-171.291 -173.041,-291.958 -331.708,-227.416c-7.583,3.083 -14.708,6.458 -21.25,10.125c-56.541,31.75 -122.583,48.458 -192.833,44.75c-181,-9.584 -327.166,-156.667 -335.708,-337.667c-9.626,-204.125 153,-372.625 354.999,-372.625Z" style="fill:#f8593a;fill-rule:nonzero;"/><path d="M6318.45,4847.65c2.959,-63.666 22.542,-122.583 54.292,-172.833c3.999,-6.375 7.708,-13.291 11.167,-20.666c72.041,-154.459 -39.667,-332.375 -209.917,-340.334l-837.334,-39.166l-39.125,837.333c-7.958,170.25 -185.917,281.958 -340.375,209.917c-7.375,-3.459 -14.292,-7.167 -20.666,-11.167c-50.25,-31.75 -109.167,-51.333 -172.834,-54.292c-201.666,-9.416 -371.916,151.125 -372,355.292c-0.083,184.792 144.417,340.333 328.709,354.125c65.5,4.875 128,-8.25 182.708,-35.083c6.833,-3.334 14.209,-6.334 22,-9.042c163.083,-56.708 331.167,73.125 323.125,245.583l-38.833,830.084l1907.88,89.208c450.042,21.042 831.958,-326.75 853,-776.792l89.167,-1907.88l-834.501,-39c-171.083,-8 -299.708,159.208 -242.666,320.709c2.75,7.749 5.791,15 9.125,21.708c29.083,57.958 42.666,124.708 35.708,194.708c-18.042,180.334 -171.75,319.5 -353,319.584c-204.333,0.083 -365.084,-170.25 -355.625,-372.001Z" style="fill:#b0e6fc;fill-rule:nonzero;"/><path d="M3985.33,3529.28c3.208,63.621 -10.542,124.162 -37.292,177.245c-3.375,6.709 -6.416,13.959 -9.125,21.667c-56.75,160.709 71.667,327 241.876,318.417l837.166,-42.083l-42.083,-837.167c-8.542,-170.225 157.708,-298.654 318.416,-241.904c7.709,2.717 14.959,5.745 21.667,9.129c53.083,26.741 113.625,40.5 177.292,37.3c201.625,-10.137 355.541,-186.421 335.833,-389.65c-17.792,-183.913 -176.667,-324.746 -361.417,-320.617c-65.708,1.467 -126.583,20.571 -178.499,52.575c-6.459,3.988 -13.459,7.7 -21.001,11.159c-156.791,72.195 -336.666,-40.75 -345.333,-213.163l-41.75,-829.958l-1907.54,95.916c-449.975,22.625 -796.408,405.746 -773.783,855.721l95.921,1907.53l834.379,-41.958c171.063,-8.583 282.883,-187.5 210.458,-342.708c-3.458,-7.417 -7.183,-14.333 -11.191,-20.708c-34.521,-54.875 -54.534,-120 -54.35,-190.334c0.471,-181.246 140.016,-334.633 320.379,-352.258c203.354,-19.871 379.854,134.096 389.979,335.846Z" style="fill:#187ff7;fill-rule:nonzero;"/><path d="M5698.82,3067.23c-63.75,0 -123.5,-16.779 -175.209,-46.158c-6.499,-3.713 -13.583,-7.105 -21.166,-10.205c-157.625,-64.749 -330.167,55.167 -330.167,225.604l0,838.217l838.25,0c170.417,0 290.334,172.542 225.583,330.209c-3.083,7.541 -6.499,14.624 -10.208,21.166c-29.375,51.667 -46.166,111.459 -46.166,175.167c-0,201.875 168.333,364.458 372.333,355c184.541,-8.542 333.208,-160.167 338.333,-344.875c1.834,-65.667 -14.167,-127.458 -43.541,-180.917c-3.667,-6.625 -7,-13.833 -10.084,-21.5c-64.25,-160.25 57.584,-334.25 230.25,-334.25l831,0l0,-1909.94c0,-450.545 -365.25,-815.783 -815.791,-815.783l-1909.96,0l0,835.438c0,171.275 173.084,291.937 331.709,227.404c7.583,-3.088 14.708,-6.458 21.291,-10.137c56.5,-31.725 122.584,-48.438 192.834,-44.725c180.958,9.57 327.125,156.641 335.666,337.666c9.667,204.113 -153,372.621 -354.958,372.621Z" style="fill:#182f3d;fill-rule:nonzero;"/><path d="M1756.93,6765.86c0,-0 -12.654,88 -34.437,116.375c-7.309,9.542 -20.659,21.583 -29.421,38.833c-13.642,26.792 -6.1,66.709 3.962,88.709c5.163,11.291 -0.362,11.25 11.396,14.916c34.829,10.75 71.888,-7.375 86.721,-40.833c8.283,-18.667 15.55,-43.583 17.012,-74.958c3.721,-79.917 28.513,-120.542 28.513,-120.542l-83.746,-22.5Z" style="fill:#f7a491;fill-rule:nonzero;"/><path d="M2137.91,6806.11c0,-0 7.813,99.208 1.471,131.458c-3.395,17.292 -22.312,52.834 -13.637,69.084c8.679,16.25 18.596,20.291 18.596,20.291l224.891,3.667c12.25,0.167 4.155,-7.708 -5.725,-15c-16.166,-11.917 -29.212,-19.792 -80.854,-44.833c-3.371,-1.625 -15.633,-9.459 -20.054,-12.167c-11.213,-6.833 -22.475,-17.667 -32.171,-28.458c-16.146,-18.042 -17.558,-105.417 -17.558,-105.417l-74.959,-18.625Z" style="fill:#f7a491;fill-rule:nonzero;"/><path d="M2313.68,5487.11c0,-0 28.321,161.083 9.725,266.708c-18.591,105.625 -107.841,1084.71 -107.841,1084.71l-99.18,5.583c0,-0 -20.787,-408.958 -17.066,-465.833c3.716,-56.875 33.15,-152.042 33.15,-152.042l-9.875,-330.208l125.158,-433.792l65.929,24.875Z" style="fill:#355389;fill-rule:nonzero;"/><path d="M2022.19,5453.19c-0,0 -78.092,117.834 -96.688,215.334c-18.592,97.5 13.65,397.125 -22.117,524.916c-19.366,69.125 -92.749,175.959 -103.904,265.334c-11.158,89.375 -54.925,323.458 -54.925,323.458l99.134,19.708l230.391,-584.666l180.717,-528.459l46.296,-272.166l-278.904,36.541Z" style="fill:#466eb6;fill-rule:nonzero;"/><path d="M2085.41,4782.9c-0,-0 -103.401,-6.584 -144.305,38.083c-40.908,44.708 90.742,398.208 98.18,455.083c7.433,56.875 -37.917,208.084 -37.917,208.084c-0,-0 242.891,49 312.312,2.958c0,-0 7.438,-409 0,-449.625c-7.437,-40.625 -69.421,-205.833 -84.295,-222.083c-14.875,-16.25 -143.975,-32.5 -143.975,-32.5Z" style="fill:#f7cc7f;fill-rule:nonzero;"/><path d="M2119.83,4644.44c0,0 -0.537,3.042 -1.496,8.209c-4.612,24.916 -22.362,107.583 -34.358,130.291c-14.492,27.5 49.621,115.042 111.325,104.375c18.371,-3.208 -15.525,-80.458 -13.896,-88.666c3.117,-15.667 7.346,-37.042 11.671,-58.959c2.442,-12.375 4.917,-24.916 7.238,-36.708c6.6,-33.5 11.983,-60.875 11.983,-60.875l-92.467,2.333Z" style="fill:#f7a491;fill-rule:nonzero;"/><path d="M2118.34,4652.65c0.959,-5.167 1.496,-8.209 1.496,-8.209l92.467,-2.333c0,-0 -5.383,27.375 -11.983,60.875c-2.309,11.708 -4.767,24.208 -7.196,36.5c-14.275,-2.125 -29.192,-9.083 -44.146,-22.208c-16.308,-14.292 -26.992,-31.459 -33.442,-49.834c1.138,-5.875 2.088,-10.917 2.804,-14.791Z" style="fill:#f47458;fill-rule:nonzero;"/><path d="M2182.07,4433.77c-0,-0 -43.584,-5.042 -70.904,30.375c-27.317,35.416 -56.763,144.916 11.1,204.458c67.866,59.542 134.92,-7.875 144.862,-79.333c9.946,-71.459 13.808,-158.084 -85.058,-155.5Z" style="fill:#f7a491;fill-rule:nonzero;"/><path d="M2287.2,4588.23c-8.1,15.792 -21.696,24.541 -30.371,19.542c-8.67,-5 -9.137,-21.875 -1.033,-37.667c8.1,-15.75 21.696,-24.5 30.367,-19.5c8.67,5 9.137,21.833 1.037,37.625Z" style="fill:#f7a491;fill-rule:nonzero;"/><path d="M2186.94,4422.06c-0,0 -58.225,104.125 -99.879,108.959c-41.655,4.791 -47.121,60.124 -47.121,60.124c-0,0 14.887,-127.499 56.125,-152.083c41.237,-24.583 90.875,-17 90.875,-17Z" style="fill:#13375b;fill-rule:nonzero;"/><path d="M1801.9,6966.27c-54.033,9.875 -89.979,-21.792 -108.683,-45.5c-13.733,26.833 -20.433,66.916 -10.329,89c8.891,19.458 34.891,18.875 55.362,19.666c21.646,0.792 38.392,-11.25 49.129,-30.166c5.013,-8.792 10.188,-19.792 14.521,-33Z" style="fill:#f47458;fill-rule:nonzero;"/><path d="M2262.57,6958.61c-59.475,15.292 -103.438,4.875 -128.034,-5.042c-6.341,18 -14.75,40.625 -10.291,53.625c5.458,15.959 13.233,19.584 20.1,19.75c54.325,1.459 198.995,3.375 240.421,3.917c5.787,0.083 8.974,-6.667 5.258,-11.125c-10.275,-12.292 -123.021,-58.417 -127.454,-61.125Z" style="fill:#f47458;fill-rule:nonzero;"/><path d="M2097.99,4557.19c3.383,18.5 -3.43,35.459 -15.221,37.875c-11.792,2.417 -24.096,-10.583 -27.484,-29.083c-3.387,-18.5 3.425,-35.458 15.217,-37.875c11.792,-2.458 24.096,10.583 27.488,29.083Z" style="fill:#f7a491;fill-rule:nonzero;"/><path d="M2166.01,4621.23l52.571,2.375c0,-0 -2.117,19.917 -25.262,19.542c-28.229,-0.459 -27.309,-21.917 -27.309,-21.917Z" style="fill:#fff;fill-rule:nonzero;"/><path d="M6649.16,429.043c6.584,0.271 24.5,6.275 50.75,55.855c33.501,63.312 82.459,254.579 82.459,254.579l-146.167,54.429l-18.792,-39.921l-30.916,-307.342c-0,0 60.875,-17.674 62.666,-17.6Z" style="fill:#dd513a;fill-rule:nonzero;"/><path d="M6455.95,401.477c41.833,0.054 145.208,12.25 193.208,27.583c0,0 35.292,303.054 -31.75,533.334c-14.958,51.549 12.417,213.687 12.417,213.687l-433.083,-5.713c-0,0 51.333,-391.979 32,-455.295c-19.333,-63.313 -19.792,-283.975 -19.792,-283.975c0,-0 2.958,-0.463 97.292,-16.767c44,-7.609 105.125,-12.913 149.708,-12.854Z" style="fill:#f47458;fill-rule:nonzero;"/><path d="M6405.49,1738.56c-0,0 9.583,110.583 27.208,141.204c17.625,30.621 -0.917,82.679 -1.834,89.826c-0.958,7.145 -37.082,17.354 -94.583,11.229c-57.5,-6.125 -56.583,-19.392 -51.916,-40.829c4.625,-21.438 35.208,-48.996 37.083,-69.413c1.833,-20.413 -17.625,-93.908 -17.625,-93.908l101.667,-38.109Z" style="fill:#f7a491;fill-rule:nonzero;"/><path d="M6580.95,1084.81c-0,0 298.958,-16.6 365.75,23.829c66.75,40.434 -47.458,238.863 -47.458,238.863c-0,0 -208,-9.588 -615.459,13.925c-96.5,5.571 -104.833,-251.584 -86.792,-272.863c18.042,-21.279 383.959,-3.754 383.959,-3.754Z" style="fill:#e0973f;fill-rule:nonzero;"/><path d="M6329.12,1989.41c-59.209,-6.308 -51.876,-35.387 -47.125,-57.462c3,-13.821 20,-30.113 30.124,-45.525c5.292,4.212 13.876,11.654 39.584,19.25c26.708,7.883 63.292,-7.725 86.625,-17.496c8.292,30.929 8.666,70.371 7.875,76.354c-0.917,7.358 -57.917,31.183 -117.083,24.879Z" style="fill:#dd513a;fill-rule:nonzero;"/><path d="M6361.78,1298.68c11.959,90.383 71.084,540.321 71.084,540.321l-137.209,17.012c0,0 -168.75,-587.275 -160.083,-677.1c8.625,-89.829 71.792,-97.383 71.792,-97.383c-0,0 122.791,-22.104 154.416,217.15Z" style="fill:#f7cc7f;fill-rule:nonzero;"/><path d="M6204.24,464.785c40.458,-15.192 60.291,349.654 65.749,499.825c71.709,6.9 196.709,0.054 227.792,-2.283c14.667,-1.1 48.417,-13.459 62.959,-15.367c14.916,-1.954 28.458,-2.971 35.791,-1.696c2.667,0.471 77.417,31.033 83.792,37.738c7.958,8.312 29.375,29.279 25.75,38.35c-3.583,9.066 -41.208,-25.263 -41.208,-25.263l-18.376,-10.312c22.876,22.35 66.501,51.792 60.251,62.512c-6.167,10.455 -45.5,-19.425 -73.584,-39.783c24.084,21.737 53.958,60.638 47.084,66.7c-6.208,5.45 -40.209,-39.583 -76.542,-52.554c-13.459,-4.804 -26.917,8.504 -37.5,10.112c-7.791,1.184 -19.791,3.696 -27.459,1.529l-39.333,-11.162c-13.416,1.212 -13.75,9.146 -27.291,12.025c-15.709,3.346 -41.5,6.867 -61.501,11.758c-115.291,28.159 -153.708,41.238 -188.999,41.217c-106.876,-0.067 -113.084,-587.45 -17.375,-623.346Z" style="fill:#f7a491;fill-rule:nonzero;"/><path d="M6127.37,807.31c-7.584,-153.821 -6.458,-343.416 79.791,-375.763c34,-12.766 94,63.98 83.209,378.888c-46.042,3.8 -113.626,6.863 -163,-3.125Z" style="fill:#dd513a;fill-rule:nonzero;"/><path d="M6806.78,1833.15c0,-0 -12,38.391 9.459,63.775c21.416,25.387 110.499,50.291 122.208,64.041c11.708,13.751 10.792,25.463 10.792,25.463l-250.042,-6.884l2.75,-75.512l11.5,-54.267l93.333,-16.616Z" style="fill:#f7a491;fill-rule:nonzero;"/><path d="M6831.78,1909.59c0,-0 -64.25,25.988 -95.291,10.6c-31.042,-15.383 -30.084,-19.646 -39.084,-13.908c-8.958,5.733 -12.166,76.525 -12.166,76.525l281.125,8.262c19.583,-0.45 29.458,-14.858 13.583,-27.195c-10.917,-8.459 -23.5,-14.121 -30.667,-18.226c-22,-12.612 -117.5,-36.058 -117.5,-36.058Z" style="fill:#dd513a;fill-rule:nonzero;"/><path d="M6797.28,1155.67c19.334,-40.671 63.292,-93.621 140.625,-61.729c73.75,30.416 93.542,105.17 70.292,181.716c-23.292,76.55 -176.5,526.538 -181.833,588.404l-122.334,0.813c0,-0 22.25,-356.309 27.709,-442.433c5.25,-82.867 32.083,-196.384 65.541,-266.771Z" style="fill:#f7cc7f;fill-rule:nonzero;"/><path d="M6995.87,741.218l-408.917,0c-10.792,0 -20.542,6.559 -24.667,16.605l-125.875,308.112l-225.458,0c-6.292,0 -11.375,5.125 -11.375,11.442c0,6.325 5.083,11.446 11.375,11.446l641.625,-0c17.625,-0 33.625,-10.388 40.833,-26.534l126.792,-283.362c7.917,-17.7 -5,-37.709 -24.333,-37.709Z" style="fill-rule:nonzero;"/><path d="M6775.7,920.635c-2.75,13.842 -14.792,23.096 -26.875,20.671c-12.042,-2.421 -19.625,-15.608 -16.875,-29.446c2.792,-13.837 14.833,-23.096 26.917,-20.671c12.042,2.421 19.625,15.609 16.833,29.446Z" style="fill:#fff;fill-rule:nonzero;"/><path d="M6553.16,31.335c-12.334,-4.15 -24.459,-8.833 -36.167,-14.483c-13.25,-6.388 -30.417,-13.867 -41.25,-15.538c-22.834,-3.525 -62.042,-1.175 -83.709,22.309c-26.958,29.258 -74.875,5.283 -65.208,158.521c10.917,173.445 107.375,154.412 109.709,151.475c2.333,-2.938 85.999,-110.963 85.999,-110.963c0,0 29.25,63.996 29.25,61.646c0,-2.267 149.375,-203.113 1.376,-252.967Z" style="fill:#0e2e35;fill-rule:nonzero;"/><path d="M6479.91,346.427l8.334,61.975c-0,-0 18.666,89.291 -5.333,106.504c-24,17.213 -102.043,-109.05 -102.043,-109.05l8.251,-157.042l90.791,97.613Z" style="fill:#f7a491;fill-rule:nonzero;"/><path d="M6386.45,299.71c19.834,53.567 67.042,86.492 100.542,99.262l-7.084,-52.545l-90.791,-97.613l-2.667,50.896Z" style="fill:#f47458;fill-rule:nonzero;"/><path d="M6474.99,77.918c50.833,-8.204 96.458,32.684 95.166,83.579c-0.541,22.126 -2.333,49.747 -6.958,79.492c-11.041,71.542 -59.875,134.542 -92.125,128.917c-32.292,-5.625 -113.5,-67.342 -99.208,-169.15c8.833,-62.858 49.791,-114.221 103.125,-122.838Z" style="fill:#f7a491;fill-rule:nonzero;"/><path d="M6394.28,212.906c-2.708,15.733 -15.333,26.675 -28.166,24.442c-12.792,-2.238 -21,-16.805 -18.25,-32.538c2.708,-15.729 15.291,-26.671 28.125,-24.438c12.833,2.234 20.999,16.8 18.291,32.534Z" style="fill:#f7a491;fill-rule:nonzero;"/><path d="M6375.99,180.372c-0,0 39.041,9.696 53.5,-15.404c14.5,-25.095 66.291,-79.258 132.083,-56.8c65.833,22.455 -57.917,-54.604 -63.167,-54.604c-5.291,0 -68.458,-0.437 -68.458,-0.437c-0,-0 -48.708,40.071 -50.458,44.471c-1.792,4.404 -15.834,52.4 -15.834,52.4l12.334,30.374Z" style="fill:#0e2e35;fill-rule:nonzero;"/><path d="M6447.41,285.094l71,13.574c0,0 -6.792,26.746 -38.166,21.679c-38.292,-6.17 -32.834,-35.253 -32.834,-35.253Z" style="fill:#fff;fill-rule:nonzero;"/><path d="M5246.28,5228.73c2.709,9.375 4.25,12.458 7.709,18.75c22.249,40.541 73.916,98.375 73.916,98.375l40,-90.042c0,0 -6.541,-28.291 -17.833,-68.708c-38.583,10.083 -75.375,15.917 -103.792,41.625Z" style="fill:#f8a492;fill-rule:nonzero;"/><path d="M5475.41,5150.65c0,-0 -222.916,96 -230.125,94.166c-4.624,-1.208 -91.416,-146.458 -92.375,-283.083c-0.416,-63.083 65.125,-139 138.209,-123.959c36.833,7.542 36.25,17.792 90.708,96.917c54.458,79.125 93.583,215.959 93.583,215.959Z" style="fill:#13375b;fill-rule:nonzero;"/><path d="M5665.66,6871.61l-5.292,87.708c-1.958,11.125 -9.625,38.584 -9.625,48.709c-0,37.958 180.25,-32.25 139.875,-49.084c-3.667,-1.5 -22.833,-13 -24.042,-25.916c-1.834,-19.917 -6.542,-60.209 -6.542,-60.209l-94.374,-1.208Z" style="fill:#f7a491;fill-rule:nonzero;"/><path d="M5790.16,6958.61c-0,-0 -42.334,11.583 -64.001,14.5c-21.666,2.917 -50.25,-21.542 -65.583,-14.917c-16.875,7.25 -16.208,72.667 -16.208,72.667c-0,-0 226.916,18.625 290.75,-0.625c25.291,-7.667 -58.458,-44.583 -144.958,-71.625Z" style="fill:#dd513a;fill-rule:nonzero;"/><path d="M5296.95,6871.61l-5.333,87.708c-1.917,11.125 -9.584,38.584 -9.584,48.709c0,37.958 180.25,-32.25 139.834,-49.084c-3.625,-1.5 -28.459,-21.625 -29.667,-34.541c-1.875,-19.875 -0.875,-51.584 -0.875,-51.584l-94.375,-1.208Z" style="fill:#f7a491;fill-rule:nonzero;"/><path d="M5421.45,6958.61c0,-0 -42.333,11.583 -64,14.5c-21.667,2.917 -50.25,-21.542 -65.584,-14.917c-16.874,7.25 -17.541,72.667 -17.541,72.667c-0,-0 227.958,21.708 292.083,-0.625c24.875,-8.708 -58.458,-44.583 -144.958,-71.625Z" style="fill:#dd513a;fill-rule:nonzero;"/><path d="M5352.03,5277.27l158.75,-222.417c0.667,-1.917 2.125,-5.917 4.334,-12c7.999,-22.083 24.624,-68 39.125,-113.667l0.124,-0.5c4.584,-15.958 14.209,-43.792 23.542,-70.75c10.375,-29.958 23.25,-67.125 23.709,-73.458c-0.376,-1.083 -1.125,-3.042 -2.125,-5.625c-5.834,-15.083 -13.709,-51.083 -16.501,-66.708c-1.749,-9.959 -3.541,-34.209 8.334,-34.209c18.583,0 9.75,24.209 18.333,39.292c3.125,-10.083 9.5,-30.125 12.875,-50.375l3.125,-47.292c0.583,-3.541 -3.208,-29.625 9.875,-29.625l0.625,0c11.709,0.875 11.459,28.584 16.334,75.5c1.541,-5.416 3.083,-11.916 4.25,-17.875c-0.125,-3.208 2.208,-17.333 3.958,-24.75c-2.333,-13.083 -0.958,-33.708 12.958,-31.75c6.959,0.959 6.375,29.75 6.375,29.75c-0.041,3.917 -0.458,34.334 -0.249,40.375c1.416,-10.208 6.999,-53.75 17.916,-53.75c9.042,0 9.791,11.709 9.583,21c-0.083,5.459 -5.791,52.625 -6.083,58.125c4.25,-7.166 9.292,-48.708 13.541,-48.708c17.626,-0 11.251,59.083 4.751,74.458c-0.584,1.584 -1.25,4.667 -2,8.25c-2.209,10.542 -5.876,28.167 -15.125,43.959c-11.084,18.958 -26.375,49.125 -28.709,53.75c-1.708,9.416 -7.041,43.291 -13.708,85.916c-2.875,18.208 -6,38.209 -9.25,58.917l-0.167,-0.042c-0.625,4.5 -3.916,18.75 -16.5,72.209c-17.167,73.166 -18.958,76.333 -19.708,77.666c-7.458,13.209 -178.625,245.625 -185.917,255.542l-4.292,5.833l-72.083,-97.041Z" style="fill:#f7a491;fill-rule:nonzero;"/><path d="M5647.28,4758.61c0,-0 -12.874,-32.958 -35.791,-33.042c-0,0 12.791,-4.625 23.791,4.084c11,8.708 12,28.958 12,28.958Z" style="fill:#f47458;fill-rule:nonzero;"/><path d="M5313.7,4694.94l-20.458,129.209c-0,-0 77.875,62.541 123.25,49.333c38.083,-11.042 12,-60.833 12,-60.833c-0,-0 -20.292,-69 -14.084,-105.167c6.209,-36.167 -100.708,-12.542 -100.708,-12.542Z" style="fill:#f7a491;fill-rule:nonzero;"/><path d="M5328.37,4733.98c19.5,9.25 58.083,21.792 88.125,24.875c-2.875,-18.125 -4.5,-37.25 -2.084,-51.375c2.876,-16.667 -18.375,-20.625 -42.041,-20.042c-31.042,2.625 -58.667,7.5 -58.667,7.5l-3.958,24.834c5.917,6.208 12.125,11.166 18.625,14.208Z" style="fill:#fe875e;fill-rule:nonzero;"/><path d="M5215.41,4545.86c-3.208,-0 30.792,144.375 83.417,169.208c52.583,24.834 131.041,11.917 145.75,-27c16.292,-43 -43.083,-190.291 -117.083,-209c-74,-18.708 -112.084,66.792 -112.084,66.792Z" style="fill:#f7a491;fill-rule:nonzero;"/><path d="M5276.28,4413.19c-42,24.25 -61.291,60.209 -67.792,74.917c-19.708,9.375 -43.583,29.583 -55.041,84.167c-14.083,67.041 36,118.75 89.083,134.291c53.084,15.542 61.292,50.667 61.292,50.667l6.042,-37.792c-0,0 -11.834,-32.916 -29.583,-49.416c-17.75,-16.459 8.416,-40.459 10.708,-60.042c1.792,-15.083 -9.334,-44.375 -6.917,-69.125c-0,0 29.5,-44.708 58.583,-55.75c49.584,-18.833 -12.458,-103 -66.375,-71.917Z" style="fill:#13375b;fill-rule:nonzero;"/><path d="M5298.66,4635.11c6.875,16.667 4.042,33.25 -6.292,37c-10.333,3.708 -24.291,-6.75 -31.166,-23.417c-6.875,-16.667 -4.083,-33.25 6.292,-37c10.333,-3.75 24.291,6.75 31.166,23.417Z" style="fill:#f7a491;fill-rule:nonzero;"/><path d="M5494.62,5280.81l306.208,-49.916c-0,-0 -34.833,-87.709 -47.292,-87.709c-12.458,0 -231.542,95.667 -231.542,95.667l-17.416,34.958l-9.958,7Z" style="fill:#f8a492;fill-rule:nonzero;"/><path d="M5337.78,5490.77c0,-0 -30.541,147.666 -18.125,259.666c12.459,111.959 13.459,509.709 13.459,509.709l-47.542,636.416l112.708,2.459c0,-0 133.667,-636.125 131.167,-619.792c-2.458,16.333 44.833,-447.875 44.833,-447.875l-159.333,-354.583l-77.167,14Z" style="fill:#184655;fill-rule:nonzero;"/><path d="M5367.66,5483.77c0,-0 -19.916,132.958 4.959,191.291c24.916,58.334 213.541,630.542 216.041,677.167c2.5,46.667 65.209,562.333 65.209,562.333l131.041,-3.666l28.375,-573.334l-59.375,-720.583l-57.625,-182.208l-328.625,49Z" style="fill:#13375b;fill-rule:nonzero;"/><path d="M5293.24,4824.15c-0,-0 32.333,21.208 62.458,18.75c30.167,-2.417 72.792,-30.25 72.792,-30.25l-5.959,-20.084c0,0 -77.958,-11.375 -79.916,-10.125c-1.958,1.209 -49.375,41.709 -49.375,41.709Z" style="fill:#f7a491;fill-rule:nonzero;"/><path d="M5637.7,5138.86c-0,-0 115.833,109.333 168.125,90.667c52.292,-18.667 73.917,-82.459 -53.666,-175.792c-114.167,-83.542 -114.459,85.125 -114.459,85.125Z" style="fill:#f8a492;fill-rule:nonzero;"/><path d="M5716.2,5273.81c-17.208,-93.583 -141.917,-384.875 -151.875,-438.541c-4.834,-26.084 -72.125,-26.667 -136.166,-23.25c-67.667,3.583 -134.917,12.125 -134.917,12.125c-0,-0 -59.917,9.875 -86.25,34.541c-26.375,24.709 -33.376,93 4.5,222.667c29.916,102.375 67,158.583 85.375,233.125c3.708,25 6.875,49.667 11.124,78.5c6.709,111.5 -0.082,258.75 -0.082,258.75c-0,-0 326.124,67.667 448.124,-35c0,-0 -22.208,-247 -39.833,-342.917Z" style="fill:#355389;fill-rule:nonzero;"/><path d="M5799.32,5072.56c-0,0 -127.958,105.625 -135.417,105.625c-4.791,0 -182.624,-130.792 -223.667,-238.25c-22.666,-59.416 24.918,-125.875 79.251,-125.666c37.708,0.166 54.458,9.875 129.124,72.833c74.709,63 150.709,185.458 150.709,185.458Z" style="fill:#466eb6;fill-rule:nonzero;"/><path d="M3548.15,357.29c20.971,-50.467 42.304,-101.038 96.713,-126.597c44.033,-20.683 90.041,-12.895 129.166,16.525c110.875,83.367 14.25,175.213 140.459,333.296c39.208,49.121 86.666,88.784 110.166,146.346c32.875,80.571 -6.292,119.263 -69.083,157.85c-300.358,184.633 -457.813,-194.454 -452.162,-281.175c4.208,-64.512 31.241,-213.758 44.741,-246.245Z" style="fill:#13375b;fill-rule:nonzero;"/><path d="M3236.42,1339.86c12.666,-2.004 43.421,-24.033 54.279,-26.038c8.417,-1.554 26.613,-4.308 34.367,-5.471c9.5,-35.474 57.745,-228.874 63.15,-285.566c5.854,-61.417 49.283,-327.121 49.283,-327.121l112.463,20.442c-0,-0 -46.705,204.4 -59.621,303.517c-11.088,85.124 -104.492,276.529 -116.367,296.729c-0.017,0.487 -0.021,0.958 -0.054,1.475c-1.809,30.041 -16.279,20.029 -16.279,20.029l-23.521,6.008c-0,0 -83.225,8.009 -88.654,10.013c-5.425,2.004 -21.709,-12.017 -9.046,-14.017Z" style="fill:#f7a491;fill-rule:nonzero;"/><path d="M3535.56,540.339c-79.505,26.959 -124.709,243.092 -124.709,243.092c0,-0 124.734,34.821 156.692,16.558c-0,0 36.275,-160.787 49.271,-155.166l-81.254,-104.484Z" style="fill:#6a97ce;fill-rule:nonzero;"/><path d="M2920.59,1713.28c-24.33,64.154 -36.951,125.954 -38.088,133.429c-0.546,3.591 4.529,21.033 4.058,24.767c-48.833,66.604 -119.012,81.175 -179.166,85.42c30.658,-29.929 75.679,-58.287 77.841,-67.766c3.442,-15.092 21.963,-82.279 31.071,-175.392c37.417,17.312 62.804,3.592 104.284,-0.458Z" style="fill:#f7a491;fill-rule:nonzero;"/><path d="M3612.49,995.531l107.446,302.604c-0,0 -172.659,32.5 -237.209,44.338c-64.546,11.833 -425.196,27.591 -434.333,33.991c-6.784,4.754 -81.284,245.708 -114.563,378.575c-37.754,8.309 -102.379,-1.67 -136.758,-13.516c18.575,-190.105 85.667,-491.288 107.15,-524.075c34.987,-53.4 708.267,-221.917 708.267,-221.917Z" style="fill:#256653;fill-rule:nonzero;"/><path d="M3192.77,1845.93c-11.875,67.575 -12.692,130.646 -12.405,138.2c0.134,3.633 8.388,19.808 8.625,23.566c-35.487,74.58 -101.691,102.042 -159.987,117.488c24.508,-35.146 63.417,-71.442 63.767,-81.159c0.554,-15.47 6.154,-84.937 -2.35,-178.104c40,9.992 62.37,-8.241 102.35,-19.991Z" style="fill:#f7a491;fill-rule:nonzero;"/><path d="M3737.91,1011.24l41.709,71.179c63.416,108.367 14.791,247.788 -102.279,293.209c-0.634,0.246 -1.259,0.487 -1.871,0.721c-61.184,23.725 -412.492,106.783 -420.267,114.783c-5.775,5.942 -33.8,256.588 -41.592,393.337c-35.529,15.234 -100.879,17.542 -136.866,12.346c-17.38,-190.216 -7.917,-498.633 7.041,-534.866c24.363,-59.013 654.125,-350.709 654.125,-350.709Z" style="fill:#327f6b;fill-rule:nonzero;"/><path d="M3174.97,1986.23c9.354,-10.329 43.696,46.525 52.275,58.658c9.65,13.646 6.904,23.93 5.75,26.063c-3.046,5.629 -184.129,112.162 -228.292,119.75c-4.17,0.716 -11.4,-1.917 -13.22,-3.529c-17.259,-15.28 62.183,-128.088 97.858,-142.913c23.054,-9.583 43.55,-11.55 85.629,-58.029Z" style="fill:#13375b;fill-rule:nonzero;"/><path d="M2876.72,1848.75c11.125,-8.396 34.204,53.887 40.358,67.412c6.925,15.208 2.3,24.8 0.763,26.679c-4.046,4.959 -201.888,75.675 -246.688,74.85c-4.229,-0.079 -10.837,-4.025 -12.321,-5.945c-14.096,-18.242 85.084,-114.167 122.9,-122.046c24.446,-5.092 44.946,-3.184 94.988,-40.95Z" style="fill:#13375b;fill-rule:nonzero;"/><path d="M3610.96,539.718l-0.004,0c-2.054,0.013 -5,-0.708 -8.016,-1.654c-14.763,-2.641 -47.042,-6.508 -72.163,4.092c-30.55,12.887 -77.892,133.312 -75.075,256.929c1.133,18.896 2.279,35.817 3.254,47.612c7.713,93.371 34.5,268.588 35.946,269.517c36.442,23.455 256.3,-67.479 271.425,-87.45c15.125,-19.979 24.042,-262.679 31.375,-274.779l14.458,-211.075c-25.5,-7.612 -162.108,-3.471 -201.2,-3.192Z" style="fill:#9bc1f9;fill-rule:nonzero;"/><path d="M3700.07,461.989c-0,0 -14.159,73.221 -11.325,102.104c2.833,28.888 -10.796,121.976 -71.934,122.284c-61.137,0.304 -11.608,-118.354 -5.85,-146.659c5.759,-28.304 7.121,-115.921 7.121,-115.921l81.988,38.192Z" style="fill:#f7a491;fill-rule:nonzero;"/><path d="M3616.82,467.756c0.954,-23.971 1.262,-43.959 1.262,-43.959l81.988,38.192c-0,0 -2.896,14.971 -5.805,34.046c-35.887,7.212 -61.895,-6.071 -77.445,-28.279Z" style="fill:#f47458;fill-rule:nonzero;"/><path d="M3730.03,259.898c0,-0 31.588,17.524 43.129,55.512c11.584,37.987 -1.583,136.008 -83.191,159.659c-81.609,23.654 -116.959,-53.963 -100.15,-114.646c16.804,-60.684 53.366,-137.529 140.212,-100.525Z" style="fill:#f7a491;fill-rule:nonzero;"/><path d="M3579.61,336.902c1.6,16.3 10.592,28.754 20.088,27.825c9.496,-0.93 15.892,-14.9 14.296,-31.196c-1.6,-16.3 -10.592,-28.758 -20.088,-27.825c-9.491,0.929 -15.891,14.896 -14.296,31.196Z" style="fill:#f7a491;fill-rule:nonzero;"/><path d="M3720.46,254.943c0,0 14.78,109.346 50.155,129.079c35.333,19.734 20.541,68.238 20.541,68.238c0,0 32.084,-112.633 4.125,-148.808c-27.958,-36.175 -74.821,-48.509 -74.821,-48.509Z" style="fill:#13375b;fill-rule:nonzero;"/><path d="M3749.66,399.719c-9.583,14.245 -9.541,31.045 0.084,37.529c9.625,6.479 25.208,0.183 34.791,-14.063c9.584,-14.25 9.584,-31.05 -0.083,-37.529c-9.625,-6.479 -25.208,-0.184 -34.792,14.063Z" style="fill:#f7a491;fill-rule:nonzero;"/><path d="M3630.77,405.802l57.517,14.475c-0,-0 -6.913,21.846 -32.396,16.22c-31.071,-6.858 -25.121,-30.695 -25.121,-30.695Z" style="fill:#fff;fill-rule:nonzero;"/><path d="M3916.32,1330.74c2.754,-0.137 247.962,-12.467 247.962,-12.467c0,0 -101.749,73.117 -103.833,73.117c-2.083,0 -81.042,-31.162 -84.5,-31.162c-3.458,-0 -59.629,-29.488 -59.629,-29.488Z" style="fill:#50bfa5;fill-rule:nonzero;"/><path d="M8880.7,6875.19l4.875,86.167c1.791,10.917 8.834,37.917 8.834,47.833c-0,37.292 -165.459,-31.666 -128.376,-48.166c3.334,-1.5 20.917,-12.834 22.042,-25.5c1.708,-19.584 6,-59.125 6,-59.125l86.625,-1.209Z" style="fill:#f7a491;fill-rule:nonzero;"/><path d="M8764.45,6961.4c-0,-0 38.833,11.375 58.708,14.25c19.917,2.833 46.125,-21.167 60.208,-14.667c15.5,7.125 14.876,71.375 14.876,71.375c-0,-0 -208.292,18.292 -266.876,-0.625c-23.207,-7.5 53.668,-43.792 133.084,-70.333Z" style="fill:#f7cc7f;fill-rule:nonzero;"/><path d="M9156.2,6870.73l4.917,86.167c1.75,10.916 8.791,37.916 8.791,47.833c0,37.292 -165.458,-31.667 -128.375,-48.167c3.375,-1.5 26.167,-21.25 27.25,-33.958c1.709,-19.542 0.834,-50.667 0.834,-50.667l86.583,-1.208Z" style="fill:#f7a491;fill-rule:nonzero;"/><path d="M9041.95,6956.19c-0,0 38.834,11.417 58.75,14.25c19.875,2.875 46.125,-21.125 60.167,-14.666c15.5,7.166 16.124,71.416 16.124,71.416c0,0 -206.833,8.5 -268.124,-0.625c-24.084,-3.583 53.666,-43.791 133.083,-70.375Z" style="fill:#f7cc7f;fill-rule:nonzero;"/><path d="M9107.16,5504.65c-0,-0 28.042,145.083 16.584,255.125c-11.417,110 -12.292,500.791 -12.292,500.791l52.709,625.042l-112.584,2.625c0,-0 -122.666,-624.958 -120.417,-608.917c2.292,16.042 -41.125,-440.041 -41.125,-440.041l146.251,-348.375l70.874,13.75Z" style="fill:#355389;fill-rule:nonzero;"/><path d="M9067.91,5410.98c0,-0 127.042,133.792 79.792,279.917c-19,58.708 -196,619.5 -198.292,665.333c-2.291,45.833 -59.875,552.458 -59.875,552.458l-120.291,-3.625l-26.042,-563.291l34.375,-758.959l73.042,-128l217.291,-43.833Z" style="fill:#466eb6;fill-rule:nonzero;"/><path d="M8296.7,4975.48c41.625,-46.417 132.125,-112.459 132.125,-112.459c0,0 53.958,-46.041 75.917,-53.624c32.375,-11.167 87.792,-40.917 168,80.583c57.333,86.958 419.375,537.167 478.791,552.292l-388.083,185.666c-10.625,-88.666 -202.416,-256.208 -230,-287.458c-61.709,-69.833 -276.129,-321.042 -236.75,-365Z" style="fill:#f47458;fill-rule:nonzero;"/><path d="M8314.83,4786.86l120.875,70.75c-0,-0 3.417,103.208 -36.125,130c-33.166,22.5 -58.375,-31.5 -58.375,-31.5c0,-0 -44.958,-62.292 -79.125,-81.667c-34.125,-19.416 52.75,-87.583 52.75,-87.583Z" style="fill:#f7a491;fill-rule:nonzero;"/><path d="M8335.08,4832.27c-4.542,21.541 -15.042,52.666 -31.375,78.291c-13.291,-14.416 -28.292,-28.542 -41.625,-36.125c-15.75,-8.958 -5.709,-28.291 9.625,-46.541c21.709,-22.584 43.125,-41.042 43.125,-41.042l23.208,13.583c1.5,8.834 -1.417,24.667 -2.958,31.834Z" style="fill:#f47458;fill-rule:nonzero;"/><path d="M8251.83,4609.48c2.042,-2.5 101.416,121.208 89.167,179.208c-12.25,58.042 -72.338,110.959 -114.083,96.417c-46.167,-16.125 -132.042,-161.75 -101.25,-232.458c30.791,-70.667 126.166,-43.167 126.166,-43.167Z" style="fill:#f7a491;fill-rule:nonzero;"/><path d="M8143.03,4570.48c43.329,-24.125 114.001,-31.042 166.792,-3.375c64.917,33.958 79.708,119.5 59.375,171.667c-20.334,52.166 2.958,81.625 2.958,81.625l-34.458,-20.084c-0,0 -20.125,-31.416 -22.75,-56.416c-2.625,-25.042 -39.125,-20.584 -56.916,-31.959c-13.751,-8.75 -31.25,-37.125 -53.459,-51.875c0,0 -55.875,-6.833 -83.375,8.584c-46.875,26.291 -40.208,-63.667 21.833,-98.167Z" style="fill:#13375b;fill-rule:nonzero;"/><path d="M8285.95,4732.81c-0.334,18.542 8.459,33.709 19.583,33.917c11.167,0.167 20.417,-14.708 20.75,-33.292c0.334,-18.541 -8.458,-33.75 -19.583,-33.916c-11.125,-0.167 -20.416,14.708 -20.75,33.291Z" style="fill:#f7a491;fill-rule:nonzero;"/><path d="M8184.16,4831.27l52.624,-39.334c0,0 13.917,21.292 -8.712,39.25c-27.621,21.917 -43.912,0.084 -43.912,0.084Z" style="fill:#fff;fill-rule:nonzero;"/><path d="M8052.03,5613.86c13.167,-19.25 18.917,-47.042 37.167,-68.25c6.083,-7.125 15.834,-15.125 26.917,-23.125c87.667,-51.292 316,-183.5 324.875,-193.75c10.541,-12.167 166.374,-271.083 166.374,-271.083l-139.957,-31.709l-136.792,241.542c-11.417,9.042 -228.546,169.542 -228.546,169.542c-0,-0 -43.162,33.708 -66.788,49.5c-11.916,6.958 -23.458,11.458 -33.583,15c-12.75,4.416 -37,16.541 -41.917,20.833c-5.708,5.042 -17.125,15.75 -23.916,22.292c-6.792,6.583 -15,13.958 -18.167,17.875c-1.959,2.375 -7.958,5.625 -12.334,7.833c-6.583,3.25 -5.708,12.958 1.334,14.958c6.625,1.875 15.625,-2.291 21.167,-4.875c15.75,-7.416 34.958,-27.333 35.958,-24.916c1,2.458 -18.5,45.166 -20.417,50.208c-1.875,5.042 -24.291,54.833 -25.458,65.917c-1.125,11.125 5.542,13.666 10.542,9.625c4.291,-3.5 40.292,-70 40.292,-70c-0,-0 4.624,-8.459 6.416,-3.625c1.792,4.875 -30.792,65.291 -34,75.208c-3.167,9.917 -0.625,18.042 8.542,14.583c11.166,-4.25 41.958,-70.875 41.958,-70.875c0,0 4,-8.291 6.75,-5.416c2.708,2.875 -25.833,53.833 -26.167,59.708c-0.333,5.875 5,11.667 12.709,6.75c9.041,-5.792 36.041,-65.5 36.041,-65.5c0,-0 3.334,-3.958 4.375,-1.167c1.042,2.75 -20.208,47.959 -18.625,54.542c1.334,5.542 6.334,4.417 6.334,4.417c11.125,-0 25.75,-46.792 38.916,-66.042Z" style="fill:#f8a492;fill-rule:nonzero;"/><path d="M8569.03,5194.44c0,0 -45.583,-14.5 -74.791,-27.916c-19.583,-8.959 -105,-51.459 -105,-51.459c-0,0 36.833,-155.333 61.708,-211.208c91.375,-204.958 195.167,-63.583 209.25,-30.625c31.541,73.667 -91.167,321.208 -91.167,321.208Z" style="fill:#355389;fill-rule:nonzero;"/><path d="M5385.2,4657.69l43.375,-32.458c0,0 11.5,17.542 -7.166,32.375c-22.751,18.083 -36.209,0.083 -36.209,0.083Z" style="fill:#fff;fill-rule:nonzero;"/><path d="M10477.5,7027.77l-10077.9,-0c-12.6,-0 -22.813,13.041 -22.813,29.125c0,16.083 10.213,29.083 22.813,29.083l10077.9,-0c12.583,-0 22.791,-13 22.791,-29.083c0,-16.084 -10.208,-29.125 -22.791,-29.125Z" style="fill:#184655;fill-rule:nonzero;"/><path d="M4169.91,1318.03c-1.042,-2.617 -3.333,-2.671 -5.667,-2.742c-22.749,-0.696 -45.499,-1.716 -68.041,-5.091c-3.792,-0.563 -7.5,-1.409 -10.958,-2.792c-6.292,-2.509 -12.459,-2.446 -18.834,-0.692c-3.416,0.95 -6.917,1.129 -10.458,1.113c-11.417,-0.05 -44.083,-11.159 -60.833,-14.088c-3.834,-0.671 -6.875,-3.566 -7.834,-7.337c-16.5,-65.25 -51.875,-211.646 -56.458,-259.788c-5.875,-61.562 -48.379,-339.121 -48.379,-339.121l-113.746,31.721c0,0 46.792,204.879 59.75,304.225c10,76.713 86.667,239.5 110.709,286.309c11.708,34.837 38.082,35.808 44.166,36.554c3.5,0.429 6.75,2.146 9.041,4.825c4.125,4.837 8.875,9.05 14.334,12.483c4.042,2.546 7.125,5.863 9.792,9.742c4.833,7.058 9.166,14.429 13.458,21.825c2.833,4.904 5.792,6.454 10,5.3c4.5,-1.238 6.667,-4.575 6.583,-10.075c-0.124,-8.121 -2.749,-15.475 -6.792,-22.404c-3.833,-6.492 -3.541,-10.267 0.876,-16.242c2.583,-3.434 5.208,-6.763 8.541,-9.492c3.417,-2.779 7.042,-4.887 11.667,-4.237c8.167,2.041 16.416,3.695 24.791,4.625l6.876,1.4l3.75,0.8c0.583,0.15 12.708,1.475 16.833,1.479c3.333,0.004 8.708,0.225 13.292,0.45c4.166,0.2 12.958,-1.967 13.25,-1.975c4.041,-0.092 7.625,-1.55 10.625,-4.258c1.208,-1.109 2.417,-2.354 1.791,-4.234c-0.583,-1.733 -1.917,-2.467 -3.708,-2.783c-2.708,-0.492 -16.833,-2.208 -16.708,-2.809c4.208,0 17.333,-0.308 21.542,-0.42c5.666,-0.15 10.541,-2.175 14.458,-6.354c1.541,-1.655 3.333,-3.288 2.291,-5.917Z" style="fill:#f7a491;fill-rule:nonzero;"/><path d="M3813.53,542.46c56.125,-10.208 102.459,240.971 102.459,240.971c-0,-0 -124.75,34.821 -156.709,16.558c0,0 -36.271,-160.787 -49.271,-155.166l103.521,-102.363Z" style="fill:#9bc1f9;fill-rule:nonzero;"/><path d="M2456.1,5057.27c3.717,-10.667 -48.058,-19.251 -50.813,-30c-2.758,-10.792 65.371,-11.625 67.809,-21.084c4.496,-17.416 -74.671,-3.666 -73.113,-11.833c1.563,-8.125 82.5,-26.333 73.75,-40.333c-8.75,-14 -81.954,27.625 -84.175,18.166c-2.212,-9.5 71.563,-32.583 70.242,-53.416c-0.704,-11.125 -121.088,55.458 -135.05,49.416c-13.963,-6.041 15.017,-58.292 3.9,-66.083c-11.117,-7.75 -43.021,106.25 -50.692,110.042c-7.646,3.791 -170.3,96.625 -228.171,111.375c-7.025,-19.375 -22.216,-45.5 -28.416,-63.834c-32.471,23.084 -56.58,34.709 -90.092,55.75c24.279,60.834 58.833,127.459 75.75,135.125c51.5,23.25 250.683,-141.958 290.442,-170.208c39.791,-28.292 62.566,-19.125 89.475,-28.083c26.904,-8.917 65.437,15.625 69.154,5Z" style="fill:#f7a491;fill-rule:nonzero;"/><path d="M1924.33,5144.65c-0,-0 -44.583,-196.875 -36.85,-254c7.733,-57.125 75.621,-110.334 122.658,-90.625c47.038,19.791 68.359,294.625 68.359,294.625l-154.167,50Z" style="fill:#f7cc7f;fill-rule:nonzero;"/></svg>