<?xml version="1.0" encoding="UTF-8" standalone="no"?><!DOCTYPE svg PUBLIC "-//W3C//DTD SVG 1.1//EN" "http://www.w3.org/Graphics/SVG/1.1/DTD/svg11.dtd"><svg width="100%" height="100%" viewBox="0 0 4651 1276" version="1.1" xmlns="http://www.w3.org/2000/svg" xmlns:xlink="http://www.w3.org/1999/xlink" xml:space="preserve" xmlns:serif="http://www.serif.com/" style="fill-rule:evenodd;clip-rule:evenodd;stroke-linejoin:round;stroke-miterlimit:2;"><text x="31.068px" y="1249.04px" style="font-family:'Montserrat-Black', 'Montserrat';font-weight:900;font-size:1635.16px;fill:#fff;">V<tspan x="1275.42px 2662.03px 3564.64px " y="1249.04px 1249.04px 1249.04px ">OLT</tspan></text><rect x="282.722" y="104.675" width="859.697" height="329.716" style="fill:#fff;"/><rect x="463.074" y="387.874" width="425.478" height="429.635" style="fill:#fff;"/><path d="M709.733,0l-215.334,583.96l210.036,-54.104l-34.564,359.147l247.441,-569.082l-210.037,54.104l2.458,-374.025Z" style="fill:#12232e;fill-rule:nonzero;"/><ellipse cx="1962.27" cy="693.892" rx="380.523" ry="343.938" style="fill:#fff;"/><rect x="2959.89" y="104.615" width="272.178" height="862.672" style="fill:#fff;"/><rect x="3903.58" y="385.132" width="497.437" height="866.509" style="fill:#fff;"/><path d="M3570.17,100.913l-0,416.145l1079.95,0l-0,-416.145l-1079.95,0Z" style="fill:#fff;"/><path d="M2761.56,800.567l0,447.344l896.31,0l-0,-447.344l-896.31,-0Z" style="fill:#fff;"/><circle cx="1961.69" cy="675.552" r="104.167" style="fill:#fff;"/></svg>