<?xml version="1.0" encoding="UTF-8" standalone="no"?><!DOCTYPE svg PUBLIC "-//W3C//DTD SVG 1.1//EN" "http://www.w3.org/Graphics/SVG/1.1/DTD/svg11.dtd"><svg width="100%" height="100%" viewBox="0 0 3541 2872" version="1.1" xmlns="http://www.w3.org/2000/svg" xmlns:xlink="http://www.w3.org/1999/xlink" xml:space="preserve" xmlns:serif="http://www.serif.com/" style="fill-rule:evenodd;clip-rule:evenodd;stroke-linejoin:round;stroke-miterlimit:2;"><path d="M3453.34,313.636c-74.844,-154.792 -216.944,-284.688 -387.135,-309.202c-205.747,-29.635 -401.233,94.028 -559.167,229.15c-157.968,135.121 -309.219,292.309 -508.142,352.604c-355.834,107.83 -724.202,-127.708 -1096.01,-130.104c-242.761,-1.563 -484.358,102.777 -649.67,280.555c-615.886,662.379 -1.58,1725.4 704.097,2017.19c569.722,235.59 1252.33,102.482 1750.89,-260.191c475.52,-345.938 768.35,-953.195 822.777,-1538.96c4.288,-46.025 7.083,-91.893 8.403,-137.501c4.913,-171.875 -11.181,-348.732 -86.042,-503.541Z" style="fill:#fff;"/></svg>